<?xml version="1.0" standalone="no"?> <!DOCTYPE svg PUBLIC "-//W3C//DTD SVG 1.0//EN" "http://www.w3.org/TR/2001/REC-SVG-20010904/DTD/svg10.dtd" > <svg xmlns="http://www.w3.org/2000/svg" width="100%" height="100%">
<defs >
<font id="SunAntwerpen_700" horiz-adv-x="998" ><font-face
    font-family="SunAntwerpen"
    units-per-em="2000"
    panose-1="2 11 8 3 5 3 2 2 2 4"
    ascent="1800"
    descent="-400"
    alphabetic="0" />
<missing-glyph horiz-adv-x="1100" d="M900 200V900H200V200H900ZM500 700V800H800V300H700V500H500V600H700V700H500ZM100 100V1000H1000V100H100ZM300 300V800H400V400H600V300H300Z" />
<glyph unicode="&#xd;" glyph-name="CR" horiz-adv-x="0" />
<glyph unicode=" " glyph-name="space" horiz-adv-x="480" />
<glyph unicode="!" glyph-name="exclam" horiz-adv-x="718" d="M286 354L243 1350H557L513 354H286ZM558 122Q558 83 551 57T525 14T477 -10T400 -17Q353 -17 323 -10T275 13T250 55T243 120Q243 158 250 184T275 227T323 251T400 258Q447 258 477 251T526 228T551
187T558 122V122Z" />
<glyph unicode="&quot;" glyph-name="quotedbl" horiz-adv-x="932" d="M164 828L137 1350H386L360 828H164ZM569 828L542 1350H791L765 828H569Z" />
<glyph unicode="#" glyph-name="numbersign" horiz-adv-x="1028" d="M777 402L731 0H540L585 402H376L330 0H139L185 402H52V559H202L235 846H52V1002H253L292 1350H484L444 1002H654L693 1350H884L845 1002H976V846H827L794 559H976V402H777ZM636 846H426L393
559H602L636 846Z" />
<glyph unicode="$" glyph-name="dollar" horiz-adv-x="1000" d="M411 -214L394 6Q293 14 215 44T74 121L146 258Q174 243 208 231T278 209T352 194T424 189Q480 189 522 202T590 237T630 290T643 356Q643 401 620 433T557 491T469 539T368 585T267 640T178 711T116
809T92 941Q92 1007 112 1063T171 1164T266 1239T394 1282L411 1495H560L578 1289Q657 1282 728 1255T855 1185L784 1054Q759 1067 731 1078T671 1097T607 1109T538 1114Q493 1114 459 1102T403 1068T369 1020T357 963Q357 916 381 883T446 823T537 775T641 728T745
674T835 603T899 507T924 375Q924 307 902 246T835 137T727 56T578 10L560 -214H411Z" />
<glyph unicode="%" glyph-name="percent" horiz-adv-x="1410" d="M693 1051Q693 886 616 809T384 732Q302 732 246 750T156 806T108 905T93 1050Q93 1135 113 1196T172 1296T269 1353T403 1372Q485 1372 540 1353T630 1295T678 1195T693 1051V1051ZM502 1049Q502
1098 495 1132T475 1190T441 1223T393 1234Q369 1234 349 1226T315 1196T293 1140T285 1053Q285 1002 292 967T313 911T347 880T394 870Q422 870 442 880T475 913T495 968T502 1049V1049ZM1316 297Q1316 132 1238 55T1007 -22Q924 -22 868 -4T779 52T731 151T716
296Q716 381 736 442T795 542T892 599T1026 618Q1107 618 1162 599T1252 541T1301 441T1316 297V297ZM1124 295Q1124 344 1118 378T1098 436T1064 469T1015 480Q991 480 971 472T937 442T916 386T908 299Q908 248 915 213T936 157T970 126T1016 116Q1044 116 1064
126T1098 159T1117 214T1124 295V295ZM272 -43L139 34L1138 1393L1270 1316L272 -43Z" />
<glyph unicode="&amp;" glyph-name="ampersand" horiz-adv-x="1362" d="M1226 767Q1226 695 1214 626T1182 492T1132 371T1068 264Q1127 216 1168 191T1236 165H1295V7Q1284 2 1272 -3T1243 -12T1205 -18T1155 -21Q1132 -21 1106 -13T1049 13T982 54T905 110Q862
78 814 54T715 14T611 -11T503 -20Q389 -20 308 8T176 85T102 198T79 338Q79 406 97 462T147 564T222 649T316 722Q283 768 257 810T212 893T183 975T172 1056Q172 1124 196 1181T270 1281T393 1346T564 1370Q645 1370 709 1353T819 1302T888 1219T913 1108Q913
1039 891 985T831 884T739 798T622 716Q652 679 685 641T754 566T825 492T896 422Q918 459 934 501T961 586T977 675T982 767H1226ZM325 363Q325 313 340 275T383 211T452 172T541 159Q573 159 602 166T657 183T706 208T750 239Q709 276 668 316T586 399T507 486T433
574Q410 553 391 531T357 484T334 429T325 363V363ZM676 1091Q676 1116 669 1138T646 1177T605 1203T547 1212Q514 1212 490 1203T449 1176T424 1135T415 1081Q415 1057 421 1032T438 980T468 922T512 858Q558 892 589 921T640 977T668 1032T676 1091V1091Z" />
<glyph unicode="&apos;" glyph-name="quotesingle" horiz-adv-x="640" d="M235 828L209 1350H448L422 828H235Z" />
<glyph unicode="(" glyph-name="parenleft" horiz-adv-x="620" d="M380 -346Q255 -160 184 67T112 544Q112 796 184 1029T380 1454L554 1396Q461 1227 404 1010T346 558Q346 432 362 312T407 85T473 -116T554 -290L380 -346Z" />
<glyph unicode=")" glyph-name="parenright" horiz-adv-x="620" d="M508 564Q508 312 436 79T240 -346L66 -288Q159 -119 216 98T274 550Q274 676 258 796T213 1023T147 1224T66 1398L240 1454Q365 1268 436 1041T508 564Z" />
<glyph unicode="*" glyph-name="asterisk" horiz-adv-x="1000" d="M801 721L578 898L618 616H385L426 898L203 721L87 923L351 1029L87 1136L203 1337L426 1160L385 1442H618L578 1160L801 1337L917 1136L653 1029L917 923L801 721Z" />
<glyph unicode="+" glyph-name="plus" horiz-adv-x="1000" d="M608 507V156H391V507H74V690H391V1034H608V690H923V507H608Z" />
<glyph unicode="," glyph-name="comma" horiz-adv-x="606" d="M75 -227Q116 -195 143 -168T186 -118T210 -75T217 -37Q217 -15 207 -3T184 24T161 59T151 121Q151 167 156 198T178 247T225 273T306 281Q352 281 380 273T424 245T445 195T451 121Q451 53 435 -7T386
-123T300 -228T175 -327L75 -227Z" />
<glyph unicode="-" glyph-name="hyphen" horiz-adv-x="474" d="M52 478V668H471V478H52Z" />
<glyph unicode="." glyph-name="period" horiz-adv-x="580" d="M451 130Q451 86 445 57T422 10T376 -14T301 -21Q254 -21 225 -14T178 10T155 55T148 128Q148 173 154 202T178 249T225 274T302 281Q348 281 377 274T422 250T445 204T451 130V130Z" />
<glyph unicode="/" glyph-name="slash" horiz-adv-x="1000" d="M228 -208H0L756 1418H984L228 -208Z" />
<glyph unicode="0" glyph-name="zero" horiz-adv-x="1000" d="M934 692Q934 492 905 354T820 134T681 15T488 -22Q374 -22 295 12T165 124T89 334T64 662Q64 859 91 995T174 1214T311 1334T508 1372Q621 1372 700 1339T831 1230T908 1022T934 692ZM672 674Q672
823 663 920T633 1075T580 1156T500 1180Q452 1180 420 1157T367 1078T336 927T326 686Q326 534 335 435T365 279T418 198T500 174Q547 174 579 198T632 279T662 432T672 674Z" />
<glyph unicode="1" glyph-name="one" horiz-adv-x="1000" d="M122 0V232H394V1088L156 1000L94 1174L460 1350H674V232H916V0H122Z" />
<glyph unicode="2" glyph-name="two" horiz-adv-x="1000" d="M72 0V222Q175 330 252 417T384 574T476 699T534 801T563 885T572 960Q572 1015 558 1052T518 1110T458 1141T384 1150Q319 1150 252 1132T118 1090L72 1266Q121 1290 168 1309T266 1343T372 1364T494
1372Q570 1372 640 1353T764 1289T850 1175T882 1002Q882 949 872 897T839 790T777 676T683 550T552 404T378 232H918V0H72Z" />
<glyph unicode="3" glyph-name="three" horiz-adv-x="1000" d="M912 416Q912 299 879 216T783 80T632 3T432 -22Q352 -22 255 0T48 70L66 220Q158 200 230 191T360 182Q435 182 483 197T560 240T600 308T612 400Q612 449 601 487T563 553T492 594T384 608H226V806H378Q486
806 534 853T582 1002Q582 1083 541 1124T394 1166Q363 1166 329 1162T259 1151T188 1135T122 1114L88 1286Q128 1302 172 1317T266 1345T369 1364T482 1372Q585 1372 658 1347T779 1275T848 1165T870 1024Q870 964 856 916T815 831T753 768T672 726Q731 718 776
689T851 618T896 524T912 416Z" />
<glyph unicode="4" glyph-name="four" horiz-adv-x="1000" d="M824 298V0H564V298H38V504Q82 607 131 714T234 931T342 1146T452 1350H824V524H956V298H824ZM564 1132Q528 1064 490 989T414 837T338 683T262 524H564V1132Z" />
<glyph unicode="5" glyph-name="five" horiz-adv-x="1000" d="M914 422Q914 197 790 88T438 -22Q360 -22 264 -1T46 68L66 212Q163 197 241 188T382 178Q452 178 499 190T576 229T617 298T630 402Q630 457 618 501T579 575T506 622T396 638Q327 638 259 630T104
606L118 832L150 1350H372H818V1130H358L338 832Q368 838 406 841T486 844Q594 844 674 816T808 733T887 601T914 422Z" />
<glyph unicode="6" glyph-name="six" horiz-adv-x="1000" d="M936 448Q936 343 907 257T822 109T689 14T514 -20Q445 -20 386 -9T278 31T194 108T132 231T95 409T82 652Q82 858 119 996T222 1217T375 1335T564 1370Q639 1370 719 1352T892 1290L868 1142Q800 1157
732 1166T598 1176Q541 1176 495 1152T414 1075T359 940T334 742Q370 762 403 778T468 804T532 820T600 826Q688 826 752 801T856 727T916 608T936 448ZM680 420Q680 530 644 578T522 626Q478 626 438 613T342 570V560Q342 451 353 377T388 256T445 190T524 170Q600
170 640 229T680 420Z" />
<glyph unicode="7" glyph-name="seven" horiz-adv-x="1000" d="M680 594Q597 416 509 261T334 -22L156 42L634 1130H68V1350H942V1148L680 594Z" />
<glyph unicode="8" glyph-name="eight" horiz-adv-x="1000" d="M938 354Q938 272 912 204T830 85T687 6T480 -22Q369 -22 289 3T158 74T84 186T60 332Q60 392 78 443T128 535T200 611T292 676Q195 741 141 819T86 1016Q86 1094 112 1159T192 1272T326 1346T510
1372Q617 1372 694 1349T819 1283T889 1178T912 1038Q912 929 857 855T704 714Q756 685 797 653T870 578T920 479T938 354ZM664 1014Q664 1105 623 1149T492 1194Q420 1194 378 1151T336 1032Q336 957 380 906T506 806Q581 852 622 900T664 1014ZM688 332Q688 377
672 413T628 478T564 531T478 582Q399 530 356 476T312 348Q312 260 360 211T506 162Q548 162 582 174T639 209T675 263T688 332Z" />
<glyph unicode="9" glyph-name="nine" horiz-adv-x="1000" d="M920 700Q920 492 882 354T777 132T621 13T432 -22Q394 -22 355 -19T273 -6T181 20T78 62L98 206Q191 189 262 181T398 172Q455 172 502 195T585 271T641 408T666 612Q595 570 533 548T400 526Q312
526 249 551T146 626T86 745T66 906Q66 1011 95 1097T179 1244T311 1338T486 1372Q555 1372 614 1361T722 1321T807 1244T869 1121T907 942T920 700ZM660 792Q660 900 649 974T614 1095T557 1161T478 1182Q400 1182 360 1123T320 934Q320 823 357 775T478 726Q523
726 564 739T660 782V792Z" />
<glyph unicode=":" glyph-name="colon" horiz-adv-x="612" d="M478 874Q478 834 470 808T443 766T397 743T331 736Q293 736 266 743T221 765T194 807T185 872Q185 911 194 937T221 980T266 1003T332 1010Q370 1010 398 1003T443 981T469 939T478 874V874ZM478
128Q478 89 470 63T443 21T397 -1T331 -8Q293 -8 266 -2T221 20T194 61T185 127Q185 165 194 191T221 234T266 257T332 264Q370 264 398 258T443 235T469 193T478 128V128Z" />
<glyph unicode=";" glyph-name="semicolon" horiz-adv-x="612" d="M473 874Q473 834 465 808T438 766T393 743T328 736Q289 736 262 743T216 765T190 807T181 872Q181 911 189 937T216 980T262 1003T328 1010Q366 1010 393 1003T438 981T464 939T473 874V874ZM97
-241Q139 -210 169 -182T218 -129T246 -79T255 -30Q255 -16 250 -6T236 11T218 25T200 44T186 73T181 117Q181 157 189 184T216 228T262 251T330 258Q367 258 394 252T439 229T464 185T473 118Q473 58 457 1T408 -112T322 -220T196 -325L97 -241Z" />
<glyph unicode="&lt;" glyph-name="less" horiz-adv-x="1000" d="M837 121L71 512V686L837 1077L915 890L327 601L915 313L837 121Z" />
<glyph unicode="=" glyph-name="equal" horiz-adv-x="1000" d="M89 699V877H911V699H89ZM89 320V499H911V320H89Z" />
<glyph unicode="&gt;" glyph-name="greater" horiz-adv-x="1000" d="M163 121L85 307L673 596L85 885L163 1077L929 686V512L163 121Z" />
<glyph unicode="?" glyph-name="question" horiz-adv-x="1000" d="M892 1044Q892 967 870 912T815 813T743 735T670 663T613 581T587 475L582 354H358L351 474Q345 549 361 604T406 701T468 778T532 847T582 919T602 1009Q602 1041 591 1069T558 1118T501 1151T420
1163Q390 1163 361 1160T302 1150T246 1136T192 1117L121 1274Q164 1297 210 1315T305 1345T401 1363T498 1370Q598 1370 672 1347T795 1282T868 1180T892 1044V1044ZM626 120Q626 81 619 55T595 13T547 -10T469 -17Q423 -17 393 -10T344 13T319 55T311 120Q311
158 318 184T344 227T393 251T471 258Q518 258 548 251T595 228T619 186T626 120V120Z" />
<glyph unicode="@" glyph-name="at" horiz-adv-x="2046" d="M1535 -221Q1473 -250 1403 -273T1256 -312T1101 -337T944 -346Q812 -346 700 -324T496 -258T333 -149T214 3T141 197T116 433Q116 573 148 701T242 940T394 1142T602 1298T863 1397T1172 1433Q1362
1433 1498 1388T1721 1260T1849 1064T1890 815Q1890 666 1849 541T1727 324T1528 182T1254 131H1139L1129 296Q1094 254 1059 220T986 163T911 127T831 115Q762 115 712 140T630 211T583 322T568 466Q568 604 606 707T715 879T883 982T1099 1016Q1186 1016 1266
1004T1416 969L1342 318Q1392 318 1435 333T1514 377T1576 446T1621 536T1648 645T1658 768Q1658 837 1647 900T1610 1019T1543 1118T1444 1194T1308 1243T1132 1261Q998 1261 889 1229T692 1142T540 1011T433 849T369 668T348 479Q348 325 388 204T508 0T709 -128T991
-172Q1049 -172 1115 -165T1248 -144T1378 -113T1493 -74L1535 -221ZM1154 817Q1135 822 1111 825T1061 828Q1007 828 964 808T891 746T845 645T829 506Q829 456 834 420T850 361T878 328T921 317Q942 317 963 326T1008 354T1056 403T1114 476L1154 817Z" />
<glyph unicode="A" glyph-name="A" horiz-adv-x="1148" d="M736 468Q689 644 643 805T550 1112Q529 1039 506 958T460 793T416 625T376 468H736ZM838 0Q827 55 810 136T780 266H334Q318 198 304 131T278 0H20Q93 328 188 670T394 1350H748Q860 1019 952 691T1130 0H838Z" />
<glyph unicode="B" glyph-name="B" horiz-adv-x="1162" d="M790 408Q790 452 777 489T733 553T655 596T538 612H414V194Q437 191 478 189T552 186Q674 186 732 245T790 408ZM732 990Q732 1068 686 1114T544 1160H414V796H518Q575 796 616 812T683 855T720 916T732
990ZM1078 428Q1078 336 1045 258T944 121T768 29T516 -4Q463 -4 338 -2T148 0V1350H598Q702 1350 780 1327T908 1262T983 1161T1008 1030Q1008 922 960 850T828 738Q937 718 1007 634T1078 428Z" />
<glyph unicode="C" glyph-name="C" horiz-adv-x="1032" d="M994 186Q925 87 820 33T588 -22Q82 -22 82 652Q82 997 220 1184T600 1372Q721 1372 816 1318T972 1152L848 1032Q764 1156 634 1156Q566 1156 515 1121T431 1021T381 872T364 688Q364 556 382 462T435
309T520 223T636 196Q705 196 765 227T884 324L994 186Z" />
<glyph unicode="D" glyph-name="D" horiz-adv-x="1192" d="M826 682Q826 916 750 1034T510 1152Q448 1152 418 1150V204Q450 202 471 201T512 200Q671 200 748 322T826 682ZM1110 712Q1110 541 1072 408T954 183T754 42T468 -6Q404 -6 325 -4T148 0V1350Q218 1350
343 1352T528 1354Q684 1354 796 1306T977 1172T1078 969T1110 712Z" />
<glyph unicode="E" glyph-name="E" horiz-adv-x="948" d="M148 0V1350H848V1144H418V794H774V596H418V208H856V0H148Z" />
<glyph unicode="F" glyph-name="F" horiz-adv-x="908" d="M418 1144V772H796V570H418V0H148V1350H838V1144H418Z" />
<glyph unicode="G" glyph-name="G" horiz-adv-x="1152" d="M1030 138Q940 63 826 21T570 -22Q331 -22 207 145T82 648Q82 825 122 961T236 1189T411 1326T636 1372Q757 1372 856 1318T1020 1170L902 1058Q836 1108 776 1133T650 1158Q514 1158 439 1043T364 692Q364
557 381 462T430 307T509 221T614 194Q662 194 700 206T764 238V578H604V776H1030V138Z" />
<glyph unicode="H" glyph-name="H" horiz-adv-x="1316" d="M898 0V592H418V0H148V1350H418V818H898V1350H1168V0H898Z" />
<glyph unicode="I" glyph-name="I" horiz-adv-x="566" d="M148 0V1350H418V0H148Z" />
<glyph unicode="J" glyph-name="J" horiz-adv-x="576" d="M428 142Q428 -20 369 -140T176 -350L44 -242Q80 -199 102 -155T137 -61T153 42T158 166V1350H428V142Z" />
<glyph unicode="K" glyph-name="K" horiz-adv-x="1094" d="M760 0L422 626H418V0H148V1350H418V776H422L746 1350H1036L660 748L1066 0H760Z" />
<glyph unicode="L" glyph-name="L" horiz-adv-x="842" d="M148 0V1350H418V210H810V0H148Z" />
<glyph unicode="M" glyph-name="M" horiz-adv-x="1696" d="M1294 0Q1290 260 1276 522T1240 1004H1238L942 0H714L418 1004H416Q398 784 388 529T374 0H120Q129 338 153 677T216 1350H572L852 440H854L1138 1350H1474Q1513 1011 1539 672T1578 0H1294Z" />
<glyph unicode="N" glyph-name="N" horiz-adv-x="1300" d="M866 0L492 726Q446 816 411 895T362 1010H358Q362 969 367 877T372 686V0H148V1350H476L804 712Q849 626 886 543T938 422H942Q939 466 934 560T928 752V1350H1152V0H866Z" />
<glyph unicode="O" glyph-name="O" horiz-adv-x="1282" d="M916 656Q916 800 898 898T844 1055T756 1140T634 1166Q571 1166 523 1143T439 1065T385 919T366 694Q366 550 384 452T437 294T524 210T646 184Q709 184 758 208T843 286T897 431T916 656ZM1200 700Q1200
514 1160 377T1045 152T865 21T626 -22Q491 -22 390 15T221 133T117 342T82 650Q82 836 121 973T236 1198T416 1329T654 1372Q789 1372 890 1335T1061 1217T1165 1008T1200 700Z" />
<glyph unicode="P" glyph-name="P" horiz-adv-x="1082" d="M758 906Q758 1031 698 1093T500 1156H418V654H500Q631 654 694 718T758 906ZM1040 930Q1040 823 1010 737T912 587T736 489T474 454H418V0H148V1350Q210 1350 340 1352T540 1354Q675 1354 771 1325T926
1240T1012 1107T1040 930Z" />
<glyph unicode="Q" glyph-name="Q" horiz-adv-x="1282" d="M916 658Q916 804 897 901T842 1057T754 1141T634 1166Q574 1166 525 1143T440 1066T385 922T366 696Q366 548 384 450T438 293T526 209T646 184Q706 184 756 207T842 285T897 431T916 658ZM1316 -334Q1252
-296 1187 -289T1059 -283T936 -285T819 -263T710 -185T612 -20Q482 -20 383 18T217 137T116 346T82 652Q82 840 122 976T237 1200T418 1330T656 1372Q788 1372 889 1335T1059 1218T1164 1010T1200 702Q1200 538 1170 415T1084 206T951 69T782 -2Q828 -58 876 -78T973
-102T1073 -102T1178 -105T1287 -138T1402 -228L1316 -334Z" />
<glyph unicode="R" glyph-name="R" horiz-adv-x="1110" d="M788 0L506 550H418V0H148V1350Q278 1352 381 1354T566 1356Q685 1356 775 1328T923 1249T1009 1129T1038 976Q1038 897 1016 835T955 729T868 655T764 608L1098 0H788ZM756 954Q756 1002 744 1039T704
1102T632 1142T526 1156H418V746H528Q637 746 696 800T756 954Z" />
<glyph unicode="S" glyph-name="S" horiz-adv-x="992" d="M942 384Q942 298 911 225T819 96T669 11T468 -20Q355 -20 254 13T62 108L126 250Q209 216 285 197T418 178Q523 178 582 223T642 352Q642 413 605 456T489 542T343 619T215 700T117 818T78 988Q78 1074
109 1144T199 1265T336 1343T510 1370Q606 1370 697 1343T872 1260L808 1120Q743 1146 679 1160T560 1174Q463 1174 414 1132T364 1020Q364 959 402 915T522 828T672 749T802 668T902 552T942 384Z" />
<glyph unicode="T" glyph-name="T" horiz-adv-x="934" d="M600 1142V0H330V1142H28V1350H904V1142H600Z" />
<glyph unicode="U" glyph-name="U" horiz-adv-x="1304" d="M1158 488Q1158 352 1120 255T1012 96T846 7T630 -22Q384 -22 265 91T146 458V1350H416V486Q416 316 471 246T654 176Q712 176 756 191T831 240T878 330T894 470V1350H1158V488Z" />
<glyph unicode="V" glyph-name="V" horiz-adv-x="1094" d="M1074 1350Q1006 991 919 658T714 0H384Q268 339 179 669T20 1350H316Q354 1117 418 851T570 272Q644 523 703 793T810 1350H1074Z" />
<glyph unicode="W" glyph-name="W" horiz-adv-x="1722" d="M1692 1350Q1622 980 1545 652T1372 0H1076L896 726L856 938H854L816 726L650 0H354Q304 167 261 329T178 655T103 988T30 1350H320Q339 1236 362 1120T416 857T475 583T526 340H528L560 520L752 1350H1014L1212
524L1250 340H1252Q1317 660 1361 890T1440 1350H1692Z" />
<glyph unicode="X" glyph-name="X" horiz-adv-x="1098" d="M774 0Q708 151 648 274T528 498Q463 386 403 262T290 0H24Q104 199 191 372T376 708Q330 789 291 862T213 1011T137 1172T58 1350H348Q402 1220 456 1107T560 906Q616 997 674 1116T774 1350H1034Q968
1180 888 1024T714 718Q808 560 897 383T1070 0H774Z" />
<glyph unicode="Y" glyph-name="Y" horiz-adv-x="978" d="M988 1350Q902 1110 813 915T624 564V0H354V564Q301 653 253 743T161 929T74 1129T-10 1350H286Q339 1195 392 1065T508 812Q568 925 620 1061T720 1350H988Z" />
<glyph unicode="Z" glyph-name="Z" horiz-adv-x="980" d="M62 0V184L578 1138H86L92 1350H896V1170L382 216H922L916 0H62Z" />
<glyph unicode="[" glyph-name="bracketleft" horiz-adv-x="720" d="M199 -346V1478H600V1322H418V-190H600V-346H199Z" />
<glyph unicode="\" glyph-name="backslash" horiz-adv-x="1000" d="M772 -208L16 1418H244L1000 -208H772Z" />
<glyph unicode="]" glyph-name="bracketright" horiz-adv-x="720" d="M121 -346V-190H303V1322H121V1478H522V-346H121Z" />
<glyph unicode="^" glyph-name="asciicircum" horiz-adv-x="1000" d="M750 723L500 1208L248 723L52 795L399 1418H605L951 794L750 723Z" />
<glyph unicode="_" glyph-name="underscore" horiz-adv-x="1000" d="M0 -357V-170H1000V-357H0Z" />
<glyph unicode="`" glyph-name="grave" horiz-adv-x="636" d="M410 1110L98 1352L278 1450L540 1180L410 1110Z" />
<glyph unicode="a" glyph-name="a" horiz-adv-x="1020" d="M636 452H560Q489 452 441 441T364 409T323 360T310 294Q310 232 344 197T444 162Q490 162 539 184T636 248V452ZM692 0L674 102Q604 42 531 10T368 -22Q217 -22 138 51T58 264Q58 425 188 517T574 610H636V686Q636
763 591 800T450 838Q377 838 300 822T146 778L112 934Q208 976 308 1000T514 1024Q701 1024 795 942T890 712V0H692Z" />
<glyph unicode="b" glyph-name="b" horiz-adv-x="1068" d="M730 504Q730 659 687 742T566 826Q530 826 482 804T388 742V180Q411 172 441 167T506 162Q608 162 669 248T730 504ZM994 540Q994 394 957 287T851 111T685 11T468 -22Q381 -22 295 -11T130 18V1418H388V922Q445
969 508 996T638 1024Q725 1024 792 987T904 884T971 729T994 540Z" />
<glyph unicode="c" glyph-name="c" horiz-adv-x="846" d="M814 126Q749 59 665 20T474 -20Q74 -20 74 488Q74 606 103 704T186 875T319 985T492 1024Q682 1024 792 898L702 766Q622 832 532 832Q443 832 393 750T342 510Q342 334 388 254T530 174Q630 174 734
258L814 126Z" />
<glyph unicode="d" glyph-name="d" horiz-adv-x="1068" d="M680 820Q652 829 621 834T558 840Q456 840 397 754T338 496Q338 339 381 258T502 176Q539 176 585 197T680 260V820ZM728 0L708 102Q639 43 570 11T426 -22Q341 -22 275 14T164 117T97 270T74 460Q74
607 111 715T215 891T372 992T568 1024Q594 1024 617 1023T680 1018V1418H938V0H728Z" />
<glyph unicode="e" glyph-name="e" horiz-adv-x="1018" d="M680 614Q680 852 518 852Q436 852 391 787T340 610H680V614ZM338 450V436Q338 301 394 238T562 174Q631 174 715 189T886 232L924 84Q829 34 723 6T510 -22Q409 -22 329 5T192 90T105 244T74 474Q74
739 194 881T528 1024Q628 1024 705 994T836 896T914 718T928 450H338Z" />
<glyph unicode="f" glyph-name="f" horiz-adv-x="608" d="M634 1230Q571 1254 516 1254Q458 1254 433 1224T408 1130V1002H588V822H408V0H152V822H24V1002H152V1122Q152 1277 219 1358T432 1440Q501 1440 560 1423T672 1378L634 1230Z" />
<glyph unicode="g" glyph-name="g" horiz-adv-x="1068" d="M680 820Q652 829 620 834T556 840Q457 840 398 757T338 520Q338 368 382 287T504 206Q541 206 589 230T680 290V820ZM938 38Q938 -79 906 -158T815 -282T681 -345T510 -364Q350 -364 154 -284L174 -140Q270
-156 345 -165T482 -174Q587 -174 633 -136T680 -4V114Q619 69 556 42T426 14Q342 14 276 50T165 150T97 300T74 482Q74 620 112 723T219 892T383 991T592 1024Q674 1024 766 1012T938 982V38Z" />
<glyph unicode="h" glyph-name="h" horiz-adv-x="1092" d="M970 570Q970 531 970 491T967 341T963 153T962 0H706Q706 69 707 140T709 311T711 450T712 524Q712 613 703 670T677 760T635 805T572 818Q535 818 487 797T388 736V0H130V1418H388V916Q447 965 516
994T662 1024Q739 1024 796 999T891 920T950 780T970 570Z" />
<glyph unicode="i" glyph-name="i" horiz-adv-x="518" d="M130 0V1002H388V0H130ZM412 1266Q412 1189 381 1161T260 1132Q213 1132 183 1138T137 1160T113 1201T106 1266Q106 1342 138 1371T260 1400Q352 1400 382 1373T412 1266Z" />
<glyph unicode="j" glyph-name="j" horiz-adv-x="518" d="M388 90Q388 -56 337 -161T170 -364L2 -288Q60 -218 95 -137T130 40V1002H388V90ZM412 1266Q412 1190 382 1161T260 1132Q214 1132 184 1139T137 1161T113 1202T106 1266Q106 1342 137 1371T260 1400Q352
1400 382 1372T412 1266Z" />
<glyph unicode="k" glyph-name="k" horiz-adv-x="980" d="M662 0L396 494H388V0H130V1418H388V598H396L634 1002H930L630 574L962 0H662Z" />
<glyph unicode="l" glyph-name="l" horiz-adv-x="550" d="M514 10Q478 -2 432 -9T328 -16Q277 -16 241 -7T180 24T143 86T130 186V1418H388V288Q388 245 391 220T401 182T421 165T456 160Q463 160 480 161T504 162L514 10Z" />
<glyph unicode="m" glyph-name="m" horiz-adv-x="1642" d="M1520 572Q1520 532 1520 489T1518 338T1515 152T1514 0H1256Q1256 68 1257 138T1259 307T1261 446T1262 524Q1262 613 1254 670T1230 760T1190 805T1132 818Q1094 818 1044 794T942 728Q947 702 949
666T952 578V0H696V524Q696 611 688 668T664 758T625 804T568 818Q533 818 486 796T388 736V0H130V1002H342L360 896Q424 955 499 989T656 1024Q745 1024 807 985T900 880Q977 949 1055 986T1220 1024Q1371 1024 1445 917T1520 572Z" />
<glyph unicode="n" glyph-name="n" horiz-adv-x="1092" d="M970 570Q970 530 969 487T966 336T963 151T962 0H706Q706 68 707 138T709 307T711 446T712 526Q712 614 704 671T678 760T636 805T574 818Q535 818 487 797T388 736V0H130V1002H342L360 896Q427 957
503 990T664 1024Q819 1024 894 917T970 570Z" />
<glyph unicode="o" glyph-name="o" horiz-adv-x="1076" d="M738 478Q738 582 725 651T686 760T625 817T538 834Q492 834 456 817T394 764T354 668T340 524Q340 420 353 351T391 241T453 185T540 168Q585 168 621 185T683 238T723 335T738 478ZM1002 520Q1002 250
875 114T518 -22Q299 -22 187 98T74 482Q74 753 201 888T558 1024Q666 1024 748 996T887 907T973 750T1002 520Z" />
<glyph unicode="p" glyph-name="p" horiz-adv-x="1068" d="M730 506Q730 659 687 742T566 826Q529 826 482 805T388 742V182Q413 172 443 167T508 162Q610 162 670 248T730 506ZM994 542Q994 397 958 290T854 113T696 11T494 -22Q470 -22 441 -21T388 -16V-346H130V1002H340L360
900Q425 958 495 991T638 1024Q726 1024 793 987T905 884T972 731T994 542Z" />
<glyph unicode="q" glyph-name="q" horiz-adv-x="1068" d="M680 820Q630 840 560 840Q458 840 398 754T338 496Q338 342 381 259T502 176Q541 176 587 199T680 260V820ZM680 -346V80Q628 37 562 8T430 -22Q343 -22 276 15T164 118T97 271T74 460Q74 606 111 713T218
889T384 991T602 1024Q681 1024 770 1013T938 982V-346H680Z" />
<glyph unicode="r" glyph-name="r" horiz-adv-x="730" d="M670 774Q641 782 621 785T582 788Q540 788 498 755T388 636V0H130V1002H342L362 846Q436 943 492 982T604 1022Q628 1022 653 1017T702 1000L670 774Z" />
<glyph unicode="s" glyph-name="s" horiz-adv-x="832" d="M776 296Q776 227 749 169T669 69T541 3T372 -20Q214 -20 56 62L78 196Q157 177 215 170T326 162Q417 162 460 193T504 276Q504 313 482 338T426 379T330 420T225 464T145 518T83 603T60 724Q60 858 161
941T426 1024Q496 1024 563 1007T706 950L678 818Q612 834 567 841T480 848Q406 848 368 819T330 744Q330 707 352 682T409 641T505 601T610 556T691 502T753 418T776 296Z" />
<glyph unicode="t" glyph-name="t" horiz-adv-x="696" d="M656 46Q588 11 526 -4T404 -20Q266 -20 208 39T150 242V822H24V1002H160Q178 1068 192 1138T220 1294H408V1002H630V822H408V306Q408 230 428 201T498 172Q526 172 559 177T636 194L656 46Z" />
<glyph unicode="u" glyph-name="u" horiz-adv-x="1092" d="M752 0L732 106Q665 45 589 12T430 -22Q274 -22 198 85T122 432Q122 472 123 515T126 666T129 851T130 1002H388Q388 934 387 864T384 697T381 557T380 476Q380 389 389 332T415 243T458 197T520 184Q559
184 606 206T704 266V1002H962V0H752Z" />
<glyph unicode="v" glyph-name="v" horiz-adv-x="966" d="M934 1002Q895 742 822 488T644 0H308L22 1002H300L462 436L502 236Q568 449 609 636T668 1002H934Z" />
<glyph unicode="w" glyph-name="w" horiz-adv-x="1520" d="M1482 1002Q1448 750 1384 503T1228 0H924L782 564L754 714H750L726 562L602 0H292L32 1002H306L436 448L472 280H474L500 434L622 1002H920L1066 420L1094 282H1096Q1145 476 1181 651T1232 1002H1482Z" />
<glyph unicode="x" glyph-name="x" horiz-adv-x="964" d="M644 0L464 380Q406 254 367 164T300 0H26L308 526L64 1002H352L498 672Q515 706 534 750T572 840T607 928T634 1002H894L650 552L938 0H644Z" />
<glyph unicode="y" glyph-name="y" horiz-adv-x="962" d="M930 1002Q872 626 786 361T597 -62T385 -289T166 -358Q132 -358 92 -347T14 -316V-168Q35 -171 64 -172T114 -174Q205 -174 258 -130Q289 -103 302 -76T316 -12Q316 20 304 68T270 186L22 1002H298L454
440Q477 366 489 301T498 192Q527 282 553 381T602 587T641 798T664 1002H930Z" />
<glyph unicode="z" glyph-name="z" horiz-adv-x="800" d="M732 0H60V162L420 810H74L84 1002H712V842L352 194H740L732 0Z" />
<glyph unicode="{" glyph-name="braceleft" horiz-adv-x="776" d="M527 -346Q451 -346 399 -328T315 -274T268 -187T254 -71V339Q254 371 249 398T232 443T197 473T141 484H85V668H141Q174 668 196 678T231 706T249 751T254 809V1205Q254 1270 270 1321T321 1406T408
1459T532 1478H634V1326H573Q547 1326 529 1319T498 1296T480 1257T473 1203V848Q473 792 464 748T435 670T385 613T312 577Q354 564 384 541T434 483T463 404T473 302V-71Q473 -106 478 -129T494 -167T525 -188T573 -194H634V-346H527Z" />
<glyph unicode="|" glyph-name="bar" horiz-adv-x="506" d="M141 -346V1506H365V-346H141Z" />
<glyph unicode="}" glyph-name="braceright" horiz-adv-x="776" d="M633 484Q600 484 578 474T543 445T525 401T520 343V-73Q520 -139 504 -189T453 -274T367 -327T242 -346H140V-194H202Q226 -194 245 -187T276 -164T295 -125T301 -71V304Q301 360 310 404T339
482T389 539T462 575Q420 588 390 611T340 669T311 748T301 850V1203Q301 1238 296 1261T280 1299T249 1320T201 1326H140V1478H247Q323 1478 375 1460T459 1406T506 1319T520 1203V813Q520 780 525 754T542 708T577 679T633 668H689V484H633Z" />
<glyph unicode="~" glyph-name="asciitilde" horiz-adv-x="1000" d="M946 1173Q946 1102 926 1043T868 941T774 875T649 851Q592 851 552 866T482 906T433 957T395 1008T360 1047T321 1063Q301 1063 286 1055T260 1026T244 974T238 892H43V937Q43 1010 63 1069T122
1171T215 1236T338 1259Q395 1259 435 1243T504 1204T554 1154T593 1103T628 1063T668 1047Q690 1047 705 1056T731 1086T745 1139T750 1218H946V1173Z" />
<glyph unicode="&#x8e;" glyph-name="Zcaron" horiz-adv-x="980" d="M62 0V184L578 1138H86L92 1350H896V1170L382 216H922L916 0H62ZM261 1716L501 1612L739 1716L805 1612L499 1438L195 1610L261 1716Z" />
<glyph unicode="&#x9e;" glyph-name="zcaron" horiz-adv-x="800" d="M732 0H60V162L420 810H74L84 1002H712V842L352 194H740L732 0ZM398 1110L112 1356L190 1460L404 1316L618 1460L696 1358L398 1110Z" />
<glyph unicode="&#xa0;" glyph-name="space" horiz-adv-x="480" />
<glyph unicode="&#xa1;" glyph-name="exclamdown" horiz-adv-x="718" d="M433 788L476 -208H162L206 788H433ZM161 1022Q161 1060 168 1086T194 1129T242 1152T319 1159Q366 1159 396 1152T444 1129T469 1087T476 1022Q476 983 469 957T444 915T396 891T319 884Q272
884 242 891T193 914T168 956T161 1022V1022Z" />
<glyph unicode="&#xa2;" glyph-name="cent" horiz-adv-x="1000" d="M884 342Q859 320 833 302T778 268T716 240T647 221L627 -9H472L454 208Q372 217 308 247T198 332T128 469T103 663Q103 762 129 842T201 983T312 1083T453 1140L472 1357H627L646 1140Q708 1131
759 1105T860 1031L771 901Q727 934 683 951T593 969Q550 969 510 953T438 903T389 817T370 692Q370 605 387 547T434 454T502 404T584 389Q613 389 641 394T697 409T752 436T806 474L884 342Z" />
<glyph unicode="&#xa3;" glyph-name="sterling" horiz-adv-x="1000" d="M78 0V168Q126 219 157 267T206 366T228 473T225 595H60V766H197Q190 788 185 814T174 868T166 925T163 983Q163 1083 190 1155T270 1275T396 1344T561 1366Q604 1366 649 1360T738 1343T822
1317T895 1284L870 1145Q799 1162 742 1169T639 1176Q576 1176 537 1164T474 1127T442 1069T433 989Q433 960 436 932T444 877T455 822T468 766H788V595H491Q497 532 495 479T481 378T444 288T381 204H923V0H78Z" />
<glyph unicode="&#xa4;" glyph-name="currency" horiz-adv-x="1000" d="M782 18L662 182Q623 162 579 152T482 142Q438 142 401 150T334 173L219 18L51 119L182 261Q152 303 136 364T119 509Q119 593 138 660T194 775L51 930L218 1031L341 869Q378 888 420 897T515
907Q560 907 597 899T667 875L784 1031L951 930L817 785Q849 743 866 683T883 545Q883 459 863 393T806 277L951 119L782 18ZM660 507Q660 583 650 632T618 711T566 751T495 762Q459 762 430 751T380 714T348 647T337 544Q337 467 347 417T379 338T430 298T502
286Q537 286 566 297T616 335T648 403T660 507V507Z" />
<glyph unicode="&#xa5;" glyph-name="yen" horiz-adv-x="1000" d="M887 475H627V332H887V165H627V0H373V165H113V332H373V475H113V641H373V672Q322 751 275 831T185 995T100 1167T18 1350H301Q326 1281 352 1218T404 1095T459 981T519 873Q549 922 577 980T632
1099T681 1224T725 1350H985Q946 1259 904 1170T818 994T726 828T627 672V641H887V475Z" />
<glyph unicode="&#xa6;" glyph-name="brokenbar" horiz-adv-x="506" d="M364 -346H143V401H364V-346ZM143 1512H364V727H143V1512Z" />
<glyph unicode="&#xa7;" glyph-name="section" horiz-adv-x="1012" d="M222 -134Q273 -151 320 -159T411 -167Q452 -167 479 -158T521 -133T543 -95T550 -44Q550 -5 529 30T474 101T397 171T308 248T219 335T142 438T87 562T66 712Q66 794 87 874T146 1027T234
1162T344 1270T467 1342T597 1368Q660 1368 719 1349T824 1299L775 1155Q733 1168 687 1175T600 1182Q562 1182 537 1173T496 1148T475 1110T469 1059Q469 1020 489 985T544 915T621 844T710 767T799 679T877 575T932 450T953 299Q953 218 932 139T874 -13T786
-147T676 -255T550 -326T417 -352Q380 -352 348 -348T287 -334T229 -310T171 -276L222 -134ZM743 263Q743 326 724 377T672 473T599 557T518 632T439 703T374 777T335 857T333 949Q319 927 308 904T290 855T279 803T275 748Q275 686 295 635T346 541T418 459T499
385T577 314T641 239T681 156T685 58Q698 79 708 101T726 148T738 201T743 263V263Z" />
<glyph unicode="&#xa8;" glyph-name="dieresis" horiz-adv-x="840" d="M344 1268Q344 1203 318 1178T222 1152Q151 1152 125 1176T98 1268Q98 1334 125 1360T222 1386Q293 1386 318 1362T344 1268ZM744 1268Q744 1203 717 1178T620 1152Q549 1152 523 1176T496
1268Q496 1334 523 1360T620 1386Q691 1386 717 1361T744 1268Z" />
<glyph unicode="&#xa9;" glyph-name="copyright" horiz-adv-x="1550" d="M1478 680Q1478 535 1426 406T1278 179T1053 27T776 -28Q625 -28 496 24T271 170T124 393T72 670Q72 766 96 856T164 1026T272 1169T414 1280T584 1351T774 1376Q927 1376 1056 1324T1281
1177T1427 955T1478 680ZM1296 674Q1296 791 1258 891T1148 1064T982 1178T776 1218Q668 1218 573 1177T406 1062T294 888T254 674Q254 559 293 459T404 285T571 171T776 130Q884 130 979 171T1145 286T1256 460T1296 674ZM1050 390Q997 340 928 311T770 282Q606
282 522 378T438 666Q438 756 463 831T534 960T647 1043T794 1072Q869 1072 927 1049T1034 976L952 870Q924 894 891 906T822 918Q755 918 715 858T674 688Q674 559 710 499T814 438Q860 438 901 452T980 496L1050 390Z" />
<glyph unicode="&#xaa;" glyph-name="ordfeminine" horiz-adv-x="918" d="M584 678L571 754Q542 731 514 715T458 687T400 670T339 664Q289 664 247 679T173 722T125 789T108 878Q108 932 130 978T199 1056T317 1107T487 1126H541V1175Q541 1202 532 1221T507
1252T465 1269T406 1275Q359 1275 302 1266T178 1235L150 1365Q188 1380 227 1392T305 1414T385 1427T464 1432Q542 1432 596 1416T685 1370T734 1294T750 1190V678H584ZM541 1003H481Q431 1003 399 996T346 974T318 941T310 897Q310 877 316 861T333 832T362 814T402
807Q417 807 434 811T468 824T504 843T541 865V1003ZM138 406V549H758V406H138Z" />
<glyph unicode="&#xab;" glyph-name="guillemotleft" horiz-adv-x="1016" d="M332 177L67 585L333 993L502 933L315 585L502 235L332 177ZM728 199L481 585L729 971L894 915L727 585L894 254L728 199Z" />
<glyph unicode="&#xac;" glyph-name="logicalnot" horiz-adv-x="1000" d="M692 239V507H73V691H901V239H692Z" />
<glyph unicode="&#xad;" glyph-name="hyphen" horiz-adv-x="474" d="M52 478V668H471V478H52Z" />
<glyph unicode="&#xae;" glyph-name="registered" horiz-adv-x="1134" d="M1043 971Q1043 871 1007 786T906 637T754 539T564 503Q460 503 373 538T222 635T124 782T89 967Q89 1067 126 1152T227 1301T378 1399T568 1435Q673 1435 760 1400T910 1303T1008 1156T1043
971V971ZM900 969Q900 1040 876 1102T808 1211T703 1285T566 1312Q491 1312 430 1285T324 1212T256 1103T232 969Q232 898 256 836T324 727T429 653T566 626Q641 626 702 653T808 726T876 835T900 969V969ZM619 746L545 923H524V746H398V1207Q449 1207 489 1208T564
1209Q608 1209 643 1200T701 1173T737 1130T750 1072Q750 1028 726 995T662 943L764 746H619ZM524 1006H557Q590 1006 606 1023T623 1064Q623 1092 608 1107T553 1122H524V1006Z" />
<glyph unicode="&#xaf;" glyph-name="macron" horiz-adv-x="754" d="M98 1174V1354H656V1174H98Z" />
<glyph unicode="&#xb0;" glyph-name="degree" horiz-adv-x="902" d="M767 1118Q767 1046 747 992T686 901T588 846T453 828Q371 828 312 844T215 894T157 982T138 1111Q138 1183 158 1237T220 1328T320 1383T458 1401Q538 1401 596 1385T692 1335T748 1248T767
1118V1118ZM573 1116Q573 1155 567 1181T547 1223T510 1245T454 1252Q420 1252 397 1245T360 1221T339 1178T332 1116Q332 1078 337 1052T357 1010T394 986T454 978Q486 978 509 985T546 1010T567 1053T573 1116V1116Z" />
<glyph unicode="&#xb1;" glyph-name="plusminus" horiz-adv-x="1000" d="M80 0V174H918V0H80ZM604 621V291H395V621H80V794H395V1116H604V794H918V621H604Z" />
<glyph unicode="&#xb2;" glyph-name="twosuperior" horiz-adv-x="720" d="M74 707V861Q174 941 237 999T335 1099T383 1170T396 1223Q396 1272 365 1290T286 1309Q263 1309 239 1305T190 1295T144 1283T102 1271L74 1401Q108 1414 141 1425T210 1444T283 1456T364
1461Q419 1461 468 1450T555 1413T614 1349T636 1253Q636 1212 623 1172T575 1087T482 988T334 867H656V707H74Z" />
<glyph unicode="&#xb3;" glyph-name="threesuperior" horiz-adv-x="714" d="M656 933Q656 865 631 818T562 742T458 700T328 687Q263 687 194 699T54 739L70 849Q127 838 175 833T274 827Q357 827 390 851T424 923Q424 946 416 963T390 993T341 1011T264 1017H166V1157H272Q404
1157 404 1245Q404 1281 379 1301T294 1321Q276 1321 253 1319T206 1313T156 1304T108 1291L78 1411Q141 1435 211 1448T356 1461Q499 1461 565 1410T632 1265Q632 1200 598 1157T510 1099Q581 1085 618 1040T656 933Z" />
<glyph unicode="&#xb4;" glyph-name="acute" horiz-adv-x="636" d="M226 1110L98 1180L358 1450L540 1352L226 1110Z" />
<glyph unicode="&#xb5;" glyph-name="mu" horiz-adv-x="1100" d="M756 0L737 106Q710 81 680 60T619 22T555 -3T490 -12Q453 -12 424 4T381 44Q381 44 381 28T381 -16T383 -79T384 -151T386 -223T387 -285T388 -329T388 -346H131V1002H387V446Q387 376 392 326T413
245T455 199T524 184Q544 184 566 189T612 206T660 233T709 266V1002H967V0H756Z" />
<glyph unicode="&#xb6;" glyph-name="paragraph" horiz-adv-x="1288" d="M922 -209V1189H733V-209H534V560Q440 551 361 575T223 650T131 777T98 949Q98 1039 126 1113T208 1239T342 1321T523 1350H1121V-209H922Z" />
<glyph unicode="&#xb7;" glyph-name="periodcentered" horiz-adv-x="548" d="M422 598Q422 554 417 526T395 480T349 457T276 450Q229 450 201 456T155 480T133 525T127 596Q127 640 132 669T155 715T201 739T277 746Q321 746 349 739T394 715T416 670T422 598V598Z" />
<glyph unicode="&#xb8;" glyph-name="cedilla" horiz-adv-x="514" d="M410 -84Q425 -172 383 -240T244 -366L98 -308Q165 -247 184 -200T192 -84H410Z" />
<glyph unicode="&#xb9;" glyph-name="onesuperior" horiz-adv-x="688" d="M90 707V859H256V1267L110 1225L80 1349L306 1447H476V859H626V707H90Z" />
<glyph unicode="&#xba;" glyph-name="ordmasculine" horiz-adv-x="870" d="M779 1064Q779 964 751 889T675 765T560 690T416 665Q342 665 281 684T174 748T104 863T79 1036Q79 1136 106 1210T182 1334T296 1407T436 1431Q510 1431 573 1410T681 1345T753 1231T779
1064V1064ZM567 1026Q567 1102 558 1151T530 1229T486 1269T428 1281Q396 1281 371 1269T327 1232T299 1166T289 1070Q289 993 299 944T327 866T372 826T431 815Q462 815 487 825T529 860T557 925T567 1026V1026ZM123 406V549H743V406H123Z" />
<glyph unicode="&#xbb;" glyph-name="guillemotright" horiz-adv-x="1016" d="M684 993L948 585L683 177L514 237L700 585L514 935L684 993ZM287 971L534 585L286 199L122 255L288 585L122 916L287 971Z" />
<glyph unicode="&#xbc;" glyph-name="onequarter" horiz-adv-x="1470" d="M90 707V859H256V1267L110 1225L80 1349L306 1447H476V859H626V707H90ZM276 -162L140 -88L1288 1464L1422 1390L276 -162ZM1343 12V-128H1129V12H783V154Q807 205 838 262T904 380T974
498T1045 608H1343V164H1433V12H1343ZM1129 476Q1107 445 1083 407T1033 327T984 243T943 164H1129V476Z" />
<glyph unicode="&#xbd;" glyph-name="onehalf" horiz-adv-x="1556" d="M90 707V859H256V1267L110 1225L80 1349L306 1447H476V859H626V707H90ZM275 -162L139 -88L1287 1464L1421 1390L275 -162ZM910 -128V26Q1010 106 1073 164T1171 264T1219 335T1232 388Q1232
437 1201 455T1122 474Q1099 474 1075 470T1026 460T980 448T938 436L910 566Q944 579 977 590T1046 609T1119 621T1200 626Q1255 626 1304 615T1391 578T1450 514T1472 418Q1472 377 1459 337T1411 252T1318 153T1170 32H1492V-128H910Z" />
<glyph unicode="&#xbe;" glyph-name="threequarters" horiz-adv-x="1466" d="M656 933Q656 865 631 818T562 742T458 700T328 687Q263 687 194 699T54 739L70 849Q127 838 175 833T274 827Q357 827 390 851T424 923Q424 946 416 963T390 993T341 1011T264 1017H166V1157H272Q404
1157 404 1245Q404 1281 379 1301T294 1321Q276 1321 253 1319T206 1313T156 1304T108 1291L78 1411Q141 1435 211 1448T356 1461Q499 1461 565 1410T632 1265Q632 1200 598 1157T510 1099Q581 1085 618 1040T656 933ZM273 -162L137 -88L1285 1464L1419 1390L273
-162ZM1341 12V-128H1127V12H781V154Q805 205 836 262T902 380T972 498T1043 608H1341V164H1431V12H1341ZM1127 476Q1105 445 1081 407T1031 327T982 243T941 164H1127V476Z" />
<glyph unicode="&#xbf;" glyph-name="questiondown" horiz-adv-x="1000" d="M108 104Q108 179 130 232T185 327T257 404T330 476T387 559T413 667L418 788H642L649 668Q655 592 639 537T594 438T532 361T468 294T418 224T398 139Q398 105 409 76T442 25T499 -9T580
-21Q609 -21 639 -18T698 -8T754 6T808 25L879 -132Q836 -155 790 -173T695 -203T599 -221T502 -228Q402 -228 328 -205T205 -139T132 -35T108 104V104ZM374 1022Q374 1060 381 1086T405 1129T453 1152T531 1159Q577 1159 607 1152T656 1129T681 1087T689 1022Q689
983 681 957T655 915T606 891T529 884Q482 884 452 891T405 914T381 956T374 1022V1022Z" />
<glyph unicode="&#xc0;" glyph-name="Agrave" horiz-adv-x="1148" d="M736 468Q689 644 643 805T550 1112Q529 1039 506 958T460 793T416 625T376 468H736ZM838 0Q827 55 810 136T780 266H334Q318 198 304 131T278 0H20Q93 328 188 670T394 1350H748Q860 1019
952 691T1130 0H838ZM635 1438L237 1560L353 1716L713 1550L635 1438Z" />
<glyph unicode="&#xc1;" glyph-name="Aacute" horiz-adv-x="1148" d="M736 468Q689 644 643 805T550 1112Q529 1039 506 958T460 793T416 625T376 468H736ZM838 0Q827 55 810 136T780 266H334Q318 198 304 131T278 0H20Q93 328 188 670T394 1350H748Q860 1019
952 691T1130 0H838ZM497 1438L419 1550L779 1716L895 1560L497 1438Z" />
<glyph unicode="&#xc2;" glyph-name="Acircumflex" horiz-adv-x="1148" d="M736 468Q689 644 643 805T550 1112Q529 1039 506 958T460 793T416 625T376 468H736ZM838 0Q827 55 810 136T780 266H334Q318 198 304 131T278 0H20Q93 328 188 670T394 1350H748Q860
1019 952 691T1130 0H838ZM808 1438L568 1542L330 1438L266 1542L572 1716L876 1546L808 1438Z" />
<glyph unicode="&#xc3;" glyph-name="Atilde" horiz-adv-x="1148" d="M736 468Q689 644 643 805T550 1112Q529 1039 506 958T460 793T416 625T376 468H736ZM838 0Q827 55 810 136T780 266H334Q318 198 304 131T278 0H20Q93 328 188 670T394 1350H748Q860 1019
952 691T1130 0H838ZM915 1626Q867 1534 810 1490T669 1446Q624 1446 591 1459T533 1489T481 1524T433 1542Q404 1542 382 1523T319 1448L215 1522Q264 1613 321 1657T459 1702Q504 1702 537 1689T595 1658T647 1622T695 1604Q724 1604 746 1623T809 1700L915 1626Z"
/>
<glyph unicode="&#xc4;" glyph-name="Adieresis" horiz-adv-x="1148" d="M736 468Q689 644 643 805T550 1112Q529 1039 506 958T460 793T416 625T376 468H736ZM838 0Q827 55 810 136T780 266H334Q318 198 304 131T278 0H20Q93 328 188 670T394 1350H748Q860 1019
952 691T1130 0H838ZM901 1564Q901 1502 874 1477T777 1452Q707 1452 680 1476T653 1564Q653 1626 680 1651T777 1676Q847 1676 874 1652T901 1564ZM489 1564Q489 1502 462 1477T367 1452Q297 1452 270 1476T243 1564Q243 1626 270 1651T367 1676Q436 1676 462
1652T489 1564Z" />
<glyph unicode="&#xc5;" glyph-name="Aring" horiz-adv-x="1148" d="M736 468Q689 644 643 805T550 1112Q529 1039 506 958T460 793T416 625T376 468H736ZM838 0Q827 55 810 136T780 266H334Q318 198 304 131T278 0H20Q93 328 188 670T394 1350H748Q860 1019 952
691T1130 0H838ZM644 1548Q644 1622 568 1622Q488 1622 488 1548Q488 1512 507 1494T568 1476Q644 1476 644 1548ZM798 1554Q798 1474 735 1428T562 1382Q445 1382 391 1423T336 1546Q336 1624 399 1670T572 1716Q688 1716 743 1675T798 1554Z" />
<glyph unicode="&#xc6;" glyph-name="AE" horiz-adv-x="1470" d="M670 1146H668Q589 971 517 799T382 468H670V1146ZM670 0V266H316Q292 204 268 133T224 0H-42Q88 354 228 691T520 1350H1368V1144H940V794H1296V596H940V208H1376V0H670Z" />
<glyph unicode="&#xc7;" glyph-name="Ccedilla" horiz-adv-x="1032" d="M994 186Q925 87 820 33T588 -22Q82 -22 82 652Q82 997 220 1184T600 1372Q721 1372 816 1318T972 1152L848 1032Q764 1156 634 1156Q566 1156 515 1121T431 1021T381 872T364 688Q364 556
382 462T435 309T520 223T636 196Q705 196 765 227T884 324L994 186ZM697 -84Q712 -172 670 -240T531 -366L385 -308Q452 -247 471 -200T479 -84H697Z" />
<glyph unicode="&#xc8;" glyph-name="Egrave" horiz-adv-x="948" d="M148 0V1350H848V1144H418V794H774V596H418V208H856V0H148ZM559 1438L161 1560L277 1716L637 1550L559 1438Z" />
<glyph unicode="&#xc9;" glyph-name="Eacute" horiz-adv-x="948" d="M148 0V1350H848V1144H418V794H774V596H418V208H856V0H148ZM438 1438L360 1550L720 1716L836 1560L438 1438Z" />
<glyph unicode="&#xca;" glyph-name="Ecircumflex" horiz-adv-x="948" d="M148 0V1350H848V1144H418V794H774V596H418V208H856V0H148ZM734 1438L494 1542L256 1438L192 1542L498 1716L802 1546L734 1438Z" />
<glyph unicode="&#xcb;" glyph-name="Edieresis" horiz-adv-x="948" d="M148 0V1350H848V1144H418V794H774V596H418V208H856V0H148ZM826 1564Q826 1502 799 1477T702 1452Q632 1452 605 1476T578 1564Q578 1626 605 1651T702 1676Q772 1676 799 1652T826 1564ZM414
1564Q414 1502 387 1477T292 1452Q222 1452 195 1476T168 1564Q168 1626 195 1651T292 1676Q361 1676 387 1652T414 1564Z" />
<glyph unicode="&#xcc;" glyph-name="Igrave" horiz-adv-x="566" d="M148 0V1350H418V0H148ZM345 1438L-53 1560L63 1716L423 1550L345 1438Z" />
<glyph unicode="&#xcd;" glyph-name="Iacute" horiz-adv-x="566" d="M148 0V1350H418V0H148ZM205 1438L127 1550L487 1716L603 1560L205 1438Z" />
<glyph unicode="&#xce;" glyph-name="Icircumflex" horiz-adv-x="566" d="M148 0V1350H418V0H148ZM777 1438L537 1542L299 1438L235 1542L541 1716L845 1546L777 1438Z" />
<glyph unicode="&#xcf;" glyph-name="Idieresis" horiz-adv-x="566" d="M148 0V1350H418V0H148ZM614 1564Q614 1502 587 1477T490 1452Q420 1452 393 1476T366 1564Q366 1626 393 1651T490 1676Q560 1676 587 1652T614 1564ZM202 1564Q202 1502 175 1477T80 1452Q10
1452 -17 1476T-44 1564Q-44 1626 -17 1651T80 1676Q149 1676 175 1652T202 1564Z" />
<glyph unicode="&#xd0;" glyph-name="Eth" horiz-adv-x="1212" d="M846 682Q846 916 770 1034T530 1152Q510 1152 496 1152T467 1152T438 1150V794H632V596H438V204Q470 202 491 201T532 200Q691 200 768 322T846 682ZM1130 712Q1130 541 1092 408T974 183T774
42T488 -6Q424 -6 345 -4T168 0V596H60V794H168V1350Q238 1350 363 1352T548 1354Q704 1354 816 1306T997 1172T1098 969T1130 712Z" />
<glyph unicode="&#xd1;" glyph-name="Ntilde" horiz-adv-x="1300" d="M866 0L492 726Q446 816 411 895T362 1010H358Q362 969 367 877T372 686V0H148V1350H476L804 712Q849 626 886 543T938 422H942Q939 466 934 560T928 752V1350H1152V0H866ZM1020 1626Q972 1534
915 1490T774 1446Q729 1446 696 1459T638 1489T586 1524T538 1542Q509 1542 487 1523T424 1448L320 1522Q369 1613 426 1657T564 1702Q609 1702 642 1689T700 1658T752 1622T800 1604Q829 1604 851 1623T914 1700L1020 1626Z" />
<glyph unicode="&#xd2;" glyph-name="Ograve" horiz-adv-x="1282" d="M916 656Q916 800 898 898T844 1055T756 1140T634 1166Q571 1166 523 1143T439 1065T385 919T366 694Q366 550 384 452T437 294T524 210T646 184Q709 184 758 208T843 286T897 431T916 656ZM1200
700Q1200 514 1160 377T1045 152T865 21T626 -22Q491 -22 390 15T221 133T117 342T82 650Q82 836 121 973T236 1198T416 1329T654 1372Q789 1372 890 1335T1061 1217T1165 1008T1200 700ZM657 1438L259 1560L375 1716L735 1550L657 1438Z" />
<glyph unicode="&#xd3;" glyph-name="Oacute" horiz-adv-x="1282" d="M916 656Q916 800 898 898T844 1055T756 1140T634 1166Q571 1166 523 1143T439 1065T385 919T366 694Q366 550 384 452T437 294T524 210T646 184Q709 184 758 208T843 286T897 431T916 656ZM1200
700Q1200 514 1160 377T1045 152T865 21T626 -22Q491 -22 390 15T221 133T117 342T82 650Q82 836 121 973T236 1198T416 1329T654 1372Q789 1372 890 1335T1061 1217T1165 1008T1200 700ZM594 1438L516 1550L876 1716L992 1560L594 1438Z" />
<glyph unicode="&#xd4;" glyph-name="Ocircumflex" horiz-adv-x="1282" d="M916 656Q916 800 898 898T844 1055T756 1140T634 1166Q571 1166 523 1143T439 1065T385 919T366 694Q366 550 384 452T437 294T524 210T646 184Q709 184 758 208T843 286T897 431T916
656ZM1200 700Q1200 514 1160 377T1045 152T865 21T626 -22Q491 -22 390 15T221 133T117 342T82 650Q82 836 121 973T236 1198T416 1329T654 1372Q789 1372 890 1335T1061 1217T1165 1008T1200 700ZM879 1438L639 1542L401 1438L337 1542L643 1716L947 1546L879
1438Z" />
<glyph unicode="&#xd5;" glyph-name="Otilde" horiz-adv-x="1282" d="M916 656Q916 800 898 898T844 1055T756 1140T634 1166Q571 1166 523 1143T439 1065T385 919T366 694Q366 550 384 452T437 294T524 210T646 184Q709 184 758 208T843 286T897 431T916 656ZM1200
700Q1200 514 1160 377T1045 152T865 21T626 -22Q491 -22 390 15T221 133T117 342T82 650Q82 836 121 973T236 1198T416 1329T654 1372Q789 1372 890 1335T1061 1217T1165 1008T1200 700ZM992 1626Q944 1534 887 1490T746 1446Q701 1446 668 1459T610 1489T558
1524T510 1542Q481 1542 459 1523T396 1448L292 1522Q341 1613 398 1657T536 1702Q581 1702 614 1689T672 1658T724 1622T772 1604Q801 1604 823 1623T886 1700L992 1626Z" />
<glyph unicode="&#xd6;" glyph-name="Odieresis" horiz-adv-x="1282" d="M916 656Q916 800 898 898T844 1055T756 1140T634 1166Q571 1166 523 1143T439 1065T385 919T366 694Q366 550 384 452T437 294T524 210T646 184Q709 184 758 208T843 286T897 431T916 656ZM1200
700Q1200 514 1160 377T1045 152T865 21T626 -22Q491 -22 390 15T221 133T117 342T82 650Q82 836 121 973T236 1198T416 1329T654 1372Q789 1372 890 1335T1061 1217T1165 1008T1200 700ZM969 1564Q969 1502 942 1477T845 1452Q775 1452 748 1476T721 1564Q721
1626 748 1651T845 1676Q915 1676 942 1652T969 1564ZM557 1564Q557 1502 530 1477T435 1452Q365 1452 338 1476T311 1564Q311 1626 338 1651T435 1676Q504 1676 530 1652T557 1564Z" />
<glyph unicode="&#xd7;" glyph-name="multiply" horiz-adv-x="1000" d="M897 341L759 203L501 461L243 203L107 340L365 598L107 855L245 992L502 735L759 992L896 856L639 599L897 341Z" />
<glyph unicode="&#xd8;" glyph-name="Oslash" horiz-adv-x="1282" d="M1200 700Q1200 574 1182 472T1129 289T1044 151T930 54T790 -3T627 -22Q548 -22 478 -7T350 41L230 -159L91 -85L221 132Q154 209 118 336T82 650Q82 775 100 878T153 1061T238 1199T351 1296T491
1353T654 1372Q735 1372 804 1357T932 1309L1052 1509L1190 1435L1059 1219Q1127 1140 1163 1013T1200 700V700ZM933 655Q933 752 924 826T898 954L467 233Q502 201 547 186T648 171Q690 171 728 181T797 214T853 273T896 363T923 489T933 655V655ZM633 1180Q570
1180 518 1157T428 1078T370 929T349 695Q349 603 358 527T385 399L815 1118Q779 1150 734 1165T633 1180V1180Z" />
<glyph unicode="&#xd9;" glyph-name="Ugrave" horiz-adv-x="1304" d="M1158 488Q1158 352 1120 255T1012 96T846 7T630 -22Q384 -22 265 91T146 458V1350H416V486Q416 316 471 246T654 176Q712 176 756 191T831 240T878 330T894 470V1350H1158V488ZM673 1438L275
1560L391 1716L751 1550L673 1438Z" />
<glyph unicode="&#xda;" glyph-name="Uacute" horiz-adv-x="1304" d="M1158 488Q1158 352 1120 255T1012 96T846 7T630 -22Q384 -22 265 91T146 458V1350H416V486Q416 316 471 246T654 176Q712 176 756 191T831 240T878 330T894 470V1350H1158V488ZM633 1438L555
1550L915 1716L1031 1560L633 1438Z" />
<glyph unicode="&#xdb;" glyph-name="Ucircumflex" horiz-adv-x="1304" d="M1158 488Q1158 352 1120 255T1012 96T846 7T630 -22Q384 -22 265 91T146 458V1350H416V486Q416 316 471 246T654 176Q712 176 756 191T831 240T878 330T894 470V1350H1158V488ZM891 1438L651
1542L413 1438L349 1542L655 1716L959 1546L891 1438Z" />
<glyph unicode="&#xdc;" glyph-name="Udieresis" horiz-adv-x="1304" d="M1158 488Q1158 352 1120 255T1012 96T846 7T630 -22Q384 -22 265 91T146 458V1350H416V486Q416 316 471 246T654 176Q712 176 756 191T831 240T878 330T894 470V1350H1158V488ZM981 1564Q981
1502 954 1477T857 1452Q787 1452 760 1476T733 1564Q733 1626 760 1651T857 1676Q927 1676 954 1652T981 1564ZM569 1564Q569 1502 542 1477T447 1452Q377 1452 350 1476T323 1564Q323 1626 350 1651T447 1676Q516 1676 542 1652T569 1564Z" />
<glyph unicode="&#xdd;" glyph-name="Yacute" horiz-adv-x="978" d="M988 1350Q902 1110 813 915T624 564V0H354V564Q301 653 253 743T161 929T74 1129T-10 1350H286Q339 1195 392 1065T508 812Q568 925 620 1061T720 1350H988ZM467 1438L389 1550L749 1716L865
1560L467 1438Z" />
<glyph unicode="&#xde;" glyph-name="Thorn" horiz-adv-x="1082" d="M148 0V1350H419V1143Q446 1144 475 1144T540 1144Q678 1144 773 1114T928 1029T1014 896T1041 722Q1041 620 1011 533T913 383T737 283T470 246H418V0H148ZM418 444H500Q567 444 615 461T696
510T743 590T758 697Q758 757 744 803T699 882T618 930T498 946H418V444Z" />
<glyph unicode="&#xdf;" glyph-name="germandbls" horiz-adv-x="1132" d="M1082 302Q1082 235 1062 178T1001 77T899 9T758 -16Q618 -16 504 50L526 180Q562 171 606 166T688 160Q754 160 788 192T822 276Q822 317 801 348T736 411T656 470T586 529T532 611T510
726Q510 776 524 813T559 877T616 937T671 991T704 1043T718 1114Q718 1181 679 1218T566 1256Q469 1256 429 1195T388 1006V0H130V996Q130 1212 245 1326T572 1440Q766 1440 865 1362T964 1150Q964 1084 951 1038T916 961T868 908T817 863T779 818T766 760Q766
723 787 694T849 634T930 573T1005 507T1060 420T1082 302Z" />
<glyph unicode="&#xe0;" glyph-name="agrave" horiz-adv-x="1020" d="M636 452H560Q489 452 441 441T364 409T323 360T310 294Q310 232 344 197T444 162Q490 162 539 184T636 248V452ZM692 0L674 102Q604 42 531 10T368 -22Q217 -22 138 51T58 264Q58 425 188
517T574 610H636V686Q636 763 591 800T450 838Q377 838 300 822T146 778L112 934Q208 976 308 1000T514 1024Q701 1024 795 942T890 712V0H692ZM497 1110L185 1352L365 1450L627 1180L497 1110Z" />
<glyph unicode="&#xe1;" glyph-name="aacute" horiz-adv-x="1020" d="M636 452H560Q489 452 441 441T364 409T323 360T310 294Q310 232 344 197T444 162Q490 162 539 184T636 248V452ZM692 0L674 102Q604 42 531 10T368 -22Q217 -22 138 51T58 264Q58 425 188
517T574 610H636V686Q636 763 591 800T450 838Q377 838 300 822T146 778L112 934Q208 976 308 1000T514 1024Q701 1024 795 942T890 712V0H692ZM498 1110L370 1180L630 1450L812 1352L498 1110Z" />
<glyph unicode="&#xe2;" glyph-name="acircumflex" horiz-adv-x="1020" d="M636 452H560Q489 452 441 441T364 409T323 360T310 294Q310 232 344 197T444 162Q490 162 539 184T636 248V452ZM692 0L674 102Q604 42 531 10T368 -22Q217 -22 138 51T58 264Q58 425
188 517T574 610H636V686Q636 763 591 800T450 838Q377 838 300 822T146 778L112 934Q208 976 308 1000T514 1024Q701 1024 795 942T890 712V0H692ZM716 1112L502 1256L288 1112L212 1214L510 1462L796 1216L716 1112Z" />
<glyph unicode="&#xe3;" glyph-name="atilde" horiz-adv-x="1020" d="M636 452H560Q489 452 441 441T364 409T323 360T310 294Q310 232 344 197T444 162Q490 162 539 184T636 248V452ZM692 0L674 102Q604 42 531 10T368 -22Q217 -22 138 51T58 264Q58 425 188
517T574 610H636V686Q636 763 591 800T450 838Q377 838 300 822T146 778L112 934Q208 976 308 1000T514 1024Q701 1024 795 942T890 712V0H692ZM832 1320Q783 1227 728 1183T594 1138Q551 1138 518 1151T446 1192T395 1228T362 1236Q335 1236 314 1217T252 1142L152
1214Q199 1308 253 1352T388 1396Q431 1396 464 1383T536 1343T587 1308T620 1300Q648 1300 669 1319T730 1394L832 1320Z" />
<glyph unicode="&#xe4;" glyph-name="adieresis" horiz-adv-x="1020" d="M636 452H560Q489 452 441 441T364 409T323 360T310 294Q310 232 344 197T444 162Q490 162 539 184T636 248V452ZM692 0L674 102Q604 42 531 10T368 -22Q217 -22 138 51T58 264Q58 425 188
517T574 610H636V686Q636 763 591 800T450 838Q377 838 300 822T146 778L112 934Q208 976 308 1000T514 1024Q701 1024 795 942T890 712V0H692ZM430 1268Q430 1203 404 1178T308 1152Q237 1152 211 1176T184 1268Q184 1334 211 1360T308 1386Q379 1386 404 1362T430
1268ZM830 1268Q830 1203 803 1178T706 1152Q635 1152 609 1176T582 1268Q582 1334 609 1360T706 1386Q777 1386 803 1361T830 1268Z" />
<glyph unicode="&#xe5;" glyph-name="aring" horiz-adv-x="1020" d="M636 452H560Q489 452 441 441T364 409T323 360T310 294Q310 232 344 197T444 162Q490 162 539 184T636 248V452ZM692 0L674 102Q604 42 531 10T368 -22Q217 -22 138 51T58 264Q58 425 188 517T574
610H636V686Q636 763 591 800T450 838Q377 838 300 822T146 778L112 934Q208 976 308 1000T514 1024Q701 1024 795 942T890 712V0H692ZM581 1286Q581 1372 499 1372Q419 1372 419 1286Q419 1204 499 1204Q541 1204 561 1225T581 1286ZM741 1292Q741 1196 675 1141T495
1086Q373 1086 316 1135T259 1284Q259 1377 325 1432T505 1488Q625 1488 683 1438T741 1292Z" />
<glyph unicode="&#xe6;" glyph-name="ae" horiz-adv-x="1566" d="M636 452H560Q489 452 441 441T364 409T323 360T310 294Q310 232 344 197T444 162Q500 162 550 194T636 284V452ZM1230 614Q1230 852 1066 852Q985 852 940 787T888 610H1230V614ZM886 450V436Q886
301 943 238T1110 174Q1179 174 1264 189T1436 232L1472 84Q1377 34 1272 6T1060 -22Q937 -22 849 20T712 152Q645 68 559 23T368 -22Q217 -22 138 51T58 264Q58 425 188 517T574 610H636V686Q636 763 591 800T450 838Q377 838 300 822T146 778L112 934Q207 976
308 1000T514 1024Q616 1024 687 992T794 902Q850 963 918 993T1080 1024Q1179 1024 1255 994T1385 896T1463 718T1478 450H886Z" />
<glyph unicode="&#xe7;" glyph-name="ccedilla" horiz-adv-x="846" d="M814 126Q749 59 665 20T474 -20Q74 -20 74 488Q74 606 103 704T186 875T319 985T492 1024Q682 1024 792 898L702 766Q622 832 532 832Q443 832 393 750T342 510Q342 334 388 254T530 174Q630
174 734 258L814 126ZM576 -84Q591 -172 549 -240T410 -366L264 -308Q331 -247 350 -200T358 -84H576Z" />
<glyph unicode="&#xe8;" glyph-name="egrave" horiz-adv-x="1018" d="M680 614Q680 852 518 852Q436 852 391 787T340 610H680V614ZM338 450V436Q338 301 394 238T562 174Q631 174 715 189T886 232L924 84Q829 34 723 6T510 -22Q409 -22 329 5T192 90T105 244T74
474Q74 739 194 881T528 1024Q628 1024 705 994T836 896T914 718T928 450H338ZM518 1110L206 1352L386 1450L648 1180L518 1110Z" />
<glyph unicode="&#xe9;" glyph-name="eacute" horiz-adv-x="1018" d="M680 614Q680 852 518 852Q436 852 391 787T340 610H680V614ZM338 450V436Q338 301 394 238T562 174Q631 174 715 189T886 232L924 84Q829 34 723 6T510 -22Q409 -22 329 5T192 90T105 244T74
474Q74 739 194 881T528 1024Q628 1024 705 994T836 896T914 718T928 450H338ZM517 1110L389 1180L649 1450L831 1352L517 1110Z" />
<glyph unicode="&#xea;" glyph-name="ecircumflex" horiz-adv-x="1018" d="M680 614Q680 852 518 852Q436 852 391 787T340 610H680V614ZM338 450V436Q338 301 394 238T562 174Q631 174 715 189T886 232L924 84Q829 34 723 6T510 -22Q409 -22 329 5T192 90T105
244T74 474Q74 739 194 881T528 1024Q628 1024 705 994T836 896T914 718T928 450H338ZM733 1112L519 1256L305 1112L229 1214L527 1462L813 1216L733 1112Z" />
<glyph unicode="&#xeb;" glyph-name="edieresis" horiz-adv-x="1018" d="M680 614Q680 852 518 852Q436 852 391 787T340 610H680V614ZM338 450V436Q338 301 394 238T562 174Q631 174 715 189T886 232L924 84Q829 34 723 6T510 -22Q409 -22 329 5T192 90T105 244T74
474Q74 739 194 881T528 1024Q628 1024 705 994T836 896T914 718T928 450H338ZM444 1268Q444 1203 418 1178T322 1152Q251 1152 225 1176T198 1268Q198 1334 225 1360T322 1386Q393 1386 418 1362T444 1268ZM844 1268Q844 1203 817 1178T720 1152Q649 1152 623
1176T596 1268Q596 1334 623 1360T720 1386Q791 1386 817 1361T844 1268Z" />
<glyph unicode="&#xec;" glyph-name="igrave" horiz-adv-x="518" d="M131 0V1002H388V0H131ZM545 1110L233 1352L413 1450L675 1180L545 1110Z" />
<glyph unicode="&#xed;" glyph-name="iacute" horiz-adv-x="518" d="M131 0V1002H388V0H131ZM245 1110L117 1180L377 1450L559 1352L245 1110Z" />
<glyph unicode="&#xee;" glyph-name="icircumflex" horiz-adv-x="518" d="M131 0V1002H388V0H131ZM472 1112L258 1256L44 1112L-32 1214L266 1462L552 1216L472 1112Z" />
<glyph unicode="&#xef;" glyph-name="idieresis" horiz-adv-x="518" d="M131 0V1002H388V0H131ZM554 1268Q554 1235 548 1213T529 1178T492 1158T434 1152Q398 1152 375 1157T338 1176T318 1211T312 1268Q312 1302 318 1324T338 1360T375 1380T434 1386Q469 1386
492 1381T528 1362T548 1326T554 1268ZM210 1268Q210 1235 205 1213T186 1178T149 1158T90 1152Q54 1152 31 1157T-5 1176T-24 1211T-30 1268Q-30 1302 -25 1324T-6 1360T31 1380T90 1386Q126 1386 149 1381T185 1362T204 1326T210 1268Z" />
<glyph unicode="&#xf0;" glyph-name="eth" horiz-adv-x="1066" d="M706 552Q706 633 698 700T674 816Q655 822 620 827T554 832Q452 832 397 750T342 504Q342 335 389 257T528 178Q570 178 601 192T656 246T693 360T706 552ZM986 612Q986 440 951 319T850 123T697
14T498 -20Q284 -20 174 106T64 460Q64 586 95 687T187 861T336 972T534 1010Q560 1010 590 1007T630 998Q613 1033 587 1073T528 1150L342 1076L242 1196L424 1268Q382 1310 341 1346T252 1418H568Q594 1401 623 1375T676 1324L844 1392L944 1272L778 1206Q875
1084 930 934T986 612Z" />
<glyph unicode="&#xf1;" glyph-name="ntilde" horiz-adv-x="1092" d="M970 570Q970 530 969 487T966 336T963 151T962 0H706Q706 68 707 138T709 307T711 446T712 526Q712 614 704 671T678 760T636 805T574 818Q535 818 487 797T388 736V0H130V1002H342L360 896Q427
957 503 990T664 1024Q819 1024 894 917T970 570ZM895 1320Q846 1227 791 1183T657 1138Q614 1138 581 1151T509 1192T458 1228T425 1236Q398 1236 377 1217T315 1142L215 1214Q262 1308 316 1352T451 1396Q494 1396 527 1383T599 1343T650 1308T683 1300Q711 1300
732 1319T793 1394L895 1320Z" />
<glyph unicode="&#xf2;" glyph-name="ograve" horiz-adv-x="1076" d="M738 478Q738 582 725 651T686 760T625 817T538 834Q492 834 456 817T394 764T354 668T340 524Q340 420 353 351T391 241T453 185T540 168Q585 168 621 185T683 238T723 335T738 478ZM1002
520Q1002 250 875 114T518 -22Q299 -22 187 98T74 482Q74 753 201 888T558 1024Q666 1024 748 996T887 907T973 750T1002 520ZM535 1110L223 1352L403 1450L665 1180L535 1110Z" />
<glyph unicode="&#xf3;" glyph-name="oacute" horiz-adv-x="1076" d="M738 478Q738 582 725 651T686 760T625 817T538 834Q492 834 456 817T394 764T354 668T340 524Q340 420 353 351T391 241T453 185T540 168Q585 168 621 185T683 238T723 335T738 478ZM1002
520Q1002 250 875 114T518 -22Q299 -22 187 98T74 482Q74 753 201 888T558 1024Q666 1024 748 996T887 907T973 750T1002 520ZM529 1110L401 1180L661 1450L843 1352L529 1110Z" />
<glyph unicode="&#xf4;" glyph-name="ocircumflex" horiz-adv-x="1076" d="M738 478Q738 582 725 651T686 760T625 817T538 834Q492 834 456 817T394 764T354 668T340 524Q340 420 353 351T391 241T453 185T540 168Q585 168 621 185T683 238T723 335T738 478ZM1002
520Q1002 250 875 114T518 -22Q299 -22 187 98T74 482Q74 753 201 888T558 1024Q666 1024 748 996T887 907T973 750T1002 520ZM756 1112L542 1256L328 1112L252 1214L550 1462L836 1216L756 1112Z" />
<glyph unicode="&#xf5;" glyph-name="otilde" horiz-adv-x="1076" d="M738 478Q738 582 725 651T686 760T625 817T538 834Q492 834 456 817T394 764T354 668T340 524Q340 420 353 351T391 241T453 185T540 168Q585 168 621 185T683 238T723 335T738 478ZM1002
520Q1002 250 875 114T518 -22Q299 -22 187 98T74 482Q74 753 201 888T558 1024Q666 1024 748 996T887 907T973 750T1002 520ZM880 1320Q831 1227 776 1183T642 1138Q599 1138 566 1151T494 1192T443 1228T410 1236Q383 1236 362 1217T300 1142L200 1214Q247 1308
301 1352T436 1396Q479 1396 512 1383T584 1343T635 1308T668 1300Q696 1300 717 1319T778 1394L880 1320Z" />
<glyph unicode="&#xf6;" glyph-name="odieresis" horiz-adv-x="1076" d="M738 478Q738 582 725 651T686 760T625 817T538 834Q492 834 456 817T394 764T354 668T340 524Q340 420 353 351T391 241T453 185T540 168Q585 168 621 185T683 238T723 335T738 478ZM1002
520Q1002 250 875 114T518 -22Q299 -22 187 98T74 482Q74 753 201 888T558 1024Q666 1024 748 996T887 907T973 750T1002 520ZM467 1268Q467 1203 441 1178T345 1152Q274 1152 248 1176T221 1268Q221 1334 248 1360T345 1386Q416 1386 441 1362T467 1268ZM867 1268Q867
1203 840 1178T743 1152Q672 1152 646 1176T619 1268Q619 1334 646 1360T743 1386Q814 1386 840 1361T867 1268Z" />
<glyph unicode="&#xf7;" glyph-name="divide" horiz-adv-x="1000" d="M638 214Q638 176 633 151T612 110T569 89T500 82Q457 82 430 88T387 110T366 149T360 212Q360 252 365 278T387 319T430 340T501 347Q543 347 569 341T611 319T632 279T638 214V214ZM74 507V690H924V507H74ZM638
981Q638 943 633 918T612 878T570 857T501 851Q458 851 431 857T387 878T366 919T360 983Q360 1022 365 1047T387 1088T430 1109T500 1115Q542 1115 569 1109T611 1088T632 1047T638 981V981Z" />
<glyph unicode="&#xf8;" glyph-name="oslash" horiz-adv-x="1076" d="M756 476Q756 547 751 597T734 684L432 180Q451 167 479 161T540 154Q589 154 628 171T696 227T740 327T756 476ZM644 822Q604 848 536 848Q487 848 448 831T380 775T336 675T320 526Q320 459
326 408T344 316L644 822ZM1002 520Q1002 250 876 114T520 -22Q413 -22 330 12L226 -158L88 -82L194 90Q135 152 105 248T74 482Q74 753 200 888T556 1024Q613 1024 662 1016T746 990L850 1160L988 1086L882 912Q941 851 971 753T1002 520Z" />
<glyph unicode="&#xf9;" glyph-name="ugrave" horiz-adv-x="1092" d="M752 0L732 106Q665 45 589 12T430 -22Q274 -22 198 85T122 432Q122 472 123 515T126 666T129 851T130 1002H388Q388 934 387 864T384 697T381 557T380 476Q380 389 389 332T415 243T458 197T520
184Q559 184 606 206T704 266V1002H962V0H752ZM557 1110L245 1352L425 1450L687 1180L557 1110Z" />
<glyph unicode="&#xfa;" glyph-name="uacute" horiz-adv-x="1092" d="M752 0L732 106Q665 45 589 12T430 -22Q274 -22 198 85T122 432Q122 472 123 515T126 666T129 851T130 1002H388Q388 934 387 864T384 697T381 557T380 476Q380 389 389 332T415 243T458 197T520
184Q559 184 606 206T704 266V1002H962V0H752ZM541 1110L413 1180L673 1450L855 1352L541 1110Z" />
<glyph unicode="&#xfb;" glyph-name="ucircumflex" horiz-adv-x="1092" d="M752 0L732 106Q665 45 589 12T430 -22Q274 -22 198 85T122 432Q122 472 123 515T126 666T129 851T130 1002H388Q388 934 387 864T384 697T381 557T380 476Q380 389 389 332T415 243T458
197T520 184Q559 184 606 206T704 266V1002H962V0H752ZM760 1112L546 1256L332 1112L256 1214L554 1462L840 1216L760 1112Z" />
<glyph unicode="&#xfc;" glyph-name="udieresis" horiz-adv-x="1092" d="M752 0L732 106Q665 45 589 12T430 -22Q274 -22 198 85T122 432Q122 472 123 515T126 666T129 851T130 1002H388Q388 934 387 864T384 697T381 557T380 476Q380 389 389 332T415 243T458
197T520 184Q559 184 606 206T704 266V1002H962V0H752ZM471 1268Q471 1203 445 1178T349 1152Q278 1152 252 1176T225 1268Q225 1334 252 1360T349 1386Q420 1386 445 1362T471 1268ZM871 1268Q871 1203 844 1178T747 1152Q676 1152 650 1176T623 1268Q623 1334
650 1360T747 1386Q818 1386 844 1361T871 1268Z" />
<glyph unicode="&#xfd;" glyph-name="yacute" horiz-adv-x="962" d="M930 1002Q872 626 786 361T597 -62T385 -289T166 -358Q132 -358 92 -347T14 -316V-168Q35 -171 64 -172T114 -174Q205 -174 258 -130Q289 -103 302 -76T316 -12Q316 20 304 68T270 186L22 1002H298L454
440Q477 366 489 301T498 192Q527 282 553 381T602 587T641 798T664 1002H930ZM499 1110L371 1180L631 1450L813 1352L499 1110Z" />
<glyph unicode="&#xfe;" glyph-name="thorn" horiz-adv-x="1068" d="M730 504Q730 660 687 743T566 826Q530 826 482 803T388 738V180Q410 172 442 167T506 162Q609 162 669 247T730 504ZM994 542Q994 396 958 289T854 113T697 11T496 -22Q468 -22 437 -21T388
-16V-346H130V1418H388V922Q444 968 508 996T638 1024Q725 1024 792 987T904 884T971 731T994 542Z" />
<glyph unicode="&#xff;" glyph-name="ydieresis" horiz-adv-x="962" d="M930 1002Q872 626 786 361T597 -62T385 -289T166 -358Q132 -358 92 -347T14 -316V-168Q35 -171 64 -172T114 -174Q205 -174 258 -130Q289 -103 302 -76T316 -12Q316 20 304 68T270 186L22
1002H298L454 440Q477 366 489 301T498 192Q527 282 553 381T602 587T641 798T664 1002H930ZM409 1268Q409 1203 383 1178T287 1152Q216 1152 190 1176T163 1268Q163 1334 190 1360T287 1386Q358 1386 383 1362T409 1268ZM809 1268Q809 1203 782 1178T685 1152Q614
1152 588 1176T561 1268Q561 1334 588 1360T685 1386Q756 1386 782 1361T809 1268Z" />
<glyph unicode="&#x100;" glyph-name="Amacron" horiz-adv-x="1148" d="M736 468Q689 644 643 805T550 1112Q529 1039 506 958T460 793T416 625T376 468H736ZM838 0Q827 55 810 136T780 266H334Q318 198 304 131T278 0H20Q93 328 188 670T394 1350H748Q860 1019
952 691T1130 0H838ZM290 1484V1652H858V1484H290Z" />
<glyph unicode="&#x101;" glyph-name="amacron" horiz-adv-x="1020" d="M636 452H560Q489 452 441 441T364 409T323 360T310 294Q310 232 344 197T444 162Q490 162 539 184T636 248V452ZM692 0L674 102Q604 42 531 10T368 -22Q217 -22 138 51T58 264Q58 425 188
517T574 610H636V686Q636 763 591 800T450 838Q377 838 300 822T146 778L112 934Q208 976 308 1000T514 1024Q701 1024 795 942T890 712V0H692ZM227 1174V1354H785V1174H227Z" />
<glyph unicode="&#x102;" glyph-name="Abreve" horiz-adv-x="1148" d="M736 468Q689 644 643 805T550 1112Q529 1039 506 958T460 793T416 625T376 468H736ZM838 0Q827 55 810 136T780 266H334Q318 198 304 131T278 0H20Q93 328 188 670T394 1350H748Q860 1019
952 691T1130 0H838ZM861 1726Q861 1591 783 1510T569 1428Q431 1428 356 1506T281 1726H435Q435 1668 469 1631T571 1594Q638 1594 672 1631T707 1726H861Z" />
<glyph unicode="&#x103;" glyph-name="abreve" horiz-adv-x="1020" d="M636 452H560Q489 452 441 441T364 409T323 360T310 294Q310 232 344 197T444 162Q490 162 539 184T636 248V452ZM692 0L674 102Q604 42 531 10T368 -22Q217 -22 138 51T58 264Q58 425 188
517T574 610H636V686Q636 763 591 800T450 838Q377 838 300 822T146 778L112 934Q208 976 308 1000T514 1024Q701 1024 795 942T890 712V0H692ZM799 1444Q799 1284 721 1200T503 1116Q361 1116 286 1198T211 1444H369Q368 1363 400 1328T503 1292Q574 1292 607
1327T641 1444H799Z" />
<glyph unicode="&#x104;" glyph-name="Aogonek" horiz-adv-x="1148" d="M736 468Q689 644 643 805T550 1112Q529 1039 506 958T460 793T416 625T376 468H736ZM1080 -200L1114 -312Q1073 -337 1021 -350T922 -364Q726 -364 726 -218Q726 -162 756 -105T838 0Q827
55 810 136T780 266H334Q318 198 304 131T278 0H20Q93 328 188 670T394 1350H748Q860 1019 952 691T1130 0Q1075 -11 1037 -30T976 -72T944 -121T934 -170Q934 -224 994 -224Q1015 -224 1038 -218T1080 -200Z" />
<glyph unicode="&#x105;" glyph-name="aogonek" horiz-adv-x="1020" d="M636 452H560Q489 452 440 441T363 408T322 359T310 294Q310 232 344 197T444 162Q490 162 539 184T636 248V452ZM674 102Q604 42 531 10T368 -22Q217 -22 138 51T58 264Q58 425 188 517T574
610H636V686Q636 763 591 800T450 838Q377 838 300 822T146 778L112 934Q208 976 308 1000T514 1024Q701 1024 795 942T890 712V0Q830 -39 798 -81T766 -170Q766 -224 828 -224Q847 -224 870 -218T914 -200L948 -312Q907 -337 854 -350T754 -364Q560 -364 560 -218Q560
-159 594 -98T690 14L674 102Z" />
<glyph unicode="&#x106;" glyph-name="Cacute" horiz-adv-x="1032" d="M994 186Q925 87 820 33T588 -22Q82 -22 82 652Q82 997 220 1184T600 1372Q721 1372 816 1318T972 1152L848 1032Q764 1156 634 1156Q566 1156 515 1121T431 1021T381 872T364 688Q364 556
382 462T435 309T520 223T636 196Q705 196 765 227T884 324L994 186ZM560 1438L482 1550L842 1716L958 1560L560 1438Z" />
<glyph unicode="&#x107;" glyph-name="cacute" horiz-adv-x="846" d="M814 126Q749 59 665 20T474 -20Q74 -20 74 488Q74 606 103 704T186 875T319 985T492 1024Q682 1024 792 898L702 766Q622 832 532 832Q443 832 393 750T342 510Q342 334 388 254T530 174Q630
174 734 258L814 126ZM522 1110L394 1180L654 1450L836 1352L522 1110Z" />
<glyph unicode="&#x108;" glyph-name="Ccircumflex" horiz-adv-x="1032" d="M994 186Q925 87 820 33T588 -22Q82 -22 82 652Q82 997 220 1184T600 1372Q721 1372 816 1318T972 1152L848 1032Q764 1156 634 1156Q566 1156 515 1121T431 1021T381 872T364 688Q364
556 382 462T435 309T520 223T636 196Q705 196 765 227T884 324L994 186ZM830 1438L590 1542L352 1438L288 1542L594 1716L898 1546L830 1438Z" />
<glyph unicode="&#x109;" glyph-name="ccircumflex" horiz-adv-x="846" d="M814 126Q749 59 665 20T474 -20Q74 -20 74 488Q74 606 103 704T186 875T319 985T492 1024Q682 1024 792 898L702 766Q622 832 532 832Q443 832 393 750T342 510Q342 334 388 254T530
174Q630 174 734 258L814 126ZM702 1112L488 1256L274 1112L198 1214L496 1462L782 1216L702 1112Z" />
<glyph unicode="&#x10a;" glyph-name="Cdotaccent" horiz-adv-x="1032" d="M994 186Q925 87 820 33T588 -22Q82 -22 82 652Q82 997 220 1184T600 1372Q721 1372 816 1318T972 1152L848 1032Q764 1156 634 1156Q566 1156 515 1121T431 1021T381 872T364 688Q364
556 382 462T435 309T520 223T636 196Q705 196 765 227T884 324L994 186ZM730 1577Q730 1511 700 1486T588 1461Q544 1461 517 1466T475 1484T453 1519T446 1577Q446 1643 476 1668T588 1693Q632 1693 659 1688T701 1670T723 1635T730 1577Z" />
<glyph unicode="&#x10b;" glyph-name="cdotaccent" horiz-adv-x="846" d="M814 126Q749 59 665 20T474 -20Q74 -20 74 488Q74 606 103 704T186 875T319 985T492 1024Q682 1024 792 898L702 766Q622 832 532 832Q443 832 393 750T342 510Q342 334 388 254T530 174Q630
174 734 258L814 126ZM633 1279Q633 1206 602 1179T481 1151Q433 1151 404 1157T357 1178T334 1217T327 1279Q327 1352 358 1379T481 1407Q572 1407 602 1381T633 1279Z" />
<glyph unicode="&#x10c;" glyph-name="Ccaron" horiz-adv-x="1032" d="M994 186Q925 87 820 33T588 -22Q82 -22 82 652Q82 997 220 1184T600 1372Q721 1372 816 1318T972 1152L848 1032Q764 1156 634 1156Q566 1156 515 1121T431 1021T381 872T364 688Q364 556
382 462T435 309T520 223T636 196Q705 196 765 227T884 324L994 186ZM365 1716L605 1612L843 1716L909 1612L603 1438L299 1610L365 1716Z" />
<glyph unicode="&#x10d;" glyph-name="ccaron" horiz-adv-x="846" d="M814 126Q749 59 665 20T474 -20Q74 -20 74 488Q74 606 103 704T186 875T319 985T492 1024Q682 1024 792 898L702 766Q622 832 532 832Q443 832 393 750T342 510Q342 334 388 254T530 174Q630
174 734 258L814 126ZM484 1110L198 1356L276 1460L490 1316L704 1460L782 1358L484 1110Z" />
<glyph unicode="&#x10e;" glyph-name="Dcaron" horiz-adv-x="1192" d="M826 682Q826 916 750 1034T510 1152Q448 1152 418 1150V204Q450 202 471 201T512 200Q671 200 748 322T826 682ZM1110 712Q1110 541 1072 408T954 183T754 42T468 -6Q404 -6 325 -4T148 0V1350Q218
1350 343 1352T528 1354Q684 1354 796 1306T977 1172T1078 969T1110 712ZM325 1716L565 1612L803 1716L869 1612L563 1438L259 1610L325 1716Z" />
<glyph unicode="&#x10f;" glyph-name="dcaron" horiz-adv-x="1190" d="M680 820Q652 829 621 834T558 840Q456 840 397 754T338 496Q338 339 381 258T502 176Q539 176 585 197T680 260V820ZM728 0L708 102Q639 43 570 11T426 -22Q341 -22 275 14T164 117T97 270T74
460Q74 607 111 715T215 891T372 992T568 1024Q594 1024 617 1023T680 1018V1418H938V0H728ZM1130 1112L1002 1134L1068 1516L1252 1480L1130 1112Z" />
<glyph unicode="&#x110;" glyph-name="Dcroat" horiz-adv-x="1212" d="M846 682Q846 916 770 1034T530 1152Q510 1152 496 1152T467 1152T438 1150V794H632V596H438V204Q470 202 491 201T532 200Q691 200 768 322T846 682ZM1130 712Q1130 541 1092 408T974 183T774
42T488 -6Q424 -6 345 -4T168 0V596H60V794H168V1350Q238 1350 363 1352T548 1354Q704 1354 816 1306T997 1172T1098 969T1130 712Z" />
<glyph unicode="&#x111;" glyph-name="dcroat" horiz-adv-x="1068" d="M680 820Q652 829 621 834T558 840Q456 840 397 754T338 496Q338 339 381 258T502 176Q539 176 585 197T680 260V820ZM938 0H728L708 102Q639 43 570 11T426 -22Q341 -22 275 14T164 117T97
270T74 460Q74 607 111 715T215 891T372 992T568 1024Q594 1024 617 1023T680 1018V1128H490V1270H680V1418H938V1270H1070V1128H938V0Z" />
<glyph unicode="&#x112;" glyph-name="Emacron" horiz-adv-x="948" d="M148 0V1350H848V1144H418V794H774V596H418V208H856V0H148ZM211 1484V1652H779V1484H211Z" />
<glyph unicode="&#x113;" glyph-name="emacron" horiz-adv-x="1018" d="M680 614Q680 852 518 852Q436 852 391 787T340 610H680V614ZM338 450V436Q338 301 394 238T562 174Q631 174 715 189T886 232L924 84Q829 34 723 6T510 -22Q409 -22 329 5T192 90T105 244T74
474Q74 739 194 881T528 1024Q628 1024 705 994T836 896T914 718T928 450H338ZM235 1174V1354H793V1174H235Z" />
<glyph unicode="&#x114;" glyph-name="Ebreve" horiz-adv-x="948" d="M148 0V1350H848V1144H418V794H774V596H418V208H856V0H148ZM783 1726Q783 1591 705 1510T491 1428Q353 1428 278 1506T203 1726H357Q357 1668 391 1631T493 1594Q560 1594 594 1631T629 1726H783Z" />
<glyph unicode="&#x115;" glyph-name="ebreve" horiz-adv-x="1018" d="M680 614Q680 852 518 852Q436 852 391 787T340 610H680V614ZM338 450V436Q338 301 394 238T562 174Q631 174 715 189T886 232L924 84Q829 34 723 6T510 -22Q409 -22 329 5T192 90T105 244T74
474Q74 739 194 881T528 1024Q628 1024 705 994T836 896T914 718T928 450H338ZM810 1444Q810 1284 732 1200T514 1116Q372 1116 297 1198T222 1444H380Q379 1363 411 1328T514 1292Q585 1292 618 1327T652 1444H810Z" />
<glyph unicode="&#x116;" glyph-name="Edotaccent" horiz-adv-x="948" d="M148 0V1350H848V1144H418V794H774V596H418V208H856V0H148ZM643 1570Q643 1504 613 1479T501 1454Q457 1454 430 1459T388 1477T366 1512T359 1570Q359 1636 389 1661T501 1686Q545 1686
572 1681T614 1663T636 1628T643 1570Z" />
<glyph unicode="&#x117;" glyph-name="edotaccent" horiz-adv-x="1018" d="M680 614Q680 852 518 852Q436 852 391 787T340 610H680V614ZM338 450V436Q338 301 394 238T562 174Q631 174 715 189T886 232L924 84Q829 34 723 6T510 -22Q409 -22 329 5T192 90T105
244T74 474Q74 739 194 881T528 1024Q628 1024 705 994T836 896T914 718T928 450H338ZM670 1279Q670 1206 639 1179T518 1151Q470 1151 441 1157T394 1178T371 1217T364 1279Q364 1352 395 1379T518 1407Q609 1407 639 1381T670 1279Z" />
<glyph unicode="&#x118;" glyph-name="Eogonek" horiz-adv-x="948" d="M856 0Q789 -34 755 -78T720 -170Q720 -224 780 -224Q801 -224 824 -218T866 -200L900 -312Q859 -337 807 -350T708 -364Q512 -364 512 -218Q512 -162 543 -105T626 0H148V1350H848V1144H418V794H774V596H418V208H856V0Z"
/>
<glyph unicode="&#x119;" glyph-name="eogonek" horiz-adv-x="1018" d="M680 614Q680 852 518 852Q435 852 390 786T340 610H680V614ZM924 84Q888 54 856 21T799 -46T760 -112T746 -170Q746 -224 806 -224Q827 -224 850 -218T892 -200L926 -312Q885 -337 833 -350T734
-364Q538 -364 538 -218Q538 -164 567 -110T650 -6Q617 -14 581 -18T510 -22Q409 -22 329 5T192 90T105 244T74 474Q74 739 194 881T528 1024Q628 1024 705 994T836 896T914 718T928 450H338V436Q338 301 394 238T562 174Q631 174 715 189T886 232L924 84Z" />
<glyph unicode="&#x11a;" glyph-name="Ecaron" horiz-adv-x="948" d="M148 0V1350H848V1144H418V794H774V596H418V208H856V0H148ZM255 1716L495 1612L733 1716L799 1612L493 1438L189 1610L255 1716Z" />
<glyph unicode="&#x11b;" glyph-name="ecaron" horiz-adv-x="1018" d="M680 614Q680 852 518 852Q436 852 391 787T340 610H680V614ZM338 450V436Q338 301 394 238T562 174Q631 174 715 189T886 232L924 84Q829 34 723 6T510 -22Q409 -22 329 5T192 90T105 244T74
474Q74 739 194 881T528 1024Q628 1024 705 994T836 896T914 718T928 450H338ZM515 1110L229 1356L307 1460L521 1316L735 1460L813 1358L515 1110Z" />
<glyph unicode="&#x11c;" glyph-name="Gcircumflex" horiz-adv-x="1152" d="M1030 138Q940 63 826 21T570 -22Q331 -22 207 145T82 648Q82 825 122 961T236 1189T411 1326T636 1372Q757 1372 856 1318T1020 1170L902 1058Q836 1108 776 1133T650 1158Q514 1158
439 1043T364 692Q364 557 381 462T430 307T509 221T614 194Q662 194 700 206T764 238V578H604V776H1030V138ZM864 1438L624 1542L386 1438L322 1542L628 1716L932 1546L864 1438Z" />
<glyph unicode="&#x11d;" glyph-name="gcircumflex" horiz-adv-x="1068" d="M680 820Q652 829 620 834T556 840Q457 840 398 757T338 520Q338 368 382 287T504 206Q541 206 589 230T680 290V820ZM938 38Q938 -79 906 -158T815 -282T681 -345T510 -364Q350 -364
154 -284L174 -140Q270 -156 345 -165T482 -174Q587 -174 633 -136T680 -4V114Q619 69 556 42T426 14Q342 14 276 50T165 150T97 300T74 482Q74 620 112 723T219 892T383 991T592 1024Q674 1024 766 1012T938 982V38ZM746 1112L532 1256L318 1112L242 1214L540
1462L826 1216L746 1112Z" />
<glyph unicode="&#x11e;" glyph-name="Gbreve" horiz-adv-x="1152" d="M1030 138Q940 63 826 21T570 -22Q331 -22 207 145T82 648Q82 825 122 961T236 1189T411 1326T636 1372Q757 1372 856 1318T1020 1170L902 1058Q836 1108 776 1133T650 1158Q514 1158 439
1043T364 692Q364 557 381 462T430 307T509 221T614 194Q662 194 700 206T764 238V578H604V776H1030V138ZM889 1726Q889 1591 811 1510T597 1428Q459 1428 384 1506T309 1726H463Q463 1668 497 1631T599 1594Q666 1594 700 1631T735 1726H889Z" />
<glyph unicode="&#x11f;" glyph-name="gbreve" horiz-adv-x="1068" d="M680 820Q652 829 620 834T556 840Q457 840 398 757T338 520Q338 368 382 287T504 206Q541 206 589 230T680 290V820ZM938 38Q938 -79 906 -158T815 -282T681 -345T510 -364Q350 -364 154
-284L174 -140Q270 -156 345 -165T482 -174Q587 -174 633 -136T680 -4V114Q619 69 556 42T426 14Q342 14 276 50T165 150T97 300T74 482Q74 620 112 723T219 892T383 991T592 1024Q674 1024 766 1012T938 982V38ZM848 1444Q848 1284 770 1200T552 1116Q410 1116
335 1198T260 1444H418Q417 1363 449 1328T552 1292Q623 1292 656 1327T690 1444H848Z" />
<glyph unicode="&#x120;" glyph-name="Gdotaccent" horiz-adv-x="1152" d="M1030 138Q940 63 826 21T570 -22Q331 -22 207 145T82 648Q82 825 122 961T236 1189T411 1326T636 1372Q757 1372 856 1318T1020 1170L902 1058Q836 1108 776 1133T650 1158Q514 1158
439 1043T364 692Q364 557 381 462T430 307T509 221T614 194Q662 194 700 206T764 238V578H604V776H1030V138ZM760 1577Q760 1511 730 1486T618 1461Q574 1461 547 1466T505 1484T483 1519T476 1577Q476 1643 506 1668T618 1693Q662 1693 689 1688T731 1670T753
1635T760 1577Z" />
<glyph unicode="&#x121;" glyph-name="gdotaccent" horiz-adv-x="1068" d="M680 820Q652 829 620 834T556 840Q457 840 398 757T338 520Q338 368 382 287T504 206Q541 206 589 230T680 290V820ZM938 38Q938 -79 906 -158T815 -282T681 -345T510 -364Q350 -364
154 -284L174 -140Q270 -156 345 -165T482 -174Q587 -174 633 -136T680 -4V114Q619 69 556 42T426 14Q342 14 276 50T165 150T97 300T74 482Q74 620 112 723T219 892T383 991T592 1024Q674 1024 766 1012T938 982V38ZM685 1279Q685 1206 654 1179T533 1151Q485
1151 456 1157T409 1178T386 1217T379 1279Q379 1352 410 1379T533 1407Q624 1407 654 1381T685 1279Z" />
<glyph unicode="&#x122;" glyph-name="Gcommaaccent" horiz-adv-x="1152" d="M1030 138Q940 63 826 21T570 -22Q331 -22 207 145T82 648Q82 825 122 961T236 1189T411 1326T636 1372Q757 1372 856 1318T1020 1170L902 1058Q836 1108 776 1133T650 1158Q514 1158
439 1043T364 692Q364 557 381 462T430 307T509 221T614 194Q662 194 700 206T764 238V578H604V776H1030V138ZM597 -68Q648 -68 675 -94T703 -170Q703 -259 633 -306T423 -362L393 -278Q448 -263 475 -245T503 -202Q503 -195 502 -192T497 -181T491 -167T489 -148Q489
-112 517 -90T597 -68Z" />
<glyph unicode="&#x123;" glyph-name="gcommaaccent" horiz-adv-x="1068" d="M680 820Q652 829 620 834T556 840Q457 840 398 757T338 520Q338 368 382 287T504 206Q541 206 589 230T680 290V820ZM938 38Q938 -79 906 -158T815 -282T681 -345T510 -364Q350 -364
154 -284L174 -140Q270 -156 345 -165T482 -174Q587 -174 633 -136T680 -4V114Q619 69 556 42T426 14Q342 14 276 50T165 150T97 300T74 482Q74 620 112 723T219 892T383 991T592 1024Q674 1024 766 1012T938 982V38ZM599 1122Q550 1122 523 1149T495 1226Q495
1321 569 1375T793 1434L821 1348Q758 1335 726 1310T693 1258Q693 1252 694 1249T699 1238T705 1224T707 1204Q707 1167 679 1145T599 1122Z" />
<glyph unicode="&#x124;" glyph-name="Hcircumflex" horiz-adv-x="1316" d="M898 0V592H418V0H148V1350H418V818H898V1350H1168V0H898ZM895 1438L655 1542L417 1438L353 1542L659 1716L963 1546L895 1438Z" />
<glyph unicode="&#x125;" glyph-name="hcircumflex" horiz-adv-x="1092" d="M970 570Q970 531 970 491T967 341T963 153T962 0H706Q706 69 707 140T709 311T711 450T712 524Q712 613 703 670T677 760T635 805T572 818Q535 818 487 797T388 736V0H130V1418H388V916Q447
965 516 994T662 1024Q739 1024 796 999T891 920T950 780T970 570ZM502 1491L262 1595L24 1491L-40 1595L266 1769L570 1599L502 1491Z" />
<glyph unicode="&#x126;" glyph-name="Hbar" horiz-adv-x="1356" d="M918 0V546H438V0H168V961H30V1151H168V1350H438V1151H918V1350H1188V1151H1325V961H1188V0H918ZM918 761V961H438V761H918Z" />
<glyph unicode="&#x127;" glyph-name="hbar" horiz-adv-x="1092" d="M705 0Q705 77 706 151T708 293T711 418T712 519Q712 608 703 665T677 755T633 800T573 813Q554 813 532 808T487 792T438 766T388 730V0H131V1132H4V1307H131V1435H388V1307H652V1132H388V911Q415
934 445 953T510 987T583 1010T662 1019Q737 1019 795 994T891 915T950 775T970 565Q970 520 969 457T966 320T964 165T963 0H705Z" />
<glyph unicode="&#x128;" glyph-name="Itilde" horiz-adv-x="566" d="M148 0V1350H418V0H148ZM635 1626Q587 1534 530 1490T389 1446Q344 1446 311 1459T253 1489T201 1524T153 1542Q124 1542 102 1523T39 1448L-65 1522Q-16 1613 41 1657T179 1702Q224 1702 257
1689T315 1658T367 1622T415 1604Q444 1604 466 1623T529 1700L635 1626Z" />
<glyph unicode="&#x129;" glyph-name="itilde" horiz-adv-x="518" d="M131 0V1002H388V0H131ZM601 1320Q552 1227 497 1183T363 1138Q320 1138 287 1151T215 1192T164 1228T131 1236Q104 1236 83 1217T21 1142L-79 1214Q-32 1308 22 1352T157 1396Q200 1396 233
1383T305 1343T356 1308T389 1300Q417 1300 438 1319T499 1394L601 1320Z" />
<glyph unicode="&#x12a;" glyph-name="Imacron" horiz-adv-x="566" d="M148 0V1350H418V0H148ZM256 1484V1652H824V1484H256Z" />
<glyph unicode="&#x12b;" glyph-name="imacron" horiz-adv-x="518" d="M131 0V1002H388V0H131ZM238 1174V1354H796V1174H238Z" />
<glyph unicode="&#x12c;" glyph-name="Ibreve" horiz-adv-x="566" d="M148 0V1350H418V0H148ZM831 1726Q831 1591 753 1510T539 1428Q401 1428 326 1506T251 1726H405Q405 1668 439 1631T541 1594Q608 1594 642 1631T677 1726H831Z" />
<glyph unicode="&#x12d;" glyph-name="ibreve" horiz-adv-x="518" d="M131 0V1002H388V0H131ZM556 1444Q556 1284 478 1200T260 1116Q118 1116 43 1198T-32 1444H126Q125 1363 157 1328T260 1292Q331 1292 364 1327T398 1444H556Z" />
<glyph unicode="&#x12e;" glyph-name="Iogonek" horiz-adv-x="566" d="M148 1350H418V0Q376 -11 344 -29T290 -71T259 -120T248 -170Q248 -224 310 -224Q329 -224 352 -218T396 -200L430 -312Q389 -337 336 -350T236 -364Q42 -364 42 -218Q42 -164 70 -109T148 0V1350Z" />
<glyph unicode="&#x12f;" glyph-name="iogonek" horiz-adv-x="518" d="M130 1002H388V0Q349 -11 319 -29T268 -71T238 -120T228 -170Q228 -224 290 -224Q310 -224 334 -217T376 -200L410 -312Q370 -337 317 -350T218 -364Q22 -364 22 -218Q22 -163 50 -108T130
0V1002ZM412 1268Q412 1191 382 1162T260 1132Q212 1132 183 1139T136 1161T113 1202T106 1268Q106 1343 138 1371T260 1400Q352 1400 382 1373T412 1268Z" />
<glyph unicode="&#x130;" glyph-name="Idotaccent" horiz-adv-x="566" d="M148 0V1350H418V0H148ZM423 1570Q423 1504 393 1479T281 1454Q237 1454 210 1459T168 1477T146 1512T139 1570Q139 1636 169 1661T281 1686Q325 1686 352 1681T394 1663T416 1628T423 1570Z" />
<glyph unicode="&#x131;" glyph-name="dotlessi" horiz-adv-x="518" d="M131 0V1002H388V0H131Z" />
<glyph unicode="&#x132;" glyph-name="IJ" horiz-adv-x="1142" d="M148 0V1350H418V0H148ZM995 142Q995 -20 936 -140T743 -350L611 -242Q647 -199 669 -155T704 -61T720 42T725 166V1350H995V142Z" />
<glyph unicode="&#x133;" glyph-name="ij" horiz-adv-x="1036" d="M130 0V1002H388V0H130ZM412 1266Q412 1189 381 1161T260 1132Q213 1132 183 1138T137 1160T113 1201T106 1266Q106 1342 138 1371T260 1400Q352 1400 382 1373T412 1266ZM906 90Q906 -56 855
-161T688 -364L520 -288Q578 -218 613 -137T648 40V1002H906V90ZM930 1266Q930 1190 900 1161T778 1132Q732 1132 702 1139T655 1161T631 1202T624 1266Q624 1342 655 1371T778 1400Q870 1400 900 1372T930 1266Z" />
<glyph unicode="&#x134;" glyph-name="Jcircumflex" horiz-adv-x="576" d="M428 142Q428 -20 369 -140T176 -350L44 -242Q80 -199 102 -155T137 -61T153 42T158 166V1350H428V142ZM787 1438L547 1542L309 1438L245 1542L551 1716L855 1546L787 1438Z" />
<glyph unicode="&#x135;" glyph-name="jcircumflex" horiz-adv-x="518" d="M388 90Q388 17 376 -45T337 -161T269 -265T169 -364L1 -288Q61 -218 96 -136T131 41V1002H388V90ZM473 1112L259 1256L45 1112L-31 1214L267 1462L553 1216L473 1112Z" />
<glyph unicode="&#x136;" glyph-name="Kcommaaccent" horiz-adv-x="1094" d="M760 0L422 626H418V0H148V1350H418V776H422L746 1350H1036L660 748L1066 0H760ZM574 -68Q625 -68 652 -94T680 -170Q680 -259 610 -306T400 -362L370 -278Q425 -263 452 -245T480 -202Q480
-195 479 -192T474 -181T468 -167T466 -148Q466 -112 494 -90T574 -68Z" />
<glyph unicode="&#x137;" glyph-name="kcommaaccent" horiz-adv-x="980" d="M662 0L396 494H388V0H130V1418H388V598H396L634 1002H930L630 574L962 0H662ZM511 -68Q562 -68 589 -94T617 -170Q617 -259 547 -306T337 -362L307 -278Q362 -263 389 -245T417 -202Q417
-195 416 -192T411 -181T405 -167T403 -148Q403 -112 431 -90T511 -68Z" />
<glyph unicode="&#x138;" glyph-name="kgreenlandic" horiz-adv-x="980" d="M661 0L397 473H388V0H131V1002H388V578H397L633 1002H930L631 553L961 0H661Z" />
<glyph unicode="&#x139;" glyph-name="Lacute" horiz-adv-x="842" d="M148 0V1350H418V210H810V0H148ZM297 1438L219 1550L579 1716L695 1560L297 1438Z" />
<glyph unicode="&#x13a;" glyph-name="lacute" horiz-adv-x="550" d="M514 10Q478 -2 432 -9T328 -16Q277 -16 241 -7T180 24T143 86T130 186V1418H388V288Q388 245 391 220T401 182T421 165T456 160Q463 160 480 161T504 162L514 10ZM250 1465L172 1577L532 1743L648
1587L250 1465Z" />
<glyph unicode="&#x13b;" glyph-name="Lcommaaccent" horiz-adv-x="842" d="M148 0V1350H418V210H810V0H148ZM473 -68Q524 -68 551 -94T579 -170Q579 -259 509 -306T299 -362L269 -278Q324 -263 351 -245T379 -202Q379 -195 378 -192T373 -181T367 -167T365 -148Q365
-112 393 -90T473 -68Z" />
<glyph unicode="&#x13c;" glyph-name="lcommaaccent" horiz-adv-x="550" d="M514 10Q478 -2 432 -9T328 -16Q277 -16 241 -7T180 24T143 86T130 186V1418H388V288Q388 245 391 220T401 182T421 165T456 160Q463 160 480 161T504 162L514 10ZM353 -68Q404 -68 431
-94T459 -170Q459 -259 389 -306T179 -362L149 -278Q204 -263 231 -245T259 -202Q259 -195 258 -192T253 -181T247 -167T245 -148Q245 -112 273 -90T353 -68Z" />
<glyph unicode="&#x13d;" glyph-name="Lcaron" horiz-adv-x="842" d="M148 0V1350H418V210H810V0H148ZM670 1112L542 1134L608 1516L792 1480L670 1112Z" />
<glyph unicode="&#x13e;" glyph-name="lcaron" horiz-adv-x="660" d="M514 10Q478 -2 432 -9T328 -16Q277 -16 241 -7T180 24T143 86T130 186V1418H388V288Q388 245 391 220T401 182T421 165T456 160Q463 160 480 161T504 162L514 10ZM581 1112L453 1134L519 1516L703
1480L581 1112Z" />
<glyph unicode="&#x13f;" glyph-name="Ldot" horiz-adv-x="1044" d="M148 0V1350H418V210H810V0H148ZM987 678Q987 634 982 606T960 560T914 537T841 530Q794 530 766 536T720 560T698 605T692 676Q692 720 697 749T720 795T766 819T842 826Q886 826 914 819T959
795T981 750T987 678V678Z" />
<glyph unicode="&#x140;" glyph-name="ldot" horiz-adv-x="984" d="M514 10Q478 -2 432 -9T328 -16Q277 -16 241 -7T180 24T143 86T130 186V1418H388V288Q388 245 391 220T401 182T421 165T456 160Q463 160 480 161T504 162L514 10ZM899 598Q899 554 894 526T872
480T826 457T753 450Q706 450 678 456T632 480T610 525T604 596Q604 640 609 669T632 715T678 739T754 746Q798 746 826 739T871 715T893 670T899 598V598Z" />
<glyph unicode="&#x141;" glyph-name="Lslash" horiz-adv-x="856" d="M162 0V620L40 556V742L162 806V1350H432V942L634 1050V864L432 758V210H824V0H162Z" />
<glyph unicode="&#x142;" glyph-name="lslash" horiz-adv-x="566" d="M528 10Q453 -16 342 -16Q291 -16 255 -7T195 24T158 86T146 186V608L24 542V728L146 794V1418H402V934L524 1000V812L402 746V288Q402 206 415 183T470 160Q477 160 494 161T518 162L528 10Z" />
<glyph unicode="&#x143;" glyph-name="Nacute" horiz-adv-x="1300" d="M866 0L492 726Q446 816 411 895T362 1010H358Q362 969 367 877T372 686V0H148V1350H476L804 712Q849 626 886 543T938 422H942Q939 466 934 560T928 752V1350H1152V0H866ZM633 1438L555 1550L915
1716L1031 1560L633 1438Z" />
<glyph unicode="&#x144;" glyph-name="nacute" horiz-adv-x="1092" d="M970 570Q970 530 969 487T966 336T963 151T962 0H706Q706 68 707 138T709 307T711 446T712 526Q712 614 704 671T678 760T636 805T574 818Q535 818 487 797T388 736V0H130V1002H342L360 896Q427
957 503 990T664 1024Q819 1024 894 917T970 570ZM554 1110L426 1180L686 1450L868 1352L554 1110Z" />
<glyph unicode="&#x145;" glyph-name="Ncommaaccent" horiz-adv-x="1300" d="M866 0L492 726Q446 816 411 895T362 1010H358Q362 969 367 877T372 686V0H148V1350H476L804 712Q849 626 886 543T938 422H942Q939 466 934 560T928 752V1350H1152V0H866ZM633 -68Q684
-68 711 -94T739 -170Q739 -259 669 -306T459 -362L429 -278Q484 -263 511 -245T539 -202Q539 -195 538 -192T533 -181T527 -167T525 -148Q525 -112 553 -90T633 -68Z" />
<glyph unicode="&#x146;" glyph-name="ncommaaccent" horiz-adv-x="1092" d="M970 570Q970 530 969 487T966 336T963 151T962 0H706Q706 68 707 138T709 307T711 446T712 526Q712 614 704 671T678 760T636 805T574 818Q535 818 487 797T388 736V0H130V1002H342L360
896Q427 957 503 990T664 1024Q819 1024 894 917T970 570ZM543 -68Q594 -68 621 -94T649 -170Q649 -259 579 -306T369 -362L339 -278Q394 -263 421 -245T449 -202Q449 -195 448 -192T443 -181T437 -167T435 -148Q435 -112 463 -90T543 -68Z" />
<glyph unicode="&#x147;" glyph-name="Ncaron" horiz-adv-x="1300" d="M866 0L492 726Q446 816 411 895T362 1010H358Q362 969 367 877T372 686V0H148V1350H476L804 712Q849 626 886 543T938 422H942Q939 466 934 560T928 752V1350H1152V0H866ZM444 1716L684 1612L922
1716L988 1612L682 1438L378 1610L444 1716Z" />
<glyph unicode="&#x148;" glyph-name="ncaron" horiz-adv-x="1092" d="M970 570Q970 530 969 487T966 336T963 151T962 0H706Q706 68 707 138T709 307T711 446T712 526Q712 614 704 671T678 760T636 805T574 818Q535 818 487 797T388 736V0H130V1002H342L360 896Q427
957 503 990T664 1024Q819 1024 894 917T970 570ZM546 1110L260 1356L338 1460L552 1316L766 1460L844 1358L546 1110Z" />
<glyph unicode="&#x149;" glyph-name="napostrophe" horiz-adv-x="1214" d="M340 1398Q340 1338 327 1287T285 1190T212 1102T106 1018L24 1102Q59 1128 83 1151T121 1195T142 1232T148 1266Q148 1283 143 1291T123 1315T101 1350T94 1398Q94 1438 99 1462T117
1502T156 1523T222 1530Q259 1530 282 1523T318 1500T335 1460T340 1398ZM1092 570Q1092 530 1091 487T1088 336T1085 151T1084 0H828Q828 68 829 138T831 307T833 446T834 526Q834 614 826 671T800 760T758 805T696 818Q657 818 609 797T510 736V0H252V1002H464L482
896Q549 957 625 990T786 1024Q941 1024 1016 917T1092 570Z" />
<glyph unicode="&#x14a;" glyph-name="Eng" horiz-adv-x="1300" d="M1152 89Q1152 17 1139 -47T1096 -167T1018 -273T901 -365L780 -253Q809 -227 830 -196T864 -132T883 -66T889 0H858L491 726Q464 779 440 830T399 922Q378 968 362 1010H359Q363 961 365 907Q368
861 370 804T372 686V0H148V1350H475L805 703Q831 651 855 600T898 506Q920 456 939 410H942Q938 462 935 519Q933 567 931 626T929 744V1350H1152V89Z" />
<glyph unicode="&#x14b;" glyph-name="eng" horiz-adv-x="1092" d="M580 -288Q640 -218 675 -136T710 41V526Q710 615 702 672T676 761T634 805T574 818Q553 818 531 813T485 796T437 769T388 736V0H131V1002H341L360 896Q392 926 427 949T501 989T579 1015T663
1024Q739 1024 796 999T891 920T948 779T967 570V90Q967 17 955 -45T916 -161T848 -265T748 -364L580 -288Z" />
<glyph unicode="&#x14c;" glyph-name="Omacron" horiz-adv-x="1282" d="M916 656Q916 800 898 898T844 1055T756 1140T634 1166Q571 1166 523 1143T439 1065T385 919T366 694Q366 550 384 452T437 294T524 210T646 184Q709 184 758 208T843 286T897 431T916 656ZM1200
700Q1200 514 1160 377T1045 152T865 21T626 -22Q491 -22 390 15T221 133T117 342T82 650Q82 836 121 973T236 1198T416 1329T654 1372Q789 1372 890 1335T1061 1217T1165 1008T1200 700ZM357 1484V1652H925V1484H357Z" />
<glyph unicode="&#x14d;" glyph-name="omacron" horiz-adv-x="1076" d="M738 478Q738 582 725 651T686 760T625 817T538 834Q492 834 456 817T394 764T354 668T340 524Q340 420 353 351T391 241T453 185T540 168Q585 168 621 185T683 238T723 335T738 478ZM1002
520Q1002 250 875 114T518 -22Q299 -22 187 98T74 482Q74 753 201 888T558 1024Q666 1024 748 996T887 907T973 750T1002 520ZM260 1174V1354H818V1174H260Z" />
<glyph unicode="&#x14e;" glyph-name="Obreve" horiz-adv-x="1282" d="M916 656Q916 800 898 898T844 1055T756 1140T634 1166Q571 1166 523 1143T439 1065T385 919T366 694Q366 550 384 452T437 294T524 210T646 184Q709 184 758 208T843 286T897 431T916 656ZM1200
700Q1200 514 1160 377T1045 152T865 21T626 -22Q491 -22 390 15T221 133T117 342T82 650Q82 836 121 973T236 1198T416 1329T654 1372Q789 1372 890 1335T1061 1217T1165 1008T1200 700ZM932 1726Q932 1591 854 1510T640 1428Q502 1428 427 1506T352 1726H506Q506
1668 540 1631T642 1594Q709 1594 743 1631T778 1726H932Z" />
<glyph unicode="&#x14f;" glyph-name="obreve" horiz-adv-x="1076" d="M738 478Q738 582 725 651T686 760T625 817T538 834Q492 834 456 817T394 764T354 668T340 524Q340 420 353 351T391 241T453 185T540 168Q585 168 621 185T683 238T723 335T738 478ZM1002
520Q1002 250 875 114T518 -22Q299 -22 187 98T74 482Q74 753 201 888T558 1024Q666 1024 748 996T887 907T973 750T1002 520ZM832 1444Q832 1284 754 1200T536 1116Q394 1116 319 1198T244 1444H402Q401 1363 433 1328T536 1292Q607 1292 640 1327T674 1444H832Z"
/>
<glyph unicode="&#x150;" glyph-name="Ohungarumlaut" horiz-adv-x="1282" d="M916 656Q916 800 898 898T844 1055T756 1140T634 1166Q571 1166 523 1143T439 1065T385 919T366 694Q366 550 384 452T437 294T524 210T646 184Q709 184 758 208T843 286T897 431T916
656ZM1200 700Q1200 514 1160 377T1045 152T865 21T626 -22Q491 -22 390 15T221 133T117 342T82 650Q82 836 121 973T236 1198T416 1329T654 1372Q789 1372 890 1335T1061 1217T1165 1008T1200 700ZM452 1424L340 1492L636 1736L794 1630L452 1424ZM864 1426L758
1508L1106 1728L1254 1610L864 1426Z" />
<glyph unicode="&#x151;" glyph-name="ohungarumlaut" horiz-adv-x="1076" d="M738 478Q738 582 725 651T686 760T625 817T538 834Q492 834 456 817T394 764T354 668T340 524Q340 420 353 351T391 241T453 185T540 168Q585 168 621 185T683 238T723 335T738 478ZM1002
520Q1002 250 875 114T518 -22Q299 -22 187 98T74 482Q74 753 201 888T558 1024Q666 1024 748 996T887 907T973 750T1002 520ZM750 1110L622 1180L880 1442L1058 1342L750 1110ZM364 1106L238 1176L472 1452L650 1354L364 1106Z" />
<glyph unicode="&#x152;" glyph-name="OE" horiz-adv-x="1564" d="M823 0Q777 -11 728 -16T627 -22Q496 -22 395 13T224 129T118 337T82 652Q82 777 100 879T153 1061T238 1200T352 1296T492 1353T656 1372Q707 1372 756 1367T852 1350H1462V1144H1033V795H1389V597H1033V209H1470V0H823ZM763
1137Q736 1153 704 1159T634 1166Q575 1166 525 1144T440 1067T386 922T366 697Q366 550 384 452T438 294T526 210T647 185Q680 185 709 189T763 206V1137Z" />
<glyph unicode="&#x153;" glyph-name="oe" horiz-adv-x="1674" d="M738 476Q738 581 725 650T687 760T625 817T538 834Q443 834 392 762T340 526Q340 421 353 352T391 242T453 185T542 168Q634 168 686 241T738 476ZM1336 614Q1336 852 1174 852Q1092 852 1047
787T996 610H1336V614ZM994 450V436Q994 301 1050 238T1218 174Q1287 174 1371 189T1542 232L1580 84Q1485 34 1379 6T1166 -22Q1059 -22 981 13T850 128Q798 51 714 15T520 -22Q414 -22 332 6T193 94T105 250T74 482Q74 753 199 888T552 1024Q663 1024 745 988T880
870Q929 941 1005 982T1184 1024Q1284 1024 1361 994T1492 896T1570 718T1584 450H994Z" />
<glyph unicode="&#x154;" glyph-name="Racute" horiz-adv-x="1110" d="M788 0L506 550H418V0H148V1350Q278 1352 381 1354T566 1356Q685 1356 775 1328T923 1249T1009 1129T1038 976Q1038 897 1016 835T955 729T868 655T764 608L1098 0H788ZM756 954Q756 1002
744 1039T704 1102T632 1142T526 1156H418V746H528Q637 746 696 800T756 954ZM483 1438L405 1550L765 1716L881 1560L483 1438Z" />
<glyph unicode="&#x155;" glyph-name="racute" horiz-adv-x="730" d="M670 774Q641 782 621 785T582 788Q540 788 498 755T388 636V0H130V1002H342L362 846Q436 943 492 982T604 1022Q628 1022 653 1017T702 1000L670 774ZM405 1110L277 1180L537 1450L719 1352L405
1110Z" />
<glyph unicode="&#x156;" glyph-name="Rcommaaccent" horiz-adv-x="1110" d="M788 0L506 550H418V0H148V1350Q278 1352 381 1354T566 1356Q685 1356 775 1328T923 1249T1009 1129T1038 976Q1038 897 1016 835T955 729T868 655T764 608L1098 0H788ZM756 954Q756
1002 744 1039T704 1102T632 1142T526 1156H418V746H528Q637 746 696 800T756 954ZM580 -68Q631 -68 658 -94T686 -170Q686 -259 616 -306T406 -362L376 -278Q431 -263 458 -245T486 -202Q486 -195 485 -192T480 -181T474 -167T472 -148Q472 -112 500 -90T580 -68Z"
/>
<glyph unicode="&#x157;" glyph-name="rcommaaccent" horiz-adv-x="730" d="M670 774Q641 782 621 785T582 788Q540 788 498 755T388 636V0H130V1002H342L362 846Q436 943 492 982T604 1022Q628 1022 653 1017T702 1000L670 774ZM522 -68Q573 -68 600 -94T628
-170Q628 -259 558 -306T348 -362L318 -278Q373 -263 400 -245T428 -202Q428 -195 427 -192T422 -181T416 -167T414 -148Q414 -112 442 -90T522 -68Z" />
<glyph unicode="&#x158;" glyph-name="Rcaron" horiz-adv-x="1110" d="M788 0L506 550H418V0H148V1350Q278 1352 381 1354T566 1356Q685 1356 775 1328T923 1249T1009 1129T1038 976Q1038 897 1016 835T955 729T868 655T764 608L1098 0H788ZM756 954Q756 1002
744 1039T704 1102T632 1142T526 1156H418V746H528Q637 746 696 800T756 954ZM308 1716L548 1612L786 1716L852 1612L546 1438L242 1610L308 1716Z" />
<glyph unicode="&#x159;" glyph-name="rcaron" horiz-adv-x="730" d="M670 774Q641 782 621 785T582 788Q540 788 498 755T388 636V0H130V1002H342L362 846Q436 943 492 982T604 1022Q628 1022 653 1017T702 1000L670 774ZM411 1110L125 1356L203 1460L417 1316L631
1460L709 1358L411 1110Z" />
<glyph unicode="&#x15a;" glyph-name="Sacute" horiz-adv-x="992" d="M942 384Q942 298 911 225T819 96T669 11T468 -20Q355 -20 254 13T62 108L126 250Q209 216 285 197T418 178Q523 178 582 223T642 352Q642 413 605 456T489 542T343 619T215 700T117 818T78
988Q78 1074 109 1144T199 1265T336 1343T510 1370Q606 1370 697 1343T872 1260L808 1120Q743 1146 679 1160T560 1174Q463 1174 414 1132T364 1020Q364 959 402 915T522 828T672 749T802 668T902 552T942 384ZM464 1438L386 1550L746 1716L862 1560L464 1438Z"
/>
<glyph unicode="&#x15b;" glyph-name="sacute" horiz-adv-x="832" d="M776 296Q776 227 749 169T669 69T541 3T372 -20Q214 -20 56 62L78 196Q157 177 215 170T326 162Q417 162 460 193T504 276Q504 313 482 338T426 379T330 420T225 464T145 518T83 603T60 724Q60
858 161 941T426 1024Q496 1024 563 1007T706 950L678 818Q612 834 567 841T480 848Q406 848 368 819T330 744Q330 707 352 682T409 641T505 601T610 556T691 502T753 418T776 296ZM409 1110L281 1180L541 1450L723 1352L409 1110Z" />
<glyph unicode="&#x15c;" glyph-name="Scircumflex" horiz-adv-x="992" d="M942 384Q942 298 911 225T819 96T669 11T468 -20Q355 -20 254 13T62 108L126 250Q209 216 285 197T418 178Q523 178 582 223T642 352Q642 413 605 456T489 542T343 619T215 700T117 818T78
988Q78 1074 109 1144T199 1265T336 1343T510 1370Q606 1370 697 1343T872 1260L808 1120Q743 1146 679 1160T560 1174Q463 1174 414 1132T364 1020Q364 959 402 915T522 828T672 749T802 668T902 552T942 384ZM753 1438L513 1542L275 1438L211 1542L517 1716L821
1546L753 1438Z" />
<glyph unicode="&#x15d;" glyph-name="scircumflex" horiz-adv-x="832" d="M776 296Q776 227 749 169T669 69T541 3T372 -20Q214 -20 56 62L78 196Q157 177 215 170T326 162Q417 162 460 193T504 276Q504 313 482 338T426 379T330 420T225 464T145 518T83 603T60
724Q60 858 161 941T426 1024Q496 1024 563 1007T706 950L678 818Q612 834 567 841T480 848Q406 848 368 819T330 744Q330 707 352 682T409 641T505 601T610 556T691 502T753 418T776 296ZM627 1112L413 1256L199 1112L123 1214L421 1462L707 1216L627 1112Z" />
<glyph unicode="&#x15e;" glyph-name="Scedilla" horiz-adv-x="992" d="M942 384Q942 298 911 225T819 96T669 11T468 -20Q355 -20 254 13T62 108L126 250Q209 216 285 197T418 178Q523 178 582 223T642 352Q642 413 605 456T489 542T343 619T215 700T117 818T78
988Q78 1074 109 1144T199 1265T336 1343T510 1370Q606 1370 697 1343T872 1260L808 1120Q743 1146 679 1160T560 1174Q463 1174 414 1132T364 1020Q364 959 402 915T522 828T672 749T802 668T902 552T942 384ZM587 -84Q602 -172 560 -240T421 -366L275 -308Q342
-247 361 -200T369 -84H587Z" />
<glyph unicode="&#x15f;" glyph-name="scedilla" horiz-adv-x="832" d="M776 296Q776 227 749 169T669 69T541 3T372 -20Q214 -20 56 62L78 196Q157 177 215 170T326 162Q417 162 460 193T504 276Q504 313 482 338T426 379T330 420T225 464T145 518T83 603T60
724Q60 858 161 941T426 1024Q496 1024 563 1007T706 950L678 818Q612 834 567 841T480 848Q406 848 368 819T330 744Q330 707 352 682T409 641T505 601T610 556T691 502T753 418T776 296ZM497 -84Q512 -172 470 -240T331 -366L185 -308Q252 -247 271 -200T279
-84H497Z" />
<glyph unicode="&#x160;" glyph-name="Scaron" horiz-adv-x="992" d="M942 384Q942 298 911 225T819 96T669 11T468 -20Q355 -20 254 13T62 108L126 250Q209 216 285 197T418 178Q523 178 582 223T642 352Q642 413 605 456T489 542T343 619T215 700T117 818T78
988Q78 1074 109 1144T199 1265T336 1343T510 1370Q606 1370 697 1343T872 1260L808 1120Q743 1146 679 1160T560 1174Q463 1174 414 1132T364 1020Q364 959 402 915T522 828T672 749T802 668T902 552T942 384ZM257 1716L497 1612L735 1716L801 1612L495 1438L191
1610L257 1716Z" />
<glyph unicode="&#x161;" glyph-name="scaron" horiz-adv-x="832" d="M776 296Q776 227 749 169T669 69T541 3T372 -20Q214 -20 56 62L78 196Q157 177 215 170T326 162Q417 162 460 193T504 276Q504 313 482 338T426 379T330 420T225 464T145 518T83 603T60 724Q60
858 161 941T426 1024Q496 1024 563 1007T706 950L678 818Q612 834 567 841T480 848Q406 848 368 819T330 744Q330 707 352 682T409 641T505 601T610 556T691 502T753 418T776 296ZM411 1110L125 1356L203 1460L417 1316L631 1460L709 1358L411 1110Z" />
<glyph unicode="&#x162;" glyph-name="uni0162" horiz-adv-x="934" d="M600 1142V0H330V1142H28V1350H904V1142H600ZM468 -68Q519 -68 546 -94T574 -170Q574 -259 504 -306T294 -362L264 -278Q319 -263 346 -245T374 -202Q374 -195 373 -192T368 -181T362 -167T360
-148Q360 -112 388 -90T468 -68Z" />
<glyph unicode="&#x163;" glyph-name="uni0163" horiz-adv-x="696" d="M656 46Q588 11 526 -4T404 -20Q266 -20 208 39T150 242V822H24V1002H160Q178 1068 192 1138T220 1294H408V1002H630V822H408V306Q408 230 428 201T498 172Q526 172 559 177T636 194L656 46ZM410
-68Q461 -68 488 -94T516 -170Q516 -259 446 -306T236 -362L206 -278Q261 -263 288 -245T316 -202Q316 -195 315 -192T310 -181T304 -167T302 -148Q302 -112 330 -90T410 -68Z" />
<glyph unicode="&#x164;" glyph-name="Tcaron" horiz-adv-x="934" d="M600 1142V0H330V1142H28V1350H904V1142H600ZM228 1716L468 1612L706 1716L772 1612L466 1438L162 1610L228 1716Z" />
<glyph unicode="&#x165;" glyph-name="tcaron" horiz-adv-x="758" d="M656 46Q588 11 526 -4T404 -20Q266 -20 208 39T150 242V822H24V1002H160Q178 1068 192 1138T220 1294H408V1002H630V822H408V306Q408 230 428 201T498 172Q526 172 559 177T636 194L656 46ZM625
1112L497 1134L563 1516L747 1480L625 1112Z" />
<glyph unicode="&#x166;" glyph-name="Tbar" horiz-adv-x="934" d="M600 1141V728H798V546H600V0H330V546H134V728H330V1141H28V1350H904V1141H600Z" />
<glyph unicode="&#x167;" glyph-name="tbar" horiz-adv-x="696" d="M656 46Q585 10 523 -5T404 -20Q335 -20 287 -6T208 39T164 120T150 242V432H46V610H150V822H24V1002H160Q178 1069 192 1139T220 1294H408V1002H630V822H408V610H606V432H408V306Q408 268 413
242T428 201T456 179T498 172Q522 172 555 176T636 194L656 46Z" />
<glyph unicode="&#x168;" glyph-name="Utilde" horiz-adv-x="1304" d="M1158 488Q1158 352 1120 255T1012 96T846 7T630 -22Q384 -22 265 91T146 458V1350H416V486Q416 316 471 246T654 176Q712 176 756 191T831 240T878 330T894 470V1350H1158V488ZM1003 1626Q955
1534 898 1490T757 1446Q712 1446 679 1459T621 1489T569 1524T521 1542Q492 1542 470 1523T407 1448L303 1522Q352 1613 409 1657T547 1702Q592 1702 625 1689T683 1658T735 1622T783 1604Q812 1604 834 1623T897 1700L1003 1626Z" />
<glyph unicode="&#x169;" glyph-name="utilde" horiz-adv-x="1092" d="M752 0L732 106Q665 45 589 12T430 -22Q274 -22 198 85T122 432Q122 472 123 515T126 666T129 851T130 1002H388Q388 934 387 864T384 697T381 557T380 476Q380 389 389 332T415 243T458 197T520
184Q559 184 606 206T704 266V1002H962V0H752ZM887 1320Q838 1227 783 1183T649 1138Q606 1138 573 1151T501 1192T450 1228T417 1236Q390 1236 369 1217T307 1142L207 1214Q254 1308 308 1352T443 1396Q486 1396 519 1383T591 1343T642 1308T675 1300Q703 1300
724 1319T785 1394L887 1320Z" />
<glyph unicode="&#x16a;" glyph-name="Umacron" horiz-adv-x="1304" d="M1158 488Q1158 352 1120 255T1012 96T846 7T630 -22Q384 -22 265 91T146 458V1350H416V486Q416 316 471 246T654 176Q712 176 756 191T831 240T878 330T894 470V1350H1158V488ZM368 1484V1652H936V1484H368Z"
/>
<glyph unicode="&#x16b;" glyph-name="umacron" horiz-adv-x="1092" d="M752 0L732 106Q665 45 589 12T430 -22Q274 -22 198 85T122 432Q122 472 123 515T126 666T129 851T130 1002H388Q388 934 387 864T384 697T381 557T380 476Q380 389 389 332T415 243T458
197T520 184Q559 184 606 206T704 266V1002H962V0H752ZM269 1174V1354H827V1174H269Z" />
<glyph unicode="&#x16c;" glyph-name="Ubreve" horiz-adv-x="1304" d="M1158 488Q1158 352 1120 255T1012 96T846 7T630 -22Q384 -22 265 91T146 458V1350H416V486Q416 316 471 246T654 176Q712 176 756 191T831 240T878 330T894 470V1350H1158V488ZM943 1726Q943
1591 865 1510T651 1428Q513 1428 438 1506T363 1726H517Q517 1668 551 1631T653 1594Q720 1594 754 1631T789 1726H943Z" />
<glyph unicode="&#x16d;" glyph-name="ubreve" horiz-adv-x="1092" d="M752 0L732 106Q665 45 589 12T430 -22Q274 -22 198 85T122 432Q122 472 123 515T126 666T129 851T130 1002H388Q388 934 387 864T384 697T381 557T380 476Q380 389 389 332T415 243T458 197T520
184Q559 184 606 206T704 266V1002H962V0H752ZM840 1444Q840 1284 762 1200T544 1116Q402 1116 327 1198T252 1444H410Q409 1363 441 1328T544 1292Q615 1292 648 1327T682 1444H840Z" />
<glyph unicode="&#x16e;" glyph-name="Uring" horiz-adv-x="1304" d="M1158 488Q1158 352 1120 255T1012 96T846 7T630 -22Q384 -22 265 91T146 458V1350H416V486Q416 316 471 246T654 176Q712 176 756 191T831 240T878 330T894 470V1350H1158V488ZM732 1548Q732
1622 656 1622Q576 1622 576 1548Q576 1512 595 1494T656 1476Q732 1476 732 1548ZM886 1554Q886 1474 823 1428T650 1382Q533 1382 479 1423T424 1546Q424 1624 487 1670T660 1716Q776 1716 831 1675T886 1554Z" />
<glyph unicode="&#x16f;" glyph-name="uring" horiz-adv-x="1092" d="M752 0L732 106Q665 45 589 12T430 -22Q274 -22 198 85T122 432Q122 472 123 515T126 666T129 851T130 1002H388Q388 934 387 864T384 697T381 557T380 476Q380 389 389 332T415 243T458 197T520
184Q559 184 606 206T704 266V1002H962V0H752ZM633 1286Q633 1372 551 1372Q471 1372 471 1286Q471 1204 551 1204Q593 1204 613 1225T633 1286ZM793 1292Q793 1196 727 1141T547 1086Q425 1086 368 1135T311 1284Q311 1377 377 1432T557 1488Q677 1488 735 1438T793
1292Z" />
<glyph unicode="&#x170;" glyph-name="Uhungarumlaut" horiz-adv-x="1304" d="M1158 488Q1158 352 1120 255T1012 96T846 7T630 -22Q384 -22 265 91T146 458V1350H416V486Q416 316 471 246T654 176Q712 176 756 191T831 240T878 330T894 470V1350H1158V488ZM452
1424L340 1492L636 1736L794 1630L452 1424ZM864 1426L758 1508L1106 1728L1254 1610L864 1426Z" />
<glyph unicode="&#x171;" glyph-name="uhungarumlaut" horiz-adv-x="1092" d="M752 0L732 106Q665 45 589 12T430 -22Q274 -22 198 85T122 432Q122 472 123 515T126 666T129 851T130 1002H388Q388 934 387 864T384 697T381 557T380 476Q380 389 389 332T415 243T458
197T520 184Q559 184 606 206T704 266V1002H962V0H752ZM748 1110L620 1180L878 1442L1056 1342L748 1110ZM362 1106L236 1176L470 1452L648 1354L362 1106Z" />
<glyph unicode="&#x172;" glyph-name="Uogonek" horiz-adv-x="1304" d="M710 -12Q692 -18 672 -20T630 -22Q380 -22 263 91T146 458V1350H416V486Q416 316 471 246T654 176Q712 176 756 191T831 240T878 330T894 470V1350H1158V488Q1158 358 1125 266T1034 116Q884
-34 849 -74T814 -170Q814 -224 876 -224Q895 -224 918 -218T960 -200L996 -312Q954 -337 902 -350T802 -364Q608 -364 608 -218Q608 -166 635 -112T710 -12Z" />
<glyph unicode="&#x173;" glyph-name="uogonek" horiz-adv-x="1092" d="M732 106Q665 45 589 12T430 -22Q274 -22 198 85T122 432Q122 472 123 515T126 666T129 851T130 1002H388Q388 934 387 864T384 697T381 557T380 476Q380 389 389 332T415 243T458 197T520
184Q559 184 606 206T704 266V1002H962V0Q902 -39 870 -81T838 -170Q838 -224 898 -224Q919 -224 942 -218T984 -200L1018 -312Q977 -337 925 -350T826 -364Q632 -364 632 -218Q632 -160 664 -102T752 6L732 106Z" />
<glyph unicode="&#x174;" glyph-name="Wcircumflex" horiz-adv-x="1722" d="M1692 1350Q1622 980 1545 652T1372 0H1076L896 726L856 938H854L816 726L650 0H354Q304 167 261 329T178 655T103 988T30 1350H320Q339 1236 362 1120T416 857T475 583T526 340H528L560
520L752 1350H1014L1212 524L1250 340H1252Q1317 660 1361 890T1440 1350H1692ZM1120 1438L880 1542L642 1438L578 1542L884 1716L1188 1546L1120 1438Z" />
<glyph unicode="&#x175;" glyph-name="wcircumflex" horiz-adv-x="1520" d="M1482 1002Q1448 750 1384 503T1228 0H924L782 564L754 714H750L726 562L602 0H292L32 1002H306L436 448L472 280H474L500 434L622 1002H920L1066 420L1094 282H1096Q1145 476 1181 651T1232
1002H1482ZM984 1112L770 1256L556 1112L480 1214L778 1462L1064 1216L984 1112Z" />
<glyph unicode="&#x176;" glyph-name="Ycircumflex" horiz-adv-x="978" d="M988 1350Q902 1110 813 915T624 564V0H354V564Q301 653 253 743T161 929T74 1129T-10 1350H286Q339 1195 392 1065T508 812Q568 925 620 1061T720 1350H988ZM735 1438L495 1542L257 1438L193
1542L499 1716L803 1546L735 1438Z" />
<glyph unicode="&#x177;" glyph-name="ycircumflex" horiz-adv-x="962" d="M930 1002Q872 626 786 361T597 -62T385 -289T166 -358Q132 -358 92 -347T14 -316V-168Q35 -171 64 -172T114 -174Q205 -174 258 -130Q289 -103 302 -76T316 -12Q316 20 304 68T270 186L22
1002H298L454 440Q477 366 489 301T498 192Q527 282 553 381T602 587T641 798T664 1002H930ZM706 1112L492 1256L278 1112L202 1214L500 1462L786 1216L706 1112Z" />
<glyph unicode="&#x178;" glyph-name="Ydieresis" horiz-adv-x="978" d="M988 1350Q902 1110 813 915T624 564V0H354V564Q301 653 253 743T161 929T74 1129T-10 1350H286Q339 1195 392 1065T508 812Q568 925 620 1061T720 1350H988ZM830 1564Q830 1502 803 1477T706
1452Q636 1452 609 1476T582 1564Q582 1626 609 1651T706 1676Q776 1676 803 1652T830 1564ZM418 1564Q418 1502 391 1477T296 1452Q226 1452 199 1476T172 1564Q172 1626 199 1651T296 1676Q365 1676 391 1652T418 1564Z" />
<glyph unicode="&#x179;" glyph-name="Zacute" horiz-adv-x="980" d="M62 0V184L578 1138H86L92 1350H896V1170L382 216H922L916 0H62ZM458 1438L380 1550L740 1716L856 1560L458 1438Z" />
<glyph unicode="&#x17a;" glyph-name="zacute" horiz-adv-x="800" d="M732 0H60V162L420 810H74L84 1002H712V842L352 194H740L732 0ZM427 1110L299 1180L559 1450L741 1352L427 1110Z" />
<glyph unicode="&#x17b;" glyph-name="Zdotaccent" horiz-adv-x="980" d="M62 0V184L578 1138H86L92 1350H896V1170L382 216H922L916 0H62ZM637 1570Q637 1504 607 1479T495 1454Q451 1454 424 1459T382 1477T360 1512T353 1570Q353 1636 383 1661T495 1686Q539
1686 566 1681T608 1663T630 1628T637 1570Z" />
<glyph unicode="&#x17c;" glyph-name="zdotaccent" horiz-adv-x="800" d="M732 0H60V162L420 810H74L84 1002H712V842L352 194H740L732 0ZM559 1272Q559 1199 528 1172T407 1144Q359 1144 330 1150T283 1171T260 1210T253 1272Q253 1345 284 1372T407 1400Q498
1400 528 1374T559 1272Z" />
<glyph unicode="&#x17d;" glyph-name="Zcaron" horiz-adv-x="980" d="M62 0V184L578 1138H86L92 1350H896V1170L382 216H922L916 0H62ZM261 1716L501 1612L739 1716L805 1612L499 1438L195 1610L261 1716Z" />
<glyph unicode="&#x17e;" glyph-name="zcaron" horiz-adv-x="800" d="M732 0H60V162L420 810H74L84 1002H712V842L352 194H740L732 0ZM398 1110L112 1356L190 1460L404 1316L618 1460L696 1358L398 1110Z" />
<glyph unicode="&#x17f;" glyph-name="longs" horiz-adv-x="542" d="M586 1234Q559 1243 533 1248T482 1254Q431 1254 410 1223T388 1128V0H130V1122Q130 1196 144 1255T190 1355T272 1418T394 1440Q465 1440 520 1424T620 1386L586 1234Z" />
<glyph unicode="&#x192;" glyph-name="florin" horiz-adv-x="1000" d="M914 1158Q886 1169 849 1176T780 1184Q715 1184 685 1150T646 1036L618 766H888V596H604L556 102Q542 -53 465 -137T236 -222Q165 -222 105 -205T-10 -156L28 -14Q56 -25 93 -32T162 -40Q229
-40 259 -6T298 108L348 596H100V766H360L388 1042Q394 1117 416 1176T476 1278T572 1343T706 1366Q777 1366 837 1348T952 1300L914 1158Z" />
<glyph unicode="&#x1e6;" glyph-name="Gcaron" horiz-adv-x="1152" d="M1030 138Q940 63 826 21T570 -22Q331 -22 207 145T82 648Q82 825 122 961T236 1189T411 1326T636 1372Q757 1372 856 1318T1020 1170L902 1058Q836 1108 776 1133T650 1158Q514 1158 439
1043T364 692Q364 557 381 462T430 307T509 221T614 194Q662 194 700 206T764 238V578H604V776H1030V138ZM382 1716L622 1612L860 1716L926 1612L620 1438L316 1610L382 1716Z" />
<glyph unicode="&#x1e7;" glyph-name="gcaron" horiz-adv-x="1068" d="M680 820Q652 829 620 834T556 840Q457 840 398 757T338 520Q338 368 382 287T504 206Q541 206 589 230T680 290V820ZM938 38Q938 -79 906 -158T815 -282T681 -345T510 -364Q350 -364 154
-284L174 -140Q270 -156 345 -165T482 -174Q587 -174 633 -136T680 -4V114Q619 69 556 42T426 14Q342 14 276 50T165 150T97 300T74 482Q74 620 112 723T219 892T383 991T592 1024Q674 1024 766 1012T938 982V38ZM528 1110L242 1356L320 1460L534 1316L748 1460L826
1358L528 1110Z" />
<glyph unicode="&#x1fa;" glyph-name="Aringacute" horiz-adv-x="1148" d="M736 468Q689 644 643 805T550 1112Q529 1039 506 958T460 793T416 625T376 468H736ZM838 0Q827 55 810 136T780 266H334Q318 198 304 131T278 0H20Q93 328 188 670T394 1350H748Q860
1019 952 691T1130 0H838ZM790 1493Q790 1467 775 1445T731 1407T662 1382T570 1373Q520 1373 481 1380T415 1402T374 1436T360 1483Q360 1509 375 1531T420 1569T489 1594T580 1603Q631 1603 670 1596T735 1574T776 1540T790 1493V1493ZM644 1490Q644 1512 628
1524T575 1536Q539 1536 523 1523T507 1486Q507 1464 522 1452T575 1440Q611 1440 627 1453T644 1490V1490ZM754 1770L806 1680L467 1627L436 1691L754 1770Z" />
<glyph unicode="&#x1fb;" glyph-name="aringacute" horiz-adv-x="1020" d="M636 452H560Q489 452 441 441T364 409T323 360T310 294Q310 232 344 197T444 162Q490 162 539 184T636 248V452ZM692 0L674 102Q604 42 531 10T368 -22Q217 -22 138 51T58 264Q58 425
188 517T574 610H636V686Q636 763 591 800T450 838Q377 838 300 822T146 778L112 934Q208 976 308 1000T514 1024Q701 1024 795 942T890 712V0H692ZM730 1264Q730 1225 714 1193T669 1139T597 1105T504 1093Q390 1093 338 1135T286 1258Q286 1296 302 1327T347
1381T418 1415T513 1428Q570 1428 611 1417T678 1385T717 1333T730 1264V1264ZM584 1260Q584 1278 580 1292T566 1315T542 1328T507 1333Q468 1333 450 1315T432 1260Q432 1241 436 1228T450 1205T473 1192T507 1188Q549 1188 566 1206T584 1260V1260ZM613 1770L791
1685L534 1492L408 1548L613 1770Z" />
<glyph unicode="&#x1fc;" glyph-name="AEacute" horiz-adv-x="1470" d="M670 1146H668Q589 971 517 799T382 468H670V1146ZM670 0V266H316Q292 204 268 133T224 0H-42Q88 354 228 691T520 1350H1368V1144H940V794H1296V596H940V208H1376V0H670ZM884 1438L806 1550L1166
1716L1282 1560L884 1438Z" />
<glyph unicode="&#x1fd;" glyph-name="aeacute" horiz-adv-x="1566" d="M636 452H560Q489 452 441 441T364 409T323 360T310 294Q310 232 344 197T444 162Q500 162 550 194T636 284V452ZM1230 614Q1230 852 1066 852Q985 852 940 787T888 610H1230V614ZM886 450V436Q886
301 943 238T1110 174Q1179 174 1264 189T1436 232L1472 84Q1377 34 1272 6T1060 -22Q937 -22 849 20T712 152Q645 68 559 23T368 -22Q217 -22 138 51T58 264Q58 425 188 517T574 610H636V686Q636 763 591 800T450 838Q377 838 300 822T146 778L112 934Q207 976
308 1000T514 1024Q616 1024 687 992T794 902Q850 963 918 993T1080 1024Q1179 1024 1255 994T1385 896T1463 718T1478 450H886ZM804 1110L676 1180L936 1450L1118 1352L804 1110Z" />
<glyph unicode="&#x1fe;" glyph-name="Oslashacute" horiz-adv-x="1282" d="M1200 700Q1200 574 1182 472T1129 289T1044 151T930 54T790 -3T627 -22Q548 -22 478 -7T350 41L230 -159L91 -85L221 132Q154 209 118 336T82 650Q82 775 100 878T153 1061T238 1199T351
1296T491 1353T654 1372Q735 1372 804 1357T932 1309L1052 1509L1190 1435L1059 1219Q1127 1140 1163 1013T1200 700V700ZM933 655Q933 752 924 826T898 954L467 233Q502 201 547 186T648 171Q690 171 728 181T797 214T853 273T896 363T923 489T933 655V655ZM633
1180Q570 1180 518 1157T428 1078T370 929T349 695Q349 603 358 527T385 399L815 1118Q779 1150 734 1165T633 1180V1180ZM602 1460L524 1572L884 1738L1000 1582L602 1460Z" />
<glyph unicode="&#x1ff;" glyph-name="oslashacute" horiz-adv-x="1076" d="M756 476Q756 547 751 597T734 684L432 180Q451 167 479 161T540 154Q589 154 628 171T696 227T740 327T756 476ZM644 822Q604 848 536 848Q487 848 448 831T380 775T336 675T320 526Q320
459 326 408T344 316L644 822ZM1002 520Q1002 250 876 114T520 -22Q413 -22 330 12L226 -158L88 -82L194 90Q135 152 105 248T74 482Q74 753 200 888T556 1024Q613 1024 662 1016T746 990L850 1160L988 1086L882 912Q941 851 971 753T1002 520ZM545 1110L417 1180L677
1450L859 1352L545 1110Z" />
<glyph unicode="&#x218;" glyph-name="Scommaaccent" horiz-adv-x="992" d="M942 384Q942 298 911 225T819 96T669 11T468 -20Q355 -20 254 13T62 108L126 250Q209 216 285 197T418 178Q523 178 582 223T642 352Q642 413 605 456T489 542T343 619T215 700T117
818T78 988Q78 1074 109 1144T199 1265T336 1343T510 1370Q606 1370 697 1343T872 1260L808 1120Q743 1146 679 1160T560 1174Q463 1174 414 1132T364 1020Q364 959 402 915T522 828T672 749T802 668T902 552T942 384ZM500 -68Q551 -68 578 -94T606 -170Q606 -259
536 -306T326 -362L296 -278Q351 -263 378 -245T406 -202Q406 -195 405 -192T400 -181T394 -167T392 -148Q392 -112 420 -90T500 -68Z" />
<glyph unicode="&#x219;" glyph-name="scommaaccent" horiz-adv-x="832" d="M776 296Q776 227 749 169T669 69T541 3T372 -20Q214 -20 56 62L78 196Q157 177 215 170T326 162Q417 162 460 193T504 276Q504 313 482 338T426 379T330 420T225 464T145 518T83 603T60
724Q60 858 161 941T426 1024Q496 1024 563 1007T706 950L678 818Q612 834 567 841T480 848Q406 848 368 819T330 744Q330 707 352 682T409 641T505 601T610 556T691 502T753 418T776 296ZM407 -68Q458 -68 485 -94T513 -170Q513 -259 443 -306T233 -362L203 -278Q258
-263 285 -245T313 -202Q313 -195 312 -192T307 -181T301 -167T299 -148Q299 -112 327 -90T407 -68Z" />
<glyph unicode="&#x21a;" glyph-name="Tcommaaccent" horiz-adv-x="934" d="M600 1142V0H330V1142H28V1350H904V1142H600ZM468 -68Q519 -68 546 -94T574 -170Q574 -259 504 -306T294 -362L264 -278Q319 -263 346 -245T374 -202Q374 -195 373 -192T368 -181T362
-167T360 -148Q360 -112 388 -90T468 -68Z" />
<glyph unicode="&#x21b;" glyph-name="tcommaaccent" horiz-adv-x="696" d="M656 46Q588 11 526 -4T404 -20Q266 -20 208 39T150 242V822H24V1002H160Q178 1068 192 1138T220 1294H408V1002H630V822H408V306Q408 230 428 201T498 172Q526 172 559 177T636 194L656
46ZM410 -68Q461 -68 488 -94T516 -170Q516 -259 446 -306T236 -362L206 -278Q261 -263 288 -245T316 -202Q316 -195 315 -192T310 -181T304 -167T302 -148Q302 -112 330 -90T410 -68Z" />
<glyph unicode="&#x237;" glyph-name="dotlessj" horiz-adv-x="518" d="M388 90Q388 17 376 -45T337 -161T269 -265T169 -364L1 -288Q61 -218 96 -136T131 41V1002H388V90Z" />
<glyph unicode="&#x2bc;" glyph-name="apostrophe" horiz-adv-x="432" d="M340 1398Q340 1338 327 1287T285 1190T212 1102T106 1018L24 1102Q59 1128 83 1151T121 1195T142 1232T148 1266Q148 1283 143 1291T123 1315T101 1350T94 1398Q94 1438 99 1462T117 1502T156
1523T222 1530Q259 1530 282 1523T318 1500T335 1460T340 1398Z" />
<glyph unicode="&#x2c6;" glyph-name="circumflex" horiz-adv-x="780" d="M602 1112L388 1256L174 1112L98 1214L396 1462L682 1216L602 1112Z" />
<glyph unicode="&#x2c7;" glyph-name="caron" horiz-adv-x="780" d="M384 1110L98 1356L176 1460L390 1316L604 1460L682 1358L384 1110Z" />
<glyph unicode="&#x2c9;" glyph-name="macron" horiz-adv-x="754" d="M98 1174V1354H656V1174H98Z" />
<glyph unicode="&#x2d8;" glyph-name="breve" horiz-adv-x="782" d="M686 1444Q686 1284 608 1200T390 1116Q248 1116 173 1198T98 1444H256Q255 1363 287 1328T390 1292Q461 1292 494 1327T528 1444H686Z" />
<glyph unicode="&#x2d9;" glyph-name="dotaccent" horiz-adv-x="502" d="M404 1272Q404 1199 373 1172T252 1144Q204 1144 175 1150T128 1171T105 1210T98 1272Q98 1345 129 1372T252 1400Q343 1400 373 1374T404 1272Z" />
<glyph unicode="&#x2da;" glyph-name="ring" horiz-adv-x="678" d="M420 1286Q420 1372 338 1372Q258 1372 258 1286Q258 1204 338 1204Q380 1204 400 1225T420 1286ZM580 1292Q580 1196 514 1141T334 1086Q212 1086 155 1135T98 1284Q98 1377 164 1432T344 1488Q464
1488 522 1438T580 1292Z" />
<glyph unicode="&#x2db;" glyph-name="ogonek" horiz-adv-x="582" d="M484 -312Q443 -337 391 -350T292 -364Q195 -364 147 -327T98 -218Q98 -162 128 -105T210 0H424Q361 -46 333 -86T304 -170Q304 -196 318 -210T366 -224Q385 -224 408 -218T450 -200L484 -312Z" />
<glyph unicode="&#x2dc;" glyph-name="tilde" horiz-adv-x="874" d="M778 1320Q729 1227 674 1183T540 1138Q497 1138 464 1151T392 1192T341 1228T308 1236Q281 1236 260 1217T198 1142L98 1214Q145 1308 199 1352T334 1396Q377 1396 410 1383T482 1343T533 1308T566
1300Q594 1300 615 1319T676 1394L778 1320Z" />
<glyph unicode="&#x2dd;" glyph-name="hungarumlaut" horiz-adv-x="1016" d="M610 1110L482 1180L740 1442L918 1342L610 1110ZM224 1106L98 1176L332 1452L510 1354L224 1106Z" />
<glyph unicode="&#x312;" glyph-name="uni0312" horiz-adv-x="520" d="M202 1122Q153 1122 126 1149T98 1226Q98 1321 172 1375T396 1434L424 1348Q361 1335 329 1310T296 1258Q296 1252 297 1249T302 1238T308 1224T310 1204Q310 1167 282 1145T202 1122Z" />
<glyph unicode="&#x315;" glyph-name="uni0315" horiz-adv-x="444" d="M226 1112L98 1134L164 1516L348 1480L226 1112Z" />
<glyph unicode="&#x326;" glyph-name="uni0326" horiz-adv-x="506" d="M302 -68Q353 -68 380 -94T408 -170Q408 -259 338 -306T128 -362L98 -278Q153 -263 180 -245T208 -202Q208 -195 207 -192T202 -181T196 -167T194 -148Q194 -112 222 -90T302 -68Z" />
<glyph unicode="&#x37e;" glyph-name="semicolon" horiz-adv-x="612" d="M473 874Q473 834 465 808T438 766T393 743T328 736Q289 736 262 743T216 765T190 807T181 872Q181 911 189 937T216 980T262 1003T328 1010Q366 1010 393 1003T438 981T464 939T473 874V874ZM97
-241Q139 -210 169 -182T218 -129T246 -79T255 -30Q255 -16 250 -6T236 11T218 25T200 44T186 73T181 117Q181 157 189 184T216 228T262 251T330 258Q367 258 394 252T439 229T464 185T473 118Q473 58 457 1T408 -112T322 -220T196 -325L97 -241Z" />
<glyph unicode="&#x394;" glyph-name="Delta" horiz-adv-x="1112" d="M44 0V184Q79 328 117 476T197 771T284 1064T376 1350H731Q781 1199 827 1053T914 762T993 473T1067 184V0H44ZM784 202Q727 431 664 657T532 1112Q514 1051 493 976T450 818T405 649T362 482T324
329T295 202H784Z" />
<glyph unicode="&#x3a9;" glyph-name="Omega" horiz-adv-x="1324" d="M741 0V169Q788 197 824 241T885 350T922 500T935 701Q935 775 928 838T905 952T866 1043T811 1110T742 1151T657 1165Q611 1165 574 1150T507 1108T455 1040T418 950T396 841T389 714Q389
595 401 506T437 351T498 242T583 169V0H67V175H325Q270 211 229 264T161 385T119 534T105 708Q105 788 118 869T159 1023T233 1160T341 1271T487 1345T676 1372Q823 1372 926 1324T1094 1190T1189 989T1219 738Q1219 637 1202 551T1153 395T1078 269T981 175H1257V0H741Z"
/>
<glyph unicode="&#x3bc;" glyph-name="mu" horiz-adv-x="1100" d="M756 0L737 106Q710 81 680 60T619 22T555 -3T490 -12Q453 -12 424 4T381 44Q381 44 381 28T381 -16T383 -79T384 -151T386 -223T387 -285T388 -329T388 -346H131V1002H387V446Q387 376 392 326T413
245T455 199T524 184Q544 184 566 189T612 206T660 233T709 266V1002H967V0H756Z" />
<glyph unicode="&#x3c0;" glyph-name="pi" horiz-adv-x="1244" d="M1200 36Q1148 10 1088 -5T976 -20Q840 -20 782 39T726 232V822H414V0H156V822H24V1002H1170V822H982V296Q982 226 1002 199T1072 172Q1100 172 1126 176T1180 188L1200 36Z" />
<glyph unicode="&#x1e02;" glyph-name="uni1E02" horiz-adv-x="1162" d="M790 408Q790 452 777 489T733 553T655 596T538 612H414V194Q437 191 478 189T552 186Q674 186 732 245T790 408ZM732 990Q732 1068 686 1114T544 1160H414V796H518Q575 796 616 812T683
855T720 916T732 990ZM1078 428Q1078 336 1045 258T944 121T768 29T516 -4Q463 -4 338 -2T148 0V1350H598Q702 1350 780 1327T908 1262T983 1161T1008 1030Q1008 922 960 850T828 738Q937 718 1007 634T1078 428ZM682 1570Q682 1504 652 1479T540 1454Q496 1454
469 1459T427 1477T405 1512T398 1570Q398 1636 428 1661T540 1686Q584 1686 611 1681T653 1663T675 1628T682 1570Z" />
<glyph unicode="&#x1e03;" glyph-name="uni1E03" horiz-adv-x="1068" d="M131 1401H388V922Q414 944 443 962T504 994T569 1016T638 1024Q727 1024 793 986T904 882T971 728T993 541Q993 391 955 285T848 110T682 10T467 -22Q421 -22 376 -19T289 -10T206 3T131
19V1401ZM388 181Q409 173 438 168T507 162Q555 162 596 182T667 245T713 351T730 505Q730 582 719 642T687 743T634 805T565 826Q548 826 528 821T484 806T436 779T388 742V181ZM407 1626Q407 1593 400 1572T377 1537T332 1518T259 1512Q214 1512 187 1517T144
1534T122 1568T115 1626Q115 1661 122 1683T145 1718T189 1736T261 1742Q306 1742 333 1737T377 1719T400 1684T407 1626Z" />
<glyph unicode="&#x1e0a;" glyph-name="uni1E0A" horiz-adv-x="1192" d="M826 682Q826 916 750 1034T510 1152Q448 1152 418 1150V204Q450 202 471 201T512 200Q671 200 748 322T826 682ZM1110 712Q1110 541 1072 408T954 183T754 42T468 -6Q404 -6 325 -4T148
0V1350Q218 1350 343 1352T528 1354Q684 1354 796 1306T977 1172T1078 969T1110 712ZM691 1570Q691 1504 661 1479T549 1454Q505 1454 478 1459T436 1477T414 1512T407 1570Q407 1636 437 1661T549 1686Q593 1686 620 1681T662 1663T684 1628T691 1570Z" />
<glyph unicode="&#x1e0b;" glyph-name="uni1E0B" horiz-adv-x="1068" d="M728 0L708 102Q677 75 644 52T575 13T503 -13T427 -22Q338 -22 272 15T162 118T97 272T75 460Q75 611 113 718T217 893T374 992T568 1024Q598 1024 629 1022T680 1018V1401H937V0H728ZM680
821Q653 830 623 835T558 841Q510 841 470 821T400 758T354 651T338 497Q338 417 349 357T382 257T433 196T502 176Q538 176 584 197T680 259V821ZM956 1626Q956 1593 949 1572T926 1537T881 1518T808 1512Q763 1512 736 1517T693 1534T671 1568T664 1626Q664 1661
671 1683T694 1718T738 1736T810 1742Q855 1742 882 1737T926 1719T949 1684T956 1626Z" />
<glyph unicode="&#x1e1e;" glyph-name="uni1E1E" horiz-adv-x="908" d="M418 1144V772H796V570H418V0H148V1350H838V1144H418ZM647 1570Q647 1504 617 1479T505 1454Q461 1454 434 1459T392 1477T370 1512T363 1570Q363 1636 393 1661T505 1686Q549 1686 576 1681T618
1663T640 1628T647 1570Z" />
<glyph unicode="&#x1e1f;" glyph-name="uni1E1F" horiz-adv-x="608" d="M634 1222Q602 1233 572 1239T515 1245Q456 1245 432 1215T408 1121V1002H589V822H408V0H151V822H23V1002H151V1099Q151 1173 166 1232T215 1333T303 1396T433 1418Q471 1418 504 1414T566
1402T621 1386T670 1367L634 1222ZM545 1626Q545 1593 538 1572T515 1537T470 1518T397 1512Q352 1512 325 1517T282 1534T260 1568T253 1626Q253 1661 260 1683T283 1718T327 1736T399 1742Q444 1742 471 1737T515 1719T538 1684T545 1626Z" />
<glyph unicode="&#x1e40;" glyph-name="uni1E40" horiz-adv-x="1696" d="M1294 0Q1290 260 1276 522T1240 1004H1238L942 0H714L418 1004H416Q398 784 388 529T374 0H120Q129 338 153 677T216 1350H572L852 440H854L1138 1350H1474Q1513 1011 1539 672T1578 0H1294ZM989
1570Q989 1504 959 1479T847 1454Q803 1454 776 1459T734 1477T712 1512T705 1570Q705 1636 735 1661T847 1686Q891 1686 918 1681T960 1663T982 1628T989 1570Z" />
<glyph unicode="&#x1e41;" glyph-name="uni1E41" horiz-adv-x="1642" d="M1520 572Q1520 532 1520 489T1518 338T1515 152T1514 0H1256Q1256 68 1257 138T1259 307T1261 446T1262 524Q1262 613 1254 670T1230 760T1190 805T1132 818Q1094 818 1044 794T942 728Q947
702 949 666T952 578V0H696V524Q696 611 688 668T664 758T625 804T568 818Q533 818 486 796T388 736V0H130V1002H342L360 896Q424 955 499 989T656 1024Q745 1024 807 985T900 880Q977 949 1055 986T1220 1024Q1371 1024 1445 917T1520 572ZM975 1272Q975 1199
944 1172T823 1144Q775 1144 746 1150T699 1171T676 1210T669 1272Q669 1345 700 1372T823 1400Q914 1400 944 1374T975 1272Z" />
<glyph unicode="&#x1e56;" glyph-name="uni1E56" horiz-adv-x="1082" d="M758 906Q758 1031 698 1093T500 1156H418V654H500Q631 654 694 718T758 906ZM1040 930Q1040 823 1010 737T912 587T736 489T474 454H418V0H148V1350Q210 1350 340 1352T540 1354Q675 1354
771 1325T926 1240T1012 1107T1040 930ZM683 1570Q683 1504 653 1479T541 1454Q497 1454 470 1459T428 1477T406 1512T399 1570Q399 1636 429 1661T541 1686Q585 1686 612 1681T654 1663T676 1628T683 1570Z" />
<glyph unicode="&#x1e57;" glyph-name="uni1E57" horiz-adv-x="1068" d="M730 506Q730 659 687 742T566 826Q529 826 482 805T388 742V182Q413 172 443 167T508 162Q610 162 670 248T730 506ZM994 542Q994 397 958 290T854 113T696 11T494 -22Q470 -22 441 -21T388
-16V-346H130V1002H340L360 900Q425 958 495 991T638 1024Q726 1024 793 987T905 884T972 731T994 542ZM687 1272Q687 1199 656 1172T535 1144Q487 1144 458 1150T411 1171T388 1210T381 1272Q381 1345 412 1372T535 1400Q626 1400 656 1374T687 1272Z" />
<glyph unicode="&#x1e60;" glyph-name="uni1E60" horiz-adv-x="992" d="M942 384Q942 298 911 225T819 96T669 11T468 -20Q355 -20 254 13T62 108L126 250Q209 216 285 197T418 178Q523 178 582 223T642 352Q642 413 605 456T489 542T343 619T215 700T117 818T78
988Q78 1074 109 1144T199 1265T336 1343T510 1370Q606 1370 697 1343T872 1260L808 1120Q743 1146 679 1160T560 1174Q463 1174 414 1132T364 1020Q364 959 402 915T522 828T672 749T802 668T902 552T942 384ZM638 1581Q638 1515 608 1490T496 1465Q452 1465 425
1470T383 1488T361 1523T354 1581Q354 1647 384 1672T496 1697Q540 1697 567 1692T609 1674T631 1639T638 1581Z" />
<glyph unicode="&#x1e61;" glyph-name="uni1E61" horiz-adv-x="832" d="M776 296Q776 227 749 169T669 69T541 3T372 -20Q214 -20 56 62L78 196Q157 177 215 170T326 162Q417 162 460 193T504 276Q504 313 482 338T426 379T330 420T225 464T145 518T83 603T60
724Q60 858 161 941T426 1024Q496 1024 563 1007T706 950L678 818Q612 834 567 841T480 848Q406 848 368 819T330 744Q330 707 352 682T409 641T505 601T610 556T691 502T753 418T776 296ZM568 1279Q568 1206 537 1179T416 1151Q368 1151 339 1157T292 1178T269
1217T262 1279Q262 1352 293 1379T416 1407Q507 1407 537 1381T568 1279Z" />
<glyph unicode="&#x1e6a;" glyph-name="uni1E6A" horiz-adv-x="934" d="M600 1142V0H330V1142H28V1350H904V1142H600ZM608 1570Q608 1504 578 1479T466 1454Q422 1454 395 1459T353 1477T331 1512T324 1570Q324 1636 354 1661T466 1686Q510 1686 537 1681T579
1663T601 1628T608 1570Z" />
<glyph unicode="&#x1e6b;" glyph-name="uni1E6B" horiz-adv-x="696" d="M656 46Q588 11 526 -4T404 -20Q266 -20 208 39T150 242V822H24V1002H160Q178 1068 192 1138T220 1294H408V1002H630V822H408V306Q408 230 428 201T498 172Q526 172 559 177T636 194L656
46ZM404 1272Q404 1199 373 1172T252 1144Q204 1144 175 1150T128 1171T105 1210T98 1272Q98 1345 129 1372T252 1400Q343 1400 373 1374T404 1272Z" />
<glyph unicode="&#x1e80;" glyph-name="Wgrave" horiz-adv-x="1722" d="M1692 1350Q1622 980 1545 652T1372 0H1076L896 726L856 938H854L816 726L650 0H354Q304 167 261 329T178 655T103 988T30 1350H320Q339 1236 362 1120T416 857T475 583T526 340H528L560
520L752 1350H1014L1212 524L1250 340H1252Q1317 660 1361 890T1440 1350H1692ZM976 1438L578 1560L694 1716L1054 1550L976 1438Z" />
<glyph unicode="&#x1e81;" glyph-name="wgrave" horiz-adv-x="1520" d="M1482 1002Q1448 750 1384 503T1228 0H924L782 564L754 714H750L726 562L602 0H292L32 1002H306L436 448L472 280H474L500 434L622 1002H920L1066 420L1094 282H1096Q1145 476 1181 651T1232
1002H1482ZM796 1110L484 1352L664 1450L926 1180L796 1110Z" />
<glyph unicode="&#x1e82;" glyph-name="Wacute" horiz-adv-x="1722" d="M1692 1350Q1622 980 1545 652T1372 0H1076L896 726L856 938H854L816 726L650 0H354Q304 167 261 329T178 655T103 988T30 1350H320Q339 1236 362 1120T416 857T475 583T526 340H528L560
520L752 1350H1014L1212 524L1250 340H1252Q1317 660 1361 890T1440 1350H1692ZM783 1438L705 1550L1065 1716L1181 1560L783 1438Z" />
<glyph unicode="&#x1e83;" glyph-name="wacute" horiz-adv-x="1520" d="M1482 1002Q1448 750 1384 503T1228 0H924L782 564L754 714H750L726 562L602 0H292L32 1002H306L436 448L472 280H474L500 434L622 1002H920L1066 420L1094 282H1096Q1145 476 1181 651T1232
1002H1482ZM725 1110L597 1180L857 1450L1039 1352L725 1110Z" />
<glyph unicode="&#x1e84;" glyph-name="Wdieresis" horiz-adv-x="1722" d="M1692 1350Q1622 980 1545 652T1372 0H1076L896 726L856 938H854L816 726L650 0H354Q304 167 261 329T178 655T103 988T30 1350H320Q339 1236 362 1120T416 857T475 583T526 340H528L560
520L752 1350H1014L1212 524L1250 340H1252Q1317 660 1361 890T1440 1350H1692ZM1214 1564Q1214 1502 1187 1477T1090 1452Q1020 1452 993 1476T966 1564Q966 1626 993 1651T1090 1676Q1160 1676 1187 1652T1214 1564ZM802 1564Q802 1502 775 1477T680 1452Q610
1452 583 1476T556 1564Q556 1626 583 1651T680 1676Q749 1676 775 1652T802 1564Z" />
<glyph unicode="&#x1e85;" glyph-name="wdieresis" horiz-adv-x="1520" d="M1482 1002Q1448 750 1384 503T1228 0H924L782 564L754 714H750L726 562L602 0H292L32 1002H306L436 448L472 280H474L500 434L622 1002H920L1066 420L1094 282H1096Q1145 476 1181 651T1232
1002H1482ZM697 1268Q697 1203 671 1178T575 1152Q504 1152 478 1176T451 1268Q451 1334 478 1360T575 1386Q646 1386 671 1362T697 1268ZM1097 1268Q1097 1203 1070 1178T973 1152Q902 1152 876 1176T849 1268Q849 1334 876 1360T973 1386Q1044 1386 1070 1361T1097
1268Z" />
<glyph unicode="&#x1ef2;" glyph-name="Ygrave" horiz-adv-x="978" d="M988 1350Q902 1110 813 915T624 564V0H354V564Q301 653 253 743T161 929T74 1129T-10 1350H286Q339 1195 392 1065T508 812Q568 925 620 1061T720 1350H988ZM560 1438L162 1560L278 1716L638
1550L560 1438Z" />
<glyph unicode="&#x1ef3;" glyph-name="ygrave" horiz-adv-x="962" d="M930 1002Q872 626 786 361T597 -62T385 -289T166 -358Q132 -358 92 -347T14 -316V-168Q35 -171 64 -172T114 -174Q205 -174 258 -130Q289 -103 302 -76T316 -12Q316 20 304 68T270 186L22
1002H298L454 440Q477 366 489 301T498 192Q527 282 553 381T602 587T641 798T664 1002H930ZM517 1110L205 1352L385 1450L647 1180L517 1110Z" />
<glyph unicode="&#x200b;" glyph-name="uni200B" horiz-adv-x="0" />
<glyph unicode="&#x2010;" glyph-name="hyphen" horiz-adv-x="474" d="M52 478V668H471V478H52Z" />
<glyph unicode="&#x2011;" glyph-name="hyphen" horiz-adv-x="474" d="M52 478V668H471V478H52Z" />
<glyph unicode="&#x2013;" glyph-name="endash" horiz-adv-x="1000" d="M90 507V691H911V507H90Z" />
<glyph unicode="&#x2014;" glyph-name="emdash" horiz-adv-x="2000" d="M258 507V691H1742V507H258Z" />
<glyph unicode="&#x2015;" glyph-name="uni2015" horiz-adv-x="2000" d="M258 507V691H1742V507H258Z" />
<glyph unicode="&#x2018;" glyph-name="quoteleft" horiz-adv-x="562" d="M490 1492Q449 1460 423 1434T380 1385T357 1343T350 1306Q350 1291 355 1281T367 1263T383 1246T398 1225T410 1196T415 1151Q415 1107 410 1077T387 1029T340 1003T262 995Q217 995 190
1003T147 1031T126 1079T121 1151Q121 1218 136 1277T185 1390T269 1493T391 1589L490 1492Z" />
<glyph unicode="&#x2019;" glyph-name="quoteright" horiz-adv-x="572" d="M81 1033Q121 1065 148 1091T191 1140T214 1182T221 1219Q221 1241 211 1253T188 1279T166 1313T156 1374Q156 1418 162 1448T184 1496T231 1522T309 1530Q353 1530 381 1522T424 1494T445
1446T450 1374Q450 1307 435 1248T386 1135T302 1032T180 936L81 1033Z" />
<glyph unicode="&#x201a;" glyph-name="quotesinglbase" horiz-adv-x="604" d="M79 -225Q119 -193 146 -167T189 -118T212 -76T219 -39Q219 -18 209 -6T187 21T164 55T154 115Q154 159 160 189T182 237T229 263T307 271Q351 271 379 263T422 236T443 187T449 116Q449
48 433 -11T385 -123T301 -226T178 -323L79 -225Z" />
<glyph unicode="&#x201c;" glyph-name="quotedblleft" horiz-adv-x="944" d="M873 1483Q833 1452 808 1426T767 1378T746 1337T739 1301Q739 1280 748 1268T769 1243T790 1210T800 1153Q800 1110 795 1081T774 1035T730 1010T657 1002Q615 1002 590 1010T551 1036T532
1082T527 1152Q527 1217 541 1274T587 1383T666 1482T780 1576L873 1483ZM478 1492Q435 1457 407 1430T363 1379T340 1337T334 1301Q334 1280 343 1268T363 1243T384 1210T394 1153Q394 1110 389 1081T368 1035T324 1010T251 1002Q209 1002 184 1010T145 1036T126
1082T121 1152Q121 1217 135 1274T181 1384T263 1486T386 1585L478 1492Z" />
<glyph unicode="&#x201d;" glyph-name="quotedblright" horiz-adv-x="954" d="M475 1032Q518 1066 546 1094T590 1145T613 1187T620 1223Q620 1244 611 1256T590 1281T569 1313T559 1371Q559 1414 564 1442T585 1488T629 1514T702 1522Q743 1522 769 1514T808
1487T827 1441T833 1372Q833 1307 818 1250T772 1140T690 1038T568 939L475 1032ZM81 1041Q119 1072 145 1098T186 1146T208 1187T214 1223Q214 1244 205 1256T184 1281T163 1313T153 1371Q153 1414 159 1442T180 1488T224 1514T297 1522Q337 1522 363 1514T403
1487T422 1441T427 1372Q427 1307 412 1250T366 1141T287 1042T173 948L81 1041Z" />
<glyph unicode="&#x201e;" glyph-name="quotedblbase" horiz-adv-x="986" d="M474 -226Q516 -192 544 -165T588 -114T611 -72T618 -36Q618 -15 609 -3T588 22T567 55T558 113Q558 155 563 184T584 230T628 255T701 263Q742 263 767 255T807 229T826 183T831 113Q831
48 817 -9T770 -118T688 -220T566 -319L474 -226ZM79 -217Q117 -187 143 -161T184 -113T206 -72T212 -36Q212 -15 203 -3T183 22T162 55T152 113Q152 155 157 184T178 230T222 255T295 263Q336 263 362 255T401 229T420 183T425 113Q425 48 410 -9T365 -118T286
-217T172 -310L79 -217Z" />
<glyph unicode="&#x2020;" glyph-name="dagger" horiz-adv-x="774" d="M507 1002V392H266V1002H61V1166H266V1418H507V1166H712V1002H507Z" />
<glyph unicode="&#x2021;" glyph-name="daggerdbl" horiz-adv-x="774" d="M506 271V0H268V271H61V436H268V981H61V1145H268V1418H506V1145H712V981H506V436H712V271H506Z" />
<glyph unicode="&#x2022;" glyph-name="bullet" horiz-adv-x="1000" d="M847 606Q847 534 820 471T745 361T635 287T500 259Q428 259 365 286T255 361T181 471T153 606Q153 678 180 741T255 851T365 925T500 953Q572 953 635 926T745 851T819 741T847 606V606Z" />
<glyph unicode="&#x2026;" glyph-name="ellipsis" horiz-adv-x="1554" d="M1380 124Q1380 82 1374 55T1352 10T1308 -13T1236 -20Q1190 -20 1163 -14T1119 9T1096 53T1090 122Q1090 165 1096 194T1118 240T1163 263T1236 270Q1281 270 1309 264T1352 240T1374
195T1380 124V124ZM913 124Q913 82 908 55T886 10T841 -13T769 -20Q724 -20 696 -14T652 9T629 53T623 122Q623 165 629 194T651 240T696 263T770 270Q814 270 842 264T886 240T907 195T913 124V124ZM446 124Q446 82 441 55T419 10T374 -13T302 -20Q257 -20 229
-14T185 9T162 53T156 122Q156 165 162 194T184 240T229 263T303 270Q347 270 375 264T419 240T440 195T446 124V124Z" />
<glyph unicode="&#x2030;" glyph-name="perthousand" horiz-adv-x="2102" d="M693 1051Q693 886 616 809T384 732Q302 732 246 750T156 806T108 905T93 1050Q93 1135 113 1196T172 1296T269 1353T403 1372Q485 1372 540 1353T630 1295T678 1195T693 1051V1051ZM502
1049Q502 1098 495 1132T475 1190T441 1223T393 1234Q369 1234 349 1226T315 1196T293 1140T285 1053Q285 1002 292 967T313 911T347 880T394 870Q422 870 442 880T475 913T495 968T502 1049V1049ZM272 -43L139 34L1138 1393L1270 1316L272 -43ZM1316 297Q1316
132 1238 55T1007 -22Q924 -22 868 -4T779 52T731 151T716 296Q716 381 736 442T795 542T892 599T1026 618Q1107 618 1162 599T1252 541T1301 441T1316 297V297ZM1124 295Q1124 344 1118 378T1098 436T1064 469T1015 480Q991 480 971 472T937 442T916 386T908 299Q908
248 915 213T936 157T970 126T1016 116Q1044 116 1064 126T1098 159T1117 214T1124 295V295ZM2009 297Q2009 132 1932 55T1700 -22Q1617 -22 1562 -4T1472 52T1424 151T1409 296Q1409 381 1429 442T1488 542T1585 599T1719 618Q1800 618 1856 599T1946 541T1994
441T2009 297V297ZM1817 295Q1817 344 1811 378T1791 436T1757 469T1709 480Q1684 480 1665 472T1631 442T1609 386T1601 299Q1601 248 1608 213T1629 157T1663 126T1710 116Q1737 116 1757 126T1791 159T1811 214T1817 295V295Z" />
<glyph unicode="&#x2039;" glyph-name="guilsinglleft" horiz-adv-x="614" d="M335 177L71 585L336 993L510 933L323 585L510 235L335 177Z" />
<glyph unicode="&#x203a;" glyph-name="guilsinglright" horiz-adv-x="616" d="M279 993L544 585L278 177L105 237L291 585L105 935L279 993Z" />
<glyph unicode="&#x2044;" glyph-name="fraction" horiz-adv-x="176" d="M-414 -162L-550 -88L598 1464L732 1390L-414 -162Z" />
<glyph unicode="&#x2060;" glyph-name="uni2060" horiz-adv-x="0" />
<glyph unicode="&#x2070;" glyph-name="zero.superior" horiz-adv-x="800" d="M734 1085Q734 977 712 902T647 778T539 709T390 687Q302 687 240 706T137 770T79 888T60 1069Q60 1172 80 1246T143 1368T250 1438T404 1461Q490 1461 552 1444T655 1383T715 1267T734
1085ZM504 1071Q504 1150 499 1198T480 1272T447 1308T396 1317Q367 1317 347 1306T313 1268T294 1195T288 1077Q288 1002 294 954T313 879T346 842T396 831Q426 831 446 843T480 883T498 957T504 1071Z" />
<glyph unicode="&#x2074;" glyph-name="four.superior" horiz-adv-x="722" d="M596 847V707H382V847H36V989Q60 1040 91 1097T157 1215T227 1333T298 1443H596V999H686V847H596ZM382 1311Q360 1280 336 1242T286 1162T237 1078T196 999H382V1311Z" />
<glyph unicode="&#x2075;" glyph-name="five.superior" horiz-adv-x="714" d="M308 1286L297 1146Q314 1149 339 1150T394 1151Q455 1151 504 1138T586 1098T638 1031T656 938Q656 874 634 827T570 749T466 703T325 688Q298 688 266 692T200 703T131 721T62 745L75
847Q136 835 186 831T281 826Q320 826 346 831T390 849T416 879T424 923Q424 947 416 965T391 996T347 1015T279 1021Q240 1021 194 1018T95 1008L127 1442H592V1286H308Z" />
<glyph unicode="&#x2076;" glyph-name="six.superior" horiz-adv-x="774" d="M662 1308Q612 1315 564 1320T471 1326Q428 1326 396 1315T343 1279T311 1217T298 1125Q339 1145 381 1154T472 1164Q540 1164 586 1149T662 1107T704 1039T717 949Q717 890 695 842T632
760T530 707T393 688Q318 688 260 703T160 759T98 874T77 1063Q77 1175 103 1251T176 1374T289 1441T435 1461Q462 1461 492 1458T553 1449T618 1434T683 1411L662 1308ZM496 936Q496 992 473 1016T401 1041Q376 1041 351 1034T297 1013Q297 957 303 920T321 861T354
829T401 819Q447 819 471 847T496 936V936Z" />
<glyph unicode="&#x2077;" glyph-name="seven.superior" horiz-adv-x="676" d="M475 1013Q447 963 419 917T362 829T307 751T253 686L89 735L373 1278H48V1442H633V1290L475 1013Z" />
<glyph unicode="&#x2078;" glyph-name="eight.superior" horiz-adv-x="780" d="M720 906Q720 857 702 817T642 747T535 702T375 685Q287 685 227 698T130 738T77 801T60 887Q60 920 70 946T99 995T144 1034T204 1065Q142 1095 111 1139T79 1255Q79 1300 97 1338T155
1404T254 1447T397 1463Q478 1463 535 1451T629 1415T683 1353T701 1268Q701 1206 668 1168T571 1095Q643 1068 681 1025T720 906V906ZM483 1254Q483 1299 461 1321T387 1343Q344 1343 321 1321T297 1259Q297 1240 303 1224T321 1194T352 1169T396 1149Q441 1169
462 1194T483 1254V1254ZM497 886Q497 906 490 923T466 954T425 980T366 1005Q324 986 303 958T281 896Q281 850 309 828T395 806Q419 806 437 811T469 827T490 852T497 886V886Z" />
<glyph unicode="&#x2079;" glyph-name="nine.superior" horiz-adv-x="770" d="M95 844Q157 834 208 829T303 823Q346 823 378 834T431 869T464 931T477 1024Q435 1003 392 993T302 983Q235 983 189 998T114 1041T73 1108T60 1197Q60 1255 81 1304T143 1387T244
1441T382 1461Q457 1461 515 1446T614 1390T676 1275T698 1086Q698 973 672 897T599 775T485 708T340 688Q287 688 218 700T74 742L95 844ZM478 1135Q478 1190 472 1228T453 1288T421 1320T374 1330Q327 1330 303 1301T279 1213Q279 1184 284 1164T302 1132T332
1114T374 1108Q399 1108 424 1114T478 1135V1135Z" />
<glyph unicode="&#x2080;" glyph-name="zero.inferior" horiz-adv-x="800" d="M734 250Q734 142 712 67T647 -57T539 -126T390 -148Q302 -148 240 -129T137 -65T79 53T60 234Q60 337 80 411T143 533T250 603T404 626Q490 626 552 609T655 548T715 432T734 250ZM504
236Q504 315 499 363T480 437T447 473T396 482Q367 482 347 471T313 433T294 360T288 242Q288 167 294 119T313 44T346 7T396 -4Q426 -4 446 8T480 48T498 122T504 236Z" />
<glyph unicode="&#x2081;" glyph-name="one.inferior" horiz-adv-x="688" d="M90 -128V24H256V432L110 390L80 514L306 612H476V24H626V-128H90Z" />
<glyph unicode="&#x2082;" glyph-name="two.inferior" horiz-adv-x="720" d="M74 -128V26Q174 106 237 164T335 264T383 335T396 388Q396 437 365 455T286 474Q263 474 239 470T190 460T144 448T102 436L74 566Q108 579 141 590T210 609T283 621T364 626Q419 626
468 615T555 578T614 514T636 418Q636 377 623 337T575 252T482 153T334 32H656V-128H74Z" />
<glyph unicode="&#x2083;" glyph-name="three.inferior" horiz-adv-x="714" d="M656 98Q656 30 631 -17T562 -93T458 -135T328 -148Q263 -148 194 -136T54 -96L70 14Q127 3 175 -2T274 -8Q357 -8 390 16T424 88Q424 111 416 128T390 158T341 176T264 182H166V322H272Q404
322 404 410Q404 446 379 466T294 486Q276 486 253 484T206 478T156 469T108 456L78 576Q141 600 211 613T356 626Q499 626 565 575T632 430Q632 365 598 322T510 264Q581 250 618 205T656 98Z" />
<glyph unicode="&#x2084;" glyph-name="four.inferior" horiz-adv-x="722" d="M596 12V-128H382V12H36V154Q60 205 91 262T157 380T227 498T298 608H596V164H686V12H596ZM382 476Q360 445 336 407T286 327T237 243T196 164H382V476Z" />
<glyph unicode="&#x2085;" glyph-name="five.inferior" horiz-adv-x="714" d="M308 451L297 311Q314 314 339 315T394 316Q455 316 504 303T586 263T638 196T656 103Q656 39 634 -8T570 -86T466 -132T325 -147Q298 -147 266 -143T200 -132T131 -114T62 -90L75
12Q136 0 186 -4T281 -9Q320 -9 346 -4T390 14T416 44T424 88Q424 112 416 130T391 161T347 180T279 186Q240 186 194 183T95 173L127 607H592V451H308Z" />
<glyph unicode="&#x2086;" glyph-name="six.inferior" horiz-adv-x="774" d="M662 473Q612 480 564 485T471 491Q428 491 396 480T343 444T311 382T298 290Q339 310 381 319T472 329Q540 329 586 314T662 272T704 204T717 114Q717 55 695 7T632 -75T530 -128T393
-147Q318 -147 260 -132T160 -76T98 39T77 228Q77 340 103 416T176 539T289 606T435 626Q462 626 492 623T553 614T618 599T683 576L662 473ZM496 101Q496 157 473 181T401 206Q376 206 351 199T297 178Q297 122 303 85T321 26T354 -6T401 -16Q447 -16 471 12T496
101V101Z" />
<glyph unicode="&#x2087;" glyph-name="seven.inferior" horiz-adv-x="676" d="M475 178Q447 128 419 82T362 -6T307 -84T253 -149L89 -100L373 443H48V607H633V455L475 178Z" />
<glyph unicode="&#x2088;" glyph-name="eight.inferior" horiz-adv-x="780" d="M720 71Q720 22 702 -18T642 -88T535 -133T375 -150Q287 -150 227 -137T130 -97T77 -34T60 52Q60 85 70 111T99 160T144 199T204 230Q142 260 111 304T79 420Q79 465 97 503T155 569T254
612T397 628Q478 628 535 616T629 580T683 518T701 433Q701 371 668 333T571 260Q643 233 681 190T720 71V71ZM483 419Q483 464 461 486T387 508Q344 508 321 486T297 424Q297 405 303 389T321 359T352 334T396 314Q441 334 462 359T483 419V419ZM497 51Q497 71
490 88T466 119T425 145T366 170Q324 151 303 123T281 61Q281 15 309 -7T395 -29Q419 -29 437 -24T469 -8T490 17T497 51V51Z" />
<glyph unicode="&#x2089;" glyph-name="nine.inferior" horiz-adv-x="770" d="M95 9Q157 -1 208 -6T303 -12Q346 -12 378 -1T431 34T464 96T477 189Q435 168 392 158T302 148Q235 148 189 163T114 206T73 273T60 362Q60 420 81 469T143 552T244 606T382 626Q457
626 515 611T614 555T676 440T698 251Q698 138 672 62T599 -60T485 -127T340 -147Q287 -147 218 -135T74 -93L95 9ZM478 300Q478 355 472 393T453 453T421 485T374 495Q327 495 303 466T279 378Q279 349 284 329T302 297T332 279T374 273Q399 273 424 279T478 300V300Z"
/>
<glyph unicode="&#x20ac;" glyph-name="Euro" horiz-adv-x="1000" d="M966 160Q895 73 802 26T588 -22Q389 -22 269 96T120 446H4V608H106V668Q106 722 108 750H4V912H126Q165 1129 292 1250T602 1372Q712 1372 802 1323T948 1172L838 1060Q799 1116 749 1145T632
1174Q582 1174 541 1154T470 1099T421 1016T392 912H690V750H370Q368 723 368 686Q368 646 370 608H690V446H392Q408 316 470 248T634 180Q702 180 758 207T864 290L966 160Z" />
<glyph unicode="&#x2122;" glyph-name="trademark" horiz-adv-x="840" d="M660 1015Q660 1040 660 1065T659 1116T657 1164T654 1212L592 1015H480L418 1211Q418 1188 417 1164T416 1116T415 1066T413 1015H312Q314 1100 319 1182T332 1350H484L544 1147L603 1350H747Q756
1265 760 1183T768 1015H660ZM224 1260V1015H111V1260H42V1350H289V1260H224Z" />
<glyph unicode="&#x2126;" glyph-name="Omega" horiz-adv-x="1324" d="M741 0V169Q788 197 824 241T885 350T922 500T935 701Q935 775 928 838T905 952T866 1043T811 1110T742 1151T657 1165Q611 1165 574 1150T507 1108T455 1040T418 950T396 841T389 714Q389
595 401 506T437 351T498 242T583 169V0H67V175H325Q270 211 229 264T161 385T119 534T105 708Q105 788 118 869T159 1023T233 1160T341 1271T487 1345T676 1372Q823 1372 926 1324T1094 1190T1189 989T1219 738Q1219 637 1202 551T1153 395T1078 269T981 175H1257V0H741Z"
/>
<glyph unicode="&#x2202;" glyph-name="partialdiff" horiz-adv-x="1068" d="M463 1433Q583 1382 679 1310T844 1137T949 907T986 609Q986 503 971 415T926 257T854 135T759 49T642 -3T508 -20Q400 -20 317 10T178 101T94 252T65 461Q65 595 96 697T190 869T345
972T560 1007Q570 1007 581 1007T604 1005T624 1002T639 998Q617 1041 587 1080T515 1159T418 1237T289 1322L463 1433ZM712 545Q712 635 705 699T688 811Q677 816 661 820T627 827T590 831T555 833Q508 833 469 813T401 751T356 649T340 504Q340 415 353 353T390
252T451 195T535 177Q569 177 601 191T657 245T697 356T712 545V545Z" />
<glyph unicode="&#x2206;" glyph-name="Delta" horiz-adv-x="1112" d="M44 0V184Q79 328 117 476T197 771T284 1064T376 1350H731Q781 1199 827 1053T914 762T993 473T1067 184V0H44ZM784 202Q727 431 664 657T532 1112Q514 1051 493 976T450 818T405 649T362
482T324 329T295 202H784Z" />
<glyph unicode="&#x220f;" glyph-name="product" horiz-adv-x="1306" d="M1141 1141V0H871V1141H438V0H168V1141H42V1350H1269V1141H1141Z" />
<glyph unicode="&#x2211;" glyph-name="summation" horiz-adv-x="1000" d="M80 0V182L494 696L100 1163V1350H893V1144H411L781 708L384 211H923V0H80Z" />
<glyph unicode="&#x2212;" glyph-name="minus" horiz-adv-x="1000" d="M76 507V692H926V507H76Z" />
<glyph unicode="&#x2215;" glyph-name="fraction" horiz-adv-x="176" d="M-414 -162L-550 -88L598 1464L732 1390L-414 -162Z" />
<glyph unicode="&#x2219;" glyph-name="periodcentered" horiz-adv-x="548" d="M422 598Q422 554 417 526T395 480T349 457T276 450Q229 450 201 456T155 480T133 525T127 596Q127 640 132 669T155 715T201 739T277 746Q321 746 349 739T394 715T416 670T422 598V598Z" />
<glyph unicode="&#x221a;" glyph-name="radical" horiz-adv-x="1000" d="M990 1350Q959 1180 922 1013T839 677T740 341T623 0H341L142 830H14V1002H350L507 285Q545 415 579 544T642 804T698 1070T748 1350H990Z" />
<glyph unicode="&#x221e;" glyph-name="infinity" horiz-adv-x="2030" d="M1927 608Q1927 522 1903 446T1826 313T1689 224T1486 191Q1429 191 1371 209T1253 261T1132 341T1009 444Q957 397 901 352T783 270T657 213T522 191Q412 191 333 222T204 307T130 431T106
579Q106 670 136 747T222 879T358 966T541 997Q601 997 660 978T779 924T899 843T1020 740Q1071 786 1128 832T1247 914T1374 974T1507 997Q1614 997 1693 967T1824 885T1901 761T1927 608V608ZM1656 595Q1656 628 1648 661T1621 721T1572 764T1498 781Q1465 781
1431 767T1362 729T1288 670T1208 598Q1252 556 1291 522T1367 462T1436 422T1501 407Q1543 407 1572 423T1620 466T1647 527T1656 595V595ZM378 593Q378 559 386 526T414 467T463 424T537 407Q569 407 602 421T671 459T743 517T820 590Q778 631 740 666T666 726T598
766T534 781Q492 781 463 765T414 722T387 662T378 593V593Z" />
<glyph unicode="&#x222b;" glyph-name="integral'" horiz-adv-x="800" d="M733 1238Q708 1245 681 1249T628 1254Q569 1254 545 1222T521 1115V-46Q521 -121 506 -180T457 -279T369 -342T239 -365Q205 -365 175 -361T117 -349T65 -332T18 -310L51 -162Q77 -169
104 -174T157 -179Q216 -179 240 -147T264 -40V1122Q264 1196 279 1255T328 1355T415 1418T546 1440Q580 1440 610 1436T668 1424T720 1407T767 1385L733 1238Z" />
<glyph unicode="&#x2248;" glyph-name="approxequal" horiz-adv-x="1000" d="M928 775Q893 743 861 720T796 682T732 660T664 653Q620 653 586 661T523 681T470 707T421 732T370 752T312 760Q292 760 273 755T232 738T187 710T137 671L69 814Q104 845 136 868T200
906T265 928T333 935Q377 935 411 927T474 908T527 882T576 856T627 836T685 828Q704 828 724 833T765 850T809 877T860 917L928 775ZM928 384Q893 352 861 329T796 291T732 269T664 262Q620 262 586 270T523 290T470 316T421 341T370 361T312 369Q292 369 273
364T232 348T187 320T137 280L69 423Q104 454 136 477T200 515T265 537T333 544Q377 544 411 536T474 517T527 491T576 465T627 445T685 437Q704 437 724 442T765 459T809 486T860 526L928 384Z" />
<glyph unicode="&#x2260;" glyph-name="notequal" horiz-adv-x="1000" d="M468 331L307 27L138 110L258 331H81V498H343L451 699H81V866H537L698 1171L866 1088L746 866H922V699H662L554 498H922V331H468Z" />
<glyph unicode="&#x2264;" glyph-name="lessequal" horiz-adv-x="1000" d="M80 0V174H918V0H80ZM850 273L80 622V792L850 1140L920 964L318 710L920 454L850 273Z" />
<glyph unicode="&#x2265;" glyph-name="greaterequal" horiz-adv-x="1000" d="M80 0V174H918V0H80ZM147 273L77 449L679 704L77 960L147 1140L918 792V622L147 273Z" />
<glyph unicode="&#x25ca;" glyph-name="lozenge" horiz-adv-x="1000" d="M595 0H402L36 675L405 1350H597L963 676L595 0ZM490 1081L271 696L512 269L732 655L490 1081Z" />
<glyph unicode="&#xeeee;" glyph-name="BBox" horiz-adv-x="350" d="M350 1800V-400H0V1800H350Z" />
<glyph unicode="&#xf000;" glyph-name="LuFo" horiz-adv-x="360" d="M360 -400H0V-40H360V-400ZM40 -80V-360H320V-80H40ZM80 -120H120V-280H200V-320H80V-120ZM280 -120V-320H240V-240H160V-200H240V-160H160V-120H280ZM360 1410H0V1770H360V1410ZM40 1730V1450H320V1730H40ZM80
1690H120V1530H200V1490H80V1690ZM280 1690V1490H240V1570H160V1610H240V1650H160V1690H280Z" />
<glyph unicode="&#xf6be;" glyph-name="dotlessj" horiz-adv-x="518" d="M388 90Q388 17 376 -45T337 -161T269 -265T169 -364L1 -288Q61 -218 96 -136T131 41V1002H388V90Z" />
<glyph unicode="&#xf6c1;" glyph-name="Scedilla" horiz-adv-x="992" d="M942 384Q942 298 911 225T819 96T669 11T468 -20Q355 -20 254 13T62 108L126 250Q209 216 285 197T418 178Q523 178 582 223T642 352Q642 413 605 456T489 542T343 619T215 700T117 818T78
988Q78 1074 109 1144T199 1265T336 1343T510 1370Q606 1370 697 1343T872 1260L808 1120Q743 1146 679 1160T560 1174Q463 1174 414 1132T364 1020Q364 959 402 915T522 828T672 749T802 668T902 552T942 384ZM587 -84Q602 -172 560 -240T421 -366L275 -308Q342
-247 361 -200T369 -84H587Z" />
<glyph unicode="&#xf6c2;" glyph-name="scedilla" horiz-adv-x="832" d="M776 296Q776 227 749 169T669 69T541 3T372 -20Q214 -20 56 62L78 196Q157 177 215 170T326 162Q417 162 460 193T504 276Q504 313 482 338T426 379T330 420T225 464T145 518T83 603T60
724Q60 858 161 941T426 1024Q496 1024 563 1007T706 950L678 818Q612 834 567 841T480 848Q406 848 368 819T330 744Q330 707 352 682T409 641T505 601T610 556T691 502T753 418T776 296ZM497 -84Q512 -172 470 -240T331 -366L185 -308Q252 -247 271 -200T279
-84H497Z" />
<glyph unicode="&#xf6c9;" glyph-name="acute.cap" horiz-adv-x="672" d="M176 1438L98 1550L458 1716L574 1560L176 1438Z" />
<glyph unicode="&#xf6ca;" glyph-name="caron.cap" horiz-adv-x="806" d="M164 1716L404 1612L642 1716L708 1612L402 1438L98 1610L164 1716Z" />
<glyph unicode="&#xf6cb;" glyph-name="dieresis.cap" horiz-adv-x="854" d="M756 1564Q756 1502 729 1477T632 1452Q562 1452 535 1476T508 1564Q508 1626 535 1651T632 1676Q702 1676 729 1652T756 1564ZM344 1564Q344 1502 317 1477T222 1452Q152 1452 125
1476T98 1564Q98 1626 125 1651T222 1676Q291 1676 317 1652T344 1564Z" />
<glyph unicode="&#xf6ce;" glyph-name="grave.cap" horiz-adv-x="672" d="M496 1438L98 1560L214 1716L574 1550L496 1438Z" />
<glyph unicode="&#xf6cf;" glyph-name="hungarumlaut.cap" horiz-adv-x="1108" d="M210 1424L98 1492L394 1736L552 1630L210 1424ZM622 1426L516 1508L864 1728L1012 1610L622 1426Z" />
<glyph unicode="&#xf6d0;" glyph-name="macron.cap" horiz-adv-x="764" d="M98 1484V1652H666V1484H98Z" />
<glyph unicode="&#xf730;" glyph-name="zero.oldstyle" horiz-adv-x="1000" d="M682 566Q682 691 671 771T638 895T583 956T500 974Q450 974 417 958T362 899T329 778T318 576Q318 454 327 377T358 256T415 193T506 174Q555 174 588 193T642 257T672 377T682 566ZM942
578Q942 416 913 301T826 115T685 11T490 -22Q370 -22 289 7T157 102T82 281T58 562Q58 729 87 845T175 1032T316 1135T512 1168Q626 1168 706 1140T838 1045T916 864T942 578Z" />
<glyph unicode="&#xf731;" glyph-name="one.oldstyle" horiz-adv-x="1000" d="M122 0V218H394V888L156 810L94 976L460 1144H674V218H916V0H122Z" />
<glyph unicode="&#xf732;" glyph-name="two.oldstyle" horiz-adv-x="1000" d="M86 0V186Q250 318 349 406T501 559T574 674T594 782Q594 870 544 912T402 954Q344 954 281 941T126 900L94 1074Q163 1100 204 1114T291 1140T388 1159T498 1166Q687 1166 788 1075T890
818Q890 741 866 674T789 540T652 396T436 218H918V0H86Z" />
<glyph unicode="&#xf733;" glyph-name="three.oldstyle" horiz-adv-x="1000" d="M908 212Q908 97 876 14T781 -123T632 -201T432 -226Q348 -226 248 -203T44 -134L62 16Q240 -22 360 -22Q432 -22 480 -8T557 34T598 101T610 194Q610 297 558 350T380 404H232V602H374Q481
602 529 649T578 798Q578 881 536 919T392 958Q327 958 257 945T118 908L86 1078Q186 1120 278 1143T480 1166Q581 1166 655 1142T776 1072T845 963T868 820Q868 705 815 630T670 522Q728 511 773 482T848 411T893 319T908 212Z" />
<glyph unicode="&#xf734;" glyph-name="four.oldstyle" horiz-adv-x="1000" d="M564 928Q492 788 413 625T262 302H564V928ZM824 88V-208H564V88H38V282Q83 388 132 499T235 722T343 941T450 1144H824V302H956V88H824Z" />
<glyph unicode="&#xf735;" glyph-name="five.oldstyle" horiz-adv-x="1000" d="M914 222Q914 -2 792 -114T438 -226Q357 -226 260 -205T46 -136L66 8Q173 -9 249 -17T382 -26Q520 -26 575 24T630 198Q630 315 576 376T396 438Q331 438 264 430T104 404L150 1144H818V924H358L338
630Q365 636 406 639T486 642Q699 642 806 533T914 222Z" />
<glyph unicode="&#xf736;" glyph-name="six.oldstyle" horiz-adv-x="1000" d="M680 420Q680 530 644 578T522 626Q479 626 439 614T342 570V560Q342 452 353 378T387 257T444 191T524 170Q602 170 641 230T680 420ZM936 448Q936 344 907 258T822 109T688 14T514
-20Q403 -20 325 9T192 111T110 316T82 652Q82 852 118 991T220 1214T371 1333T564 1370Q642 1370 722 1351T892 1290L868 1142Q795 1158 728 1167T598 1176Q479 1176 411 1071T334 742Q411 785 472 805T600 826Q773 826 854 729T936 448Z" />
<glyph unicode="&#xf737;" glyph-name="seven.oldstyle" horiz-adv-x="1000" d="M680 396Q601 228 513 71T334 -224L156 -160L632 924H68V1144H938V942L680 396Z" />
<glyph unicode="&#xf738;" glyph-name="eight.oldstyle" horiz-adv-x="1000" d="M688 334Q688 418 634 472T478 576Q399 527 356 474T312 348Q312 260 360 211T506 162Q590 162 639 209T688 334ZM668 1028Q668 1110 627 1152T500 1194Q421 1194 377 1152T332 1038Q332
960 379 907T510 808Q585 853 626 904T668 1028ZM942 354Q942 272 915 204T832 85T687 6T480 -22Q369 -22 289 3T157 74T82 183T58 326Q58 445 121 526T298 672Q195 736 139 816T82 1016Q82 1094 109 1159T191 1272T327 1346T512 1372Q619 1372 696 1349T823 1283T895
1178T918 1038Q918 928 860 851T704 712Q816 652 879 570T942 354Z" />
<glyph unicode="&#xf739;" glyph-name="nine.oldstyle" horiz-adv-x="1000" d="M660 586Q660 796 616 886T478 976Q399 976 360 915T320 728Q320 617 357 569T478 520Q523 520 564 533T660 576V586ZM920 494Q920 295 883 155T780 -70T625 -192T432 -230Q348 -230
264 -212T78 -146L98 -2Q197 -20 266 -28T398 -36Q518 -36 588 71T666 404Q591 361 529 341T400 320Q229 320 148 417T66 700Q66 804 95 890T179 1038T312 1133T486 1166Q597 1166 676 1137T809 1035T892 830T920 494Z" />
<glyph unicode="&#xf8ff;" glyph-name="" horiz-adv-x="2000" d="M1642 754Q1646 810 1642 862L1906 886Q1916 808 1906 730L1642 754ZM1492 1224Q1474 1244 1455 1264T1416 1300L1586 1504Q1648 1454 1696 1394L1492 1224ZM358 862Q354 808 358 754L94 730Q84
808 94 886L358 862ZM584 1300Q564 1282 544 1263T508 1224L304 1394Q328 1424 356 1453T412 1504L584 1300ZM1008 854Q1008 852 1007 851Q1005 852 1007 854H1008ZM1238 48L732 -82L784 -204H1218L1242 -144L1232 -122L1082 -160L1050 -74L1266 -20L1238 48ZM1236
228L730 100L762 30L1266 158L1236 228ZM1262 388H738V284L768 210L1262 338V388ZM1084 796Q1062 798 1044 799T1004 800Q982 800 958 800Q936 800 914 796L946 500H1056L1084 796ZM980 852H978V860H976V850H980V852ZM988 858H986V852Q986 850 984 850Q984 851
984 852V858H982V852Q982 848 984 848Q988 848 988 852V858ZM1406 808Q1406 892 1374 966T1287 1095T1158 1182T1000 1214Q916 1214 842 1182T713 1095T626 966T594 808Q594 718 631 637T736 500H846L812 778Q788 774 767 766T730 752Q714 746 705 764T694 806T698
853T716 880Q778 900 852 912T1000 924Q1078 924 1151 912T1290 880Q1302 876 1307 853T1310 806T1299 764T1272 752Q1256 758 1233 766T1186 778L1156 500H1266Q1324 552 1365 630T1406 808ZM996 852Q992 850 992 854Q992 858 996 856V858Q990 860 990 854T996
850V852ZM1002 848Q1000 854 1002 862H1000Q998 854 1000 848H1002ZM1010 856Q1010 860 1004 858V856Q1008 858 1008 855Q1004 856 1004 852Q1004 848 1006 849T1008 851V850H1010V856ZM1016 858Q1008 859 1013 855T1012 852V850Q1021 850 1016 854T1016 856V858ZM1020
848Q1022 854 1020 862H1018Q1020 854 1018 848H1020ZM1546 808Q1546 698 1507 603T1406 440V270L1370 260L1440 98L1372 80L1440 -76L1368 -94L1390 -146L1326 -298H1204Q1196 -344 1140 -372T1000 -400Q916 -400 860 -371T798 -298H676L560 -22L628 -2L560 160L634
178L594 276V442Q530 512 492 606T454 808Q454 922 497 1021T614 1193T787 1309T1000 1352Q1112 1352 1212 1309T1386 1193T1503 1021T1546 808ZM1054 1450Q1000 1454 946 1450L922 1714Q1000 1724 1078 1714L1054 1450Z" />
<glyph unicode="&#xfb00;" glyph-name="f_f" horiz-adv-x="1186" d="M1211 1231Q1179 1242 1149 1248T1092 1254Q1033 1254 1009 1224T985 1130V1002H1166V822H985V0H728V822H408V0H151V822H23V1002H151V1105Q151 1179 166 1238T215 1338T302 1401T431 1424Q496
1424 552 1409T654 1370L621 1218Q599 1226 569 1232T514 1238Q456 1238 432 1208T408 1113V1002H728V1122Q728 1196 743 1255T792 1355T880 1418T1010 1440Q1047 1440 1080 1435T1144 1422T1200 1402T1249 1377L1211 1231Z" />
<glyph unicode="&#xfb01;" glyph-name="fi" horiz-adv-x="1116" d="M728 0V822H408V0H151V822H23V1002H151V1123Q151 1197 166 1256T215 1355T301 1418T430 1440Q494 1440 546 1426T632 1397L601 1237Q582 1244 557 1249T508 1254Q453 1254 431 1225T408 1131V1002H985V0H728ZM1010
1266Q1010 1229 1004 1203T980 1162T933 1139T858 1132Q811 1132 781 1138T734 1160T710 1201T703 1266Q703 1304 710 1329T734 1371T781 1393T858 1400Q904 1400 934 1394T980 1373T1003 1331T1010 1266V1266Z" />
<glyph unicode="&#xfb02;" glyph-name="fl" horiz-adv-x="1144" d="M1108 10Q1091 4 1071 -1T1027 -9T978 -15T924 -17Q875 -17 838 -8T775 24T738 86T725 186V1238Q708 1242 690 1245T652 1250T614 1254T576 1255Q530 1255 498 1246T446 1217T417 1164T408 1085V1002H567V822H408V0H151V822H23V1002H151V1073Q151
1156 166 1224T223 1340T334 1414T516 1440Q544 1440 574 1438T635 1434T692 1427T743 1418H982V287Q982 245 985 220T995 182T1016 164T1049 160Q1063 160 1076 160T1098 162L1108 10Z" />
<glyph unicode="&#xfb03;" glyph-name="f_f_i" horiz-adv-x="1692" d="M1305 0V822H985V0H728V822H408V0H151V822H23V1002H151V1105Q151 1179 166 1238T215 1338T302 1401T431 1424Q496 1424 552 1409T654 1370L621 1218Q599 1226 569 1232T514 1238Q456 1238
432 1208T408 1113V1002H728V1123Q728 1197 743 1256T791 1355T878 1418T1007 1440Q1070 1440 1123 1426T1209 1397L1178 1237Q1159 1244 1134 1249T1085 1254Q1030 1254 1008 1225T985 1131V1002H1562V0H1305ZM1587 1266Q1587 1229 1580 1203T1556 1162T1510 1139T1434
1132Q1387 1132 1357 1138T1310 1160T1287 1201T1280 1266Q1280 1304 1287 1329T1311 1371T1358 1393T1434 1400Q1481 1400 1511 1394T1557 1373T1580 1331T1587 1266V1266Z" />
<glyph unicode="&#xfb04;" glyph-name="f_f_l" horiz-adv-x="1722" d="M1685 10Q1667 4 1647 -1T1604 -9T1555 -15T1501 -17Q1452 -17 1415 -8T1352 24T1315 86T1302 186V1238Q1285 1242 1267 1245T1229 1250T1190 1254T1153 1255Q1107 1255 1075 1246T1023 1217T994
1164T985 1085V1002H1143V822H985V0H728V822H408V0H151V822H23V1002H151V1105Q151 1179 166 1238T215 1338T302 1401T431 1424Q496 1424 552 1409T654 1370L616 1219Q593 1227 566 1232T514 1238Q456 1238 432 1208T408 1113V1002H728V1073Q728 1156 743 1224T799
1340T911 1414T1093 1440Q1121 1440 1151 1438T1212 1434T1269 1427T1320 1418H1559V287Q1559 245 1562 220T1572 182T1593 164T1626 160Q1640 160 1653 160T1675 162L1685 10Z" />
<glyph unicode="&#xfb06;" glyph-name="s_t" horiz-adv-x="1494" d="M1454 46Q1383 10 1321 -5T1201 -21Q1132 -21 1084 -7T1006 38T961 120T947 243V822H820V1002H947V1041Q947 1095 937 1133T906 1195T855 1229T786 1240Q752 1240 724 1230T675 1199T643 1151T632
1088Q632 1068 635 1049T648 1013T670 980T705 954L679 818Q647 825 620 831T568 840T523 845T479 847Q441 847 413 839T366 817T338 784T329 744Q329 710 348 687T399 647T471 614T553 582T635 543T706 487T757 408T777 296Q777 227 750 169T670 69T543 3T372
-21Q286 -21 210 0T56 63L78 195Q160 177 218 169T327 161Q375 161 408 170T463 195T493 231T503 276Q503 310 484 333T434 374T363 406T282 438T201 478T130 533T79 612T60 724Q60 790 86 845T161 940T276 1001T426 1023Q444 1023 458 1022T483 1019Q495 1017
504 1015Q474 1032 457 1067T440 1144Q440 1209 469 1260T548 1346T667 1399T814 1418Q917 1418 990 1395T1111 1327T1181 1216T1204 1061V1002H1427V822H1204V305Q1204 267 1209 242T1224 201T1252 179T1295 172Q1319 172 1351 176T1432 195L1454 46Z" />
<glyph unicode="&#xfeff;" glyph-name="uniFEFF" horiz-adv-x="0" />
</font>
</defs>
</svg>
