<?xml version="1.0" standalone="no"?> <!DOCTYPE svg PUBLIC "-//W3C//DTD SVG 1.0//EN" "http://www.w3.org/TR/2001/REC-SVG-20010904/DTD/svg10.dtd" > <svg xmlns="http://www.w3.org/2000/svg" width="100%" height="100%">
<defs >
<font id="SunAntwerpen_700_italic" horiz-adv-x="999" ><font-face
    font-family="SunAntwerpen"
    units-per-em="2000"
    panose-1="2 11 8 3 5 3 2 9 2 4"
    ascent="1800"
    descent="-400"
    alphabetic="0" />
<missing-glyph horiz-adv-x="1100" d="M900 200V900H200V200H900ZM500 700V800H800V300H700V500H500V600H700V700H500ZM100 100V1000H1000V100H100ZM300 300V800H400V400H600V300H300Z" />
<glyph unicode="&#xd;" glyph-name="CR" horiz-adv-x="0" />
<glyph unicode=" " glyph-name="space" horiz-adv-x="480" />
<glyph unicode="!" glyph-name="exclam" horiz-adv-x="718" d="M481 354H254L405 1350H719L481 354ZM305 -17Q266 -17 239 -12T195 4T171 34T163 79Q163 100 166 121T174 161T187 195T204 219Q225 240 257 249T342 258Q381 258 408 253T452 237T476 207T484 162Q484
141 481 120T473 80T460 46T443 22Q422 1 390 -8T305 -17V-17Z" />
<glyph unicode="&quot;" glyph-name="quotedbl" horiz-adv-x="932" d="M421 828H225L299 1350H548L421 828ZM826 828H630L704 1350H953L826 828Z" />
<glyph unicode="#" glyph-name="numbersign" horiz-adv-x="1028" d="M755 402L631 0H440L564 402H354L230 0H39L163 402H31L61 559H210L299 846H117L147 1002H347L454 1350H646L539 1002H748L855 1350H1046L939 1002H1070L1040 846H891L802 559H984L954 402H755ZM700
846H491L401 559H611L700 846Z" />
<glyph unicode="$" glyph-name="dollar" horiz-adv-x="1000" d="M419 -214H269L295 6Q203 16 130 46T3 121L92 258Q118 243 150 231T216 209T287 194T358 189Q423 189 471 203T550 242T597 303T613 380Q613 416 594 444T545 497T475 545T394 592T314 645T244 710T194
793T175 900Q175 963 196 1025T263 1141T377 1232T544 1286L601 1495H751L729 1289Q805 1279 869 1253T980 1185L894 1053Q873 1066 846 1077T789 1096T726 1109T658 1114Q611 1114 572 1101T505 1065T460 1009T444 939Q444 901 463 872T515 817T587 770T671 723T754
671T826 607T878 525T898 419Q898 341 869 272T785 147T653 56T479 6L419 -214Z" />
<glyph unicode="%" glyph-name="percent" horiz-adv-x="1410" d="M437 732Q370 732 323 745T246 784T202 851T189 948Q189 993 195 1042T216 1139T258 1228T325 1303T422 1353T554 1372Q621 1372 668 1359T746 1319T789 1252T802 1156Q802 1110 796 1061T775 965T733
876T666 802T569 751T437 732V732ZM613 1136Q613 1190 593 1212T530 1234Q500 1234 477 1220T437 1183T409 1131T391 1072T381 1015T378 968Q378 914 398 892T461 870Q491 870 514 884T554 921T582 973T600 1032T610 1089T613 1136V1136ZM170 -43L45 41L1302 1393L1426
1309L170 -43ZM917 -22Q850 -22 803 -9T726 30T683 97T669 194Q669 239 675 288T696 385T738 474T805 549T902 599T1034 618Q1101 618 1148 605T1226 565T1269 498T1283 402Q1283 356 1277 307T1255 211T1213 122T1146 47T1049 -3T917 -22V-22ZM1093 382Q1093 436
1073 458T1010 480Q980 480 957 466T917 429T889 377T871 318T861 261T858 214Q858 160 878 138T941 116Q971 116 994 130T1034 167T1062 219T1080 278T1090 335T1093 382V382Z" />
<glyph unicode="&amp;" glyph-name="ampersand" horiz-adv-x="1362" d="M1032 1142Q1032 1083 1013 1030T951 924T836 818T660 708Q683 671 708 633T762 557T818 483T875 413Q904 454 929 497T974 585T1008 675T1032 767H1275Q1261 695 1236 625T1178 488T1105
363T1021 256Q1066 211 1098 188T1152 165H1226L1197 7Q1184 1 1171 -4T1142 -13T1105 -19T1057 -21Q1019 -21 966 13T841 111Q743 47 634 14T415 -20Q315 -20 244 3T127 66T60 161T38 278Q38 342 55 401T111 517T211 627T363 733Q344 774 328 812T301 887T283
958T276 1025Q276 1066 286 1107T317 1187T374 1258T457 1316T570 1355T715 1370Q788 1370 847 1354T947 1308T1010 1236T1032 1142V1142ZM291 313Q291 274 303 246T339 198T396 169T472 159Q504 159 535 166T597 185T655 211T708 243Q674 279 640 320T574 403T511
490T454 578Q405 543 374 510T325 445T299 379T291 313V313ZM792 1119Q792 1140 786 1157T766 1186T732 1205T683 1212Q644 1212 614 1199T563 1161T531 1106T520 1038Q520 1001 533 956T574 856Q636 893 677 928T744 995T781 1058T792 1119V1119Z" />
<glyph unicode="&apos;" glyph-name="quotesingle" horiz-adv-x="640" d="M484 828H297L371 1350H610L484 828Z" />
<glyph unicode="(" glyph-name="parenleft" horiz-adv-x="620" d="M218 -347Q188 -285 165 -215T124 -70T98 87T89 254Q89 396 116 546T200 848T345 1154T557 1454L724 1391Q658 1303 603 1208T502 1014T423 812T365 607T330 402T318 203Q318 54 340 -71T397 -296L218
-347Z" />
<glyph unicode=")" glyph-name="parenright" horiz-adv-x="620" d="M417 1455Q446 1392 470 1323T510 1178T536 1022T545 855Q545 712 519 563T437 261T291 -44T78 -346L-89 -283Q-21 -192 35 -95T137 102T216 303T272 506T306 708T317 903Q317 1052 295 1178T238
1404L417 1455Z" />
<glyph unicode="*" glyph-name="asterisk" horiz-adv-x="1000" d="M857 721L659 898V616H427L507 898L259 721L172 923L451 1029L202 1136L346 1337L545 1160L544 1442H776L697 1160L945 1337L1032 1136L754 1029L1002 923L857 721Z" />
<glyph unicode="+" glyph-name="plus" horiz-adv-x="1000" d="M606 507L539 156H322L389 507H72L108 690H426L493 1034H709L642 690H958L921 507H606Z" />
<glyph unicode="," glyph-name="comma" horiz-adv-x="606" d="M-70 -222Q-14 -185 21 -155T75 -101T102 -56T109 -18Q109 -3 103 6T90 26T77 50T71 89Q71 107 74 129T84 173T100 214T121 246Q140 265 172 273T255 281Q292 281 316 275T354 257T375 225T381 179Q381
137 372 93T345 4T297 -85T228 -171T136 -253T19 -327L-70 -222Z" />
<glyph unicode="-" glyph-name="hyphen" horiz-adv-x="474" d="M44 478L81 668H501L464 478H44Z" />
<glyph unicode="." glyph-name="period" horiz-adv-x="580" d="M204 -21Q167 -21 142 -17T100 -2T76 26T69 70Q69 92 73 118T83 169T99 214T119 245Q138 264 168 272T247 281Q284 281 309 277T351 262T375 234T382 190Q382 168 378 142T367 91T351 46T332 15Q313
-4 283 -12T204 -21V-21Z" />
<glyph unicode="/" glyph-name="slash" horiz-adv-x="1000" d="M94 -208H-146L926 1418H1167L94 -208Z" />
<glyph unicode="0" glyph-name="zero" horiz-adv-x="980" d="M967 692Q952 613 934 544T896 416T854 306T806 215T753 140T695 80Q662 53 628 34T556 2T478 -16T393 -22Q321 -22 266 -8T170 39T107 124T76 252T77 429T111 661Q128 747 147 821T189 957T236 1072T289
1166T349 1240T416 1297Q445 1317 476 1331T541 1354T611 1367T685 1372Q791 1372 863 1341T971 1232T1006 1023T967 692ZM709 673Q728 772 738 848T751 981T747 1075T727 1136T691 1170T638 1180Q607 1180 581 1170T531 1136Q520 1125 509 1110T488 1076T467 1035T447
985T428 925T409 855T391 776T372 685Q343 534 333 435T331 278T369 198T444 175Q476 175 504 186T557 226Q568 238 578 254T598 289T617 331T636 381T655 440T673 508T691 586T709 673Z" />
<glyph unicode="1" glyph-name="one" horiz-adv-x="980" d="M862 232L818 0H40L84 232H351L517 1088L267 1000L238 1173L634 1350H842L625 232H862Z" />
<glyph unicode="2" glyph-name="two" horiz-adv-x="980" d="M-10 0L33 221Q155 330 247 417T408 574T522 699T597 800T643 884T666 959Q677 1015 670 1051T642 1110T590 1141T519 1150Q487 1150 454 1145T386 1131T316 1112T246 1090L236 1266Q289 1289 339 1309T442
1343T550 1364T670 1372Q745 1372 810 1353T920 1289T981 1175T979 1002Q968 948 949 896T895 790T812 677T695 550T538 404T336 232H863L819 0H-10Z" />
<glyph unicode="3" glyph-name="three" horiz-adv-x="980" d="M27 220Q113 200 182 191T308 182Q356 182 395 188T463 208T515 240T553 283T579 336T596 399Q606 448 603 487T578 553T517 594T414 608H259L298 805H448Q500 805 540 816T609 852T656 914T685 1002Q692
1042 689 1073T668 1124T617 1155T532 1165Q502 1165 467 1162T396 1152T324 1136T255 1115L256 1286Q299 1302 345 1317T442 1345T547 1365T659 1372Q759 1372 826 1347T930 1276T977 1166T972 1024Q960 964 937 916T880 831T807 768T720 726Q775 718 813 689T873
618T899 524T893 417Q878 338 851 276T787 165T702 81T598 23T476 -11T339 -22Q300 -22 257 -17T169 -1T75 28T-21 69L27 220Z" />
<glyph unicode="4" glyph-name="four" horiz-adv-x="980" d="M990 1350L829 524H958L914 299H785L728 0H473L529 299H14L56 505Q117 606 186 713T328 929T476 1144T626 1350H990ZM691 1131Q642 1061 590 986T484 833T379 678T277 524H573L691 1131Z" />
<glyph unicode="5" glyph-name="five" horiz-adv-x="980" d="M940 1129H490L414 832Q428 835 445 837T480 840T518 843T559 844Q665 844 738 816T853 733T905 601T896 423Q881 347 856 285T794 174T711 87T607 26T485 -10T344 -22Q268 -22 176 -2T-23 68L25 212Q117
197 192 188T327 178Q372 178 409 183T475 200T527 229T567 272T595 329T615 402Q626 457 623 501T598 576T535 623T430 639Q396 639 363 637T295 630T221 620T138 606L328 1350H983L940 1129Z" />
<glyph unicode="6" glyph-name="six" horiz-adv-x="1000" d="M426 -20Q345 -20 280 -3T170 56T100 171T75 353Q75 397 80 463T99 609T133 775T185 943T258 1098T353 1225Q393 1265 436 1292T525 1337T619 1363T718 1371Q794 1371 875 1353T1042 1289L991 1141Q926
1156 860 1166T726 1176Q667 1176 616 1152T521 1076T441 941T379 741Q418 761 453 777T521 804T588 820T658 826Q727 826 778 807T864 751T915 664T933 550Q933 495 922 432T887 305T824 184T729 80T598 7T426 -20ZM672 508Q672 570 642 598T545 626Q522 626 501
623T457 613T408 596T352 570Q338 496 331 443T324 349Q324 301 332 267T357 212T398 180T456 170Q495 170 527 188T583 234T624 299T652 373T667 446T672 508Z" />
<glyph unicode="7" glyph-name="seven" horiz-adv-x="980" d="M702 595Q663 535 624 479T546 368T468 262T391 161T315 66T242 -22L81 42L760 1129H205L248 1350H1104L1064 1149L702 595Z" />
<glyph unicode="8" glyph-name="eight" horiz-adv-x="1000" d="M392 -22Q294 -22 224 -1T109 57T41 147T19 262Q19 330 36 389T91 500T186 598T324 688Q290 712 263 739T216 799T186 869T176 950Q176 994 185 1042T216 1138T274 1227T364 1302T491 1353T661 1372Q755
1372 823 1353T936 1298T1003 1213T1025 1103Q1025 1061 1018 1024T995 951T957 882T901 817T826 757T731 700Q777 672 811 642T869 578T904 508T916 429Q916 373 905 319T868 214T801 121T702 46T567 -4T392 -22ZM773 1076Q773 1104 764 1126T737 1163T691 1185T625
1193Q571 1193 534 1173T473 1122T439 1054T428 981Q428 954 435 931T456 887T494 846T549 807Q614 842 657 873T726 936T762 1002T773 1076ZM658 376Q658 407 648 434T616 485T563 531T490 576Q425 540 384 506T318 437T284 368T274 295Q274 232 314 197T437 161Q488
161 529 178T598 226T642 294T658 376Z" />
<glyph unicode="9" glyph-name="nine" horiz-adv-x="980" d="M55 206Q98 198 137 192T211 181T278 175T343 173Q399 173 450 196T545 272T627 408T691 612Q652 591 617 575T548 548T482 532T414 527Q328 527 271 552T183 626T147 745T159 906Q180 1011 225 1097T336
1244T485 1338T663 1372Q731 1372 786 1361T883 1321T952 1244T988 1121T991 943T956 700Q935 591 907 502T846 341T773 214T690 117T600 48T504 4Q484 -3 463 -8T422 -16T380 -20T338 -22Q301 -22 263 -19T185 -6T101 20T8 62L55 206ZM716 783Q716 783 716 784T718
787T719 791T720 793Q740 901 743 975T734 1095T691 1161T617 1182Q591 1182 569 1176T527 1156T491 1123T460 1074T435 1012T415 934Q404 878 405 839T420 775T460 739T529 727Q550 727 571 730T616 739T663 756T716 783Z" />
<glyph unicode=":" glyph-name="colon" horiz-adv-x="612" d="M232 -8Q198 -8 175 -3T136 12T113 41T106 85Q106 104 109 125T118 166T132 203T151 230Q170 249 201 257T280 265Q346 265 376 245T406 172Q406 153 403 132T394 91T379 54T360 27Q342 8 311 0T232
-8V-8ZM377 736Q343 736 320 741T281 757T258 785T251 829Q251 848 254 869T263 911T277 948T296 975Q315 993 346 1001T425 1010Q491 1010 521 990T551 917Q551 898 548 877T539 835T524 798T505 771Q487 753 456 745T377 736V736Z" />
<glyph unicode=";" glyph-name="semicolon" horiz-adv-x="612" d="M-37 -226Q17 -191 51 -162T104 -110T130 -67T137 -29Q137 -15 131 -6T119 14T106 37T100 74Q100 91 103 112T112 154T128 193T148 224Q182 258 277 258Q311 258 334 252T371 234T391 204T397
160Q397 99 378 34T317 -94T209 -217T48 -327L-37 -226ZM373 736Q340 736 316 741T277 757T255 785T247 829Q247 848 250 869T260 911T274 948T293 975Q311 993 342 1001T421 1010Q488 1010 518 990T548 917Q548 898 545 877T535 835T521 798T502 771Q484 753 453
745T373 736V736Z" />
<glyph unicode="&lt;" glyph-name="less" horiz-adv-x="1000" d="M761 121L71 512L104 686L947 1077L985 885L340 596L872 307L761 121Z" />
<glyph unicode="=" glyph-name="equal" horiz-adv-x="1000" d="M125 699L160 877H982L947 699H125ZM52 320L86 499H907L874 320H52Z" />
<glyph unicode="&gt;" glyph-name="greater" horiz-adv-x="1000" d="M87 121L48 313L693 602L161 890L273 1077L963 686L929 512L87 121Z" />
<glyph unicode="?" glyph-name="question" horiz-adv-x="1000" d="M999 1097Q999 1011 972 949T903 838T811 749T713 667T629 577T576 462L550 354H326L343 478Q353 556 383 614T453 718T537 801T617 874T676 950T700 1041Q700 1068 691 1090T663 1129T615 1154T546
1163Q517 1163 487 1160T426 1150T367 1136T310 1117L267 1275Q315 1298 362 1315T457 1345T552 1363T648 1370Q735 1370 801 1351T910 1296T976 1210T999 1097V1097ZM374 -17Q334 -17 307 -12T264 4T240 34T232 79Q232 100 235 121T243 161T256 195T273 219Q294
240 326 249T411 258Q450 258 477 253T521 237T545 207T553 162Q553 141 550 120T542 80T529 46T512 22Q491 1 459 -8T374 -17V-17Z" />
<glyph unicode="@" glyph-name="at" horiz-adv-x="2032" d="M1915 906Q1915 823 1902 747T1863 600T1800 468T1715 354T1610 261T1487 191T1348 147T1196 131H1061L1075 296Q1034 254 996 221T921 166T849 133T778 122Q720 122 679 139T610 188T571 267T558 374Q558
434 566 493T592 607T637 714T699 810T780 892T879 954T998 994T1135 1008Q1226 1008 1306 997T1450 961L1287 321Q1342 321 1391 341T1482 398T1557 485T1612 596T1647 725T1659 865Q1659 948 1634 1018T1556 1139T1417 1219T1211 1248Q1076 1248 960 1211T747
1108T577 955T452 765T375 553T348 334Q348 218 381 127T479 -28T643 -125T873 -159Q930 -159 996 -152T1129 -131T1261 -100T1383 -61L1415 -212Q1346 -242 1272 -267T1120 -309T965 -336T810 -346Q639 -346 507 -307T283 -190T145 5T97 279Q97 388 117 495T177
704T273 899T406 1072T573 1219T772 1332T1002 1404T1261 1430Q1434 1430 1558 1392T1761 1286T1877 1121T1915 906V906ZM798 417Q798 366 815 342T869 317Q890 317 913 326T961 354T1017 403T1085 476L1173 817Q1155 822 1132 825T1082 828Q1031 828 991 811T919
765T865 695T827 609T805 514T798 417V417Z" />
<glyph unicode="A" glyph-name="A" horiz-adv-x="1148" d="M747 0Q747 29 747 63T745 132T743 201T740 267H293Q281 238 268 206T241 139T213 70T187 0H-81Q-10 168 66 339T223 681T386 1019T556 1350H910Q935 1177 954 1008T987 672T1011 338T1029 0H747ZM736
468Q730 546 723 627T709 789T693 952T674 1112Q639 1040 601 959T524 795T447 628T377 468H736Z" />
<glyph unicode="B" glyph-name="B" horiz-adv-x="1162" d="M435 -4Q392 -4 344 -4T245 -2T145 -1T48 0L310 1350H729Q833 1350 905 1330T1023 1275T1089 1191T1110 1085Q1110 1030 1095 979T1051 881T976 796T869 730Q912 722 948 702T1009 650T1049 579T1064
490Q1064 437 1051 380T1007 268T928 164T809 77T647 18T435 -4V-4ZM829 1033Q829 1061 820 1084T792 1125T742 1151T669 1160H540L469 796H572Q619 796 656 807T722 836T771 879T804 929T823 982T829 1033V1033ZM774 458Q774 492 762 520T725 569T658 600T557
612H433L351 193Q362 192 378 191T411 189T447 188T479 187Q538 187 583 200T660 234T715 284T750 342T769 402T774 458V458Z" />
<glyph unicode="C" glyph-name="C" horiz-adv-x="1032" d="M930 184Q887 135 838 97T734 32T619 -8T496 -22Q394 -22 318 6T190 90T112 228T86 420Q86 483 93 557T118 709T162 868T227 1021T316 1159T431 1270T575 1345T750 1372Q808 1372 860 1360T957 1321T1036
1252T1094 1149L951 1032Q917 1092 873 1124T764 1156Q715 1156 672 1138T593 1088T526 1011T471 914T428 805T397 689T379 573T373 463Q373 388 387 337T427 254T488 210T567 196Q603 196 637 203T704 227T769 267T835 325L930 184Z" />
<glyph unicode="D" glyph-name="D" horiz-adv-x="1192" d="M1162 896Q1162 858 1158 805T1143 692T1114 565T1067 433T999 305T907 190Q862 144 810 108T695 47T561 8T402 -6Q355 -6 309 -5T217 -4T129 -2T48 0L310 1350Q361 1350 407 1350T497 1351T584 1352T672
1353Q805 1353 898 1319T1050 1223T1135 1078T1162 896V896ZM877 880Q877 948 864 999T820 1084T745 1135T635 1152Q610 1152 588 1152T542 1150L357 204Q381 201 404 201T447 200Q521 200 579 226T684 298Q722 336 752 386T803 491T838 602T861 711T873 806T877
880V880Z" />
<glyph unicode="E" glyph-name="E" horiz-adv-x="948" d="M48 0L310 1350H1010L969 1144H540L472 795H829L790 597H434L359 209H794L756 0H48Z" />
<glyph unicode="F" glyph-name="F" horiz-adv-x="908" d="M540 1144L468 773H846L807 571H428L318 0H48L310 1350H1000L960 1144H540Z" />
<glyph unicode="G" glyph-name="G" horiz-adv-x="1152" d="M954 132Q906 98 854 70T744 22T621 -10T482 -22Q385 -22 312 6T188 90T112 230T86 426Q86 499 94 572T118 717T157 856T212 986T281 1102T363 1201Q447 1284 549 1328T771 1372Q841 1372 899 1358T1003
1317T1084 1253T1144 1169L1013 1058Q986 1082 958 1100T900 1132T840 1152T776 1159Q716 1159 666 1136T574 1071Q539 1036 510 990T459 892T419 781T390 665T373 548T367 438Q367 371 380 324T416 248T472 206T546 193Q573 193 597 197T642 208T679 223T710 239L777
578H616L655 776H1080L954 132Z" />
<glyph unicode="H" glyph-name="H" horiz-adv-x="1316" d="M798 0L911 591H432L318 0H48L310 1350H580L476 817H955L1060 1350H1330L1068 0H798Z" />
<glyph unicode="I" glyph-name="I" horiz-adv-x="566" d="M48 0L310 1350H580L318 0H48Z" />
<glyph unicode="J" glyph-name="J" horiz-adv-x="576" d="M358 157Q340 69 313 -4T244 -140T145 -255T13 -351L-103 -236Q-60 -194 -29 -150T23 -58T60 46T88 166L319 1350H589L358 157Z" />
<glyph unicode="K" glyph-name="K" horiz-adv-x="1094" d="M668 0L443 625H439L318 0H48L310 1350H580L468 776H473L901 1350H1204L698 720L959 0H668Z" />
<glyph unicode="L" glyph-name="L" horiz-adv-x="842" d="M48 0L310 1350H580L359 210H751L710 0H48Z" />
<glyph unicode="M" glyph-name="M" horiz-adv-x="1696" d="M1194 0Q1209 90 1224 180T1252 359T1278 533T1300 700T1320 858T1337 1005H1335L842 0H614L513 1005H511Q480 894 450 774T390 527T331 268T274 0H20Q57 168 98 337T184 675T277 1014T379 1350H723L828
441H830L1289 1350H1637Q1623 1183 1607 1014T1570 676T1527 337T1478 0H1194Z" />
<glyph unicode="N" glyph-name="N" horiz-adv-x="1286" d="M769 0L508 810L458 963V963L411 723L272 0H48L310 1350H626L863 652L912 508V508L955 730L1076 1350H1300L1038 0H769Z" />
<glyph unicode="O" glyph-name="O" horiz-adv-x="1282" d="M546 -22Q433 -22 347 4T203 84T116 223T86 424Q86 472 91 533T108 662T140 802T190 944T261 1079T357 1198Q396 1237 442 1269T543 1324T660 1359T796 1372Q908 1372 994 1346T1138 1266T1226 1127T1256
926Q1256 877 1251 817T1234 688T1202 547T1151 406T1080 271T985 152Q906 73 798 26T546 -22V-22ZM971 916Q971 984 958 1032T919 1110T853 1153T762 1166Q702 1166 655 1144T570 1084Q531 1045 501 990T448 874T411 748T387 625T375 516T371 436Q371 366 383
319T422 241T488 198T580 185Q639 185 686 207T771 267Q811 306 841 361T893 477T930 603T954 727T967 835T971 916V916Z" />
<glyph unicode="P" glyph-name="P" horiz-adv-x="1082" d="M1128 1024Q1128 961 1117 895T1077 765T1001 646T881 547T710 480T481 455H407L318 0H48L310 1350Q357 1350 402 1350T493 1351T588 1352T688 1353Q805 1353 888 1330T1025 1264T1103 1160T1128 1024V1024ZM841
984Q841 1025 830 1057T793 1111T727 1144T626 1155H543L444 653H522Q585 653 633 667T717 707T776 767T814 838T835 912T841 984V984Z" />
<glyph unicode="Q" glyph-name="Q" horiz-adv-x="1282" d="M1151 -335Q1108 -307 1062 -297T968 -284T873 -285T781 -286T695 -273T619 -233T556 -154T509 -21Q411 -18 333 8T199 88T115 224T86 424Q86 472 91 533T108 662T140 802T190 944T261 1079T357 1198Q396
1237 442 1269T543 1324T660 1359T796 1372Q908 1372 994 1346T1138 1266T1226 1127T1256 926Q1256 877 1251 817T1234 688T1202 547T1151 406T1080 271T985 152Q953 120 919 95T847 49T769 15T684 -7Q710 -48 741 -68T807 -97T878 -105T954 -104T1031 -103T1109
-116T1185 -154T1257 -229L1151 -335ZM971 916Q971 984 958 1032T919 1110T853 1153T762 1166Q702 1166 655 1144T570 1084Q531 1045 501 990T448 874T411 748T387 625T375 516T371 436Q371 366 383 319T422 241T488 198T580 185Q639 185 686 207T771 267Q811 306
841 361T893 477T930 603T954 727T967 835T971 916V916Z" />
<glyph unicode="R" glyph-name="R" horiz-adv-x="1110" d="M692 0L517 549H426L318 0H48L310 1350Q360 1351 409 1352T506 1353T603 1354T701 1355Q811 1355 891 1334T1025 1273T1104 1178T1130 1053Q1130 1008 1122 961T1096 868T1050 779T982 700T890 637T774
597L990 0H692ZM845 1015Q845 1050 834 1076T799 1121T736 1148T642 1157H542L463 747H573Q627 747 668 759T739 791T789 839T822 896T840 956T845 1015V1015Z" />
<glyph unicode="S" glyph-name="S" horiz-adv-x="986" d="M376 -21Q314 -21 260 -12T157 14T66 55T-14 109L68 250Q148 214 217 197T348 179Q408 179 456 193T537 235T587 300T605 387Q605 428 587 460T538 519T468 570T389 620T309 675T239 742T190 828T171 938Q171
1030 204 1108T301 1245T456 1337T661 1370Q710 1370 756 1364T845 1344T928 1309T1005 1261L925 1120Q896 1134 866 1144T806 1161T746 1171T689 1174Q632 1174 589 1160T517 1121T473 1061T458 987Q458 946 477 915T529 856T601 804T684 753T768 698T840 630T891
543T911 432Q911 336 875 254T770 110T602 14T376 -21V-21Z" />
<glyph unicode="T" glyph-name="T" horiz-adv-x="934" d="M721 1141L500 0H230L451 1141H150L190 1350H1066L1025 1141H721Z" />
<glyph unicode="U" glyph-name="U" horiz-adv-x="1304" d="M1149 472Q1122 333 1068 239T936 87T759 4T546 -22Q443 -22 364 -2T231 60T148 166T120 321Q120 354 124 393T139 486L307 1350H577L411 498Q402 451 399 417T395 356Q395 307 406 273T442 217T502 186T587
176Q644 176 690 190T774 238T839 329T883 470L1055 1350H1321L1149 472Z" />
<glyph unicode="V" glyph-name="V" horiz-adv-x="1092" d="M1235 1350Q1171 1178 1102 1009T956 671T795 336T617 0H289Q263 171 243 338T210 673T189 1008T181 1350H468Q464 1225 467 1094T478 828T495 553T518 273Q581 401 640 533T755 801T862 1073T962 1350H1235Z" />
<glyph unicode="W" glyph-name="W" horiz-adv-x="1728" d="M1857 1350Q1787 1167 1717 995T1575 656T1429 327T1276 0H982L943 726L944 938H942L862 726L555 0H256Q238 168 227 330T208 658T198 993T195 1350H477Q474 1226 475 1107T478 865T483 613T487 340H489L558
520L910 1350H1172L1211 523V340H1214Q1267 472 1317 598T1415 850T1508 1099T1599 1350H1857Z" />
<glyph unicode="X" glyph-name="X" horiz-adv-x="1098" d="M684 0Q667 73 649 140T612 270T574 389T535 498Q497 448 457 392T374 273T288 142T200 0H-76Q-13 105 48 200T169 382T290 550T413 711Q385 786 360 859T311 1010T265 1170T220 1350H500Q514 1290 528
1230T559 1113T591 1004T625 905Q660 949 697 1001T773 1110T849 1227T926 1350H1196Q1140 1254 1085 1170T976 1009T866 859T754 717Q783 642 812 561T868 392T921 206T971 0H684Z" />
<glyph unicode="Y" glyph-name="Y" horiz-adv-x="978" d="M1151 1350Q1088 1236 1025 1130T898 926T767 737T633 564L523 0H253L363 564Q328 652 298 742T241 928T193 1129T153 1350H439Q450 1276 462 1207T489 1071T520 940T556 812Q600 872 642 938T725 1073T802
1212T874 1350H1151Z" />
<glyph unicode="Z" glyph-name="Z" horiz-adv-x="980" d="M-37 0L-2 183L684 1138H206L254 1350H1059L1023 1169L336 215H862L815 0H-37Z" />
<glyph unicode="[" glyph-name="bracketleft" horiz-adv-x="720" d="M31 -346L386 1478H787L756 1322H574L280 -190H463L432 -346H31Z" />
<glyph unicode="\" glyph-name="backslash" horiz-adv-x="1000" d="M645 -208L194 1418H407L858 -208H645Z" />
<glyph unicode="]" glyph-name="bracketright" horiz-adv-x="720" d="M-47 -346L-16 -190H166L459 1322H277L308 1478H709L354 -346H-47Z" />
<glyph unicode="^" glyph-name="asciicircum" horiz-adv-x="1000" d="M796 723L639 1208L294 723L106 795L575 1418H781L1005 794L796 723Z" />
<glyph unicode="_" glyph-name="underscore" horiz-adv-x="1000" d="M-170 -357L-133 -170H867L830 -357H-170Z" />
<glyph unicode="`" glyph-name="grave" horiz-adv-x="630" d="M516 1110L214 1350L396 1450L648 1180L516 1110Z" />
<glyph unicode="a" glyph-name="a" horiz-adv-x="1066" d="M53 311Q53 378 63 457T100 616T170 768T282 899T444 990T665 1024Q734 1024 798 1018T914 1004Q973 995 1026 983L835 0H622L645 181Q614 137 577 100T497 35T409 -7T317 -22Q248 -22 198 5T115 77T68
183T53 311V311ZM317 346Q317 262 340 221T413 179Q449 179 489 205T568 283T639 409T691 584L737 822Q721 827 703 831Q687 835 666 838T622 841Q562 841 516 815T437 745T380 648T343 539T323 433T317 346V346Z" />
<glyph unicode="b" glyph-name="b" horiz-adv-x="1066" d="M395 -22Q325 -22 261 -16T145 -2Q86 7 34 19L307 1418H564L479 982Q475 963 470 943T459 902T449 864T439 830Q463 868 496 903T569 966T653 1008T745 1024Q813 1024 862 998T944 925T991 819T1006 691Q1006
623 996 544T960 386T890 234T778 103T616 12T395 -22V-22ZM742 656Q742 740 719 781T647 823Q611 823 571 797T492 719T421 593T369 418L323 180Q338 175 357 171Q372 167 393 165T438 162Q498 162 543 188T623 258T680 355T716 463T736 569T742 656V656Z" />
<glyph unicode="c" glyph-name="c" horiz-adv-x="846" d="M741 125Q707 95 669 69T586 23T492 -8T385 -20Q304 -20 243 2T139 67T76 176T54 328Q54 375 60 430T81 542T116 658T169 770T240 870T331 951T445 1004T580 1024Q628 1024 669 1016T746 993T811 953T861
899L755 766Q722 799 685 816T602 833Q550 833 510 809T438 743T385 651T349 545T329 438T322 343Q322 257 356 216T464 174Q518 174 571 195T679 259L741 125Z" />
<glyph unicode="d" glyph-name="d" horiz-adv-x="1066" d="M622 0L645 181Q614 137 577 100T497 35T409 -7T317 -22Q248 -22 198 5T115 77T68 183T53 311Q53 378 63 457T100 616T170 768T282 899T444 990T665 1024Q685 1024 705 1023T741 1020Q759 1019 775 1017L853
1418H1111L835 0H622ZM317 346Q317 262 340 221T413 179Q449 179 489 205T568 283T639 409T691 584L737 822Q721 827 703 831Q687 835 666 838T622 841Q562 841 516 815T437 745T380 648T343 539T323 433T317 346V346Z" />
<glyph unicode="e" glyph-name="e" horiz-adv-x="988" d="M820 82Q735 36 633 7T419 -22Q337 -22 270 -3T154 59T80 167T53 327Q53 356 57 402T71 502T100 616T148 734T219 845T318 937T448 1000T615 1024Q688 1024 749 1007T854 958T922 880T946 774Q946 706
915 647T812 543T621 474T324 448Q321 435 319 421T316 393T313 366T312 343Q312 300 323 269T356 216T411 184T489 174Q522 174 559 177T637 188T717 205T796 229L820 82ZM702 758Q702 780 695 797T674 827T637 845T584 852Q541 852 506 834T441 783T392 706T357
608Q430 608 484 613T576 627T639 650T677 680T696 716T702 758V758Z" />
<glyph unicode="f" glyph-name="f" horiz-adv-x="608" d="M648 822H467L298 -50Q284 -123 258 -181T192 -280T95 -343T-38 -365Q-76 -365 -108 -360T-169 -346T-221 -326T-265 -302L-209 -155Q-179 -166 -151 -172T-96 -179Q-37 -179 -5 -150T41 -49L210 822H82L118
1002H246L270 1126Q284 1199 310 1257T376 1355T474 1418T607 1440Q645 1440 677 1435T737 1422T790 1402T834 1377L778 1231Q749 1241 720 1247T664 1254Q605 1254 573 1225T528 1124L503 1002H683L648 822Z" />
<glyph unicode="g" glyph-name="g" horiz-adv-x="1066" d="M835 1Q814 -107 769 -177T661 -289T519 -348T352 -365Q312 -365 269 -360T182 -345T92 -319T2 -283L41 -141Q142 -158 217 -165T348 -173Q402 -173 441 -164T507 -136T551 -84T577 -5L593 77Q595 94
600 112T609 148T619 182T628 213Q604 174 571 138T499 74T415 30T325 13Q256 13 206 38T122 107T73 212T57 344Q57 391 62 445T82 555T118 668T175 777T254 875T360 953T496 1005T665 1024Q734 1024 798 1018T914 1004Q973 995 1026 983L835 1ZM322 369Q322 331
328 303T346 255T377 225T418 215Q454 215 494 241T573 316T644 437T693 598L737 822Q721 827 703 831Q687 835 666 838T622 841Q566 841 522 818T445 755T388 667T350 566T329 462T322 369V369Z" />
<glyph unicode="h" glyph-name="h" horiz-adv-x="1090" d="M603 0Q633 155 657 269T699 465T725 604T735 701Q735 761 715 789T646 818Q607 818 566 789T485 703T414 565T362 381L288 0H31L307 1418H564L479 982Q473 963 468 943T458 902T448 864T439 830Q463
868 496 903T569 966T654 1008T748 1024Q808 1024 854 1008T932 959T980 873T996 749Q996 687 986 619T957 464T913 264T860 0H603Z" />
<glyph unicode="i" glyph-name="i" horiz-adv-x="518" d="M31 0L225 1002H482L288 0H31ZM386 1132Q348 1132 321 1136T277 1150T253 1176T245 1215Q245 1229 248 1250T257 1293T271 1333T290 1362Q299 1372 311 1379T339 1390T376 1397T424 1400Q462 1400 488
1396T531 1382T556 1356T565 1317Q565 1302 562 1281T552 1239T538 1198T520 1170Q510 1160 498 1153T470 1141T434 1134T386 1132V1132Z" />
<glyph unicode="j" glyph-name="j" horiz-adv-x="518" d="M305 90Q291 17 268 -45T208 -161T122 -265T4 -364L-155 -280Q-119 -245 -87 -206T-30 -124T14 -36T42 58L225 1002H482L305 90ZM387 1132Q349 1132 322 1136T278 1150T254 1176T246 1215Q246 1229 249
1250T258 1293T272 1333T291 1362Q300 1372 312 1379T340 1390T377 1397T425 1400Q463 1400 489 1396T533 1382T558 1356T566 1317Q566 1302 563 1281T554 1239T540 1198T521 1170Q511 1160 499 1153T471 1141T435 1134T387 1132V1132Z" />
<glyph unicode="k" glyph-name="k" horiz-adv-x="980" d="M569 0L392 493H383L288 0H31L306 1418H563L403 598H411L721 1002H1028L639 562L858 0H569Z" />
<glyph unicode="l" glyph-name="l" horiz-adv-x="550" d="M418 10Q399 4 379 -1T336 -9T288 -15T234 -17Q192 -17 161 -10T107 15T75 60T64 132Q64 153 67 181T78 246L307 1418H564L345 297Q339 264 336 243T333 207Q333 192 336 183T345 169T362 162T385 160Q399
160 413 160T435 162L418 10Z" />
<glyph unicode="m" glyph-name="m" horiz-adv-x="1642" d="M1156 0Q1186 155 1210 269T1252 465T1278 604T1288 701Q1288 761 1269 789T1205 818Q1170 818 1131 793T1054 717T984 591T933 418L851 0H594L688 465Q698 513 705 549T716 612T722 661T724 701Q724
761 705 789T641 818Q606 818 567 793T490 717T420 591T369 418L288 0H31L225 1002H438L415 821Q444 865 481 902T560 967T647 1009T741 1024Q793 1024 834 1011T903 972T950 907T974 816Q1004 861 1041 899T1121 965T1209 1008T1305 1024Q1364 1024 1409 1008T1486
959T1533 873T1549 749Q1549 687 1539 619T1510 464T1466 264T1413 0H1156Z" />
<glyph unicode="n" glyph-name="n" horiz-adv-x="1090" d="M646 818Q607 818 566 789T487 708T417 581T369 418L288 0H31L225 1002H438L415 821Q444 865 482 902T562 967T651 1009T748 1024Q808 1024 854 1008T932 959T980 873T996 749Q996 687 986 619T957 464T913
264T860 0H603Q633 155 657 269T699 465T725 604T735 701Q735 761 715 789T646 818V818Z" />
<glyph unicode="o" glyph-name="o" horiz-adv-x="1076" d="M432 -22Q344 -22 274 -2T156 60T82 169T56 327Q56 373 61 427T78 538T111 654T164 766T239 867T341 949T472 1004T638 1024Q727 1024 797 1004T915 942T989 833T1015 675Q1015 629 1010 575T993 464T960
348T907 236T831 135T729 53T598 -2T432 -22V-22ZM754 665Q754 757 718 796T602 835Q559 835 524 819T461 776T411 712T373 635T347 552T330 470T320 396T317 337Q317 245 353 206T469 167Q511 167 546 183T610 226T659 290T697 367T724 450T741 532T751 606T754
665V665Z" />
<glyph unicode="p" glyph-name="p" horiz-adv-x="1066" d="M1006 691Q1006 623 996 544T960 386T890 234T778 103T616 12T395 -22Q374 -22 354 -21T319 -18Q301 -16 285 -15L220 -346H-37L225 1002H438L415 821Q444 865 482 902T562 967T651 1009T743 1024Q812
1024 862 998T944 925T991 819T1006 691V691ZM742 656Q742 740 719 781T647 823Q611 823 571 797T492 719T421 593T369 418L323 180Q338 175 357 171Q372 167 393 165T438 162Q498 162 543 188T623 258T680 355T716 463T736 569T742 656V656Z" />
<glyph unicode="q" glyph-name="q" horiz-adv-x="1066" d="M665 1024Q734 1024 798 1018T914 1004Q973 995 1026 983L767 -346H509L581 20Q586 39 591 59T601 100T611 138T620 172Q596 133 563 98T491 36T407 -6T315 -22Q246 -22 197 5T115 77T68 183T53 311Q53
378 63 457T100 616T170 768T282 899T444 990T665 1024V1024ZM317 346Q317 262 340 221T413 179Q449 179 489 205T568 283T639 409T691 584L737 822Q721 827 703 831Q687 835 666 838T622 841Q562 841 516 815T437 745T380 648T343 539T323 433T317 346V346Z" />
<glyph unicode="r" glyph-name="r" horiz-adv-x="730" d="M725 773Q704 781 680 785T634 789Q600 789 562 768T487 702T419 586T368 416L288 0H31L225 1002H433L411 801Q436 848 468 888T537 958T615 1005T699 1022Q721 1022 744 1017T790 1000L725 773Z" />
<glyph unicode="s" glyph-name="s" horiz-adv-x="832" d="M285 -21Q192 -21 114 0T-29 63L13 195Q55 186 89 180T152 169T205 163T253 161Q302 161 340 170T405 196T445 239T459 299Q459 328 444 348T403 385T345 415T279 445T213 481T155 527T115 592T99 681Q99
722 108 764T139 844T193 914T271 971T375 1009T507 1023Q546 1023 581 1019T651 1007T719 984T787 950L740 818Q709 825 683 831T632 840T587 845T543 847Q505 847 474 839T420 815T385 776T373 723Q373 686 399 663T467 620T555 581T642 530T710 454T737 339Q737
260 706 194T616 80T474 6T285 -21V-21Z" />
<glyph unicode="t" glyph-name="t" horiz-adv-x="696" d="M573 46Q534 27 500 15T434 -6T373 -17T315 -21Q258 -21 216 -11T146 22T105 79T91 161Q91 181 93 206T104 272L210 822H83L118 1002H254Q269 1036 284 1070T313 1140T342 1214T371 1294H558L502 1002H724L690
822H467L370 321Q365 292 362 273T359 237Q359 202 376 187T434 172Q446 172 460 173T491 176T525 183T566 195L573 46Z" />
<glyph unicode="u" glyph-name="u" horiz-adv-x="1090" d="M859 0H647L670 181Q639 137 602 100T523 35T433 -7T337 -22Q276 -22 230 -6T152 44T104 130T88 254Q88 315 98 383T127 538T170 738T224 1002H482Q451 847 427 733T386 537T359 398T349 302Q349 241
369 213T439 184Q477 184 518 213T598 294T667 421T716 584L797 1002H1054L859 0Z" />
<glyph unicode="v" glyph-name="v" horiz-adv-x="966" d="M1028 1002Q983 873 931 745T817 490T688 241T545 0H208L117 1002H390L441 437L442 237Q494 338 539 436T624 629T697 817T757 1002H1028Z" />
<glyph unicode="w" glyph-name="w" horiz-adv-x="1520" d="M1576 1002Q1536 876 1488 752T1383 504T1263 253T1128 0H828L790 588L795 715H792L754 592L506 0H193L126 1002H397L419 449L421 280H423L481 435L713 1002H1009L1044 430V282H1046Q1089 378 1128 470T1203
651T1268 827T1323 1002H1576Z" />
<glyph unicode="x" glyph-name="x" horiz-adv-x="964" d="M554 0L449 379Q417 331 384 281T320 182T261 87T209 0H-74L310 527L159 1002H437L520 673Q546 709 574 753T629 843T679 930T718 1002H989L659 550L838 0H554Z" />
<glyph unicode="y" glyph-name="y" horiz-adv-x="962" d="M1025 1002Q956 805 886 642T747 346T610 109T477 -73T348 -205T225 -294T112 -343T9 -358Q-30 -358 -70 -348T-148 -316L-119 -167Q-109 -169 -95 -170T-67 -172T-40 -173T-16 -174Q11 -174 34 -171T79
-161T119 -140T159 -107Q172 -94 183 -79T203 -48T215 -12T219 30Q219 59 217 99T206 186L117 1002H386L435 440Q440 406 442 374T445 307Q445 292 444 277T441 247T437 218T430 192Q475 280 521 379T610 584T689 795T753 1002H1025Z" />
<glyph unicode="z" glyph-name="z" horiz-adv-x="800" d="M633 0H-41L-11 159L463 811H132L178 1002H807L777 844L300 195H678L633 0Z" />
<glyph unicode="{" glyph-name="braceleft" horiz-adv-x="776" d="M359 -346Q285 -346 237 -327T164 -273T133 -186T141 -71L220 339Q226 372 226 399T218 445T188 474T135 484H79L116 668H172Q205 668 228 678T268 707T295 752T310 809L388 1205Q400 1270 426
1321T494 1406T592 1459T720 1478H822L791 1326H730Q703 1326 683 1318T647 1294T622 1255T607 1203L538 848Q527 791 510 747T466 670T405 613T324 577Q364 564 389 541T427 483T441 404T431 302L359 -71Q352 -104 352 -127T360 -165T387 -187T436 -194H497L466
-346H359Z" />
<glyph unicode="|" glyph-name="bar" horiz-adv-x="506" d="M-27 -346L333 1506H557L197 -346H-27Z" />
<glyph unicode="}" glyph-name="braceright" horiz-adv-x="776" d="M435 1478Q510 1478 558 1459T631 1404T662 1317T655 1203L578 813Q571 780 571 753T580 707T610 678T663 668H719L683 484H626Q592 484 568 473T528 444T503 399T487 343L406 -73Q394 -139 368
-189T301 -274T204 -327T74 -346H-28L3 -194H64Q90 -194 111 -186T147 -162T171 -123T187 -71L260 303Q272 360 289 405T332 483T393 539T474 575Q434 588 409 611T370 669T357 748T366 850L435 1203Q442 1235 442 1258T434 1297T407 1319T359 1326H297L328 1478H435Z"
/>
<glyph unicode="~" glyph-name="asciitilde" horiz-adv-x="1000" d="M1076 1173Q1061 1102 1032 1043T960 941T859 875T731 851Q674 851 637 866T574 906T532 957T502 1008T473 1047T435 1063Q413 1063 395 1054T361 1024T334 970T314 892H117L126 937Q140 1010
170 1069T243 1171T343 1236T468 1259Q525 1259 562 1243T625 1204T666 1154T697 1103T726 1063T766 1047Q789 1047 807 1057T840 1088T866 1141T886 1218H1084L1076 1173Z" />
<glyph unicode="&#x8e;" glyph-name="Zcaron" horiz-adv-x="980" d="M-37 0L-2 183L684 1138H206L254 1350H1059L1023 1169L336 215H862L815 0H-37ZM401 1609L481 1717L703 1612L959 1717L1012 1613L674 1438L401 1609Z" />
<glyph unicode="&#x9e;" glyph-name="zcaron" horiz-adv-x="800" d="M633 0H-41L-11 159L463 811H132L178 1002H807L777 844L300 195H678L633 0ZM515 1110L275 1356L367 1459L552 1315L795 1459L860 1358L515 1110Z" />
<glyph unicode="&#xa0;" glyph-name="space" horiz-adv-x="480" />
<glyph unicode="&#xa1;" glyph-name="exclamdown" horiz-adv-x="718" d="M259 788H486L336 -208H22L259 788ZM436 1159Q475 1159 502 1154T546 1138T570 1108T578 1063Q578 1042 575 1021T567 981T554 947T537 923Q516 902 484 893T399 884Q359 884 332 889T289
905T265 935T257 980Q257 1001 260 1022T268 1062T281 1096T298 1120Q319 1141 351 1150T436 1159V1159Z" />
<glyph unicode="&#xa2;" glyph-name="cent" horiz-adv-x="1000" d="M854 339Q826 318 796 299T732 265T664 238T590 219L525 -9H370L395 211Q326 220 274 246T189 315T138 413T121 538Q121 599 132 664T168 793T228 915T315 1021T431 1100T577 1145L635 1357H790L767
1140Q797 1135 822 1126T871 1104T914 1074T956 1033L853 901Q816 934 772 951T682 969Q634 969 594 953T521 908T464 840T423 757T398 666T389 571Q389 528 398 495T427 438T477 402T551 389Q582 389 611 394T670 409T730 436T792 474L854 339Z" />
<glyph unicode="&#xa3;" glyph-name="sterling" horiz-adv-x="1000" d="M-22 0L12 168Q70 219 111 267T179 366T222 473T243 595H76L109 766H248Q247 784 246 805T245 850Q245 909 253 970T280 1089T333 1197T419 1286T543 1345T711 1366Q754 1366 799 1361T889
1345T972 1319T1044 1284L995 1146Q961 1154 930 1159T869 1168T813 1173T762 1175Q716 1175 680 1167T617 1142T570 1099T538 1037T521 955T515 853Q515 829 515 808T517 766H837L804 595H507Q501 532 489 479T456 378T403 288T323 204H863L823 0H-22Z" />
<glyph unicode="&#xa4;" glyph-name="currency" horiz-adv-x="1000" d="M873 114L692 18L604 181Q583 171 561 164T515 152T467 145T416 142Q371 142 337 150T275 174L129 18L-24 124L134 267Q121 294 114 327T107 401Q107 451 116 504T144 608T187 704T245 781L133
935L311 1031L402 870Q443 889 487 898T585 907Q629 907 664 899T730 874L877 1031L1031 925L867 779Q882 752 890 718T898 642Q898 614 893 570T872 475T830 370T760 271L873 114ZM673 628Q673 664 666 690T642 732T602 755T543 762Q497 762 464 744T407 696T368
628T344 552T332 479T328 419Q328 385 335 360T358 318T398 294T457 286Q500 286 533 303T590 349T630 413T655 488T669 562T673 628V628Z" />
<glyph unicode="&#xa5;" glyph-name="yen" horiz-adv-x="1000" d="M1147 1350Q1032 1166 911 994T658 672L652 641H912L879 475H619L592 332H852L819 165H559L527 0H273L304 165H44L77 332H338L365 475H104L137 641H398L403 672Q367 751 337 831T279 995T227 1167T180
1350H455Q467 1281 481 1218T510 1095T542 981T581 873Q622 922 661 980T738 1099T811 1224T880 1350H1147Z" />
<glyph unicode="&#xa6;" glyph-name="brokenbar" horiz-adv-x="506" d="M-25 -346L122 401H343L196 -346H-25ZM185 727L337 1512H558L406 727H185Z" />
<glyph unicode="&#xa7;" glyph-name="section" horiz-adv-x="1012" d="M919 389Q919 301 891 212T814 41T700 -113T563 -238T414 -321T267 -352Q227 -352 194 -348T132 -334T76 -310T24 -276L91 -134Q116 -142 139 -148T185 -159T230 -165T275 -167Q303 -167 327
-161T370 -144T404 -118T427 -85T441 -45T446 -1Q446 41 421 80T357 160T273 246T189 347T125 471T99 626Q99 714 128 803T206 974T321 1128T457 1253T603 1337T744 1368Q779 1368 811 1363T872 1349T925 1328T970 1299L904 1155Q864 1168 820 1175T734 1182Q705
1182 682 1176T640 1157T609 1129T587 1095T574 1057T569 1018Q569 975 595 936T660 856T744 770T828 668T893 544T919 389V389ZM700 334Q700 394 677 444T620 539T547 624T473 704T416 785T393 872Q393 890 399 908T418 949Q392 919 373 887T341 822T322 754T315
684Q315 622 337 572T394 477T468 392T542 311T600 228T623 137Q623 119 617 100T595 58Q619 87 638 121T671 190T692 261T700 334V334Z" />
<glyph unicode="&#xa8;" glyph-name="dieresis" horiz-adv-x="852" d="M897 1308Q897 1293 894 1275T886 1240T872 1207T855 1181Q839 1166 813 1159T751 1152Q695 1152 668 1169T640 1231Q640 1246 643 1263T651 1299T664 1332T681 1357Q697 1373 723 1380T785
1387Q842 1387 869 1370T897 1308V1308ZM499 1308Q499 1293 496 1275T488 1240T475 1207T457 1181Q441 1166 416 1159T354 1152Q297 1152 270 1169T242 1231Q242 1246 245 1263T253 1299T266 1332T284 1357Q299 1373 325 1380T387 1387Q444 1387 471 1370T499 1308V1308Z"
/>
<glyph unicode="&#xa9;" glyph-name="copyright" horiz-adv-x="1550" d="M1026 389Q997 368 966 348T899 314T822 292T733 283Q669 283 618 300T532 354T478 444T459 571Q459 631 471 692T506 809T565 913T648 996T753 1052T884 1073Q965 1073 1021 1048T1117
977L1024 871Q997 895 967 906T900 918Q866 918 837 903T786 861T746 800T717 728T700 652T694 580Q694 544 701 517T722 473T757 447T806 438Q845 438 886 452T971 496L1026 389ZM773 -29Q622 -29 499 21T286 160T149 370T100 631Q100 739 127 836T203 1016T320
1165T471 1279T646 1351T838 1377Q988 1377 1112 1327T1325 1188T1462 978T1511 717Q1511 609 1484 512T1408 332T1290 183T1140 69T965 -3T773 -29V-29ZM1326 708Q1326 816 1290 909T1187 1072T1030 1180T830 1219Q756 1219 687 1200T558 1145T448 1058T361 942T305
802T285 640Q285 531 321 438T424 276T581 168T781 129Q854 129 923 148T1053 203T1163 290T1250 406T1306 546T1326 708V708Z" />
<glyph unicode="&#xaa;" glyph-name="ordfeminine" horiz-adv-x="930" d="M117 406L145 549H776L747 406H117ZM617 678L635 812Q612 777 583 749T522 702T457 671T392 660Q342 660 303 678T238 730T197 809T183 910Q183 968 193 1029T227 1148T287 1258T377 1348T501
1409T662 1432Q696 1432 730 1430T799 1424T867 1414T934 1403L793 678H617ZM700 1280Q694 1282 686 1284T668 1289T645 1293T617 1294Q573 1294 539 1275T481 1224T440 1154T413 1075T399 998T394 934Q394 904 398 882T410 845T431 822T462 814Q489 814 519 832T577
888T629 980T667 1108L700 1280Z" />
<glyph unicode="&#xab;" glyph-name="guillemotleft" horiz-adv-x="1016" d="M272 177L81 588L419 993L584 928L329 582L447 228L272 177ZM674 199L495 588L812 971L971 909L741 582L842 248L674 199Z" />
<glyph unicode="&#xac;" glyph-name="logicalnot" horiz-adv-x="1000" d="M638 239L690 507H71L108 691H935L847 239H638Z" />
<glyph unicode="&#xad;" glyph-name="hyphen" horiz-adv-x="474" d="M44 478L81 668H501L464 478H44Z" />
<glyph unicode="&#xae;" glyph-name="registered" horiz-adv-x="1134" d="M1132 992Q1132 884 1093 795T987 640T829 539T637 503Q535 503 451 536T306 629T211 769T177 945Q177 1049 215 1139T320 1294T478 1397T674 1435Q775 1435 859 1402T1004 1309T1098 1169T1132
992V992ZM988 986Q988 1053 966 1112T901 1216T799 1286T666 1312Q591 1312 528 1285T418 1209T346 1096T320 953Q320 885 343 826T408 722T509 652T642 626Q717 626 780 653T890 728T962 843T988 986V986ZM860 1091Q860 1067 853 1045T832 1003T797 967T745 937L807
746H669L626 923H604L568 746H443L532 1207Q557 1207 579 1207T622 1207T661 1208T696 1209Q735 1209 765 1201T817 1178T849 1141T860 1091V1091ZM730 1082Q730 1102 718 1112T671 1122H642L620 1006H653Q669 1006 683 1011T707 1026T724 1049T730 1082V1082Z"
/>
<glyph unicode="&#xaf;" glyph-name="macron" horiz-adv-x="674" d="M180 1175L215 1354H774L739 1175H180Z" />
<glyph unicode="&#xb0;" glyph-name="degree" horiz-adv-x="902" d="M891 1192Q891 1147 883 1103T858 1019T812 943T742 883T646 843T521 828Q452 828 401 840T315 877T264 942T247 1037Q247 1081 255 1125T280 1210T326 1286T396 1346T492 1386T617 1401Q686
1401 737 1389T823 1352T874 1286T891 1192V1192ZM696 1172Q696 1194 690 1209T671 1234T640 1248T594 1252Q564 1252 542 1245T504 1225T475 1194T456 1154T446 1107T442 1057Q442 1034 448 1019T467 995T498 981T544 977Q573 977 595 984T634 1004T663 1035T682
1074T692 1120T696 1172V1172Z" />
<glyph unicode="&#xb1;" glyph-name="plusminus" horiz-adv-x="1000" d="M-20 0L13 174H851L818 0H-20ZM625 621L561 291H352L416 621H101L134 794H449L512 1116H722L659 794H972L939 621H625Z" />
<glyph unicode="&#xb2;" glyph-name="twosuperior" horiz-adv-x="720" d="M110 707L142 863Q258 944 334 1003T454 1106T517 1183T535 1247Q535 1281 513 1295T445 1309Q404 1309 356 1298T255 1272L243 1401Q280 1415 316 1426T390 1445T464 1457T538 1461Q595
1461 640 1449T715 1413T762 1358T779 1286Q779 1233 758 1184T692 1086T579 983T418 868H723L692 707H110Z" />
<glyph unicode="&#xb3;" glyph-name="threesuperior" horiz-adv-x="714" d="M736 962Q736 938 731 909T713 849T674 789T607 738T507 702T367 688Q302 688 232 700T97 738L133 849Q189 838 237 833T336 827Q387 827 420 838T471 865T497 903T504 946Q504 962 498
975T477 997T434 1012T362 1017H263L291 1156H396Q440 1156 469 1165T516 1190T541 1224T548 1264Q548 1276 545 1286T531 1304T503 1316T457 1320Q438 1320 415 1318T366 1312T314 1303T264 1291L249 1412Q316 1435 387 1448T532 1461Q603 1461 650 1447T726 1410T767
1356T779 1295Q779 1256 768 1223T736 1163T686 1118T620 1090Q654 1083 676 1068T712 1035T731 998T736 962V962Z" />
<glyph unicode="&#xb4;" glyph-name="acute" horiz-adv-x="630" d="M322 1110L196 1180L465 1450L642 1350L322 1110Z" />
<glyph unicode="&#xb5;" glyph-name="mu" horiz-adv-x="1099" d="M654 0L677 181Q649 139 618 104T551 44T477 4T397 -11Q353 -11 326 6T288 49Q288 49 283 20T271 -54T254 -149T238 -244T225 -317T220 -346H-37L225 1002H481L374 446Q370 428 367 412T362 380T359
350T356 323Q353 286 356 260T370 217T400 192T447 184Q485 184 526 213T605 294T674 421T723 584L804 1002H1061L867 0H654Z" />
<glyph unicode="&#xb6;" glyph-name="paragraph" horiz-adv-x="1288" d="M782 -208L1053 1189H864L593 -208H394L542 560Q529 558 517 557T491 556Q420 556 362 579T263 644T199 743T177 866Q177 929 190 989T231 1103T300 1202T397 1280T524 1331T680 1350H1283L981
-208H782Z" />
<glyph unicode="&#xb7;" glyph-name="periodcentered" horiz-adv-x="548" d="M269 450Q232 450 207 454T166 469T143 497T135 540Q135 561 139 587T150 636T165 680T184 710Q204 729 234 737T312 746Q349 746 374 742T416 726T439 698T446 656Q446 633 442 608T432
560T416 516T396 486Q377 467 347 459T269 450V450Z" />
<glyph unicode="&#xb8;" glyph-name="cedilla" horiz-adv-x="618" d="M289 -85Q290 -175 240 -243T88 -366L-54 -308Q-16 -277 8 -251T47 -199T66 -146T70 -85H289Z" />
<glyph unicode="&#xb9;" glyph-name="onesuperior" horiz-adv-x="688" d="M126 707L156 859H322L401 1263L250 1222L242 1354L479 1446H657L542 859H692L662 707H126Z" />
<glyph unicode="&#xba;" glyph-name="ordmasculine" horiz-adv-x="870" d="M461 665Q398 665 345 680T253 729T192 814T170 939Q170 982 178 1035T206 1143T257 1249T337 1341T449 1406T599 1431Q663 1431 716 1414T809 1362T871 1275T894 1151Q894 1106 885 1053T856
945T804 841T723 751T610 689T461 665V665ZM101 406L129 549H750L722 406H101ZM682 1155Q682 1223 656 1252T577 1281Q538 1281 508 1263T457 1215T421 1148T399 1074T387 1001T383 941Q383 871 410 843T492 815Q529 815 557 833T606 880T642 946T665 1021T678
1094T682 1155V1155Z" />
<glyph unicode="&#xbb;" glyph-name="guillemotright" horiz-adv-x="1016" d="M770 993L962 582L623 177L460 242L714 588L596 942L770 993ZM369 971L548 582L231 199L71 261L302 588L200 922L369 971Z" />
<glyph unicode="&#xbc;" glyph-name="onequarter" horiz-adv-x="1470" d="M126 707L156 859H322L401 1263L250 1222L242 1354L479 1446H657L542 859H692L662 707H126ZM151 -162L24 -81L1465 1464L1590 1383L151 -162ZM1245 11L1217 -128H1003L1032 11H686L714
161Q748 213 789 270T875 384T965 499T1055 607H1360L1275 164H1364L1334 11H1245ZM1121 475Q1093 445 1062 407T998 327T935 244T878 164H1061L1121 475Z" />
<glyph unicode="&#xbd;" glyph-name="onehalf" horiz-adv-x="1556" d="M126 707L156 859H322L401 1263L250 1222L242 1354L479 1446H657L542 859H692L662 707H126ZM151 -162L24 -81L1465 1464L1590 1383L151 -162ZM783 -128L815 28Q931 109 1007 168T1127 271T1190
348T1208 412Q1208 446 1186 460T1118 474Q1077 474 1029 463T928 437L916 566Q953 580 989 591T1063 610T1137 622T1211 626Q1268 626 1313 614T1388 578T1435 523T1452 451Q1452 398 1431 349T1365 251T1252 148T1091 33H1396L1365 -128H783Z" />
<glyph unicode="&#xbe;" glyph-name="threequarters" horiz-adv-x="1466" d="M736 962Q736 938 731 909T713 849T674 789T607 738T507 702T367 688Q302 688 232 700T97 738L133 849Q189 838 237 833T336 827Q387 827 420 838T471 865T497 903T504 946Q504 962
498 975T477 997T434 1012T362 1017H263L291 1156H396Q440 1156 469 1165T516 1190T541 1224T548 1264Q548 1276 545 1286T531 1304T503 1316T457 1320Q438 1320 415 1318T366 1312T314 1303T264 1291L249 1412Q316 1435 387 1448T532 1461Q603 1461 650 1447T726
1410T767 1356T779 1295Q779 1256 768 1223T736 1163T686 1118T620 1090Q654 1083 676 1068T712 1035T731 998T736 962V962ZM149 -162L22 -81L1463 1464L1588 1383L149 -162ZM1243 11L1215 -128H1001L1030 11H684L712 161Q746 213 787 270T873 384T963 499T1053
607H1358L1273 164H1362L1332 11H1243ZM1119 475Q1091 445 1060 407T996 327T933 244T876 164H1059L1119 475Z" />
<glyph unicode="&#xbf;" glyph-name="questiondown" horiz-adv-x="1000" d="M23 45Q23 131 50 193T119 304T211 393T309 475T393 565T446 680L472 788H696L679 664Q668 585 638 527T569 424T485 341T405 268T346 192T322 101Q322 74 331 52T359 13T407 -12T476
-21Q505 -21 535 -18T596 -8T655 6T712 25L755 -133Q707 -156 660 -173T565 -203T469 -221T374 -228Q287 -228 221 -209T111 -154T45 -68T23 45V45ZM648 1159Q688 1159 715 1154T758 1138T782 1108T790 1063Q790 1042 787 1021T779 981T766 947T749 923Q728 902
696 893T611 884Q572 884 545 889T501 905T477 935T469 980Q469 1001 472 1022T480 1062T493 1096T510 1120Q531 1141 563 1150T648 1159V1159Z" />
<glyph unicode="&#xc0;" glyph-name="Agrave" horiz-adv-x="1148" d="M747 0Q747 29 747 63T745 132T743 201T740 267H293Q281 238 268 206T241 139T213 70T187 0H-81Q-10 168 66 339T223 681T386 1019T556 1350H910Q935 1177 954 1008T987 672T1011 338T1029
0H747ZM736 468Q730 546 723 627T709 789T693 952T674 1112Q639 1040 601 959T524 795T447 628T377 468H736ZM824 1438L430 1560L550 1717L906 1549L824 1438Z" />
<glyph unicode="&#xc1;" glyph-name="Aacute" horiz-adv-x="1148" d="M747 0Q747 29 747 63T745 132T743 201T740 267H293Q281 238 268 206T241 139T213 70T187 0H-81Q-10 168 66 339T223 681T386 1019T556 1350H910Q935 1177 954 1008T987 672T1011 338T1029
0H747ZM736 468Q730 546 723 627T709 789T693 952T674 1112Q639 1040 601 959T524 795T447 628T377 468H736ZM680 1438L606 1549L972 1717L1084 1560L680 1438Z" />
<glyph unicode="&#xc2;" glyph-name="Acircumflex" horiz-adv-x="1148" d="M747 0Q747 29 747 63T745 132T743 201T740 267H293Q281 238 268 206T241 139T213 70T187 0H-81Q-10 168 66 339T223 681T386 1019T556 1350H910Q935 1177 954 1008T987 672T1011 338T1029
0H747ZM736 468Q730 546 723 627T709 789T693 952T674 1112Q639 1040 601 959T524 795T447 628T377 468H736ZM1062 1545L982 1438L760 1542L503 1438L451 1542L789 1717L1062 1545Z" />
<glyph unicode="&#xc3;" glyph-name="Atilde" horiz-adv-x="1148" d="M747 0Q747 29 747 63T745 132T743 201T740 267H293Q281 238 268 206T241 139T213 70T187 0H-81Q-10 168 66 339T223 681T386 1019T556 1350H910Q935 1177 954 1008T987 672T1011 338T1029
0H747ZM736 468Q730 546 723 627T709 789T693 952T674 1112Q639 1040 601 959T524 795T447 628T377 468H736ZM1112 1627Q1088 1583 1062 1549T1006 1493T941 1458T863 1446Q830 1446 805 1453T758 1471T721 1494T689 1517T659 1535T629 1543Q614 1543 602 1538T577
1522T549 1493T514 1449L410 1521Q434 1565 460 1599T516 1655T581 1690T659 1702Q708 1702 742 1687T801 1653T847 1619T892 1604Q906 1604 918 1608T944 1624T973 1654T1007 1699L1112 1627Z" />
<glyph unicode="&#xc4;" glyph-name="Adieresis" horiz-adv-x="1148" d="M747 0Q747 29 747 63T745 132T743 201T740 267H293Q281 238 268 206T241 139T213 70T187 0H-81Q-10 168 66 339T223 681T386 1019T556 1350H910Q935 1177 954 1008T987 672T1011 338T1029
0H747ZM736 468Q730 546 723 627T709 789T693 952T674 1112Q639 1040 601 959T524 795T447 628T377 468H736ZM1103 1597Q1103 1580 1101 1563T1093 1530T1082 1502T1069 1483Q1052 1466 1028 1459T961 1452Q930 1452 909 1456T875 1469T857 1493T851 1530Q851 1547
853 1564T860 1597T871 1625T884 1645Q902 1662 926 1668T992 1675Q1023 1675 1044 1671T1078 1658T1097 1634T1103 1597V1597ZM691 1597Q691 1580 689 1563T681 1530T670 1502T657 1483Q640 1466 616 1459T549 1452Q519 1452 498 1456T464 1469T445 1493T439 1530Q439
1547 441 1564T449 1597T460 1625T473 1645Q490 1662 514 1668T581 1675Q612 1675 633 1671T667 1658T685 1634T691 1597V1597Z" />
<glyph unicode="&#xc5;" glyph-name="Aring" horiz-adv-x="1148" d="M747 0Q747 29 747 63T745 132T743 201T740 267H293Q281 238 268 206T241 139T213 70T187 0H-81Q-10 168 66 339T223 681T386 1019T556 1350H910Q935 1177 954 1008T987 672T1011 338T1029 0H747ZM736
468Q730 546 723 627T709 789T693 952T674 1112Q639 1040 601 959T524 795T447 628T377 468H736ZM734 1381Q630 1381 579 1414T528 1512Q528 1553 544 1590T592 1655T675 1700T791 1717Q896 1717 946 1684T997 1586Q997 1545 981 1508T933 1443T851 1398T734 1381V1381ZM844
1574Q844 1599 828 1610T776 1622Q749 1622 731 1614T702 1592T686 1560T681 1524Q681 1499 697 1488T749 1476Q776 1476 794 1484T823 1507T839 1538T844 1574V1574Z" />
<glyph unicode="&#xc6;" glyph-name="AE" horiz-adv-x="1470" d="M842 0H573L624 267H272Q255 237 237 204T200 136T163 67T128 0H-142Q-43 176 57 348T260 689T467 1023T679 1350H1531L1490 1144H1065L997 795H1350L1311 597H958L883 209H1316L1277 0H842ZM795
1147H793Q735 1056 680 968T573 794T473 626T380 468H664L795 1147Z" />
<glyph unicode="&#xc7;" glyph-name="Ccedilla" horiz-adv-x="1032" d="M930 184Q887 135 838 97T734 32T619 -8T496 -22Q394 -22 318 6T190 90T112 228T86 420Q86 483 93 557T118 709T162 868T227 1021T316 1159T431 1270T575 1345T750 1372Q808 1372 860 1360T957
1321T1036 1252T1094 1149L951 1032Q917 1092 873 1124T764 1156Q715 1156 672 1138T593 1088T526 1011T471 914T428 805T397 689T379 573T373 463Q373 388 387 337T427 254T488 210T567 196Q603 196 637 203T704 227T769 267T835 325L930 184ZM578 -85Q579 -175
529 -243T377 -366L235 -308Q273 -277 297 -251T336 -199T355 -146T359 -85H578Z" />
<glyph unicode="&#xc8;" glyph-name="Egrave" horiz-adv-x="948" d="M48 0L310 1350H1010L969 1144H540L472 795H829L790 597H434L359 209H794L756 0H48ZM752 1438L358 1560L478 1717L834 1549L752 1438Z" />
<glyph unicode="&#xc9;" glyph-name="Eacute" horiz-adv-x="948" d="M48 0L310 1350H1010L969 1144H540L472 795H829L790 597H434L359 209H794L756 0H48ZM621 1438L547 1549L913 1717L1025 1560L621 1438Z" />
<glyph unicode="&#xca;" glyph-name="Ecircumflex" horiz-adv-x="948" d="M48 0L310 1350H1010L969 1144H540L472 795H829L790 597H434L359 209H794L756 0H48ZM993 1545L913 1438L691 1542L434 1438L382 1542L720 1717L993 1545Z" />
<glyph unicode="&#xcb;" glyph-name="Edieresis" horiz-adv-x="948" d="M48 0L310 1350H1010L969 1144H540L472 795H829L790 597H434L359 209H794L756 0H48ZM1028 1597Q1028 1580 1026 1563T1018 1530T1007 1502T994 1483Q977 1466 953 1459T886 1452Q855 1452
834 1456T800 1469T782 1493T776 1530Q776 1547 778 1564T785 1597T796 1625T809 1645Q827 1662 851 1668T917 1675Q948 1675 969 1671T1003 1658T1022 1634T1028 1597V1597ZM616 1597Q616 1580 614 1563T606 1530T595 1502T582 1483Q565 1466 541 1459T474 1452Q444
1452 423 1456T389 1469T370 1493T364 1530Q364 1547 366 1564T374 1597T385 1625T398 1645Q415 1662 439 1668T506 1675Q537 1675 558 1671T592 1658T610 1634T616 1597V1597Z" />
<glyph unicode="&#xcc;" glyph-name="Igrave" horiz-adv-x="566" d="M48 0L310 1350H580L318 0H48ZM534 1438L140 1560L260 1717L616 1549L534 1438Z" />
<glyph unicode="&#xcd;" glyph-name="Iacute" horiz-adv-x="566" d="M48 0L310 1350H580L318 0H48ZM645 1438L571 1549L937 1717L1049 1560L645 1438Z" />
<glyph unicode="&#xce;" glyph-name="Icircumflex" horiz-adv-x="566" d="M48 0L310 1350H580L318 0H48ZM782 1545L702 1438L480 1542L223 1438L171 1542L509 1717L782 1545Z" />
<glyph unicode="&#xcf;" glyph-name="Idieresis" horiz-adv-x="566" d="M48 0L310 1350H580L318 0H48ZM819 1597Q819 1580 817 1563T809 1530T798 1502T785 1483Q768 1466 744 1459T677 1452Q646 1452 625 1456T591 1469T573 1493T567 1530Q567 1547 569 1564T576
1597T587 1625T600 1645Q618 1662 642 1668T708 1675Q739 1675 760 1671T794 1658T813 1634T819 1597V1597ZM407 1597Q407 1580 405 1563T397 1530T386 1502T373 1483Q356 1466 332 1459T265 1452Q235 1452 214 1456T180 1469T161 1493T155 1530Q155 1547 157 1564T165
1597T176 1625T189 1645Q206 1662 230 1668T297 1675Q328 1675 349 1671T383 1658T401 1634T407 1597V1597Z" />
<glyph unicode="&#xd0;" glyph-name="Eth" horiz-adv-x="1212" d="M1182 896Q1182 858 1178 805T1163 692T1134 565T1087 433T1019 305T927 190Q882 144 830 108T715 47T581 8T422 -6Q375 -6 329 -5T237 -4T149 -2T68 0L184 597H75L113 795H222L330 1350Q381 1350
427 1350T517 1351T604 1352T692 1353Q825 1353 918 1319T1070 1223T1155 1078T1182 896V896ZM897 880Q897 948 884 999T840 1084T765 1135T655 1152Q630 1152 608 1152T562 1150L492 795H687L648 597H453L377 204Q401 201 424 201T467 200Q541 200 599 226T704
298Q742 336 772 386T823 491T858 602T881 711T893 806T897 880V880Z" />
<glyph unicode="&#xd1;" glyph-name="Ntilde" horiz-adv-x="1286" d="M769 0L508 810L458 963V963L411 723L272 0H48L310 1350H626L863 652L912 508V508L955 730L1076 1350H1300L1038 0H769ZM1213 1627Q1189 1583 1163 1549T1107 1493T1042 1458T964 1446Q931
1446 906 1453T859 1471T822 1494T790 1517T760 1535T730 1543Q715 1543 703 1538T678 1522T650 1493T615 1449L511 1521Q535 1565 561 1599T617 1655T682 1690T760 1702Q809 1702 843 1687T902 1653T948 1619T993 1604Q1007 1604 1019 1608T1045 1624T1074 1654T1108
1699L1213 1627Z" />
<glyph unicode="&#xd2;" glyph-name="Ograve" horiz-adv-x="1282" d="M546 -22Q433 -22 347 4T203 84T116 223T86 424Q86 472 91 533T108 662T140 802T190 944T261 1079T357 1198Q396 1237 442 1269T543 1324T660 1359T796 1372Q908 1372 994 1346T1138 1266T1226
1127T1256 926Q1256 877 1251 817T1234 688T1202 547T1151 406T1080 271T985 152Q906 73 798 26T546 -22V-22ZM971 916Q971 984 958 1032T919 1110T853 1153T762 1166Q702 1166 655 1144T570 1084Q531 1045 501 990T448 874T411 748T387 625T375 516T371 436Q371
366 383 319T422 241T488 198T580 185Q639 185 686 207T771 267Q811 306 841 361T893 477T930 603T954 727T967 835T971 916V916ZM850 1438L456 1560L576 1717L932 1549L850 1438Z" />
<glyph unicode="&#xd3;" glyph-name="Oacute" horiz-adv-x="1282" d="M546 -22Q433 -22 347 4T203 84T116 223T86 424Q86 472 91 533T108 662T140 802T190 944T261 1079T357 1198Q396 1237 442 1269T543 1324T660 1359T796 1372Q908 1372 994 1346T1138 1266T1226
1127T1256 926Q1256 877 1251 817T1234 688T1202 547T1151 406T1080 271T985 152Q906 73 798 26T546 -22V-22ZM971 916Q971 984 958 1032T919 1110T853 1153T762 1166Q702 1166 655 1144T570 1084Q531 1045 501 990T448 874T411 748T387 625T375 516T371 436Q371
366 383 319T422 241T488 198T580 185Q639 185 686 207T771 267Q811 306 841 361T893 477T930 603T954 727T967 835T971 916V916ZM778 1438L704 1549L1070 1717L1182 1560L778 1438Z" />
<glyph unicode="&#xd4;" glyph-name="Ocircumflex" horiz-adv-x="1282" d="M546 -22Q433 -22 347 4T203 84T116 223T86 424Q86 472 91 533T108 662T140 802T190 944T261 1079T357 1198Q396 1237 442 1269T543 1324T660 1359T796 1372Q908 1372 994 1346T1138 1266T1226
1127T1256 926Q1256 877 1251 817T1234 688T1202 547T1151 406T1080 271T985 152Q906 73 798 26T546 -22V-22ZM971 916Q971 984 958 1032T919 1110T853 1153T762 1166Q702 1166 655 1144T570 1084Q531 1045 501 990T448 874T411 748T387 625T375 516T371 436Q371
366 383 319T422 241T488 198T580 185Q639 185 686 207T771 267Q811 306 841 361T893 477T930 603T954 727T967 835T971 916V916ZM1137 1545L1057 1438L835 1542L578 1438L526 1542L864 1717L1137 1545Z" />
<glyph unicode="&#xd5;" glyph-name="Otilde" horiz-adv-x="1282" d="M546 -22Q433 -22 347 4T203 84T116 223T86 424Q86 472 91 533T108 662T140 802T190 944T261 1079T357 1198Q396 1237 442 1269T543 1324T660 1359T796 1372Q908 1372 994 1346T1138 1266T1226
1127T1256 926Q1256 877 1251 817T1234 688T1202 547T1151 406T1080 271T985 152Q906 73 798 26T546 -22V-22ZM971 916Q971 984 958 1032T919 1110T853 1153T762 1166Q702 1166 655 1144T570 1084Q531 1045 501 990T448 874T411 748T387 625T375 516T371 436Q371
366 383 319T422 241T488 198T580 185Q639 185 686 207T771 267Q811 306 841 361T893 477T930 603T954 727T967 835T971 916V916ZM1197 1627Q1173 1583 1147 1549T1091 1493T1026 1458T948 1446Q915 1446 890 1453T843 1471T806 1494T774 1517T744 1535T714 1543Q699
1543 687 1538T662 1522T634 1493T599 1449L495 1521Q519 1565 545 1599T601 1655T666 1690T744 1702Q793 1702 827 1687T886 1653T932 1619T977 1604Q991 1604 1003 1608T1029 1624T1058 1654T1092 1699L1197 1627Z" />
<glyph unicode="&#xd6;" glyph-name="Odieresis" horiz-adv-x="1282" d="M546 -22Q433 -22 347 4T203 84T116 223T86 424Q86 472 91 533T108 662T140 802T190 944T261 1079T357 1198Q396 1237 442 1269T543 1324T660 1359T796 1372Q908 1372 994 1346T1138 1266T1226
1127T1256 926Q1256 877 1251 817T1234 688T1202 547T1151 406T1080 271T985 152Q906 73 798 26T546 -22V-22ZM971 916Q971 984 958 1032T919 1110T853 1153T762 1166Q702 1166 655 1144T570 1084Q531 1045 501 990T448 874T411 748T387 625T375 516T371 436Q371
366 383 319T422 241T488 198T580 185Q639 185 686 207T771 267Q811 306 841 361T893 477T930 603T954 727T967 835T971 916V916ZM1173 1597Q1173 1580 1171 1563T1163 1530T1152 1502T1139 1483Q1122 1466 1098 1459T1031 1452Q1000 1452 979 1456T945 1469T927
1493T921 1530Q921 1547 923 1564T930 1597T941 1625T954 1645Q972 1662 996 1668T1062 1675Q1093 1675 1114 1671T1148 1658T1167 1634T1173 1597V1597ZM761 1597Q761 1580 759 1563T751 1530T740 1502T727 1483Q710 1466 686 1459T619 1452Q589 1452 568 1456T534
1469T515 1493T509 1530Q509 1547 511 1564T519 1597T530 1625T543 1645Q560 1662 584 1668T651 1675Q682 1675 703 1671T737 1658T755 1634T761 1597V1597Z" />
<glyph unicode="&#xd7;" glyph-name="multiply" horiz-adv-x="1000" d="M863 335L704 203L496 461L188 203L73 345L381 603L174 860L333 992L540 735L847 992L962 851L656 593L863 335Z" />
<glyph unicode="&#xd8;" glyph-name="Oslash" horiz-adv-x="1282" d="M546 -22Q458 -22 388 -5T266 47L104 -159L-25 -80L153 144Q120 195 103 263T86 424Q86 472 91 533T108 662T140 802T190 944T261 1079T357 1198Q396 1237 442 1269T543 1324T660 1359T796
1372Q885 1372 954 1355T1075 1304L1238 1509L1367 1430L1189 1206Q1221 1155 1238 1086T1256 926Q1256 877 1251 817T1234 688T1202 547T1151 406T1080 271T985 152Q906 73 798 26T546 -22V-22ZM555 1093Q494 1033 452 935T382 695Q363 600 359 524T358 397L929
1119Q900 1150 861 1165T765 1180Q700 1180 648 1157T555 1093V1093ZM787 258Q816 288 841 328T888 417T927 525T959 655Q979 750 983 826T983 953L412 232Q441 200 480 186T576 171Q641 171 693 194T787 258V258Z" />
<glyph unicode="&#xd9;" glyph-name="Ugrave" horiz-adv-x="1304" d="M1149 472Q1122 333 1068 239T936 87T759 4T546 -22Q443 -22 364 -2T231 60T148 166T120 321Q120 354 124 393T139 486L307 1350H577L411 498Q402 451 399 417T395 356Q395 307 406 273T442
217T502 186T587 176Q644 176 690 190T774 238T839 329T883 470L1055 1350H1321L1149 472ZM857 1438L463 1560L583 1717L939 1549L857 1438Z" />
<glyph unicode="&#xda;" glyph-name="Uacute" horiz-adv-x="1304" d="M1149 472Q1122 333 1068 239T936 87T759 4T546 -22Q443 -22 364 -2T231 60T148 166T120 321Q120 354 124 393T139 486L307 1350H577L411 498Q402 451 399 417T395 356Q395 307 406 273T442
217T502 186T587 176Q644 176 690 190T774 238T839 329T883 470L1055 1350H1321L1149 472ZM819 1438L745 1549L1111 1717L1223 1560L819 1438Z" />
<glyph unicode="&#xdb;" glyph-name="Ucircumflex" horiz-adv-x="1304" d="M1149 472Q1122 333 1068 239T936 87T759 4T546 -22Q443 -22 364 -2T231 60T148 166T120 321Q120 354 124 393T139 486L307 1350H577L411 498Q402 451 399 417T395 356Q395 307 406 273T442
217T502 186T587 176Q644 176 690 190T774 238T839 329T883 470L1055 1350H1321L1149 472ZM1152 1545L1072 1438L850 1542L593 1438L541 1542L879 1717L1152 1545Z" />
<glyph unicode="&#xdc;" glyph-name="Udieresis" horiz-adv-x="1304" d="M1149 472Q1122 333 1068 239T936 87T759 4T546 -22Q443 -22 364 -2T231 60T148 166T120 321Q120 354 124 393T139 486L307 1350H577L411 498Q402 451 399 417T395 356Q395 307 406 273T442
217T502 186T587 176Q644 176 690 190T774 238T839 329T883 470L1055 1350H1321L1149 472ZM1184 1597Q1184 1580 1182 1563T1174 1530T1163 1502T1150 1483Q1133 1466 1109 1459T1042 1452Q1011 1452 990 1456T956 1469T938 1493T932 1530Q932 1547 934 1564T941
1597T952 1625T965 1645Q983 1662 1007 1668T1073 1675Q1104 1675 1125 1671T1159 1658T1178 1634T1184 1597V1597ZM772 1597Q772 1580 770 1563T762 1530T751 1502T738 1483Q721 1466 697 1459T630 1452Q600 1452 579 1456T545 1469T526 1493T520 1530Q520 1547
522 1564T530 1597T541 1625T554 1645Q571 1662 595 1668T662 1675Q693 1675 714 1671T748 1658T766 1634T772 1597V1597Z" />
<glyph unicode="&#xdd;" glyph-name="Yacute" horiz-adv-x="978" d="M1151 1350Q1088 1236 1025 1130T898 926T767 737T633 564L523 0H253L363 564Q328 652 298 742T241 928T193 1129T153 1350H439Q450 1276 462 1207T489 1071T520 940T556 812Q600 872 642 938T725
1073T802 1212T874 1350H1151ZM656 1438L582 1549L948 1717L1060 1560L656 1438Z" />
<glyph unicode="&#xde;" glyph-name="Thorn" horiz-adv-x="1082" d="M1087 815Q1087 752 1075 686T1035 556T959 437T839 338T669 271T439 246H366L318 0H48L310 1350H581L541 1144Q560 1144 586 1144T646 1144Q763 1144 846 1121T983 1055T1062 951T1087 815V815ZM801
775Q801 816 790 848T752 902T685 935T585 946H502L404 444H481Q543 444 591 458T676 498T736 558T774 629T794 703T801 775V775Z" />
<glyph unicode="&#xdf;" glyph-name="germandbls" horiz-adv-x="1132" d="M224 995Q245 1103 285 1185T389 1324T542 1410T749 1439Q830 1439 893 1421T999 1369T1064 1288T1087 1184Q1087 1109 1067 1058T1015 970T948 905T881 853T830 799T809 731Q809 696 826
670T870 619T926 569T982 512T1025 439T1043 344Q1043 278 1020 213T950 97T832 15T664 -16Q627 -16 593 -13T528 -1T470 19T415 48L460 179Q495 170 537 165T619 159Q654 159 683 170T733 200T765 244T777 299Q777 336 760 364T718 417T662 464T607 517T564 584T546
673Q546 726 559 766T592 837T639 892T692 938T746 980T792 1026T825 1081T838 1152Q838 1203 808 1229T717 1255Q662 1255 623 1239T557 1190T512 1111T482 1002L279 -46Q264 -121 238 -180T172 -279T75 -342T-59 -365Q-97 -365 -129 -360T-189 -346T-242 -326T-286
-302L-230 -155Q-200 -166 -172 -172T-116 -179Q-57 -179 -25 -150T21 -49L224 995Z" />
<glyph unicode="&#xe0;" glyph-name="agrave" horiz-adv-x="1066" d="M53 311Q53 378 63 457T100 616T170 768T282 899T444 990T665 1024Q734 1024 798 1018T914 1004Q973 995 1026 983L835 0H622L645 181Q614 137 577 100T497 35T409 -7T317 -22Q248 -22 198
5T115 77T68 183T53 311V311ZM317 346Q317 262 340 221T413 179Q449 179 489 205T568 283T639 409T691 584L737 822Q721 827 703 831Q687 835 666 838T622 841Q562 841 516 815T437 745T380 648T343 539T323 433T317 346V346ZM677 1110L375 1350L557 1450L809 1180L677
1110Z" />
<glyph unicode="&#xe1;" glyph-name="aacute" horiz-adv-x="1066" d="M53 311Q53 378 63 457T100 616T170 768T282 899T444 990T665 1024Q734 1024 798 1018T914 1004Q973 995 1026 983L835 0H622L645 181Q614 137 577 100T497 35T409 -7T317 -22Q248 -22 198
5T115 77T68 183T53 311V311ZM317 346Q317 262 340 221T413 179Q449 179 489 205T568 283T639 409T691 584L737 822Q721 827 703 831Q687 835 666 838T622 841Q562 841 516 815T437 745T380 648T343 539T323 433T317 346V346ZM662 1110L536 1180L805 1450L982 1350L662
1110Z" />
<glyph unicode="&#xe2;" glyph-name="acircumflex" horiz-adv-x="1066" d="M53 311Q53 378 63 457T100 616T170 768T282 899T444 990T665 1024Q734 1024 798 1018T914 1004Q973 995 1026 983L835 0H622L645 181Q614 137 577 100T497 35T409 -7T317 -22Q248 -22
198 5T115 77T68 183T53 311V311ZM317 346Q317 262 340 221T413 179Q449 179 489 205T568 283T639 409T691 584L737 822Q721 827 703 831Q687 835 666 838T622 841Q562 841 516 815T437 745T380 648T343 539T323 433T317 346V346ZM866 1113L680 1256L437 1113L371
1213L717 1461L956 1215L866 1113Z" />
<glyph unicode="&#xe3;" glyph-name="atilde" horiz-adv-x="1066" d="M53 311Q53 378 63 457T100 616T170 768T282 899T444 990T665 1024Q734 1024 798 1018T914 1004Q973 995 1026 983L835 0H622L645 181Q614 137 577 100T497 35T409 -7T317 -22Q248 -22 198
5T115 77T68 183T53 311V311ZM317 346Q317 262 340 221T413 179Q449 179 489 205T568 283T639 409T691 584L737 822Q721 827 703 831Q687 835 666 838T622 841Q562 841 516 815T437 745T380 648T343 539T323 433T317 346V346ZM1018 1321Q993 1276 967 1242T912
1185T849 1151T774 1139Q742 1139 717 1146T672 1164T635 1187T604 1211T575 1229T545 1237Q531 1237 519 1232T495 1216T467 1187T433 1142L333 1215Q358 1259 383 1293T438 1350T500 1385T575 1397Q607 1397 632 1390T677 1371T714 1348T746 1325T775 1307T805
1299Q819 1299 831 1303T856 1319T883 1349T918 1394L1018 1321Z" />
<glyph unicode="&#xe4;" glyph-name="adieresis" horiz-adv-x="1066" d="M53 311Q53 378 63 457T100 616T170 768T282 899T444 990T665 1024Q734 1024 798 1018T914 1004Q973 995 1026 983L835 0H622L645 181Q614 137 577 100T497 35T409 -7T317 -22Q248 -22 198
5T115 77T68 183T53 311V311ZM317 346Q317 262 340 221T413 179Q449 179 489 205T568 283T639 409T691 584L737 822Q721 827 703 831Q687 835 666 838T622 841Q562 841 516 815T437 745T380 648T343 539T323 433T317 346V346ZM1008 1308Q1008 1293 1005 1275T997
1240T983 1207T966 1181Q950 1166 924 1159T862 1152Q806 1152 779 1169T751 1231Q751 1246 754 1263T762 1299T775 1332T792 1357Q808 1373 834 1380T896 1387Q953 1387 980 1370T1008 1308V1308ZM610 1308Q610 1293 607 1275T599 1240T586 1207T568 1181Q552
1166 527 1159T465 1152Q408 1152 381 1169T353 1231Q353 1246 356 1263T364 1299T377 1332T395 1357Q410 1373 436 1380T498 1387Q555 1387 582 1370T610 1308V1308Z" />
<glyph unicode="&#xe5;" glyph-name="aring" horiz-adv-x="1066" d="M53 311Q53 378 63 457T100 616T170 768T282 899T444 990T665 1024Q734 1024 798 1018T914 1004Q973 995 1026 983L835 0H622L645 181Q614 137 577 100T497 35T409 -7T317 -22Q248 -22 198 5T115
77T68 183T53 311V311ZM317 346Q317 262 340 221T413 179Q449 179 489 205T568 283T639 409T691 584L737 822Q721 827 703 831Q687 835 666 838T622 841Q562 841 516 815T437 745T380 648T343 539T323 433T317 346V346ZM654 1087Q597 1087 557 1097T490 1127T451
1177T439 1245Q439 1287 452 1330T497 1408T581 1465T710 1488Q766 1488 806 1478T873 1447T913 1398T926 1329Q926 1301 920 1273T901 1217T867 1167T816 1125T746 1097T654 1087V1087ZM766 1317Q766 1343 750 1357T699 1371Q669 1371 650 1360T619 1333T603 1296T598
1258Q598 1231 614 1217T666 1203Q696 1203 715 1214T746 1242T761 1279T766 1317V1317Z" />
<glyph unicode="&#xe6;" glyph-name="ae" horiz-adv-x="1542" d="M1371 82Q1285 36 1183 7T970 -22Q910 -22 859 -11T766 25T693 87T643 174Q611 130 569 94T480 32T384 -8T289 -22Q220 -22 168 -6T80 42T26 117T8 218Q8 277 23 329T69 424T147 502T257 559T402
595T580 608H653L666 676Q670 689 671 702T672 728Q672 784 633 811T510 838Q472 838 432 833T351 820T273 802T198 779L190 937Q239 956 287 972T385 999T489 1017T599 1023Q647 1023 687 1016T758 994T813 958T854 907Q919 967 995 995T1166 1024Q1239 1024 1300
1007T1404 958T1472 880T1497 774Q1497 706 1466 647T1363 543T1171 474T874 448Q871 432 869 418T866 390T863 365T862 343Q862 300 873 269T906 216T962 184T1039 174Q1072 174 1110 177T1187 188T1267 205T1346 229L1371 82ZM1253 758Q1253 780 1246 797T1224
827T1187 845T1135 852Q1091 852 1056 834T992 783T942 706T908 608Q981 608 1035 613T1127 627T1189 650T1228 680T1247 716T1253 758V758ZM547 455Q495 455 454 449T381 431T329 403T294 366T274 322T268 272Q268 220 295 193T380 165Q405 165 430 174T479 200T524
239T563 286T592 337T610 391L623 455H547Z" />
<glyph unicode="&#xe7;" glyph-name="ccedilla" horiz-adv-x="846" d="M741 125Q707 95 669 69T586 23T492 -8T385 -20Q304 -20 243 2T139 67T76 176T54 328Q54 375 60 430T81 542T116 658T169 770T240 870T331 951T445 1004T580 1024Q628 1024 669 1016T746 993T811
953T861 899L755 766Q722 799 685 816T602 833Q550 833 510 809T438 743T385 651T349 545T329 438T322 343Q322 257 356 216T464 174Q518 174 571 195T679 259L741 125ZM449 -85Q450 -175 400 -243T248 -366L106 -308Q144 -277 168 -251T207 -199T226 -146T230
-85H449Z" />
<glyph unicode="&#xe8;" glyph-name="egrave" horiz-adv-x="988" d="M820 82Q735 36 633 7T419 -22Q337 -22 270 -3T154 59T80 167T53 327Q53 356 57 402T71 502T100 616T148 734T219 845T318 937T448 1000T615 1024Q688 1024 749 1007T854 958T922 880T946 774Q946
706 915 647T812 543T621 474T324 448Q321 435 319 421T316 393T313 366T312 343Q312 300 323 269T356 216T411 184T489 174Q522 174 559 177T637 188T717 205T796 229L820 82ZM702 758Q702 780 695 797T674 827T637 845T584 852Q541 852 506 834T441 783T392 706T357
608Q430 608 484 613T576 627T639 650T677 680T696 716T702 758V758ZM641 1110L339 1350L521 1450L773 1180L641 1110Z" />
<glyph unicode="&#xe9;" glyph-name="eacute" horiz-adv-x="988" d="M820 82Q735 36 633 7T419 -22Q337 -22 270 -3T154 59T80 167T53 327Q53 356 57 402T71 502T100 616T148 734T219 845T318 937T448 1000T615 1024Q688 1024 749 1007T854 958T922 880T946 774Q946
706 915 647T812 543T621 474T324 448Q321 435 319 421T316 393T313 366T312 343Q312 300 323 269T356 216T411 184T489 174Q522 174 559 177T637 188T717 205T796 229L820 82ZM702 758Q702 780 695 797T674 827T637 845T584 852Q541 852 506 834T441 783T392 706T357
608Q430 608 484 613T576 627T639 650T677 680T696 716T702 758V758ZM642 1110L516 1180L785 1450L962 1350L642 1110Z" />
<glyph unicode="&#xea;" glyph-name="ecircumflex" horiz-adv-x="988" d="M820 82Q735 36 633 7T419 -22Q337 -22 270 -3T154 59T80 167T53 327Q53 356 57 402T71 502T100 616T148 734T219 845T318 937T448 1000T615 1024Q688 1024 749 1007T854 958T922 880T946
774Q946 706 915 647T812 543T621 474T324 448Q321 435 319 421T316 393T313 366T312 343Q312 300 323 269T356 216T411 184T489 174Q522 174 559 177T637 188T717 205T796 229L820 82ZM702 758Q702 780 695 797T674 827T637 845T584 852Q541 852 506 834T441 783T392
706T357 608Q430 608 484 613T576 627T639 650T677 680T696 716T702 758V758ZM853 1113L667 1256L424 1113L358 1213L704 1461L943 1215L853 1113Z" />
<glyph unicode="&#xeb;" glyph-name="edieresis" horiz-adv-x="988" d="M820 82Q735 36 633 7T419 -22Q337 -22 270 -3T154 59T80 167T53 327Q53 356 57 402T71 502T100 616T148 734T219 845T318 937T448 1000T615 1024Q688 1024 749 1007T854 958T922 880T946
774Q946 706 915 647T812 543T621 474T324 448Q321 435 319 421T316 393T313 366T312 343Q312 300 323 269T356 216T411 184T489 174Q522 174 559 177T637 188T717 205T796 229L820 82ZM702 758Q702 780 695 797T674 827T637 845T584 852Q541 852 506 834T441 783T392
706T357 608Q430 608 484 613T576 627T639 650T677 680T696 716T702 758V758ZM991 1308Q991 1293 988 1275T980 1240T966 1207T949 1181Q933 1166 907 1159T845 1152Q789 1152 762 1169T734 1231Q734 1246 737 1263T745 1299T758 1332T775 1357Q791 1373 817 1380T879
1387Q936 1387 963 1370T991 1308V1308ZM593 1308Q593 1293 590 1275T582 1240T569 1207T551 1181Q535 1166 510 1159T448 1152Q391 1152 364 1169T336 1231Q336 1246 339 1263T347 1299T360 1332T378 1357Q393 1373 419 1380T481 1387Q538 1387 565 1370T593 1308V1308Z"
/>
<glyph unicode="&#xec;" glyph-name="igrave" horiz-adv-x="518" d="M31 0L225 1002H482L288 0H31ZM661 1110L359 1350L541 1450L793 1180L661 1110Z" />
<glyph unicode="&#xed;" glyph-name="iacute" horiz-adv-x="518" d="M31 0L225 1002H482L288 0H31ZM368 1110L242 1180L511 1450L688 1350L368 1110Z" />
<glyph unicode="&#xee;" glyph-name="icircumflex" horiz-adv-x="518" d="M31 0L225 1002H482L288 0H31ZM845 1113L659 1256L416 1113L350 1213L696 1461L935 1215L845 1113Z" />
<glyph unicode="&#xef;" glyph-name="idieresis" horiz-adv-x="518" d="M31 0L225 1002H482L288 0H31ZM704 1308Q704 1293 701 1275T693 1240T681 1207T663 1181Q647 1166 622 1159T562 1152Q507 1152 480 1169T453 1231Q453 1246 456 1263T464 1299T476 1332T494
1357Q510 1373 535 1380T595 1387Q650 1387 677 1370T704 1308V1308ZM360 1308Q360 1293 358 1275T350 1240T337 1207T320 1181Q304 1166 279 1159T219 1152Q164 1152 137 1169T110 1231Q110 1246 113 1263T121 1299T133 1332T151 1357Q167 1373 192 1380T252 1387Q307
1387 333 1370T360 1308V1308Z" />
<glyph unicode="&#xf0;" glyph-name="eth" horiz-adv-x="1066" d="M1019 804Q1019 746 1013 680T992 546T954 408T898 277T819 160T715 66T585 3T424 -20Q327 -20 256 2T137 69T66 178T43 329Q43 389 51 450T78 571T122 685T184 789T264 879T363 949T481 994T618
1010Q632 1010 649 1009T680 1006T707 1002T725 998Q720 1014 714 1032T698 1069T678 1108T653 1148L452 1074L371 1200L571 1272Q541 1310 510 1345T434 1418H743Q753 1409 764 1398T787 1376T808 1352T828 1329L1012 1395L1091 1269L906 1202Q931 1159 952 1114T988
1018T1011 915T1019 804V804ZM735 765Q735 780 735 792T734 816Q725 819 711 822T681 828T647 831T612 833Q555 833 511 807T435 739T382 644T347 538T328 435T322 352Q322 307 331 274T357 220T401 188T462 177Q502 177 535 196T596 248T643 324T680 415T706 513T723
610T732 696T735 765V765Z" />
<glyph unicode="&#xf1;" glyph-name="ntilde" horiz-adv-x="1090" d="M646 818Q607 818 566 789T487 708T417 581T369 418L288 0H31L225 1002H438L415 821Q444 865 482 902T562 967T651 1009T748 1024Q808 1024 854 1008T932 959T980 873T996 749Q996 687 986
619T957 464T913 264T860 0H603Q633 155 657 269T699 465T725 604T735 701Q735 761 715 789T646 818V818ZM1033 1321Q1008 1276 982 1242T927 1185T864 1151T789 1139Q757 1139 732 1146T687 1164T650 1187T619 1211T590 1229T560 1237Q546 1237 534 1232T510 1216T482
1187T448 1142L348 1215Q373 1259 398 1293T453 1350T515 1385T590 1397Q622 1397 647 1390T692 1371T729 1348T761 1325T790 1307T820 1299Q834 1299 846 1303T871 1319T898 1349T933 1394L1033 1321Z" />
<glyph unicode="&#xf2;" glyph-name="ograve" horiz-adv-x="1076" d="M432 -22Q344 -22 274 -2T156 60T82 169T56 327Q56 373 61 427T78 538T111 654T164 766T239 867T341 949T472 1004T638 1024Q727 1024 797 1004T915 942T989 833T1015 675Q1015 629 1010 575T993
464T960 348T907 236T831 135T729 53T598 -2T432 -22V-22ZM754 665Q754 757 718 796T602 835Q559 835 524 819T461 776T411 712T373 635T347 552T330 470T320 396T317 337Q317 245 353 206T469 167Q511 167 546 183T610 226T659 290T697 367T724 450T741 532T751
606T754 665V665ZM665 1110L363 1350L545 1450L797 1180L665 1110Z" />
<glyph unicode="&#xf3;" glyph-name="oacute" horiz-adv-x="1076" d="M432 -22Q344 -22 274 -2T156 60T82 169T56 327Q56 373 61 427T78 538T111 654T164 766T239 867T341 949T472 1004T638 1024Q727 1024 797 1004T915 942T989 833T1015 675Q1015 629 1010 575T993
464T960 348T907 236T831 135T729 53T598 -2T432 -22V-22ZM754 665Q754 757 718 796T602 835Q559 835 524 819T461 776T411 712T373 635T347 552T330 470T320 396T317 337Q317 245 353 206T469 167Q511 167 546 183T610 226T659 290T697 367T724 450T741 532T751
606T754 665V665ZM652 1110L526 1180L795 1450L972 1350L652 1110Z" />
<glyph unicode="&#xf4;" glyph-name="ocircumflex" horiz-adv-x="1076" d="M432 -22Q344 -22 274 -2T156 60T82 169T56 327Q56 373 61 427T78 538T111 654T164 766T239 867T341 949T472 1004T638 1024Q727 1024 797 1004T915 942T989 833T1015 675Q1015 629 1010
575T993 464T960 348T907 236T831 135T729 53T598 -2T432 -22V-22ZM754 665Q754 757 718 796T602 835Q559 835 524 819T461 776T411 712T373 635T347 552T330 470T320 396T317 337Q317 245 353 206T469 167Q511 167 546 183T610 226T659 290T697 367T724 450T741
532T751 606T754 665V665ZM875 1113L689 1256L446 1113L380 1213L726 1461L965 1215L875 1113Z" />
<glyph unicode="&#xf5;" glyph-name="otilde" horiz-adv-x="1076" d="M432 -22Q344 -22 274 -2T156 60T82 169T56 327Q56 373 61 427T78 538T111 654T164 766T239 867T341 949T472 1004T638 1024Q727 1024 797 1004T915 942T989 833T1015 675Q1015 629 1010 575T993
464T960 348T907 236T831 135T729 53T598 -2T432 -22V-22ZM754 665Q754 757 718 796T602 835Q559 835 524 819T461 776T411 712T373 635T347 552T330 470T320 396T317 337Q317 245 353 206T469 167Q511 167 546 183T610 226T659 290T697 367T724 450T741 532T751
606T754 665V665ZM1022 1321Q997 1276 971 1242T916 1185T853 1151T778 1139Q746 1139 721 1146T676 1164T639 1187T608 1211T579 1229T549 1237Q535 1237 523 1232T499 1216T471 1187T437 1142L337 1215Q362 1259 387 1293T442 1350T504 1385T579 1397Q611 1397
636 1390T681 1371T718 1348T750 1325T779 1307T809 1299Q823 1299 835 1303T860 1319T887 1349T922 1394L1022 1321Z" />
<glyph unicode="&#xf6;" glyph-name="odieresis" horiz-adv-x="1076" d="M432 -22Q344 -22 274 -2T156 60T82 169T56 327Q56 373 61 427T78 538T111 654T164 766T239 867T341 949T472 1004T638 1024Q727 1024 797 1004T915 942T989 833T1015 675Q1015 629 1010
575T993 464T960 348T907 236T831 135T729 53T598 -2T432 -22V-22ZM754 665Q754 757 718 796T602 835Q559 835 524 819T461 776T411 712T373 635T347 552T330 470T320 396T317 337Q317 245 353 206T469 167Q511 167 546 183T610 226T659 290T697 367T724 450T741
532T751 606T754 665V665ZM1010 1308Q1010 1293 1007 1275T999 1240T985 1207T968 1181Q952 1166 926 1159T864 1152Q808 1152 781 1169T753 1231Q753 1246 756 1263T764 1299T777 1332T794 1357Q810 1373 836 1380T898 1387Q955 1387 982 1370T1010 1308V1308ZM612
1308Q612 1293 609 1275T601 1240T588 1207T570 1181Q554 1166 529 1159T467 1152Q410 1152 383 1169T355 1231Q355 1246 358 1263T366 1299T379 1332T397 1357Q412 1373 438 1380T500 1387Q557 1387 584 1370T612 1308V1308Z" />
<glyph unicode="&#xf7;" glyph-name="divide" horiz-adv-x="1000" d="M422 82Q388 82 364 86T324 99T303 124T296 162Q296 181 299 204T309 248T323 288T341 315Q359 332 387 339T460 347Q495 347 519 343T558 330T579 305T586 267Q586 247 582 225T572 181T557
141T539 114Q521 97 494 90T422 82V82ZM572 851Q538 851 514 854T474 867T453 892T446 930Q446 949 449 972T459 1017T474 1056T492 1083Q509 1101 537 1108T610 1115Q645 1115 669 1112T708 1099T730 1074T737 1036Q737 1016 733 993T722 949T707 909T689 882Q671
865 644 858T572 851V851ZM72 507L108 690H958L922 507H72Z" />
<glyph unicode="&#xf8;" glyph-name="oslash" horiz-adv-x="1076" d="M1015 675Q1015 629 1010 575T993 464T960 348T907 236T831 135T729 53T598 -2T432 -22Q378 -22 330 -14T241 14L102 -158L-20 -77L120 99Q87 139 72 196T56 327Q56 373 61 427T78 538T111
654T164 766T239 867T341 949T472 1004T638 1024Q697 1024 746 1014T836 985L976 1160L1098 1079L954 899Q985 859 1000 805T1015 675V675ZM763 586Q763 608 760 624T749 657L374 177Q392 164 416 159T472 154Q514 154 549 167T612 203T663 256T701 321T730 393T749
465T759 531T763 586V586ZM307 406Q307 384 310 367T320 335L703 821Q684 836 659 842T599 848Q555 848 519 834T455 796T404 740T366 672T338 599T320 526T310 459T307 406V406Z" />
<glyph unicode="&#xf9;" glyph-name="ugrave" horiz-adv-x="1090" d="M859 0H647L670 181Q639 137 602 100T523 35T433 -7T337 -22Q276 -22 230 -6T152 44T104 130T88 254Q88 315 98 383T127 538T170 738T224 1002H482Q451 847 427 733T386 537T359 398T349 302Q349
241 369 213T439 184Q477 184 518 213T598 294T667 421T716 584L797 1002H1054L859 0ZM676 1110L374 1350L556 1450L808 1180L676 1110Z" />
<glyph unicode="&#xfa;" glyph-name="uacute" horiz-adv-x="1090" d="M859 0H647L670 181Q639 137 602 100T523 35T433 -7T337 -22Q276 -22 230 -6T152 44T104 130T88 254Q88 315 98 383T127 538T170 738T224 1002H482Q451 847 427 733T386 537T359 398T349 302Q349
241 369 213T439 184Q477 184 518 213T598 294T667 421T716 584L797 1002H1054L859 0ZM667 1110L541 1180L810 1450L987 1350L667 1110Z" />
<glyph unicode="&#xfb;" glyph-name="ucircumflex" horiz-adv-x="1090" d="M859 0H647L670 181Q639 137 602 100T523 35T433 -7T337 -22Q276 -22 230 -6T152 44T104 130T88 254Q88 315 98 383T127 538T170 738T224 1002H482Q451 847 427 733T386 537T359 398T349
302Q349 241 369 213T439 184Q477 184 518 213T598 294T667 421T716 584L797 1002H1054L859 0ZM872 1113L686 1256L443 1113L377 1213L723 1461L962 1215L872 1113Z" />
<glyph unicode="&#xfc;" glyph-name="udieresis" horiz-adv-x="1090" d="M859 0H647L670 181Q639 137 602 100T523 35T433 -7T337 -22Q276 -22 230 -6T152 44T104 130T88 254Q88 315 98 383T127 538T170 738T224 1002H482Q451 847 427 733T386 537T359 398T349
302Q349 241 369 213T439 184Q477 184 518 213T598 294T667 421T716 584L797 1002H1054L859 0ZM1014 1308Q1014 1293 1011 1275T1003 1240T989 1207T972 1181Q956 1166 930 1159T868 1152Q812 1152 785 1169T757 1231Q757 1246 760 1263T768 1299T781 1332T798
1357Q814 1373 840 1380T902 1387Q959 1387 986 1370T1014 1308V1308ZM616 1308Q616 1293 613 1275T605 1240T592 1207T574 1181Q558 1166 533 1159T471 1152Q414 1152 387 1169T359 1231Q359 1246 362 1263T370 1299T383 1332T401 1357Q416 1373 442 1380T504
1387Q561 1387 588 1370T616 1308V1308Z" />
<glyph unicode="&#xfd;" glyph-name="yacute" horiz-adv-x="962" d="M1025 1002Q956 805 886 642T747 346T610 109T477 -73T348 -205T225 -294T112 -343T9 -358Q-30 -358 -70 -348T-148 -316L-119 -167Q-109 -169 -95 -170T-67 -172T-40 -173T-16 -174Q11 -174
34 -171T79 -161T119 -140T159 -107Q172 -94 183 -79T203 -48T215 -12T219 30Q219 59 217 99T206 186L117 1002H386L435 440Q440 406 442 374T445 307Q445 292 444 277T441 247T437 218T430 192Q475 280 521 379T610 584T689 795T753 1002H1025ZM616 1110L490 1180L759
1450L936 1350L616 1110Z" />
<glyph unicode="&#xfe;" glyph-name="thorn" horiz-adv-x="1066" d="M395 -22Q374 -22 354 -21T319 -18Q301 -16 285 -15L220 -346H-37L307 1418H564L479 982Q475 963 470 943T459 902T449 864T439 830Q463 868 496 903T569 966T653 1008T745 1024Q813 1024 862
998T944 925T991 819T1006 691Q1006 623 996 544T960 386T890 234T778 103T616 12T395 -22V-22ZM742 656Q742 740 719 781T647 823Q623 823 597 812T544 777T492 720T443 641T401 540T369 418L323 180Q338 175 357 171Q372 167 393 165T438 162Q498 162 543 188T623
258T680 355T716 463T736 569T742 656V656Z" />
<glyph unicode="&#xff;" glyph-name="ydieresis" horiz-adv-x="962" d="M1025 1002Q956 805 886 642T747 346T610 109T477 -73T348 -205T225 -294T112 -343T9 -358Q-30 -358 -70 -348T-148 -316L-119 -167Q-109 -169 -95 -170T-67 -172T-40 -173T-16 -174Q11 -174
34 -171T79 -161T119 -140T159 -107Q172 -94 183 -79T203 -48T215 -12T219 30Q219 59 217 99T206 186L117 1002H386L435 440Q440 406 442 374T445 307Q445 292 444 277T441 247T437 218T430 192Q475 280 521 379T610 584T689 795T753 1002H1025ZM946 1308Q946 1293
943 1275T935 1240T921 1207T904 1181Q888 1166 862 1159T800 1152Q744 1152 717 1169T689 1231Q689 1246 692 1263T700 1299T713 1332T730 1357Q746 1373 772 1380T834 1387Q891 1387 918 1370T946 1308V1308ZM548 1308Q548 1293 545 1275T537 1240T524 1207T506
1181Q490 1166 465 1159T403 1152Q346 1152 319 1169T291 1231Q291 1246 294 1263T302 1299T315 1332T333 1357Q348 1373 374 1380T436 1387Q493 1387 520 1370T548 1308V1308Z" />
<glyph unicode="&#x100;" glyph-name="Amacron" horiz-adv-x="1148" d="M747 0Q747 29 747 63T745 132T743 201T740 267H293Q281 238 268 206T241 139T213 70T187 0H-81Q-10 168 66 339T223 681T386 1019T556 1350H910Q935 1177 954 1008T987 672T1011 338T1029
0H747ZM736 468Q730 546 723 627T709 789T693 952T674 1112Q639 1040 601 959T524 795T447 628T377 468H736ZM471 1483L503 1651H1072L1040 1483H471Z" />
<glyph unicode="&#x101;" glyph-name="amacron" horiz-adv-x="1066" d="M53 311Q53 378 63 457T100 616T170 768T282 899T444 990T665 1024Q734 1024 798 1018T914 1004Q973 995 1026 983L835 0H622L645 181Q614 137 577 100T497 35T409 -7T317 -22Q248 -22 198
5T115 77T68 183T53 311V311ZM317 346Q317 262 340 221T413 179Q449 179 489 205T568 283T639 409T691 584L737 822Q721 827 703 831Q687 835 666 838T622 841Q562 841 516 815T437 745T380 648T343 539T323 433T317 346V346ZM381 1175L416 1354H975L940 1175H381Z"
/>
<glyph unicode="&#x102;" glyph-name="Abreve" horiz-adv-x="1148" d="M747 0Q747 29 747 63T745 132T743 201T740 267H293Q281 238 268 206T241 139T213 70T187 0H-81Q-10 168 66 339T223 681T386 1019T556 1350H910Q935 1177 954 1008T987 672T1011 338T1029
0H747ZM736 468Q730 546 723 627T709 789T693 952T674 1112Q639 1040 601 959T524 795T447 628T377 468H736ZM1088 1725Q1078 1647 1050 1591T979 1500T880 1447T759 1429Q696 1429 644 1448T557 1505T507 1598T502 1725H657Q652 1696 657 1673T677 1632T717 1606T776
1596Q844 1596 882 1631T930 1725H1088Z" />
<glyph unicode="&#x103;" glyph-name="abreve" horiz-adv-x="1066" d="M53 311Q53 378 63 457T100 616T170 768T282 899T444 990T665 1024Q734 1024 798 1018T914 1004Q973 995 1026 983L835 0H622L645 181Q614 137 577 100T497 35T409 -7T317 -22Q248 -22 198
5T115 77T68 183T53 311V311ZM317 346Q317 262 340 221T413 179Q449 179 489 205T568 283T639 409T691 584L737 822Q721 827 703 831Q687 835 666 838T622 841Q562 841 516 815T437 745T380 648T343 539T323 433T317 346V346ZM1006 1444Q991 1362 962 1301T888
1199T787 1136T661 1115Q590 1115 538 1136T453 1198T412 1300T418 1444H575Q567 1402 569 1373T585 1326T623 1300T681 1291Q715 1291 742 1299T790 1325T825 1373T848 1444H1006Z" />
<glyph unicode="&#x104;" glyph-name="Aogonek" horiz-adv-x="1148" d="M957 -315Q910 -340 858 -352T763 -365Q669 -365 627 -330T584 -229Q584 -205 593 -177T623 -118T675 -57T747 0Q747 29 747 63T745 132T743 201T740 267H292Q280 238 267 206T240 139T212
70T186 0H-81Q-10 168 66 339T223 681T386 1019T556 1350H910Q935 1177 954 1008T987 672T1011 338T1029 0Q969 -12 925 -34T853 -83T812 -137T798 -184Q798 -202 809 -212T844 -223Q867 -223 890 -218T936 -201L957 -315ZM736 468Q730 546 723 627T709 789T693
952T674 1112Q639 1040 601 959T524 795T447 628T377 468H736Z" />
<glyph unicode="&#x105;" glyph-name="aogonek" horiz-adv-x="1066" d="M53 311Q53 378 63 457T100 616T170 768T282 899T444 990T665 1024Q734 1024 798 1018T914 1004Q973 995 1026 983L835 0Q805 -7 780 -29T735 -78T704 -135T693 -185Q693 -204 704 -213T739
-223Q761 -223 787 -217T836 -200L848 -313Q824 -325 798 -334T746 -351T693 -361T642 -365Q560 -365 519 -333T478 -250Q478 -217 488 -184T517 -120T562 -58T622 0L645 181Q614 137 577 100T497 35T409 -7T317 -22Q248 -22 198 5T115 77T68 183T53 311V311ZM317
346Q317 262 340 221T413 179Q449 179 489 205T568 283T639 409T691 584L737 822Q721 827 703 831Q687 835 666 838T622 841Q562 841 516 815T437 745T380 648T343 539T323 433T317 346V346Z" />
<glyph unicode="&#x106;" glyph-name="Cacute" horiz-adv-x="1032" d="M930 184Q887 135 838 97T734 32T619 -8T496 -22Q394 -22 318 6T190 90T112 228T86 420Q86 483 93 557T118 709T162 868T227 1021T316 1159T431 1270T575 1345T750 1372Q808 1372 860 1360T957
1321T1036 1252T1094 1149L951 1032Q917 1092 873 1124T764 1156Q715 1156 672 1138T593 1088T526 1011T471 914T428 805T397 689T379 573T373 463Q373 388 387 337T427 254T488 210T567 196Q603 196 637 203T704 227T769 267T835 325L930 184ZM761 1438L687 1549L1053
1717L1165 1560L761 1438Z" />
<glyph unicode="&#x107;" glyph-name="cacute" horiz-adv-x="846" d="M741 125Q707 95 669 69T586 23T492 -8T385 -20Q304 -20 243 2T139 67T76 176T54 328Q54 375 60 430T81 542T116 658T169 770T240 870T331 951T445 1004T580 1024Q628 1024 669 1016T746 993T811
953T861 899L755 766Q722 799 685 816T602 833Q550 833 510 809T438 743T385 651T349 545T329 438T322 343Q322 257 356 216T464 174Q518 174 571 195T679 259L741 125ZM648 1110L522 1180L791 1450L968 1350L648 1110Z" />
<glyph unicode="&#x108;" glyph-name="Ccircumflex" horiz-adv-x="1032" d="M930 184Q887 135 838 97T734 32T619 -8T496 -22Q394 -22 318 6T190 90T112 228T86 420Q86 483 93 557T118 709T162 868T227 1021T316 1159T431 1270T575 1345T750 1372Q808 1372 860
1360T957 1321T1036 1252T1094 1149L951 1032Q917 1092 873 1124T764 1156Q715 1156 672 1138T593 1088T526 1011T471 914T428 805T397 689T379 573T373 463Q373 388 387 337T427 254T488 210T567 196Q603 196 637 203T704 227T769 267T835 325L930 184ZM1097 1545L1017
1438L795 1542L538 1438L486 1542L824 1717L1097 1545Z" />
<glyph unicode="&#x109;" glyph-name="ccircumflex" horiz-adv-x="846" d="M741 125Q707 95 669 69T586 23T492 -8T385 -20Q304 -20 243 2T139 67T76 176T54 328Q54 375 60 430T81 542T116 658T169 770T240 870T331 951T445 1004T580 1024Q628 1024 669 1016T746
993T811 953T861 899L755 766Q722 799 685 816T602 833Q550 833 510 809T438 743T385 651T349 545T329 438T322 343Q322 257 356 216T464 174Q518 174 571 195T679 259L741 125ZM806 1113L620 1256L377 1113L311 1213L657 1461L896 1215L806 1113Z" />
<glyph unicode="&#x10a;" glyph-name="Cdotaccent" horiz-adv-x="1032" d="M930 184Q887 135 838 97T734 32T619 -8T496 -22Q394 -22 318 6T190 90T112 228T86 420Q86 483 93 557T118 709T162 868T227 1021T316 1159T431 1270T575 1345T750 1372Q808 1372 860
1360T957 1321T1036 1252T1094 1149L951 1032Q917 1092 873 1124T764 1156Q715 1156 672 1138T593 1088T526 1011T471 914T428 805T397 689T379 573T373 463Q373 388 387 337T427 254T488 210T567 196Q603 196 637 203T704 227T769 267T835 325L930 184ZM769 1455Q731
1455 707 1459T667 1472T646 1496T640 1533Q640 1554 643 1574T651 1610T664 1640T680 1662Q689 1671 700 1677T727 1689T764 1696T816 1698Q854 1698 879 1694T919 1681T940 1656T946 1620Q946 1598 943 1579T934 1542T921 1512T906 1491Q896 1481 885 1475T859
1464T821 1457T769 1455V1455Z" />
<glyph unicode="&#x10b;" glyph-name="cdotaccent" horiz-adv-x="846" d="M741 125Q707 95 669 69T586 23T492 -8T385 -20Q304 -20 243 2T139 67T76 176T54 328Q54 375 60 430T81 542T116 658T169 770T240 870T331 951T445 1004T580 1024Q628 1024 669 1016T746
993T811 953T861 899L755 766Q722 799 685 816T602 833Q550 833 510 809T438 743T385 651T349 545T329 438T322 343Q322 257 356 216T464 174Q518 174 571 195T679 259L741 125ZM609 1150Q571 1150 544 1154T500 1168T476 1193T468 1232Q468 1244 471 1264T480
1304T494 1342T513 1371Q522 1380 534 1387T562 1398T599 1405T647 1407Q685 1407 711 1403T755 1389T780 1364T788 1325Q788 1313 785 1294T776 1254T762 1215T743 1187Q733 1177 721 1170T693 1159T657 1152T609 1150V1150Z" />
<glyph unicode="&#x10c;" glyph-name="Ccaron" horiz-adv-x="1032" d="M930 184Q887 135 838 97T734 32T619 -8T496 -22Q394 -22 318 6T190 90T112 228T86 420Q86 483 93 557T118 709T162 868T227 1021T316 1159T431 1270T575 1345T750 1372Q808 1372 860 1360T957
1321T1036 1252T1094 1149L951 1032Q917 1092 873 1124T764 1156Q715 1156 672 1138T593 1088T526 1011T471 914T428 805T397 689T379 573T373 463Q373 388 387 337T427 254T488 210T567 196Q603 196 637 203T704 227T769 267T835 325L930 184ZM510 1609L590 1717L812
1612L1068 1717L1121 1613L783 1438L510 1609Z" />
<glyph unicode="&#x10d;" glyph-name="ccaron" horiz-adv-x="846" d="M741 125Q707 95 669 69T586 23T492 -8T385 -20Q304 -20 243 2T139 67T76 176T54 328Q54 375 60 430T81 542T116 658T169 770T240 870T331 951T445 1004T580 1024Q628 1024 669 1016T746 993T811
953T861 899L755 766Q722 799 685 816T602 833Q550 833 510 809T438 743T385 651T349 545T329 438T322 343Q322 257 356 216T464 174Q518 174 571 195T679 259L741 125ZM594 1110L354 1356L446 1459L631 1315L874 1459L939 1358L594 1110Z" />
<glyph unicode="&#x10e;" glyph-name="Dcaron" horiz-adv-x="1192" d="M1162 896Q1162 858 1158 805T1143 692T1114 565T1067 433T999 305T907 190Q862 144 810 108T695 47T561 8T402 -6Q355 -6 309 -5T217 -4T129 -2T48 0L310 1350Q361 1350 407 1350T497 1351T584
1352T672 1353Q805 1353 898 1319T1050 1223T1135 1078T1162 896V896ZM877 880Q877 948 864 999T820 1084T745 1135T635 1152Q610 1152 588 1152T542 1150L357 204Q381 201 404 201T447 200Q521 200 579 226T684 298Q722 336 752 386T803 491T838 602T861 711T873
806T877 880V880ZM457 1609L537 1717L759 1612L1015 1717L1068 1613L730 1438L457 1609Z" />
<glyph unicode="&#x10f;" glyph-name="dcaron" horiz-adv-x="1188" d="M622 0L645 181Q614 137 577 100T497 35T409 -7T317 -22Q248 -22 198 5T115 77T68 183T53 311Q53 378 63 457T100 616T170 768T282 899T444 990T665 1024Q685 1024 705 1023T741 1020Q759
1019 775 1017L853 1418H1111L835 0H622ZM317 346Q317 262 340 221T413 179Q449 179 489 205T568 283T639 409T691 584L737 822Q721 827 703 831Q687 835 666 838T622 841Q562 841 516 815T437 745T380 648T343 539T323 433T317 346V346ZM1244 1112L1119 1139L1259
1516L1435 1476L1244 1112Z" />
<glyph unicode="&#x110;" glyph-name="Dcroat" horiz-adv-x="1212" d="M1182 896Q1182 858 1178 805T1163 692T1134 565T1087 433T1019 305T927 190Q882 144 830 108T715 47T581 8T422 -6Q375 -6 329 -5T237 -4T149 -2T68 0L184 597H75L113 795H222L330 1350Q381
1350 427 1350T517 1351T604 1352T692 1353Q825 1353 918 1319T1070 1223T1155 1078T1182 896V896ZM897 880Q897 948 884 999T840 1084T765 1135T655 1152Q630 1152 608 1152T562 1150L492 795H687L648 597H453L377 204Q401 201 424 201T467 200Q541 200 599 226T704
298Q742 336 772 386T823 491T858 602T881 711T893 806T897 880V880Z" />
<glyph unicode="&#x111;" glyph-name="dcroat" horiz-adv-x="1066" d="M622 0L645 181Q614 137 577 100T497 35T409 -7T317 -22Q248 -22 198 5T115 77T68 183T53 311Q53 378 63 457T100 616T170 768T282 899T444 990T665 1024Q685 1024 705 1023T741 1020Q759
1019 775 1017L797 1127H611L639 1270H824L853 1418H1111L1082 1270H1213L1185 1127H1054L835 0H622ZM317 346Q317 262 340 221T413 179Q449 179 489 205T568 283T639 409T691 584L737 822Q721 827 703 831Q687 835 666 838T622 841Q562 841 516 815T437 745T380
648T343 539T323 433T317 346V346Z" />
<glyph unicode="&#x112;" glyph-name="Emacron" horiz-adv-x="948" d="M48 0L310 1350H1010L969 1144H540L472 795H829L790 597H434L359 209H794L756 0H48ZM398 1483L430 1651H999L967 1483H398Z" />
<glyph unicode="&#x113;" glyph-name="emacron" horiz-adv-x="988" d="M820 82Q735 36 633 7T419 -22Q337 -22 270 -3T154 59T80 167T53 327Q53 356 57 402T71 502T100 616T148 734T219 845T318 937T448 1000T615 1024Q688 1024 749 1007T854 958T922 880T946
774Q946 706 915 647T812 543T621 474T324 448Q321 435 319 421T316 393T313 366T312 343Q312 300 323 269T356 216T411 184T489 174Q522 174 559 177T637 188T717 205T796 229L820 82ZM702 758Q702 780 695 797T674 827T637 845T584 852Q541 852 506 834T441 783T392
706T357 608Q430 608 484 613T576 627T639 650T677 680T696 716T702 758V758ZM350 1175L385 1354H944L909 1175H350Z" />
<glyph unicode="&#x114;" glyph-name="Ebreve" horiz-adv-x="948" d="M48 0L310 1350H1010L969 1144H540L472 795H829L790 597H434L359 209H794L756 0H48ZM1009 1725Q999 1647 971 1591T900 1500T801 1447T680 1429Q617 1429 565 1448T478 1505T428 1598T423 1725H578Q573
1696 578 1673T598 1632T638 1606T697 1596Q765 1596 803 1631T851 1725H1009Z" />
<glyph unicode="&#x115;" glyph-name="ebreve" horiz-adv-x="988" d="M820 82Q735 36 633 7T419 -22Q337 -22 270 -3T154 59T80 167T53 327Q53 356 57 402T71 502T100 616T148 734T219 845T318 937T448 1000T615 1024Q688 1024 749 1007T854 958T922 880T946 774Q946
706 915 647T812 543T621 474T324 448Q321 435 319 421T316 393T313 366T312 343Q312 300 323 269T356 216T411 184T489 174Q522 174 559 177T637 188T717 205T796 229L820 82ZM702 758Q702 780 695 797T674 827T637 845T584 852Q541 852 506 834T441 783T392 706T357
608Q430 608 484 613T576 627T639 650T677 680T696 716T702 758V758ZM972 1444Q957 1362 928 1301T854 1199T753 1136T627 1115Q556 1115 504 1136T419 1198T378 1300T384 1444H541Q533 1402 535 1373T551 1326T589 1300T647 1291Q681 1291 708 1299T756 1325T791
1373T814 1444H972Z" />
<glyph unicode="&#x116;" glyph-name="Edotaccent" horiz-adv-x="948" d="M48 0L310 1350H1010L969 1144H540L472 795H829L790 597H434L359 209H794L756 0H48ZM679 1448Q641 1448 617 1452T577 1465T556 1489T550 1526Q550 1547 553 1567T561 1603T574 1633T590
1655Q599 1664 610 1670T637 1682T674 1689T726 1691Q764 1691 789 1687T829 1674T850 1649T856 1613Q856 1591 853 1572T844 1535T831 1505T816 1484Q806 1474 795 1468T769 1457T731 1450T679 1448V1448Z" />
<glyph unicode="&#x117;" glyph-name="edotaccent" horiz-adv-x="988" d="M820 82Q735 36 633 7T419 -22Q337 -22 270 -3T154 59T80 167T53 327Q53 356 57 402T71 502T100 616T148 734T219 845T318 937T448 1000T615 1024Q688 1024 749 1007T854 958T922 880T946
774Q946 706 915 647T812 543T621 474T324 448Q321 435 319 421T316 393T313 366T312 343Q312 300 323 269T356 216T411 184T489 174Q522 174 559 177T637 188T717 205T796 229L820 82ZM702 758Q702 780 695 797T674 827T637 845T584 852Q541 852 506 834T441 783T392
706T357 608Q430 608 484 613T576 627T639 650T677 680T696 716T702 758V758ZM639 1150Q601 1150 574 1154T530 1168T506 1193T498 1232Q498 1244 501 1264T510 1304T524 1342T543 1371Q552 1380 564 1387T592 1398T629 1405T677 1407Q715 1407 741 1403T785 1389T810
1364T818 1325Q818 1313 815 1294T806 1254T792 1215T773 1187Q763 1177 751 1170T723 1159T687 1152T639 1150V1150Z" />
<glyph unicode="&#x118;" glyph-name="Eogonek" horiz-adv-x="948" d="M756 0Q711 -24 679 -49T625 -98T593 -144T583 -184Q583 -202 594 -212T629 -223Q652 -223 675 -218T721 -201L742 -315Q695 -340 643 -352T548 -365Q454 -365 412 -330T369 -229Q369 -206
378 -180T405 -125T453 -64T523 0H48L310 1350H1010L969 1144H540L472 795H829L790 597H434L359 209H794L756 0Z" />
<glyph unicode="&#x119;" glyph-name="eogonek" horiz-adv-x="988" d="M820 82Q773 46 737 9T677 -62T640 -127T627 -179Q627 -202 638 -212T673 -223Q695 -223 721 -217T770 -200L782 -313Q758 -325 732 -334T680 -351T627 -361T576 -365Q494 -365 453 -333T412
-250Q412 -217 422 -183T451 -118T493 -59T544 -8Q530 -12 515 -14T483 -18T451 -21T419 -22Q337 -22 270 -3T154 59T80 167T53 327Q53 356 57 402T71 502T100 616T148 734T219 845T318 937T448 1000T615 1024Q688 1024 749 1007T854 958T922 880T946 774Q946 706
915 647T812 543T621 474T324 448Q321 435 319 421T316 393T313 366T312 343Q312 300 323 269T356 216T411 184T489 174Q522 174 559 177T637 188T717 205T796 229L820 82ZM702 758Q702 780 695 797T674 827T637 845T584 852Q541 852 506 834T441 783T392 706T357
608Q430 608 484 613T576 627T639 650T677 680T696 716T702 758V758Z" />
<glyph unicode="&#x11a;" glyph-name="Ecaron" horiz-adv-x="948" d="M48 0L310 1350H1010L969 1144H540L472 795H829L790 597H434L359 209H794L756 0H48ZM395 1609L475 1717L697 1612L953 1717L1006 1613L668 1438L395 1609Z" />
<glyph unicode="&#x11b;" glyph-name="ecaron" horiz-adv-x="988" d="M820 82Q735 36 633 7T419 -22Q337 -22 270 -3T154 59T80 167T53 327Q53 356 57 402T71 502T100 616T148 734T219 845T318 937T448 1000T615 1024Q688 1024 749 1007T854 958T922 880T946 774Q946
706 915 647T812 543T621 474T324 448Q321 435 319 421T316 393T313 366T312 343Q312 300 323 269T356 216T411 184T489 174Q522 174 559 177T637 188T717 205T796 229L820 82ZM702 758Q702 780 695 797T674 827T637 845T584 852Q541 852 506 834T441 783T392 706T357
608Q430 608 484 613T576 627T639 650T677 680T696 716T702 758V758ZM630 1110L390 1356L482 1459L667 1315L910 1459L975 1358L630 1110Z" />
<glyph unicode="&#x11c;" glyph-name="Gcircumflex" horiz-adv-x="1152" d="M954 132Q906 98 854 70T744 22T621 -10T482 -22Q385 -22 312 6T188 90T112 230T86 426Q86 499 94 572T118 717T157 856T212 986T281 1102T363 1201Q447 1284 549 1328T771 1372Q841
1372 899 1358T1003 1317T1084 1253T1144 1169L1013 1058Q986 1082 958 1100T900 1132T840 1152T776 1159Q716 1159 666 1136T574 1071Q539 1036 510 990T459 892T419 781T390 665T373 548T367 438Q367 371 380 324T416 248T472 206T546 193Q573 193 597 197T642
208T679 223T710 239L777 578H616L655 776H1080L954 132ZM1111 1545L1031 1438L809 1542L552 1438L500 1542L838 1717L1111 1545Z" />
<glyph unicode="&#x11d;" glyph-name="gcircumflex" horiz-adv-x="1066" d="M835 1Q814 -107 769 -177T661 -289T519 -348T352 -365Q312 -365 269 -360T182 -345T92 -319T2 -283L41 -141Q142 -158 217 -165T348 -173Q402 -173 441 -164T507 -136T551 -84T577 -5L593
77Q595 94 600 112T609 148T619 182T628 213Q604 174 571 138T499 74T415 30T325 13Q256 13 206 38T122 107T73 212T57 344Q57 391 62 445T82 555T118 668T175 777T254 875T360 953T496 1005T665 1024Q734 1024 798 1018T914 1004Q973 995 1026 983L835 1ZM322
369Q322 331 328 303T346 255T377 225T418 215Q454 215 494 241T573 316T644 437T693 598L737 822Q721 827 703 831Q687 835 666 838T622 841Q566 841 522 818T445 755T388 667T350 566T329 462T322 369V369ZM868 1113L682 1256L439 1113L373 1213L719 1461L958
1215L868 1113Z" />
<glyph unicode="&#x11e;" glyph-name="Gbreve" horiz-adv-x="1152" d="M954 132Q906 98 854 70T744 22T621 -10T482 -22Q385 -22 312 6T188 90T112 230T86 426Q86 499 94 572T118 717T157 856T212 986T281 1102T363 1201Q447 1284 549 1328T771 1372Q841 1372
899 1358T1003 1317T1084 1253T1144 1169L1013 1058Q986 1082 958 1100T900 1132T840 1152T776 1159Q716 1159 666 1136T574 1071Q539 1036 510 990T459 892T419 781T390 665T373 548T367 438Q367 371 380 324T416 248T472 206T546 193Q573 193 597 197T642 208T679
223T710 239L777 578H616L655 776H1080L954 132ZM1121 1729Q1111 1651 1083 1595T1012 1504T913 1451T792 1433Q729 1433 677 1452T590 1509T540 1602T535 1729H690Q685 1700 690 1677T710 1636T750 1610T809 1600Q877 1600 915 1635T963 1729H1121Z" />
<glyph unicode="&#x11f;" glyph-name="gbreve" horiz-adv-x="1066" d="M835 1Q814 -107 769 -177T661 -289T519 -348T352 -365Q312 -365 269 -360T182 -345T92 -319T2 -283L41 -141Q142 -158 217 -165T348 -173Q402 -173 441 -164T507 -136T551 -84T577 -5L593
77Q595 94 600 112T609 148T619 182T628 213Q604 174 571 138T499 74T415 30T325 13Q256 13 206 38T122 107T73 212T57 344Q57 391 62 445T82 555T118 668T175 777T254 875T360 953T496 1005T665 1024Q734 1024 798 1018T914 1004Q973 995 1026 983L835 1ZM322
369Q322 331 328 303T346 255T377 225T418 215Q454 215 494 241T573 316T644 437T693 598L737 822Q721 827 703 831Q687 835 666 838T622 841Q566 841 522 818T445 755T388 667T350 566T329 462T322 369V369ZM1026 1444Q1011 1362 982 1301T908 1199T807 1136T681
1115Q610 1115 558 1136T473 1198T432 1300T438 1444H595Q587 1402 589 1373T605 1326T643 1300T701 1291Q735 1291 762 1299T810 1325T845 1373T868 1444H1026Z" />
<glyph unicode="&#x120;" glyph-name="Gdotaccent" horiz-adv-x="1152" d="M954 132Q906 98 854 70T744 22T621 -10T482 -22Q385 -22 312 6T188 90T112 230T86 426Q86 499 94 572T118 717T157 856T212 986T281 1102T363 1201Q447 1284 549 1328T771 1372Q841 1372
899 1358T1003 1317T1084 1253T1144 1169L1013 1058Q986 1082 958 1100T900 1132T840 1152T776 1159Q716 1159 666 1136T574 1071Q539 1036 510 990T459 892T419 781T390 665T373 548T367 438Q367 371 380 324T416 248T472 206T546 193Q573 193 597 197T642 208T679
223T710 239L777 578H616L655 776H1080L954 132ZM800 1455Q762 1455 738 1459T698 1472T677 1496T671 1533Q671 1554 674 1574T682 1610T695 1640T711 1662Q720 1671 731 1677T758 1689T795 1696T847 1698Q885 1698 910 1694T950 1681T971 1656T977 1620Q977 1598
974 1579T965 1542T952 1512T937 1491Q927 1481 916 1475T890 1464T852 1457T800 1455V1455Z" />
<glyph unicode="&#x121;" glyph-name="gdotaccent" horiz-adv-x="1066" d="M835 1Q814 -107 769 -177T661 -289T519 -348T352 -365Q312 -365 269 -360T182 -345T92 -319T2 -283L41 -141Q142 -158 217 -165T348 -173Q402 -173 441 -164T507 -136T551 -84T577 -5L593
77Q595 94 600 112T609 148T619 182T628 213Q604 174 571 138T499 74T415 30T325 13Q256 13 206 38T122 107T73 212T57 344Q57 391 62 445T82 555T118 668T175 777T254 875T360 953T496 1005T665 1024Q734 1024 798 1018T914 1004Q973 995 1026 983L835 1ZM322
369Q322 331 328 303T346 255T377 225T418 215Q454 215 494 241T573 316T644 437T693 598L737 822Q721 827 703 831Q687 835 666 838T622 841Q566 841 522 818T445 755T388 667T350 566T329 462T322 369V369ZM657 1150Q619 1150 592 1154T548 1168T524 1193T516
1232Q516 1244 519 1264T528 1304T542 1342T561 1371Q570 1380 582 1387T610 1398T647 1405T695 1407Q733 1407 759 1403T803 1389T828 1364T836 1325Q836 1313 833 1294T824 1254T810 1215T791 1187Q781 1177 769 1170T741 1159T705 1152T657 1150V1150Z" />
<glyph unicode="&#x122;" glyph-name="Gcommaaccent" horiz-adv-x="1152" d="M954 132Q906 98 854 70T744 22T621 -10T482 -22Q385 -22 312 6T188 90T112 230T86 426Q86 499 94 572T118 717T157 856T212 986T281 1102T363 1201Q447 1284 549 1328T771 1372Q841
1372 899 1358T1003 1317T1084 1253T1144 1169L1013 1058Q986 1082 958 1100T900 1132T840 1152T776 1159Q716 1159 666 1136T574 1071Q539 1036 510 990T459 892T419 781T390 665T373 548T367 438Q367 371 380 324T416 248T472 206T546 193Q573 193 597 197T642
208T679 223T710 239L777 578H616L655 776H1080L954 132ZM471 -68Q495 -68 513 -73T544 -89T563 -115T569 -149Q569 -196 548 -233T486 -297T388 -340T256 -361L238 -278Q265 -271 288 -263T328 -244T354 -221T363 -197Q363 -192 363 -189T361 -181T359 -171T358
-157Q358 -141 365 -125T386 -96T422 -76T471 -68V-68Z" />
<glyph unicode="&#x123;" glyph-name="gcommaaccent" horiz-adv-x="1066" d="M835 1Q814 -107 769 -177T661 -289T519 -348T352 -365Q312 -365 269 -360T182 -345T92 -319T2 -283L41 -141Q142 -158 217 -165T348 -173Q402 -173 441 -164T507 -136T551 -84T577
-5L593 77Q595 94 600 112T609 148T619 182T628 213Q604 174 571 138T499 74T415 30T325 13Q256 13 206 38T122 107T73 212T57 344Q57 391 62 445T82 555T118 668T175 777T254 875T360 953T496 1005T665 1024Q734 1024 798 1018T914 1004Q973 995 1026 983L835
1ZM322 369Q322 331 328 303T346 255T377 225T418 215Q454 215 494 241T573 316T644 437T693 598L737 822Q721 827 703 831Q687 835 666 838T622 841Q566 841 522 818T445 755T388 667T350 566T329 462T322 369V369ZM629 1206Q629 1245 646 1284T702 1357T805 1411T962
1434L979 1347Q946 1340 919 1329T873 1306T844 1279T834 1253Q834 1247 835 1244T837 1236T839 1227T841 1213Q841 1196 834 1180T812 1150T776 1129T724 1121Q701 1121 683 1126T654 1142T636 1169T629 1206V1206Z" />
<glyph unicode="&#x124;" glyph-name="Hcircumflex" horiz-adv-x="1316" d="M798 0L911 591H432L318 0H48L310 1350H580L476 817H955L1060 1350H1330L1068 0H798ZM1161 1545L1081 1438L859 1542L602 1438L550 1542L888 1717L1161 1545Z" />
<glyph unicode="&#x125;" glyph-name="hcircumflex" horiz-adv-x="1090" d="M603 0Q633 155 657 269T699 465T725 604T735 701Q735 761 715 789T646 818Q607 818 566 789T485 703T414 565T362 381L288 0H31L307 1418H564L479 982Q473 963 468 943T458 902T448
864T439 830Q463 868 496 903T569 966T654 1008T748 1024Q808 1024 854 1008T932 959T980 873T996 749Q996 687 986 619T957 464T913 264T860 0H603ZM771 1598L692 1491L470 1595L213 1491L161 1595L499 1770L771 1598Z" />
<glyph unicode="&#x126;" glyph-name="Hbar" horiz-adv-x="1356" d="M818 0L924 546H445L338 0H69L255 961H117L154 1151H292L330 1350H600L562 1151H1041L1080 1350H1350L1311 1151H1448L1411 961H1274L1088 0H818ZM965 761L1004 961H525L486 761H965Z" />
<glyph unicode="&#x127;" glyph-name="hbar" horiz-adv-x="1090" d="M603 0Q633 155 657 268T699 462T725 599T734 695Q734 755 714 784T645 813Q606 813 565 784T485 700T414 564T362 381L288 0H31L250 1132H123L157 1307H284L308 1435H565L541 1307H806L771
1132H507L479 982Q475 963 470 943T459 902T449 864T439 830Q463 868 496 902T569 963T653 1004T746 1019Q807 1019 853 1003T931 953T979 867T995 743Q995 702 991 659T978 567T957 461T929 336T897 184T860 0H603Z" />
<glyph unicode="&#x128;" glyph-name="Itilde" horiz-adv-x="566" d="M48 0L310 1350H580L318 0H48ZM1097 1627Q1073 1583 1047 1549T991 1493T926 1458T848 1446Q815 1446 790 1453T743 1471T706 1494T674 1517T644 1535T614 1543Q599 1543 587 1538T562 1522T534
1493T499 1449L395 1521Q419 1565 445 1599T501 1655T566 1690T644 1702Q693 1702 727 1687T786 1653T832 1619T877 1604Q891 1604 903 1608T929 1624T958 1654T992 1699L1097 1627Z" />
<glyph unicode="&#x129;" glyph-name="itilde" horiz-adv-x="518" d="M31 0L225 1002H482L288 0H31ZM747 1321Q722 1276 696 1242T641 1185T578 1151T503 1139Q471 1139 446 1146T401 1164T364 1187T333 1211T304 1229T274 1237Q260 1237 248 1232T224 1216T196
1187T162 1142L62 1215Q87 1259 112 1293T167 1350T229 1385T304 1397Q336 1397 361 1390T406 1371T443 1348T475 1325T504 1307T534 1299Q548 1299 560 1303T585 1319T612 1349T647 1394L747 1321Z" />
<glyph unicode="&#x12a;" glyph-name="Imacron" horiz-adv-x="566" d="M48 0L310 1350H580L318 0H48ZM443 1483L475 1651H1044L1012 1483H443Z" />
<glyph unicode="&#x12b;" glyph-name="imacron" horiz-adv-x="518" d="M31 0L225 1002H482L288 0H31ZM363 1175L398 1354H957L922 1175H363Z" />
<glyph unicode="&#x12c;" glyph-name="Ibreve" horiz-adv-x="566" d="M48 0L310 1350H580L318 0H48ZM1052 1725Q1042 1647 1014 1591T943 1500T844 1447T723 1429Q660 1429 608 1448T521 1505T471 1598T466 1725H621Q616 1696 621 1673T641 1632T681 1606T740
1596Q808 1596 846 1631T894 1725H1052Z" />
<glyph unicode="&#x12d;" glyph-name="ibreve" horiz-adv-x="518" d="M31 0L225 1002H482L288 0H31ZM977 1444Q962 1362 933 1301T859 1199T758 1136T632 1115Q561 1115 509 1136T424 1198T383 1300T389 1444H546Q538 1402 540 1373T556 1326T594 1300T652 1291Q686
1291 713 1299T761 1325T796 1373T819 1444H977Z" />
<glyph unicode="&#x12e;" glyph-name="Iogonek" horiz-adv-x="566" d="M310 1350H580L318 0Q270 -12 232 -34T167 -81T128 -134T114 -184Q114 -202 125 -212T159 -223Q183 -223 206 -218T251 -201L273 -315Q225 -340 173 -352T78 -365Q-15 -365 -58 -330T-101
-229Q-101 -206 -92 -181T-65 -126T-19 -66T48 0L310 1350Z" />
<glyph unicode="&#x12f;" glyph-name="iogonek" horiz-adv-x="518" d="M288 0Q243 -12 207 -33T146 -80T106 -134T92 -185Q92 -203 103 -213T140 -223Q162 -223 186 -217T231 -200L245 -314Q222 -326 196 -335T143 -351T92 -361T46 -365Q-36 -365 -79 -335T-123
-247Q-123 -217 -113 -187T-82 -126T-34 -63T31 0L225 1002H482L288 0ZM387 1132Q349 1132 322 1136T278 1150T254 1176T246 1215Q246 1229 249 1250T258 1293T272 1333T291 1362Q300 1372 312 1379T340 1390T377 1397T425 1400Q463 1400 489 1396T533 1382T558
1356T566 1317Q566 1302 563 1281T554 1239T540 1198T521 1170Q511 1160 499 1153T471 1141T435 1134T387 1132V1132Z" />
<glyph unicode="&#x130;" glyph-name="Idotaccent" horiz-adv-x="566" d="M48 0L310 1350H580L318 0H48ZM461 1448Q423 1448 399 1452T359 1465T338 1489T332 1526Q332 1547 335 1567T343 1603T356 1633T372 1655Q381 1664 392 1670T419 1682T456 1689T508 1691Q546
1691 571 1687T611 1674T632 1649T638 1613Q638 1591 635 1572T626 1535T613 1505T598 1484Q588 1474 577 1468T551 1457T513 1450T461 1448V1448Z" />
<glyph unicode="&#x131;" glyph-name="dotlessi" horiz-adv-x="518" d="M31 0L225 1002H482L288 0H31Z" />
<glyph unicode="&#x132;" glyph-name="IJ" horiz-adv-x="1142" d="M48 0L310 1350H580L318 0H48ZM925 157Q907 69 880 -4T811 -140T712 -255T580 -351L464 -236Q507 -194 538 -150T590 -58T627 46T655 166L886 1350H1156L925 157Z" />
<glyph unicode="&#x133;" glyph-name="ij" horiz-adv-x="1036" d="M31 0L225 1002H482L288 0H31ZM386 1132Q348 1132 321 1136T277 1150T253 1176T245 1215Q245 1229 248 1250T257 1293T271 1333T290 1362Q299 1372 311 1379T339 1390T376 1397T424 1400Q462 1400
488 1396T531 1382T556 1356T565 1317Q565 1302 562 1281T552 1239T538 1198T520 1170Q510 1160 498 1153T470 1141T434 1134T386 1132V1132ZM823 90Q809 17 786 -45T726 -161T640 -265T522 -364L363 -280Q399 -245 431 -206T488 -124T532 -36T560 58L743 1002H1000L823
90ZM905 1132Q867 1132 840 1136T796 1150T772 1176T764 1215Q764 1229 767 1250T776 1293T790 1333T809 1362Q818 1372 830 1379T858 1390T895 1397T943 1400Q981 1400 1007 1396T1051 1382T1076 1356T1084 1317Q1084 1302 1081 1281T1072 1239T1058 1198T1039
1170Q1029 1160 1017 1153T989 1141T953 1134T905 1132V1132Z" />
<glyph unicode="&#x134;" glyph-name="Jcircumflex" horiz-adv-x="576" d="M358 157Q340 69 313 -4T244 -140T145 -255T13 -351L-103 -236Q-60 -194 -29 -150T23 -58T60 46T88 166L319 1350H589L358 157ZM1052 1545L972 1438L750 1542L493 1438L441 1542L779 1717L1052
1545Z" />
<glyph unicode="&#x135;" glyph-name="jcircumflex" horiz-adv-x="518" d="M305 90Q291 17 268 -45T208 -161T122 -265T4 -364L-155 -280Q-119 -245 -87 -206T-30 -124T14 -36T42 58L225 1002H482L305 90ZM844 1113L658 1256L415 1113L349 1213L695 1461L934 1215L844
1113Z" />
<glyph unicode="&#x136;" glyph-name="Kcommaaccent" horiz-adv-x="1094" d="M668 0L443 625H439L318 0H48L310 1350H580L468 776H473L901 1350H1204L698 720L959 0H668ZM447 -68Q471 -68 489 -73T520 -89T539 -115T545 -149Q545 -196 524 -233T462 -297T364 -340T232
-361L214 -278Q241 -271 264 -263T304 -244T330 -221T339 -197Q339 -192 339 -189T337 -181T335 -171T334 -157Q334 -141 341 -125T362 -96T398 -76T447 -68V-68Z" />
<glyph unicode="&#x137;" glyph-name="kcommaaccent" horiz-adv-x="980" d="M569 0L392 493H383L288 0H31L306 1418H563L403 598H411L721 1002H1028L639 562L858 0H569ZM386 -68Q410 -68 428 -73T459 -89T478 -115T484 -149Q484 -196 463 -233T401 -297T303 -340T171
-361L153 -278Q180 -271 203 -263T243 -244T269 -221T278 -197Q278 -192 278 -189T276 -181T274 -171T273 -157Q273 -141 280 -125T301 -96T337 -76T386 -68V-68Z" />
<glyph unicode="&#x138;" glyph-name="kgreenlandic" horiz-adv-x="980" d="M565 0L388 473H379L288 0H31L225 1002H482L399 578H407L722 1002H1029L633 535L855 0H565Z" />
<glyph unicode="&#x139;" glyph-name="Lacute" horiz-adv-x="842" d="M48 0L310 1350H580L359 210H751L710 0H48ZM487 1438L413 1549L779 1717L891 1560L487 1438Z" />
<glyph unicode="&#x13a;" glyph-name="lacute" horiz-adv-x="550" d="M418 10Q399 4 379 -1T336 -9T288 -15T234 -17Q192 -17 161 -10T107 15T75 60T64 132Q64 153 67 181T78 246L307 1418H564L345 297Q339 264 336 243T333 207Q333 192 336 183T345 169T362 162T385
160Q399 160 413 160T435 162L418 10ZM710 1465L636 1576L1002 1744L1114 1587L710 1465Z" />
<glyph unicode="&#x13b;" glyph-name="Lcommaaccent" horiz-adv-x="842" d="M48 0L310 1350H580L359 210H751L710 0H48ZM347 -68Q371 -68 389 -73T420 -89T439 -115T445 -149Q445 -196 424 -233T362 -297T264 -340T132 -361L114 -278Q141 -271 164 -263T204 -244T230
-221T239 -197Q239 -192 239 -189T237 -181T235 -171T234 -157Q234 -141 241 -125T262 -96T298 -76T347 -68V-68Z" />
<glyph unicode="&#x13c;" glyph-name="lcommaaccent" horiz-adv-x="550" d="M418 10Q399 4 379 -1T336 -9T288 -15T234 -17Q192 -17 161 -10T107 15T75 60T64 132Q64 153 67 181T78 246L307 1418H564L345 297Q339 264 336 243T333 207Q333 192 336 183T345 169T362
162T385 160Q399 160 413 160T435 162L418 10ZM227 -68Q251 -68 269 -73T300 -89T319 -115T325 -149Q325 -196 304 -233T242 -297T144 -340T12 -361L-6 -278Q21 -271 44 -263T84 -244T110 -221T119 -197Q119 -192 119 -189T117 -181T115 -171T114 -157Q114 -141
121 -125T142 -96T178 -76T227 -68V-68Z" />
<glyph unicode="&#x13d;" glyph-name="Lcaron" horiz-adv-x="842" d="M48 0L310 1350H580L359 210H751L710 0H48ZM786 1112L661 1138L802 1516L978 1476L786 1112Z" />
<glyph unicode="&#x13e;" glyph-name="lcaron" horiz-adv-x="660" d="M418 10Q399 4 379 -1T336 -9T288 -15T234 -17Q192 -17 161 -10T107 15T75 60T64 132Q64 153 67 181T78 246L307 1418H564L345 297Q339 264 336 243T333 207Q333 192 336 183T345 169T362 162T385
160Q399 160 413 160T435 162L418 10ZM697 1112L572 1139L712 1516L888 1476L697 1112Z" />
<glyph unicode="&#x13f;" glyph-name="Ldot" horiz-adv-x="1044" d="M48 0L310 1350H580L359 210H751L710 0H48ZM848 530Q811 530 786 534T745 549T722 577T714 620Q714 641 718 667T729 716T744 760T763 790Q783 809 813 817T891 826Q928 826 953 822T995 806T1018
778T1025 736Q1025 713 1021 688T1011 640T995 596T975 566Q956 547 926 539T848 530V530Z" />
<glyph unicode="&#x140;" glyph-name="ldot" horiz-adv-x="984" d="M418 10Q399 4 379 -1T336 -9T288 -15T234 -17Q192 -17 161 -10T107 15T75 60T64 132Q64 153 67 181T78 246L307 1418H564L345 297Q339 264 336 243T333 207Q333 192 336 183T345 169T362 162T385
160Q399 160 413 160T435 162L418 10ZM744 450Q707 450 682 454T641 469T618 497T610 540Q610 561 614 587T625 636T640 680T659 710Q679 729 709 737T787 746Q824 746 849 742T891 726T914 698T921 656Q921 633 917 608T907 560T891 516T871 486Q852 467 822 459T744
450V450Z" />
<glyph unicode="&#x141;" glyph-name="Lslash" horiz-adv-x="856" d="M720 1048V869L479 753L374 210H764L724 0H333H63L182 615L68 560V738L220 812L325 1350H595L516 948L720 1048Z" />
<glyph unicode="&#x142;" glyph-name="lslash" horiz-adv-x="566" d="M433 10Q414 4 394 -1T351 -9T303 -15T248 -17Q207 -17 175 -10T122 15T89 60T78 132Q78 153 81 181T92 246L162 604L47 546V724L199 800L320 1418H577L485 941L600 999V821L446 744L360 297Q353
264 350 243T347 207Q347 192 350 183T360 169T376 162T400 160Q414 160 427 160T449 162L433 10Z" />
<glyph unicode="&#x143;" glyph-name="Nacute" horiz-adv-x="1286" d="M769 0L508 810L458 963V963L411 723L272 0H48L310 1350H626L863 652L912 508V508L955 730L1076 1350H1300L1038 0H769ZM816 1438L742 1549L1108 1717L1220 1560L816 1438Z" />
<glyph unicode="&#x144;" glyph-name="nacute" horiz-adv-x="1090" d="M646 818Q607 818 566 789T487 708T417 581T369 418L288 0H31L225 1002H438L415 821Q444 865 482 902T562 967T651 1009T748 1024Q808 1024 854 1008T932 959T980 873T996 749Q996 687 986
619T957 464T913 264T860 0H603Q633 155 657 269T699 465T725 604T735 701Q735 761 715 789T646 818V818ZM679 1110L553 1180L822 1450L999 1350L679 1110Z" />
<glyph unicode="&#x145;" glyph-name="Ncommaaccent" horiz-adv-x="1286" d="M769 0L508 810L458 963V963L411 723L272 0H48L310 1350H626L863 652L912 508V508L955 730L1076 1350H1300L1038 0H769ZM507 -68Q531 -68 549 -73T580 -89T599 -115T605 -149Q605 -196
584 -233T522 -297T424 -340T292 -361L274 -278Q301 -271 324 -263T364 -244T390 -221T399 -197Q399 -192 399 -189T397 -181T395 -171T394 -157Q394 -141 401 -125T422 -96T458 -76T507 -68V-68Z" />
<glyph unicode="&#x146;" glyph-name="ncommaaccent" horiz-adv-x="1090" d="M646 818Q607 818 566 789T487 708T417 581T369 418L288 0H31L225 1002H438L415 821Q444 865 482 902T562 967T651 1009T748 1024Q808 1024 854 1008T932 959T980 873T996 749Q996 687
986 619T957 464T913 264T860 0H603Q633 155 657 269T699 465T725 604T735 701Q735 761 715 789T646 818V818ZM415 -68Q439 -68 457 -73T488 -89T507 -115T513 -149Q513 -196 492 -233T430 -297T332 -340T200 -361L182 -278Q209 -271 232 -263T272 -244T298 -221T307
-197Q307 -192 307 -189T305 -181T303 -171T302 -157Q302 -141 309 -125T330 -96T366 -76T415 -68V-68Z" />
<glyph unicode="&#x147;" glyph-name="Ncaron" horiz-adv-x="1286" d="M769 0L508 810L458 963V963L411 723L272 0H48L310 1350H626L863 652L912 508V508L955 730L1076 1350H1300L1038 0H769ZM572 1609L652 1717L874 1612L1130 1717L1183 1613L845 1438L572 1609Z" />
<glyph unicode="&#x148;" glyph-name="ncaron" horiz-adv-x="1090" d="M646 818Q607 818 566 789T487 708T417 581T369 418L288 0H31L225 1002H438L415 821Q444 865 482 902T562 967T651 1009T748 1024Q808 1024 854 1008T932 959T980 873T996 749Q996 687 986
619T957 464T913 264T860 0H603Q633 155 657 269T699 465T725 604T735 701Q735 761 715 789T646 818V818ZM658 1110L418 1356L510 1459L695 1315L938 1459L1003 1358L658 1110Z" />
<glyph unicode="&#x149;" glyph-name="napostrophe" horiz-adv-x="1212" d="M768 818Q729 818 688 789T609 708T539 581T491 418L410 0H153L347 1002H560L537 821Q566 865 604 902T684 967T773 1009T870 1024Q930 1024 976 1008T1054 959T1102 873T1118 749Q1118
687 1108 619T1079 464T1035 264T982 0H725Q755 155 779 269T821 465T847 604T857 701Q857 761 837 789T768 818V818ZM410 1529Q440 1529 460 1524T492 1509T508 1482T513 1445Q513 1392 497 1335T444 1223T349 1115T208 1018L137 1104Q185 1136 215 1162T263 1209T286
1248T292 1283Q292 1295 287 1303T276 1319T265 1340T260 1372Q260 1386 263 1404T271 1441T283 1475T300 1501Q317 1516 343 1522T410 1529V1529Z" />
<glyph unicode="&#x14a;" glyph-name="Eng" horiz-adv-x="1286" d="M1054 86Q1035 -9 1003 -78T928 -201T832 -293T719 -365L617 -247Q643 -228 669 -201T718 -140T756 -67T780 17H762L506 817L458 963V963L412 727L272 0H48L310 1350H626L862 655L912 508V508L955
732L1076 1350H1300L1054 86Z" />
<glyph unicode="&#x14b;" glyph-name="eng" horiz-adv-x="1090" d="M612 39Q623 87 636 146T663 268T690 397T713 519T729 624T735 701Q735 761 715 789T646 818Q607 818 566 789T487 708T417 581T369 418L288 0H31L225 1002H438L415 821Q444 865 482 902T562
967T651 1009T748 1024Q808 1024 854 1008T932 959T980 873T996 749Q996 707 991 655T976 546T954 429T929 309T903 193T880 89Q860 -2 830 -72T758 -198T665 -293T556 -365L423 -272Q454 -247 482 -216T535 -146T579 -61T612 39V39Z" />
<glyph unicode="&#x14c;" glyph-name="Omacron" horiz-adv-x="1282" d="M546 -22Q433 -22 347 4T203 84T116 223T86 424Q86 472 91 533T108 662T140 802T190 944T261 1079T357 1198Q396 1237 442 1269T543 1324T660 1359T796 1372Q908 1372 994 1346T1138 1266T1226
1127T1256 926Q1256 877 1251 817T1234 688T1202 547T1151 406T1080 271T985 152Q906 73 798 26T546 -22V-22ZM971 916Q971 984 958 1032T919 1110T853 1153T762 1166Q702 1166 655 1144T570 1084Q531 1045 501 990T448 874T411 748T387 625T375 516T371 436Q371
366 383 319T422 241T488 198T580 185Q639 185 686 207T771 267Q811 306 841 361T893 477T930 603T954 727T967 835T971 916V916ZM544 1483L576 1651H1145L1113 1483H544Z" />
<glyph unicode="&#x14d;" glyph-name="omacron" horiz-adv-x="1076" d="M432 -22Q344 -22 274 -2T156 60T82 169T56 327Q56 373 61 427T78 538T111 654T164 766T239 867T341 949T472 1004T638 1024Q727 1024 797 1004T915 942T989 833T1015 675Q1015 629 1010
575T993 464T960 348T907 236T831 135T729 53T598 -2T432 -22V-22ZM754 665Q754 757 718 796T602 835Q559 835 524 819T461 776T411 712T373 635T347 552T330 470T320 396T317 337Q317 245 353 206T469 167Q511 167 546 183T610 226T659 290T697 367T724 450T741
532T751 606T754 665V665ZM385 1175L420 1354H979L944 1175H385Z" />
<glyph unicode="&#x14e;" glyph-name="Obreve" horiz-adv-x="1282" d="M546 -22Q433 -22 347 4T203 84T116 223T86 424Q86 472 91 533T108 662T140 802T190 944T261 1079T357 1198Q396 1237 442 1269T543 1324T660 1359T796 1372Q908 1372 994 1346T1138 1266T1226
1127T1256 926Q1256 877 1251 817T1234 688T1202 547T1151 406T1080 271T985 152Q906 73 798 26T546 -22V-22ZM971 916Q971 984 958 1032T919 1110T853 1153T762 1166Q702 1166 655 1144T570 1084Q531 1045 501 990T448 874T411 748T387 625T375 516T371 436Q371
366 383 319T422 241T488 198T580 185Q639 185 686 207T771 267Q811 306 841 361T893 477T930 603T954 727T967 835T971 916V916ZM1157 1725Q1147 1647 1119 1591T1048 1500T949 1447T828 1429Q765 1429 713 1448T626 1505T576 1598T571 1725H726Q721 1696 726
1673T746 1632T786 1606T845 1596Q913 1596 951 1631T999 1725H1157Z" />
<glyph unicode="&#x14f;" glyph-name="obreve" horiz-adv-x="1076" d="M432 -22Q344 -22 274 -2T156 60T82 169T56 327Q56 373 61 427T78 538T111 654T164 766T239 867T341 949T472 1004T638 1024Q727 1024 797 1004T915 942T989 833T1015 675Q1015 629 1010 575T993
464T960 348T907 236T831 135T729 53T598 -2T432 -22V-22ZM754 665Q754 757 718 796T602 835Q559 835 524 819T461 776T411 712T373 635T347 552T330 470T320 396T317 337Q317 245 353 206T469 167Q511 167 546 183T610 226T659 290T697 367T724 450T741 532T751
606T754 665V665ZM995 1444Q980 1362 951 1301T877 1199T776 1136T650 1115Q579 1115 527 1136T442 1198T401 1300T407 1444H564Q556 1402 558 1373T574 1326T612 1300T670 1291Q704 1291 731 1299T779 1325T814 1373T837 1444H995Z" />
<glyph unicode="&#x150;" glyph-name="Ohungarumlaut" horiz-adv-x="1282" d="M546 -22Q433 -22 347 4T203 84T116 223T86 424Q86 472 91 533T108 662T140 802T190 944T261 1079T357 1198Q396 1237 442 1269T543 1324T660 1359T796 1372Q908 1372 994 1346T1138
1266T1226 1127T1256 926Q1256 877 1251 817T1234 688T1202 547T1151 406T1080 271T985 152Q906 73 798 26T546 -22V-22ZM971 916Q971 984 958 1032T919 1110T853 1153T762 1166Q702 1166 655 1144T570 1084Q531 1045 501 990T448 874T411 748T387 625T375 516T371
436Q371 366 383 319T422 241T488 198T580 185Q639 185 686 207T771 267Q811 306 841 361T893 477T930 603T954 727T967 835T971 916V916ZM1041 1426L960 1515L1325 1729L1438 1603L1041 1426ZM628 1424L536 1504L860 1737L988 1626L628 1424Z" />
<glyph unicode="&#x151;" glyph-name="ohungarumlaut" horiz-adv-x="1076" d="M432 -22Q344 -22 274 -2T156 60T82 169T56 327Q56 373 61 427T78 538T111 654T164 766T239 867T341 949T472 1004T638 1024Q727 1024 797 1004T915 942T989 833T1015 675Q1015 629
1010 575T993 464T960 348T907 236T831 135T729 53T598 -2T432 -22V-22ZM754 665Q754 757 718 796T602 835Q559 835 524 819T461 776T411 712T373 635T347 552T330 470T320 396T317 337Q317 245 353 206T469 167Q511 167 546 183T610 226T659 290T697 367T724 450T741
532T751 606T754 665V665ZM877 1110L752 1180L1019 1441L1194 1341L877 1110ZM490 1106L368 1176L612 1453L786 1355L490 1106Z" />
<glyph unicode="&#x152;" glyph-name="OE" horiz-adv-x="1564" d="M1583 1144H1154L1087 795H1443L1404 597H1048L971 209H1409L1370 0H737Q689 -11 640 -16T547 -22Q434 -22 348 4T204 84T116 223T86 424Q86 472 91 533T108 662T140 802T190 944T261 1079T357
1198Q396 1237 442 1269T543 1324T659 1359T794 1372Q850 1372 901 1367T995 1350H1624L1583 1144ZM883 1137Q859 1152 829 1159T762 1166Q702 1166 655 1144T570 1084Q531 1045 501 990T448 874T411 748T387 625T375 516T371 436Q371 366 384 319T423 241T489
198T580 185Q615 185 645 190T701 206L883 1137Z" />
<glyph unicode="&#x153;" glyph-name="oe" horiz-adv-x="1644" d="M1602 774Q1602 706 1571 647T1468 543T1277 474T980 448Q977 435 975 421T972 393T969 366T968 343Q968 300 979 269T1012 216T1067 184T1145 174Q1178 174 1215 177T1293 188T1373 205T1452
229L1476 82Q1391 36 1289 7T1075 -22Q1025 -22 982 -14T902 13T839 59T793 129Q761 95 724 67T642 19T545 -11T432 -22Q344 -22 274 -2T156 60T82 169T56 327Q56 373 61 427T78 538T111 654T164 766T239 867T341 949T472 1004T638 1024Q690 1024 735 1016T817
989T883 941T930 870Q961 904 996 932T1074 981T1165 1013T1271 1024Q1344 1024 1405 1007T1510 958T1578 880T1602 774V774ZM1359 758Q1359 780 1352 797T1330 827T1293 845T1240 852Q1197 852 1162 834T1097 783T1048 706T1013 608Q1086 608 1140 613T1232 627T1295
650T1334 680T1353 716T1359 758V758ZM754 665Q754 757 718 796T602 835Q559 835 524 819T461 776T411 712T373 635T347 552T330 470T320 396T317 337Q317 245 353 206T469 167Q511 167 546 183T610 226T659 290T697 367T724 450T741 532T751 606T754 665V665Z"
/>
<glyph unicode="&#x154;" glyph-name="Racute" horiz-adv-x="1110" d="M692 0L517 549H426L318 0H48L310 1350Q360 1351 409 1352T506 1353T603 1354T701 1355Q811 1355 891 1334T1025 1273T1104 1178T1130 1053Q1130 1008 1122 961T1096 868T1050 779T982 700T890
637T774 597L990 0H692ZM845 1015Q845 1050 834 1076T799 1121T736 1148T642 1157H542L463 747H573Q627 747 668 759T739 791T789 839T822 896T840 956T845 1015V1015ZM674 1438L600 1549L966 1717L1078 1560L674 1438Z" />
<glyph unicode="&#x155;" glyph-name="racute" horiz-adv-x="730" d="M725 773Q704 781 680 785T634 789Q600 789 562 768T487 702T419 586T368 416L288 0H31L225 1002H433L411 801Q436 848 468 888T537 958T615 1005T699 1022Q721 1022 744 1017T790 1000L725
773ZM533 1110L407 1180L676 1450L853 1350L533 1110Z" />
<glyph unicode="&#x156;" glyph-name="Rcommaaccent" horiz-adv-x="1110" d="M692 0L517 549H426L318 0H48L310 1350Q360 1351 409 1352T506 1353T603 1354T701 1355Q811 1355 891 1334T1025 1273T1104 1178T1130 1053Q1130 1008 1122 961T1096 868T1050 779T982
700T890 637T774 597L990 0H692ZM845 1015Q845 1050 834 1076T799 1121T736 1148T642 1157H542L463 747H573Q627 747 668 759T739 791T789 839T822 896T840 956T845 1015V1015ZM455 -68Q479 -68 497 -73T528 -89T547 -115T553 -149Q553 -196 532 -233T470 -297T372
-340T240 -361L222 -278Q249 -271 272 -263T312 -244T338 -221T347 -197Q347 -192 347 -189T345 -181T343 -171T342 -157Q342 -141 349 -125T370 -96T406 -76T455 -68V-68Z" />
<glyph unicode="&#x157;" glyph-name="rcommaaccent" horiz-adv-x="730" d="M725 773Q704 781 680 785T634 789Q600 789 562 768T487 702T419 586T368 416L288 0H31L225 1002H433L411 801Q436 848 468 888T537 958T615 1005T699 1022Q721 1022 744 1017T790 1000L725
773ZM397 -68Q421 -68 439 -73T470 -89T489 -115T495 -149Q495 -196 474 -233T412 -297T314 -340T182 -361L164 -278Q191 -271 214 -263T254 -244T280 -221T289 -197Q289 -192 289 -189T287 -181T285 -171T284 -157Q284 -141 291 -125T312 -96T348 -76T397 -68V-68Z"
/>
<glyph unicode="&#x158;" glyph-name="Rcaron" horiz-adv-x="1110" d="M692 0L517 549H426L318 0H48L310 1350Q360 1351 409 1352T506 1353T603 1354T701 1355Q811 1355 891 1334T1025 1273T1104 1178T1130 1053Q1130 1008 1122 961T1096 868T1050 779T982 700T890
637T774 597L990 0H692ZM845 1015Q845 1050 834 1076T799 1121T736 1148T642 1157H542L463 747H573Q627 747 668 759T739 791T789 839T822 896T840 956T845 1015V1015ZM449 1609L529 1717L751 1612L1007 1717L1060 1613L722 1438L449 1609Z" />
<glyph unicode="&#x159;" glyph-name="rcaron" horiz-adv-x="730" d="M725 773Q704 781 680 785T634 789Q600 789 562 768T487 702T419 586T368 416L288 0H31L225 1002H433L411 801Q436 848 468 888T537 958T615 1005T699 1022Q721 1022 744 1017T790 1000L725
773ZM522 1110L282 1356L374 1459L559 1315L802 1459L867 1358L522 1110Z" />
<glyph unicode="&#x15a;" glyph-name="Sacute" horiz-adv-x="986" d="M376 -21Q314 -21 260 -12T157 14T66 55T-14 109L68 250Q148 214 217 197T348 179Q408 179 456 193T537 235T587 300T605 387Q605 428 587 460T538 519T468 570T389 620T309 675T239 742T190
828T171 938Q171 1030 204 1108T301 1245T456 1337T661 1370Q710 1370 756 1364T845 1344T928 1309T1005 1261L925 1120Q896 1134 866 1144T806 1161T746 1171T689 1174Q632 1174 589 1160T517 1121T473 1061T458 987Q458 946 477 915T529 856T601 804T684 753T768
698T840 630T891 543T911 432Q911 336 875 254T770 110T602 14T376 -21V-21ZM648 1438L574 1549L940 1717L1052 1560L648 1438Z" />
<glyph unicode="&#x15b;" glyph-name="sacute" horiz-adv-x="832" d="M285 -21Q192 -21 114 0T-29 63L13 195Q55 186 89 180T152 169T205 163T253 161Q302 161 340 170T405 196T445 239T459 299Q459 328 444 348T403 385T345 415T279 445T213 481T155 527T115
592T99 681Q99 722 108 764T139 844T193 914T271 971T375 1009T507 1023Q546 1023 581 1019T651 1007T719 984T787 950L740 818Q709 825 683 831T632 840T587 845T543 847Q505 847 474 839T420 815T385 776T373 723Q373 686 399 663T467 620T555 581T642 530T710
454T737 339Q737 260 706 194T616 80T474 6T285 -21V-21ZM539 1110L413 1180L682 1450L859 1350L539 1110Z" />
<glyph unicode="&#x15c;" glyph-name="Scircumflex" horiz-adv-x="986" d="M376 -21Q314 -21 260 -12T157 14T66 55T-14 109L68 250Q148 214 217 197T348 179Q408 179 456 193T537 235T587 300T605 387Q605 428 587 460T538 519T468 570T389 620T309 675T239 742T190
828T171 938Q171 1030 204 1108T301 1245T456 1337T661 1370Q710 1370 756 1364T845 1344T928 1309T1005 1261L925 1120Q896 1134 866 1144T806 1161T746 1171T689 1174Q632 1174 589 1160T517 1121T473 1061T458 987Q458 946 477 915T529 856T601 804T684 753T768
698T840 630T891 543T911 432Q911 336 875 254T770 110T602 14T376 -21V-21ZM1008 1545L928 1438L706 1542L449 1438L397 1542L735 1717L1008 1545Z" />
<glyph unicode="&#x15d;" glyph-name="scircumflex" horiz-adv-x="832" d="M285 -21Q192 -21 114 0T-29 63L13 195Q55 186 89 180T152 169T205 163T253 161Q302 161 340 170T405 196T445 239T459 299Q459 328 444 348T403 385T345 415T279 445T213 481T155 527T115
592T99 681Q99 722 108 764T139 844T193 914T271 971T375 1009T507 1023Q546 1023 581 1019T651 1007T719 984T787 950L740 818Q709 825 683 831T632 840T587 845T543 847Q505 847 474 839T420 815T385 776T373 723Q373 686 399 663T467 620T555 581T642 530T710
454T737 339Q737 260 706 194T616 80T474 6T285 -21V-21ZM750 1113L564 1256L321 1113L255 1213L601 1461L840 1215L750 1113Z" />
<glyph unicode="&#x15e;" glyph-name="Scedilla" horiz-adv-x="986" d="M376 -21Q314 -21 260 -12T157 14T66 55T-14 109L68 250Q148 214 217 197T348 179Q408 179 456 193T537 235T587 300T605 387Q605 428 587 460T538 519T468 570T389 620T309 675T239 742T190
828T171 938Q171 1030 204 1108T301 1245T456 1337T661 1370Q710 1370 756 1364T845 1344T928 1309T1005 1261L925 1120Q896 1134 866 1144T806 1161T746 1171T689 1174Q632 1174 589 1160T517 1121T473 1061T458 987Q458 946 477 915T529 856T601 804T684 753T768
698T840 630T891 543T911 432Q911 336 875 254T770 110T602 14T376 -21V-21ZM465 -85Q466 -175 416 -243T264 -366L122 -308Q160 -277 184 -251T223 -199T242 -146T246 -85H465Z" />
<glyph unicode="&#x15f;" glyph-name="scedilla" horiz-adv-x="832" d="M285 -21Q192 -21 114 0T-29 63L13 195Q55 186 89 180T152 169T205 163T253 161Q302 161 340 170T405 196T445 239T459 299Q459 328 444 348T403 385T345 415T279 445T213 481T155 527T115
592T99 681Q99 722 108 764T139 844T193 914T271 971T375 1009T507 1023Q546 1023 581 1019T651 1007T719 984T787 950L740 818Q709 825 683 831T632 840T587 845T543 847Q505 847 474 839T420 815T385 776T373 723Q373 686 399 663T467 620T555 581T642 530T710
454T737 339Q737 260 706 194T616 80T474 6T285 -21V-21ZM379 -85Q380 -175 330 -243T178 -366L36 -308Q74 -277 98 -251T137 -199T156 -146T160 -85H379Z" />
<glyph unicode="&#x160;" glyph-name="Scaron" horiz-adv-x="986" d="M376 -21Q314 -21 260 -12T157 14T66 55T-14 109L68 250Q148 214 217 197T348 179Q408 179 456 193T537 235T587 300T605 387Q605 428 587 460T538 519T468 570T389 620T309 675T239 742T190
828T171 938Q171 1030 204 1108T301 1245T456 1337T661 1370Q710 1370 756 1364T845 1344T928 1309T1005 1261L925 1120Q896 1134 866 1144T806 1161T746 1171T689 1174Q632 1174 589 1160T517 1121T473 1061T458 987Q458 946 477 915T529 856T601 804T684 753T768
698T840 630T891 543T911 432Q911 336 875 254T770 110T602 14T376 -21V-21ZM397 1609L477 1717L699 1612L955 1717L1008 1613L670 1438L397 1609Z" />
<glyph unicode="&#x161;" glyph-name="scaron" horiz-adv-x="832" d="M285 -21Q192 -21 114 0T-29 63L13 195Q55 186 89 180T152 169T205 163T253 161Q302 161 340 170T405 196T445 239T459 299Q459 328 444 348T403 385T345 415T279 445T213 481T155 527T115
592T99 681Q99 722 108 764T139 844T193 914T271 971T375 1009T507 1023Q546 1023 581 1019T651 1007T719 984T787 950L740 818Q709 825 683 831T632 840T587 845T543 847Q505 847 474 839T420 815T385 776T373 723Q373 686 399 663T467 620T555 581T642 530T710
454T737 339Q737 260 706 194T616 80T474 6T285 -21V-21ZM526 1110L286 1356L378 1459L563 1315L806 1459L871 1358L526 1110Z" />
<glyph unicode="&#x162;" glyph-name="uni0162" horiz-adv-x="934" d="M721 1141L500 0H230L451 1141H150L190 1350H1066L1025 1141H721ZM344 -68Q368 -68 386 -73T417 -89T436 -115T442 -149Q442 -196 421 -233T359 -297T261 -340T129 -361L111 -278Q138 -271
161 -263T201 -244T227 -221T236 -197Q236 -192 236 -189T234 -181T232 -171T231 -157Q231 -141 238 -125T259 -96T295 -76T344 -68V-68Z" />
<glyph unicode="&#x163;" glyph-name="uni0163" horiz-adv-x="696" d="M573 46Q534 27 500 15T434 -6T373 -17T315 -21Q258 -21 216 -11T146 22T105 79T91 161Q91 181 93 206T104 272L210 822H83L118 1002H254Q269 1036 284 1070T313 1140T342 1214T371 1294H558L502
1002H724L690 822H467L370 321Q365 292 362 273T359 237Q359 202 376 187T434 172Q446 172 460 173T491 176T525 183T566 195L573 46ZM285 -68Q309 -68 327 -73T358 -89T377 -115T383 -149Q383 -196 362 -233T300 -297T202 -340T70 -361L52 -278Q79 -271 102 -263T142
-244T168 -221T177 -197Q177 -192 177 -189T175 -181T173 -171T172 -157Q172 -141 179 -125T200 -96T236 -76T285 -68V-68Z" />
<glyph unicode="&#x164;" glyph-name="Tcaron" horiz-adv-x="934" d="M721 1141L500 0H230L451 1141H150L190 1350H1066L1025 1141H721ZM369 1609L449 1717L671 1612L927 1717L980 1613L642 1438L369 1609Z" />
<glyph unicode="&#x165;" glyph-name="tcaron" horiz-adv-x="758" d="M573 46Q534 27 500 15T434 -6T373 -17T315 -21Q258 -21 216 -11T146 22T105 79T91 161Q91 181 93 206T104 272L210 822H83L118 1002H254Q269 1036 284 1070T313 1140T342 1214T371 1294H558L502
1002H724L690 822H467L370 321Q365 292 362 273T359 237Q359 202 376 187T434 172Q446 172 460 173T491 176T525 183T566 195L573 46ZM741 1112L616 1139L756 1516L932 1476L741 1112Z" />
<glyph unicode="&#x166;" glyph-name="Tbar" horiz-adv-x="934" d="M721 1141L640 728H838L803 546H606L500 0H230L335 546H140L174 728H370L451 1141H150L190 1350H1066L1025 1141H721Z" />
<glyph unicode="&#x167;" glyph-name="tbar" horiz-adv-x="696" d="M573 46Q534 27 500 15T434 -6T373 -17T315 -21Q258 -21 216 -11T146 22T105 79T91 161Q91 181 93 206T104 272L134 432H30L64 609H169L210 822H83L118 1002H254Q269 1036 284 1070T313 1140T342
1214T371 1294H558L502 1002H724L690 822H467L426 609H623L589 432H391L370 321Q365 292 362 273T359 237Q359 202 376 187T434 172Q446 172 460 173T491 176T525 183T566 195L573 46Z" />
<glyph unicode="&#x168;" glyph-name="Utilde" horiz-adv-x="1304" d="M1149 472Q1122 333 1068 239T936 87T759 4T546 -22Q443 -22 364 -2T231 60T148 166T120 321Q120 354 124 393T139 486L307 1350H577L411 498Q402 451 399 417T395 356Q395 307 406 273T442
217T502 186T587 176Q644 176 690 190T774 238T839 329T883 470L1055 1350H1321L1149 472ZM1209 1627Q1185 1583 1159 1549T1103 1493T1038 1458T960 1446Q927 1446 902 1453T855 1471T818 1494T786 1517T756 1535T726 1543Q711 1543 699 1538T674 1522T646 1493T611
1449L507 1521Q531 1565 557 1599T613 1655T678 1690T756 1702Q805 1702 839 1687T898 1653T944 1619T989 1604Q1003 1604 1015 1608T1041 1624T1070 1654T1104 1699L1209 1627Z" />
<glyph unicode="&#x169;" glyph-name="utilde" horiz-adv-x="1090" d="M859 0H647L670 181Q639 137 602 100T523 35T433 -7T337 -22Q276 -22 230 -6T152 44T104 130T88 254Q88 315 98 383T127 538T170 738T224 1002H482Q451 847 427 733T386 537T359 398T349 302Q349
241 369 213T439 184Q477 184 518 213T598 294T667 421T716 584L797 1002H1054L859 0ZM1028 1321Q1003 1276 977 1242T922 1185T859 1151T784 1139Q752 1139 727 1146T682 1164T645 1187T614 1211T585 1229T555 1237Q541 1237 529 1232T505 1216T477 1187T443 1142L343
1215Q368 1259 393 1293T448 1350T510 1385T585 1397Q617 1397 642 1390T687 1371T724 1348T756 1325T785 1307T815 1299Q829 1299 841 1303T866 1319T893 1349T928 1394L1028 1321Z" />
<glyph unicode="&#x16a;" glyph-name="Umacron" horiz-adv-x="1304" d="M1149 472Q1122 333 1068 239T936 87T759 4T546 -22Q443 -22 364 -2T231 60T148 166T120 321Q120 354 124 393T139 486L307 1350H577L411 498Q402 451 399 417T395 356Q395 307 406 273T442
217T502 186T587 176Q644 176 690 190T774 238T839 329T883 470L1055 1350H1321L1149 472ZM555 1483L587 1651H1156L1124 1483H555Z" />
<glyph unicode="&#x16b;" glyph-name="umacron" horiz-adv-x="1090" d="M859 0H647L670 181Q639 137 602 100T523 35T433 -7T337 -22Q276 -22 230 -6T152 44T104 130T88 254Q88 315 98 383T127 538T170 738T224 1002H482Q451 847 427 733T386 537T359 398T349
302Q349 241 369 213T439 184Q477 184 518 213T598 294T667 421T716 584L797 1002H1054L859 0ZM390 1175L425 1354H984L949 1175H390Z" />
<glyph unicode="&#x16c;" glyph-name="Ubreve" horiz-adv-x="1304" d="M1149 472Q1122 333 1068 239T936 87T759 4T546 -22Q443 -22 364 -2T231 60T148 166T120 321Q120 354 124 393T139 486L307 1350H577L411 498Q402 451 399 417T395 356Q395 307 406 273T442
217T502 186T587 176Q644 176 690 190T774 238T839 329T883 470L1055 1350H1321L1149 472ZM1168 1725Q1158 1647 1130 1591T1059 1500T960 1447T839 1429Q776 1429 724 1448T637 1505T587 1598T582 1725H737Q732 1696 737 1673T757 1632T797 1606T856 1596Q924
1596 962 1631T1010 1725H1168Z" />
<glyph unicode="&#x16d;" glyph-name="ubreve" horiz-adv-x="1090" d="M859 0H647L670 181Q639 137 602 100T523 35T433 -7T337 -22Q276 -22 230 -6T152 44T104 130T88 254Q88 315 98 383T127 538T170 738T224 1002H482Q451 847 427 733T386 537T359 398T349 302Q349
241 369 213T439 184Q477 184 518 213T598 294T667 421T716 584L797 1002H1054L859 0ZM999 1444Q984 1362 955 1301T881 1199T780 1136T654 1115Q583 1115 531 1136T446 1198T405 1300T411 1444H568Q560 1402 562 1373T578 1326T616 1300T674 1291Q708 1291 735
1299T783 1325T818 1373T841 1444H999Z" />
<glyph unicode="&#x16e;" glyph-name="Uring" horiz-adv-x="1304" d="M1149 472Q1122 333 1068 239T936 87T759 4T546 -22Q443 -22 364 -2T231 60T148 166T120 321Q120 354 124 393T139 486L307 1350H577L411 498Q402 451 399 417T395 356Q395 307 406 273T442
217T502 186T587 176Q644 176 690 190T774 238T839 329T883 470L1055 1350H1321L1149 472ZM824 1381Q720 1381 669 1414T618 1512Q618 1553 634 1590T682 1655T765 1700T881 1717Q986 1717 1036 1684T1087 1586Q1087 1545 1071 1508T1023 1443T941 1398T824 1381V1381ZM934
1574Q934 1599 918 1610T866 1622Q839 1622 821 1614T792 1592T776 1560T771 1524Q771 1499 787 1488T839 1476Q866 1476 884 1484T913 1507T929 1538T934 1574V1574Z" />
<glyph unicode="&#x16f;" glyph-name="uring" horiz-adv-x="1090" d="M859 0H647L670 181Q639 137 602 100T523 35T433 -7T337 -22Q276 -22 230 -6T152 44T104 130T88 254Q88 315 98 383T127 538T170 738T224 1002H482Q451 847 427 733T386 537T359 398T349 302Q349
241 369 213T439 184Q477 184 518 213T598 294T667 421T716 584L797 1002H1054L859 0ZM665 1087Q608 1087 568 1097T501 1127T462 1177T450 1245Q450 1287 463 1330T508 1408T592 1465T721 1488Q777 1488 817 1478T884 1447T924 1398T937 1329Q937 1301 931 1273T912
1217T878 1167T827 1125T757 1097T665 1087V1087ZM777 1317Q777 1343 761 1357T710 1371Q680 1371 661 1360T630 1333T614 1296T609 1258Q609 1231 625 1217T677 1203Q707 1203 726 1214T757 1242T772 1279T777 1317V1317Z" />
<glyph unicode="&#x170;" glyph-name="Uhungarumlaut" horiz-adv-x="1304" d="M1149 472Q1122 333 1068 239T936 87T759 4T546 -22Q443 -22 364 -2T231 60T148 166T120 321Q120 354 124 393T139 486L307 1350H577L411 498Q402 451 399 417T395 356Q395 307 406
273T442 217T502 186T587 176Q644 176 690 190T774 238T839 329T883 470L1055 1350H1321L1149 472ZM1041 1426L960 1515L1325 1729L1438 1603L1041 1426ZM628 1424L536 1504L860 1737L988 1626L628 1424Z" />
<glyph unicode="&#x171;" glyph-name="uhungarumlaut" horiz-adv-x="1090" d="M859 0H647L670 181Q639 137 602 100T523 35T433 -7T337 -22Q276 -22 230 -6T152 44T104 130T88 254Q88 315 98 383T127 538T170 738T224 1002H482Q451 847 427 733T386 537T359 398T349
302Q349 241 369 213T439 184Q477 184 518 213T598 294T667 421T716 584L797 1002H1054L859 0ZM880 1110L755 1180L1022 1441L1197 1341L880 1110ZM493 1106L371 1176L615 1453L789 1355L493 1106Z" />
<glyph unicode="&#x172;" glyph-name="Uogonek" horiz-adv-x="1304" d="M1149 472Q1138 412 1121 362T1084 270T1039 194T989 133Q956 101 923 74T858 21T795 -28T737 -80Q705 -112 692 -137T679 -184Q679 -202 690 -212T724 -223Q748 -223 771 -218T817 -201L838
-315Q791 -340 739 -352T644 -365Q550 -365 508 -330T465 -229Q465 -206 474 -180T500 -126T546 -70T612 -15Q593 -19 576 -20T546 -22Q443 -22 364 -2T231 60T148 166T120 321Q120 354 124 393T139 486L307 1350H577L411 498Q402 451 399 417T395 356Q395 307
406 273T442 217T502 186T587 176Q644 176 691 190T775 239T839 329T883 470L1055 1350H1321L1149 472Z" />
<glyph unicode="&#x173;" glyph-name="uogonek" horiz-adv-x="1090" d="M859 0Q831 -7 806 -28T761 -75T729 -132T716 -186Q716 -204 727 -213T763 -223Q785 -223 811 -217T859 -200L871 -313Q847 -325 822 -334T769 -351T716 -361T665 -365Q584 -365 543 -333T501
-250Q501 -217 511 -185T540 -121T584 -60T642 0L670 181Q639 137 602 100T523 35T433 -7T337 -22Q276 -22 230 -6T152 44T104 130T88 254Q88 315 98 383T127 538T170 738T224 1002H482Q451 847 427 733T386 537T359 398T349 302Q349 241 369 213T438 184Q476 184
518 213T598 294T667 421T716 584L797 1002H1054L859 0Z" />
<glyph unicode="&#x174;" glyph-name="Wcircumflex" horiz-adv-x="1728" d="M1857 1350Q1787 1167 1717 995T1575 656T1429 327T1276 0H982L943 726L944 938H942L862 726L555 0H256Q238 168 227 330T208 658T198 993T195 1350H477Q474 1226 475 1107T478 865T483
613T487 340H489L558 520L910 1350H1172L1211 523V340H1214Q1267 472 1317 598T1415 850T1508 1099T1599 1350H1857ZM1381 1545L1301 1438L1079 1542L822 1438L770 1542L1108 1717L1381 1545Z" />
<glyph unicode="&#x175;" glyph-name="wcircumflex" horiz-adv-x="1520" d="M1576 1002Q1536 876 1488 752T1383 504T1263 253T1128 0H828L790 588L795 715H792L754 592L506 0H193L126 1002H397L419 449L421 280H423L481 435L713 1002H1009L1044 430V282H1046Q1089
378 1128 470T1203 651T1268 827T1323 1002H1576ZM1090 1113L904 1256L661 1113L595 1213L941 1461L1180 1215L1090 1113Z" />
<glyph unicode="&#x176;" glyph-name="Ycircumflex" horiz-adv-x="978" d="M1151 1350Q1088 1236 1025 1130T898 926T767 737T633 564L523 0H253L363 564Q328 652 298 742T241 928T193 1129T153 1350H439Q450 1276 462 1207T489 1071T520 940T556 812Q600 872
642 938T725 1073T802 1212T874 1350H1151ZM994 1545L914 1438L692 1542L435 1438L383 1542L721 1717L994 1545Z" />
<glyph unicode="&#x177;" glyph-name="ycircumflex" horiz-adv-x="962" d="M1025 1002Q956 805 886 642T747 346T610 109T477 -73T348 -205T225 -294T112 -343T9 -358Q-30 -358 -70 -348T-148 -316L-119 -167Q-109 -169 -95 -170T-67 -172T-40 -173T-16 -174Q11
-174 34 -171T79 -161T119 -140T159 -107Q172 -94 183 -79T203 -48T215 -12T219 30Q219 59 217 99T206 186L117 1002H386L435 440Q440 406 442 374T445 307Q445 292 444 277T441 247T437 218T430 192Q475 280 521 379T610 584T689 795T753 1002H1025ZM811 1113L625
1256L382 1113L316 1213L662 1461L901 1215L811 1113Z" />
<glyph unicode="&#x178;" glyph-name="Ydieresis" horiz-adv-x="978" d="M1151 1350Q1088 1236 1025 1130T898 926T767 737T633 564L523 0H253L363 564Q328 652 298 742T241 928T193 1129T153 1350H439Q450 1276 462 1207T489 1071T520 940T556 812Q600 872 642
938T725 1073T802 1212T874 1350H1151ZM1033 1597Q1033 1580 1031 1563T1023 1530T1012 1502T999 1483Q982 1466 958 1459T891 1452Q860 1452 839 1456T805 1469T787 1493T781 1530Q781 1547 783 1564T790 1597T801 1625T814 1645Q832 1662 856 1668T922 1675Q953
1675 974 1671T1008 1658T1027 1634T1033 1597V1597ZM621 1597Q621 1580 619 1563T611 1530T600 1502T587 1483Q570 1466 546 1459T479 1452Q449 1452 428 1456T394 1469T375 1493T369 1530Q369 1547 371 1564T379 1597T390 1625T403 1645Q420 1662 444 1668T511
1675Q542 1675 563 1671T597 1658T615 1634T621 1597V1597Z" />
<glyph unicode="&#x179;" glyph-name="Zacute" horiz-adv-x="980" d="M-37 0L-2 183L684 1138H206L254 1350H1059L1023 1169L336 215H862L815 0H-37ZM653 1438L579 1549L945 1717L1057 1560L653 1438Z" />
<glyph unicode="&#x17a;" glyph-name="zacute" horiz-adv-x="800" d="M633 0H-41L-11 159L463 811H132L178 1002H807L777 844L300 195H678L633 0ZM552 1110L426 1180L695 1450L872 1350L552 1110Z" />
<glyph unicode="&#x17b;" glyph-name="Zdotaccent" horiz-adv-x="980" d="M-37 0L-2 183L684 1138H206L254 1350H1059L1023 1169L336 215H862L815 0H-37ZM676 1448Q638 1448 614 1452T574 1465T553 1489T547 1526Q547 1547 550 1567T558 1603T571 1633T587 1655Q596
1664 607 1670T634 1682T671 1689T723 1691Q761 1691 786 1687T826 1674T847 1649T853 1613Q853 1591 850 1572T841 1535T828 1505T813 1484Q803 1474 792 1468T766 1457T728 1450T676 1448V1448Z" />
<glyph unicode="&#x17c;" glyph-name="zdotaccent" horiz-adv-x="800" d="M633 0H-41L-11 159L463 811H132L178 1002H807L777 844L300 195H678L633 0ZM531 1143Q493 1143 466 1147T422 1161T398 1186T390 1225Q390 1237 393 1257T402 1297T416 1335T435 1364Q444
1373 456 1380T484 1391T521 1398T569 1400Q607 1400 633 1396T677 1382T702 1357T710 1318Q710 1306 707 1287T698 1247T684 1208T665 1180Q655 1170 643 1163T615 1152T579 1145T531 1143V1143Z" />
<glyph unicode="&#x17d;" glyph-name="Zcaron" horiz-adv-x="980" d="M-37 0L-2 183L684 1138H206L254 1350H1059L1023 1169L336 215H862L815 0H-37ZM401 1609L481 1717L703 1612L959 1717L1012 1613L674 1438L401 1609Z" />
<glyph unicode="&#x17e;" glyph-name="zcaron" horiz-adv-x="800" d="M633 0H-41L-11 159L463 811H132L178 1002H807L777 844L300 195H678L633 0ZM515 1110L275 1356L367 1459L552 1315L795 1459L860 1358L515 1110Z" />
<glyph unicode="&#x17f;" glyph-name="longs" horiz-adv-x="542" d="M279 -46Q264 -121 238 -180T172 -279T75 -342T-59 -365Q-97 -365 -129 -360T-189 -346T-242 -326T-286 -302L-230 -155Q-200 -166 -172 -172T-116 -179Q-57 -179 -25 -150T21 -49L248 1126Q262
1200 286 1258T349 1357T440 1418T566 1440Q636 1440 690 1425T785 1386L727 1234Q702 1245 678 1249T629 1254Q577 1254 548 1225T506 1130L279 -46Z" />
<glyph unicode="&#x192;" glyph-name="florin" horiz-adv-x="1000" d="M1017 1158Q983 1169 945 1176T874 1184Q843 1184 819 1176T776 1150T744 1105T721 1043L654 767H933L899 596H616L495 94Q476 15 446 -44T373 -142T273 -202T143 -222Q104 -222 70 -217T6
-204T-51 -185T-99 -159L-51 -16Q-17 -27 20 -34T88 -41Q116 -41 140 -34T183 -9T216 35T241 104L360 596H112L145 767H398L467 1049Q483 1118 510 1176T580 1276T683 1341T825 1365Q862 1365 896 1360T960 1347T1016 1326T1065 1300L1017 1158Z" />
<glyph unicode="&#x1e6;" glyph-name="Gcaron" horiz-adv-x="1152" d="M954 132Q906 98 854 70T744 22T621 -10T482 -22Q385 -22 312 6T188 90T112 230T86 426Q86 499 94 572T118 717T157 856T212 986T281 1102T363 1201Q447 1284 549 1328T771 1372Q841 1372
899 1358T1003 1317T1084 1253T1144 1169L1013 1058Q986 1082 958 1100T900 1132T840 1152T776 1159Q716 1159 666 1136T574 1071Q539 1036 510 990T459 892T419 781T390 665T373 548T367 438Q367 371 380 324T416 248T472 206T546 193Q573 193 597 197T642 208T679
223T710 239L777 578H616L655 776H1080L954 132ZM504 1609L584 1717L806 1612L1062 1717L1115 1613L777 1438L504 1609Z" />
<glyph unicode="&#x1e7;" glyph-name="gcaron" horiz-adv-x="1066" d="M835 1Q814 -107 769 -177T661 -289T519 -348T352 -365Q312 -365 269 -360T182 -345T92 -319T2 -283L41 -141Q142 -158 217 -165T348 -173Q402 -173 441 -164T507 -136T551 -84T577 -5L593
77Q595 94 600 112T609 148T619 182T628 213Q604 174 571 138T499 74T415 30T325 13Q256 13 206 38T122 107T73 212T57 344Q57 391 62 445T82 555T118 668T175 777T254 875T360 953T496 1005T665 1024Q734 1024 798 1018T914 1004Q973 995 1026 983L835 1ZM322
369Q322 331 328 303T346 255T377 225T418 215Q454 215 494 241T573 316T644 437T693 598L737 822Q721 827 703 831Q687 835 666 838T622 841Q566 841 522 818T445 755T388 667T350 566T329 462T322 369V369ZM634 1110L394 1356L486 1459L671 1315L914 1459L979
1358L634 1110Z" />
<glyph unicode="&#x1fa;" glyph-name="Aringacute" horiz-adv-x="1148" d="M747 0Q747 29 747 63T745 132T743 201T740 267H293Q281 238 268 206T241 139T213 70T187 0H-81Q-10 168 66 339T223 681T386 1019T556 1350H910Q935 1177 954 1008T987 672T1011 338T1029
0H747ZM736 468Q730 546 723 627T709 789T693 952T674 1112Q639 1040 601 959T524 795T447 628T377 468H736ZM994 1770L1030 1680L680 1627L661 1691L994 1770ZM751 1373Q696 1373 657 1381T594 1403T558 1436T546 1480Q546 1510 562 1532T607 1571T678 1595T771
1603Q827 1603 866 1595T929 1573T965 1540T977 1496Q977 1466 961 1444T915 1405T844 1381T751 1373V1373ZM830 1490Q830 1500 827 1509T816 1524T795 1533T765 1536Q746 1536 732 1533T709 1523T696 1507T692 1486Q692 1475 696 1467T707 1452T727 1443T758 1440Q777
1440 790 1443T812 1453T825 1469T830 1490V1490Z" />
<glyph unicode="&#x1fb;" glyph-name="aringacute" horiz-adv-x="1066" d="M53 311Q53 378 63 457T100 616T170 768T282 899T444 990T665 1024Q734 1024 798 1018T914 1004Q973 995 1026 983L835 0H622L645 181Q614 137 577 100T497 35T409 -7T317 -22Q248 -22
198 5T115 77T68 183T53 311V311ZM317 346Q317 262 340 221T413 179Q449 179 489 205T568 283T639 409T691 584L737 822Q721 827 703 831Q687 835 666 838T622 841Q562 841 516 815T437 745T380 648T343 539T323 433T317 346V346ZM874 1770L1048 1685L781 1492L659
1548L874 1770ZM666 1093Q562 1093 515 1127T467 1225Q467 1260 479 1296T521 1361T598 1409T719 1428Q822 1428 869 1395T917 1297Q917 1273 912 1249T895 1203T864 1160T816 1125T751 1102T666 1093V1093ZM771 1286Q771 1310 756 1322T707 1334Q679 1334 661
1325T631 1301T616 1268T612 1235Q612 1211 627 1200T676 1188Q705 1188 723 1197T752 1221T767 1253T771 1286V1286Z" />
<glyph unicode="&#x1fc;" glyph-name="AEacute" horiz-adv-x="1470" d="M842 0H573L624 267H272Q255 237 237 204T200 136T163 67T128 0H-142Q-43 176 57 348T260 689T467 1023T679 1350H1531L1490 1144H1065L997 795H1350L1311 597H958L883 209H1316L1277 0H842ZM795
1147H793Q735 1056 680 968T573 794T473 626T380 468H664L795 1147ZM1085 1438L1011 1549L1377 1717L1489 1560L1085 1438Z" />
<glyph unicode="&#x1fd;" glyph-name="aeacute" horiz-adv-x="1542" d="M1371 82Q1285 36 1183 7T970 -22Q910 -22 859 -11T766 25T693 87T643 174Q611 130 569 94T480 32T384 -8T289 -22Q220 -22 168 -6T80 42T26 117T8 218Q8 277 23 329T69 424T147 502T257
559T402 595T580 608H653L666 676Q670 689 671 702T672 728Q672 784 633 811T510 838Q472 838 432 833T351 820T273 802T198 779L190 937Q239 956 287 972T385 999T489 1017T599 1023Q647 1023 687 1016T758 994T813 958T854 907Q919 967 995 995T1166 1024Q1239
1024 1300 1007T1404 958T1472 880T1497 774Q1497 706 1466 647T1363 543T1171 474T874 448Q871 432 869 418T866 390T863 365T862 343Q862 300 873 269T906 216T962 184T1039 174Q1072 174 1110 177T1187 188T1267 205T1346 229L1371 82ZM1253 758Q1253 780 1246
797T1224 827T1187 845T1135 852Q1091 852 1056 834T992 783T942 706T908 608Q981 608 1035 613T1127 627T1189 650T1228 680T1247 716T1253 758V758ZM547 455Q495 455 454 449T381 431T329 403T294 366T274 322T268 272Q268 220 295 193T380 165Q405 165 430 174T479
200T524 239T563 286T592 337T610 391L623 455H547ZM902 1110L776 1180L1045 1450L1222 1350L902 1110Z" />
<glyph unicode="&#x1fe;" glyph-name="Oslashacute" horiz-adv-x="1282" d="M546 -22Q458 -22 388 -5T266 47L104 -159L-25 -80L153 144Q120 195 103 263T86 424Q86 472 91 533T108 662T140 802T190 944T261 1079T357 1198Q396 1237 442 1269T543 1324T660 1359T796
1372Q885 1372 954 1355T1075 1304L1238 1509L1367 1430L1189 1206Q1221 1155 1238 1086T1256 926Q1256 877 1251 817T1234 688T1202 547T1151 406T1080 271T985 152Q906 73 798 26T546 -22V-22ZM555 1093Q494 1033 452 935T382 695Q363 600 359 524T358 397L929
1119Q900 1150 861 1165T765 1180Q700 1180 648 1157T555 1093V1093ZM787 258Q816 288 841 328T888 417T927 525T959 655Q979 750 983 826T983 953L412 232Q441 200 480 186T576 171Q641 171 693 194T787 258V258ZM803 1460L729 1571L1095 1739L1207 1582L803 1460Z"
/>
<glyph unicode="&#x1ff;" glyph-name="oslashacute" horiz-adv-x="1076" d="M1015 675Q1015 629 1010 575T993 464T960 348T907 236T831 135T729 53T598 -2T432 -22Q378 -22 330 -14T241 14L102 -158L-20 -77L120 99Q87 139 72 196T56 327Q56 373 61 427T78 538T111
654T164 766T239 867T341 949T472 1004T638 1024Q697 1024 746 1014T836 985L976 1160L1098 1079L954 899Q985 859 1000 805T1015 675V675ZM763 586Q763 608 760 624T749 657L374 177Q392 164 416 159T472 154Q514 154 549 167T612 203T663 256T701 321T730 393T749
465T759 531T763 586V586ZM307 406Q307 384 310 367T320 335L703 821Q684 836 659 842T599 848Q555 848 519 834T455 796T404 740T366 672T338 599T320 526T310 459T307 406V406ZM639 1110L513 1180L782 1450L959 1350L639 1110Z" />
<glyph unicode="&#x218;" glyph-name="Scommaaccent" horiz-adv-x="986" d="M376 -21Q314 -21 260 -12T157 14T66 55T-14 109L68 250Q148 214 217 197T348 179Q408 179 456 193T537 235T587 300T605 387Q605 428 587 460T538 519T468 570T389 620T309 675T239
742T190 828T171 938Q171 1030 204 1108T301 1245T456 1337T661 1370Q710 1370 756 1364T845 1344T928 1309T1005 1261L925 1120Q896 1134 866 1144T806 1161T746 1171T689 1174Q632 1174 589 1160T517 1121T473 1061T458 987Q458 946 477 915T529 856T601 804T684
753T768 698T840 630T891 543T911 432Q911 336 875 254T770 110T602 14T376 -21V-21ZM374 -68Q398 -68 416 -73T447 -89T466 -115T472 -149Q472 -196 451 -233T389 -297T291 -340T159 -361L141 -278Q168 -271 191 -263T231 -244T257 -221T266 -197Q266 -192 266
-189T264 -181T262 -171T261 -157Q261 -141 268 -125T289 -96T325 -76T374 -68V-68Z" />
<glyph unicode="&#x219;" glyph-name="scommaaccent" horiz-adv-x="832" d="M285 -21Q192 -21 114 0T-29 63L13 195Q55 186 89 180T152 169T205 163T253 161Q302 161 340 170T405 196T445 239T459 299Q459 328 444 348T403 385T345 415T279 445T213 481T155 527T115
592T99 681Q99 722 108 764T139 844T193 914T271 971T375 1009T507 1023Q546 1023 581 1019T651 1007T719 984T787 950L740 818Q709 825 683 831T632 840T587 845T543 847Q505 847 474 839T420 815T385 776T373 723Q373 686 399 663T467 620T555 581T642 530T710
454T737 339Q737 260 706 194T616 80T474 6T285 -21V-21ZM281 -68Q305 -68 323 -73T354 -89T373 -115T379 -149Q379 -196 358 -233T296 -297T198 -340T66 -361L48 -278Q75 -271 98 -263T138 -244T164 -221T173 -197Q173 -192 173 -189T171 -181T169 -171T168 -157Q168
-141 175 -125T196 -96T232 -76T281 -68V-68Z" />
<glyph unicode="&#x21a;" glyph-name="Tcommaaccent" horiz-adv-x="934" d="M721 1141L500 0H230L451 1141H150L190 1350H1066L1025 1141H721ZM344 -68Q368 -68 386 -73T417 -89T436 -115T442 -149Q442 -196 421 -233T359 -297T261 -340T129 -361L111 -278Q138
-271 161 -263T201 -244T227 -221T236 -197Q236 -192 236 -189T234 -181T232 -171T231 -157Q231 -141 238 -125T259 -96T295 -76T344 -68V-68Z" />
<glyph unicode="&#x21b;" glyph-name="tcommaaccent" horiz-adv-x="696" d="M573 46Q534 27 500 15T434 -6T373 -17T315 -21Q258 -21 216 -11T146 22T105 79T91 161Q91 181 93 206T104 272L210 822H83L118 1002H254Q269 1036 284 1070T313 1140T342 1214T371 1294H558L502
1002H724L690 822H467L370 321Q365 292 362 273T359 237Q359 202 376 187T434 172Q446 172 460 173T491 176T525 183T566 195L573 46ZM285 -68Q309 -68 327 -73T358 -89T377 -115T383 -149Q383 -196 362 -233T300 -297T202 -340T70 -361L52 -278Q79 -271 102 -263T142
-244T168 -221T177 -197Q177 -192 177 -189T175 -181T173 -171T172 -157Q172 -141 179 -125T200 -96T236 -76T285 -68V-68Z" />
<glyph unicode="&#x237;" glyph-name="dotlessj" horiz-adv-x="518" d="M305 90Q291 17 268 -45T208 -161T122 -265T4 -364L-155 -280Q-119 -245 -87 -206T-30 -124T14 -36T42 58L225 1002H482L305 90Z" />
<glyph unicode="&#x2bc;" glyph-name="apostrophe" horiz-adv-x="432" d="M410 1529Q440 1529 460 1524T492 1509T508 1482T513 1445Q513 1392 497 1335T444 1223T349 1115T208 1018L137 1104Q185 1136 215 1162T263 1209T286 1248T292 1283Q292 1295 287 1303T276
1319T265 1340T260 1372Q260 1386 263 1404T271 1441T283 1475T300 1501Q317 1516 343 1522T410 1529V1529Z" />
<glyph unicode="&#x2c6;" glyph-name="circumflex" horiz-adv-x="702" d="M685 1113L499 1256L256 1113L190 1213L536 1461L775 1215L685 1113Z" />
<glyph unicode="&#x2c7;" glyph-name="caron" horiz-adv-x="700" d="M446 1110L206 1356L298 1459L483 1315L726 1459L791 1358L446 1110Z" />
<glyph unicode="&#x2c9;" glyph-name="macron" horiz-adv-x="674" d="M180 1175L215 1354H774L739 1175H180Z" />
<glyph unicode="&#x2d8;" glyph-name="breve" horiz-adv-x="716" d="M822 1444Q807 1362 778 1301T704 1199T603 1136T477 1115Q406 1115 354 1136T269 1198T228 1300T234 1444H391Q383 1402 385 1373T401 1326T439 1300T497 1291Q531 1291 558 1299T606 1325T641
1373T664 1444H822Z" />
<glyph unicode="&#x2d9;" glyph-name="dotaccent" horiz-adv-x="526" d="M387 1143Q349 1143 322 1147T278 1161T254 1186T246 1225Q246 1237 249 1257T258 1297T272 1335T291 1364Q300 1373 312 1380T340 1391T377 1398T425 1400Q463 1400 489 1396T533 1382T558
1357T566 1318Q566 1306 563 1287T554 1247T540 1208T521 1180Q511 1170 499 1163T471 1152T435 1145T387 1143V1143Z" />
<glyph unicode="&#x2da;" glyph-name="ring" horiz-adv-x="576" d="M398 1087Q341 1087 301 1097T234 1127T195 1177T183 1245Q183 1287 196 1330T241 1408T325 1465T454 1488Q510 1488 550 1478T617 1447T657 1398T670 1329Q670 1301 664 1273T645 1217T611 1167T560
1125T490 1097T398 1087V1087ZM510 1317Q510 1343 494 1357T443 1371Q413 1371 394 1360T363 1333T347 1296T342 1258Q342 1231 358 1217T410 1203Q440 1203 459 1214T490 1242T505 1279T510 1317V1317Z" />
<glyph unicode="&#x2db;" glyph-name="ogonek" horiz-adv-x="618" d="M382 -315Q335 -340 283 -352T188 -365Q94 -365 52 -330T9 -229Q9 -206 17 -181T44 -126T91 -66T160 0H385Q344 -24 314 -49T263 -98T233 -144T223 -184Q223 -202 234 -212T269 -223Q292 -223
315 -218T361 -201L382 -315Z" />
<glyph unicode="&#x2dc;" glyph-name="tilde" horiz-adv-x="822" d="M899 1321Q874 1276 848 1242T793 1185T730 1151T655 1139Q623 1139 598 1146T553 1164T516 1187T485 1211T456 1229T426 1237Q412 1237 400 1232T376 1216T348 1187T314 1142L214 1215Q239
1259 264 1293T319 1350T381 1385T456 1397Q488 1397 513 1390T558 1371T595 1348T627 1325T656 1307T686 1299Q700 1299 712 1303T737 1319T764 1349T799 1394L899 1321Z" />
<glyph unicode="&#x2dd;" glyph-name="hungarumlaut" horiz-adv-x="968" d="M696 1110L571 1180L838 1441L1013 1341L696 1110ZM309 1106L187 1176L431 1453L605 1355L309 1106Z" />
<glyph unicode="&#x312;" glyph-name="uni0312" horiz-adv-x="562" d="M289 1206Q289 1245 306 1284T362 1357T465 1411T622 1434L639 1347Q606 1340 579 1329T533 1306T504 1279T494 1253Q494 1247 495 1244T497 1236T499 1227T501 1213Q501 1196 494 1180T472
1150T436 1129T384 1121Q361 1121 343 1126T314 1142T296 1169T289 1206V1206Z" />
<glyph unicode="&#x315;" glyph-name="uni0315" horiz-adv-x="556" d="M419 1112L294 1139L434 1516L610 1476L419 1112Z" />
<glyph unicode="&#x326;" glyph-name="uni0326" horiz-adv-x="568" d="M179 -68Q203 -68 221 -73T252 -89T271 -115T277 -149Q277 -196 256 -233T194 -297T96 -340T-36 -361L-54 -278Q-27 -271 -4 -263T36 -244T62 -221T71 -197Q71 -192 71 -189T69 -181T67 -171T66
-157Q66 -141 73 -125T94 -96T130 -76T179 -68V-68Z" />
<glyph unicode="&#x37e;" glyph-name="semicolon" horiz-adv-x="612" d="M-37 -226Q17 -191 51 -162T104 -110T130 -67T137 -29Q137 -15 131 -6T119 14T106 37T100 74Q100 91 103 112T112 154T128 193T148 224Q182 258 277 258Q311 258 334 252T371 234T391 204T397
160Q397 99 378 34T317 -94T209 -217T48 -327L-37 -226ZM373 736Q340 736 316 741T277 757T255 785T247 829Q247 848 250 869T260 911T274 948T293 975Q311 993 342 1001T421 1010Q488 1010 518 990T548 917Q548 898 545 877T535 835T521 798T502 771Q484 753 453
745T373 736V736Z" />
<glyph unicode="&#x394;" glyph-name="Delta" horiz-adv-x="1112" d="M-56 0L-21 183Q41 327 108 475T246 770T390 1064T538 1350H893Q915 1199 931 1053T961 763T984 474T1002 185L967 0H-56ZM729 202Q717 431 698 657T655 1112Q626 1051 590 976T516 818T438
649T363 482T295 329T241 202H729Z" />
<glyph unicode="&#x3a9;" glyph-name="Omega" horiz-adv-x="1324" d="M641 0L674 169Q727 194 771 244T850 360T912 499T957 645T984 781T993 891Q993 954 980 1005T941 1091T874 1146T781 1165Q724 1165 679 1144T591 1080Q554 1041 525 988T473 874T436 750T412
631T399 529T395 458Q395 406 403 362T426 281T463 216T515 169L483 0H-33L1 175H265Q233 202 208 240T165 324T138 425T128 540Q128 615 141 701T183 875T259 1043T371 1191Q459 1279 572 1325T824 1372Q942 1372 1027 1339T1168 1246T1250 1102T1277 912Q1277
809 1256 703T1191 498T1081 316T924 175H1191L1157 0H641Z" />
<glyph unicode="&#x3bc;" glyph-name="mu" horiz-adv-x="1099" d="M654 0L677 181Q649 139 618 104T551 44T477 4T397 -11Q353 -11 326 6T288 49Q288 49 283 20T271 -54T254 -149T238 -244T225 -317T220 -346H-37L225 1002H481L374 446Q370 428 367 412T362 380T359
350T356 323Q353 286 356 260T370 217T400 192T447 184Q485 184 526 213T605 294T674 421T723 584L804 1002H1061L867 0H654Z" />
<glyph unicode="&#x3c0;" glyph-name="pi" horiz-adv-x="1244" d="M1007 810Q988 718 975 646T951 517T934 419T924 344T918 290T916 250Q916 228 919 213T929 189T949 176T979 172Q1002 172 1032 176T1091 190L1094 40Q1037 13 975 -4T855 -21Q799 -21 762 -12T701
19T669 78T659 171Q659 208 663 257T679 381T709 560T758 810H477Q459 719 439 620T395 417T346 208T293 0H31Q57 99 84 202T137 409T186 614T228 810H80L117 1002H1249L1213 810H1007Z" />
<glyph unicode="&#x1e02;" glyph-name="uni1E02" horiz-adv-x="1162" d="M435 -4Q392 -4 344 -4T245 -2T145 -1T48 0L310 1350H729Q833 1350 905 1330T1023 1275T1089 1191T1110 1085Q1110 1030 1095 979T1051 881T976 796T869 730Q912 722 948 702T1009 650T1049
579T1064 490Q1064 437 1051 380T1007 268T928 164T809 77T647 18T435 -4V-4ZM829 1033Q829 1061 820 1084T792 1125T742 1151T669 1160H540L469 796H572Q619 796 656 807T722 836T771 879T804 929T823 982T829 1033V1033ZM774 458Q774 492 762 520T725 569T658
600T557 612H433L351 193Q362 192 378 191T411 189T447 188T479 187Q538 187 583 200T660 234T715 284T750 342T769 402T774 458V458ZM719 1448Q681 1448 657 1452T617 1465T596 1489T590 1526Q590 1547 593 1567T601 1603T614 1633T630 1655Q639 1664 650 1670T677
1682T714 1689T766 1691Q804 1691 829 1687T869 1674T890 1649T896 1613Q896 1591 893 1572T884 1535T871 1505T856 1484Q846 1474 835 1468T809 1457T771 1450T719 1448V1448Z" />
<glyph unicode="&#x1e03;" glyph-name="uni1E03" horiz-adv-x="1066" d="M395 -22Q330 -22 266 -17T159 -4T87 8T34 19L303 1401H560L479 982Q475 964 470 944T460 903T450 867T439 830Q463 869 496 904T569 966T653 1008T745 1024Q812 1024 862 998T943 926T990
820T1006 691Q1006 619 996 541T959 383T888 231T776 101T613 11T395 -22ZM742 656Q742 740 719 781T647 823Q610 823 570 796T491 718T420 591T369 418L323 180Q335 176 344 174T363 170T394 165T438 162Q496 162 542 187T622 256T679 353T716 462T736 568T742
656ZM452 1511Q414 1511 390 1515T351 1527T330 1548T324 1580Q324 1595 327 1613T335 1650T348 1683T364 1707Q382 1725 413 1733T498 1742Q537 1742 561 1738T600 1726T620 1704T626 1672Q626 1658 624 1640T616 1603T603 1570T586 1546Q578 1537 567 1531T539
1520T502 1513T452 1511Z" />
<glyph unicode="&#x1e0a;" glyph-name="uni1E0A" horiz-adv-x="1192" d="M1162 896Q1162 858 1158 805T1143 692T1114 565T1067 433T999 305T907 190Q862 144 810 108T695 47T561 8T402 -6Q355 -6 309 -5T217 -4T129 -2T48 0L310 1350Q361 1350 407 1350T497 1351T584
1352T672 1353Q805 1353 898 1319T1050 1223T1135 1078T1162 896V896ZM877 880Q877 948 864 999T820 1084T745 1135T635 1152Q610 1152 588 1152T542 1150L357 204Q381 201 404 201T447 200Q521 200 579 226T684 298Q722 336 752 386T803 491T838 602T861 711T873
806T877 880V880ZM729 1448Q691 1448 667 1452T627 1465T606 1489T600 1526Q600 1547 603 1567T611 1603T624 1633T640 1655Q649 1664 660 1670T687 1682T724 1689T776 1691Q814 1691 839 1687T879 1674T900 1649T906 1613Q906 1591 903 1572T894 1535T881 1505T866
1484Q856 1474 845 1468T819 1457T781 1450T729 1448V1448Z" />
<glyph unicode="&#x1e0b;" glyph-name="uni1E0B" horiz-adv-x="1066" d="M622 0L645 181Q614 137 577 100T497 35T409 -7T317 -22Q248 -22 198 5T115 77T68 183T53 311Q53 378 63 457T100 616T170 768T282 899T444 990T665 1024Q685 1024 705 1023T741 1020Q759
1019 775 1017L850 1401H1107L835 0H622ZM317 346Q317 262 340 221T413 179Q449 179 489 205T568 283T639 409T691 584L737 822Q721 827 703 831Q687 835 666 838T622 841Q562 841 516 815T437 745T380 648T343 539T323 433T317 346V346ZM1001 1511Q963 1511 938
1515T899 1527T879 1549T873 1580Q873 1595 876 1613T884 1649T897 1682T913 1707Q929 1724 960 1733T1047 1742Q1085 1742 1110 1738T1149 1726T1169 1704T1175 1672Q1175 1658 1172 1640T1164 1604T1151 1571T1135 1546Q1127 1537 1115 1531T1088 1520T1051 1513T1001
1511V1511Z" />
<glyph unicode="&#x1e1e;" glyph-name="uni1E1E" horiz-adv-x="908" d="M540 1144L468 773H846L807 571H428L318 0H48L310 1350H1000L960 1144H540ZM685 1448Q647 1448 623 1452T583 1465T562 1489T556 1526Q556 1547 559 1567T567 1603T580 1633T596 1655Q605
1664 616 1670T643 1682T680 1689T732 1691Q770 1691 795 1687T835 1674T856 1649T862 1613Q862 1591 859 1572T850 1535T837 1505T822 1484Q812 1474 801 1468T775 1457T737 1450T685 1448V1448Z" />
<glyph unicode="&#x1e1f;" glyph-name="uni1E1F" horiz-adv-x="608" d="M648 822H467L298 -50Q284 -123 258 -181T192 -280T95 -343T-38 -365Q-76 -365 -108 -360T-169 -346T-221 -326T-265 -302L-209 -155Q-179 -166 -151 -172T-96 -179Q-37 -179 -5 -150T41
-49L210 822H82L118 1002H246L267 1109Q281 1182 306 1239T372 1336T470 1397T604 1418Q641 1418 674 1414T735 1402T787 1386T832 1367L775 1222Q746 1232 717 1238T659 1245Q601 1245 570 1215T525 1113L503 1002H683L648 822ZM591 1511Q552 1511 528 1515T489
1527T468 1549T462 1580Q462 1595 465 1613T473 1649T486 1682T502 1707Q519 1724 549 1733T637 1742Q674 1742 699 1738T738 1726T759 1704T765 1672Q765 1658 762 1640T754 1604T741 1571T725 1546Q716 1537 705 1531T677 1520T640 1513T591 1511V1511Z" />
<glyph unicode="&#x1e40;" glyph-name="uni1E40" horiz-adv-x="1696" d="M1194 0Q1209 90 1224 180T1252 359T1278 533T1300 700T1320 858T1337 1005H1335L842 0H614L513 1005H511Q480 894 450 774T390 527T331 268T274 0H20Q57 168 98 337T184 675T277 1014T379
1350H723L828 441H830L1289 1350H1637Q1623 1183 1607 1014T1570 676T1527 337T1478 0H1194ZM1019 1448Q981 1448 957 1452T917 1465T896 1489T890 1526Q890 1547 893 1567T901 1603T914 1633T930 1655Q939 1664 950 1670T977 1682T1014 1689T1066 1691Q1104 1691
1129 1687T1169 1674T1190 1649T1196 1613Q1196 1591 1193 1572T1184 1535T1171 1505T1156 1484Q1146 1474 1135 1468T1109 1457T1071 1450T1019 1448V1448Z" />
<glyph unicode="&#x1e41;" glyph-name="uni1E41" horiz-adv-x="1642" d="M1156 0Q1186 155 1210 269T1252 465T1278 604T1288 701Q1288 761 1269 789T1205 818Q1170 818 1131 793T1054 717T984 591T933 418L851 0H594L688 465Q698 513 705 549T716 612T722 661T724
701Q724 761 705 789T641 818Q606 818 567 793T490 717T420 591T369 418L288 0H31L225 1002H438L415 821Q444 865 481 902T560 967T647 1009T741 1024Q793 1024 834 1011T903 972T950 907T974 816Q1004 861 1041 899T1121 965T1209 1008T1305 1024Q1364 1024 1409
1008T1486 959T1533 873T1549 749Q1549 687 1539 619T1510 464T1466 264T1413 0H1156ZM948 1143Q910 1143 883 1147T839 1161T815 1186T807 1225Q807 1237 810 1257T819 1297T833 1335T852 1364Q861 1373 873 1380T901 1391T938 1398T986 1400Q1024 1400 1050 1396T1094
1382T1119 1357T1127 1318Q1127 1306 1124 1287T1115 1247T1101 1208T1082 1180Q1072 1170 1060 1163T1032 1152T996 1145T948 1143V1143Z" />
<glyph unicode="&#x1e56;" glyph-name="uni1E56" horiz-adv-x="1082" d="M1128 1024Q1128 961 1117 895T1077 765T1001 646T881 547T710 480T481 455H407L318 0H48L310 1350Q357 1350 402 1350T493 1351T588 1352T688 1353Q805 1353 888 1330T1025 1264T1103 1160T1128
1024V1024ZM841 984Q841 1025 830 1057T793 1111T727 1144T626 1155H543L444 653H522Q585 653 633 667T717 707T776 767T814 838T835 912T841 984V984ZM718 1448Q680 1448 656 1452T616 1465T595 1489T589 1526Q589 1547 592 1567T600 1603T613 1633T629 1655Q638
1664 649 1670T676 1682T713 1689T765 1691Q803 1691 828 1687T868 1674T889 1649T895 1613Q895 1591 892 1572T883 1535T870 1505T855 1484Q845 1474 834 1468T808 1457T770 1450T718 1448V1448Z" />
<glyph unicode="&#x1e57;" glyph-name="uni1E57" horiz-adv-x="1066" d="M1006 691Q1006 623 996 544T960 386T890 234T778 103T616 12T395 -22Q374 -22 354 -21T319 -18Q301 -16 285 -15L220 -346H-37L225 1002H438L415 821Q444 865 482 902T562 967T651 1009T743
1024Q812 1024 862 998T944 925T991 819T1006 691V691ZM742 656Q742 740 719 781T647 823Q611 823 571 797T492 719T421 593T369 418L323 180Q338 175 357 171Q372 167 393 165T438 162Q498 162 543 188T623 258T680 355T716 463T736 569T742 656V656ZM661 1143Q623
1143 596 1147T552 1161T528 1186T520 1225Q520 1237 523 1257T532 1297T546 1335T565 1364Q574 1373 586 1380T614 1391T651 1398T699 1400Q737 1400 763 1396T807 1382T832 1357T840 1318Q840 1306 837 1287T828 1247T814 1208T795 1180Q785 1170 773 1163T745
1152T709 1145T661 1143V1143Z" />
<glyph unicode="&#x1e60;" glyph-name="uni1E60" horiz-adv-x="986" d="M376 -21Q314 -21 260 -12T157 14T66 55T-14 109L68 250Q148 214 217 197T348 179Q408 179 456 193T537 235T587 300T605 387Q605 428 587 460T538 519T468 570T389 620T309 675T239 742T190
828T171 938Q171 1030 204 1108T301 1245T456 1337T661 1370Q710 1370 756 1364T845 1344T928 1309T1005 1261L925 1120Q896 1134 866 1144T806 1161T746 1171T689 1174Q632 1174 589 1160T517 1121T473 1061T458 987Q458 946 477 915T529 856T601 804T684 753T768
698T840 630T891 543T911 432Q911 336 875 254T770 110T602 14T376 -21V-21ZM670 1454Q632 1454 608 1458T568 1471T547 1495T541 1532Q541 1553 544 1573T552 1609T565 1639T581 1661Q590 1670 601 1676T628 1688T665 1695T717 1697Q755 1697 780 1693T820 1680T841
1655T847 1619Q847 1597 844 1578T835 1541T822 1511T807 1490Q797 1480 786 1474T760 1463T722 1456T670 1454V1454Z" />
<glyph unicode="&#x1e61;" glyph-name="uni1E61" horiz-adv-x="832" d="M285 -21Q192 -21 114 0T-29 63L13 195Q55 186 89 180T152 169T205 163T253 161Q302 161 340 170T405 196T445 239T459 299Q459 328 444 348T403 385T345 415T279 445T213 481T155 527T115
592T99 681Q99 722 108 764T139 844T193 914T271 971T375 1009T507 1023Q546 1023 581 1019T651 1007T719 984T787 950L740 818Q709 825 683 831T632 840T587 845T543 847Q505 847 474 839T420 815T385 776T373 723Q373 686 399 663T467 620T555 581T642 530T710
454T737 339Q737 260 706 194T616 80T474 6T285 -21V-21ZM543 1150Q505 1150 478 1154T434 1168T410 1193T402 1232Q402 1244 405 1264T414 1304T428 1342T447 1371Q456 1380 468 1387T496 1398T533 1405T581 1407Q619 1407 645 1403T689 1389T714 1364T722 1325Q722
1313 719 1294T710 1254T696 1215T677 1187Q667 1177 655 1170T627 1159T591 1152T543 1150V1150Z" />
<glyph unicode="&#x1e6a;" glyph-name="uni1E6A" horiz-adv-x="934" d="M721 1141L500 0H230L451 1141H150L190 1350H1066L1025 1141H721ZM641 1448Q603 1448 579 1452T539 1465T518 1489T512 1526Q512 1547 515 1567T523 1603T536 1633T552 1655Q561 1664 572
1670T599 1682T636 1689T688 1691Q726 1691 751 1687T791 1674T812 1649T818 1613Q818 1591 815 1572T806 1535T793 1505T778 1484Q768 1474 757 1468T731 1457T693 1450T641 1448V1448Z" />
<glyph unicode="&#x1e6b;" glyph-name="uni1E6B" horiz-adv-x="696" d="M573 46Q534 27 500 15T434 -6T373 -17T315 -21Q258 -21 216 -11T146 22T105 79T91 161Q91 181 93 206T104 272L210 822H83L118 1002H254Q269 1036 284 1070T313 1140T342 1214T371 1294H558L502
1002H724L690 822H467L370 321Q365 292 362 273T359 237Q359 202 376 187T434 172Q446 172 460 173T491 176T525 183T566 195L573 46ZM483 1676Q445 1676 421 1680T381 1693T360 1717T354 1754Q354 1775 357 1795T365 1831T378 1861T394 1883Q403 1892 414 1898T441
1910T478 1917T530 1919Q568 1919 593 1915T633 1902T654 1877T660 1841Q660 1819 657 1800T648 1763T635 1733T620 1712Q610 1702 599 1696T573 1685T535 1678T483 1676V1676Z" />
<glyph unicode="&#x1e80;" glyph-name="Wgrave" horiz-adv-x="1728" d="M1857 1350Q1787 1167 1717 995T1575 656T1429 327T1276 0H982L943 726L944 938H942L862 726L555 0H256Q238 168 227 330T208 658T198 993T195 1350H477Q474 1226 475 1107T478 865T483 613T487
340H489L558 520L910 1350H1172L1211 523V340H1214Q1267 472 1317 598T1415 850T1508 1099T1599 1350H1857ZM1175 1438L781 1560L901 1717L1257 1549L1175 1438Z" />
<glyph unicode="&#x1e81;" glyph-name="wgrave" horiz-adv-x="1520" d="M1576 1002Q1536 876 1488 752T1383 504T1263 253T1128 0H828L790 588L795 715H792L754 592L506 0H193L126 1002H397L419 449L421 280H423L481 435L713 1002H1009L1044 430V282H1046Q1089
378 1128 470T1203 651T1268 827T1323 1002H1576ZM877 1110L575 1350L757 1450L1009 1180L877 1110Z" />
<glyph unicode="&#x1e82;" glyph-name="Wacute" horiz-adv-x="1728" d="M1857 1350Q1787 1167 1717 995T1575 656T1429 327T1276 0H982L943 726L944 938H942L862 726L555 0H256Q238 168 227 330T208 658T198 993T195 1350H477Q474 1226 475 1107T478 865T483 613T487
340H489L558 520L910 1350H1172L1211 523V340H1214Q1267 472 1317 598T1415 850T1508 1099T1599 1350H1857ZM984 1438L910 1549L1276 1717L1388 1560L984 1438Z" />
<glyph unicode="&#x1e83;" glyph-name="wacute" horiz-adv-x="1520" d="M1576 1002Q1536 876 1488 752T1383 504T1263 253T1128 0H828L790 588L795 715H792L754 592L506 0H193L126 1002H397L419 449L421 280H423L481 435L713 1002H1009L1044 430V282H1046Q1089
378 1128 470T1203 651T1268 827T1323 1002H1576ZM862 1110L736 1180L1005 1450L1182 1350L862 1110Z" />
<glyph unicode="&#x1e84;" glyph-name="Wdieresis" horiz-adv-x="1728" d="M1857 1350Q1787 1167 1717 995T1575 656T1429 327T1276 0H982L943 726L944 938H942L862 726L555 0H256Q238 168 227 330T208 658T198 993T195 1350H477Q474 1226 475 1107T478 865T483
613T487 340H489L558 520L910 1350H1172L1211 523V340H1214Q1267 472 1317 598T1415 850T1508 1099T1599 1350H1857ZM1422 1597Q1422 1580 1420 1563T1412 1530T1401 1502T1388 1483Q1371 1466 1347 1459T1280 1452Q1249 1452 1228 1456T1194 1469T1176 1493T1170
1530Q1170 1547 1172 1564T1179 1597T1190 1625T1203 1645Q1221 1662 1245 1668T1311 1675Q1342 1675 1363 1671T1397 1658T1416 1634T1422 1597V1597ZM1010 1597Q1010 1580 1008 1563T1000 1530T989 1502T976 1483Q959 1466 935 1459T868 1452Q838 1452 817 1456T783
1469T764 1493T758 1530Q758 1547 760 1564T768 1597T779 1625T792 1645Q809 1662 833 1668T900 1675Q931 1675 952 1671T986 1658T1004 1634T1010 1597V1597Z" />
<glyph unicode="&#x1e85;" glyph-name="wdieresis" horiz-adv-x="1520" d="M1576 1002Q1536 876 1488 752T1383 504T1263 253T1128 0H828L790 588L795 715H792L754 592L506 0H193L126 1002H397L419 449L421 280H423L481 435L713 1002H1009L1044 430V282H1046Q1089
378 1128 470T1203 651T1268 827T1323 1002H1576ZM1226 1308Q1226 1293 1223 1275T1215 1240T1201 1207T1184 1181Q1168 1166 1142 1159T1080 1152Q1024 1152 997 1169T969 1231Q969 1246 972 1263T980 1299T993 1332T1010 1357Q1026 1373 1052 1380T1114 1387Q1171
1387 1198 1370T1226 1308V1308ZM828 1308Q828 1293 825 1275T817 1240T804 1207T786 1181Q770 1166 745 1159T683 1152Q626 1152 599 1169T571 1231Q571 1246 574 1263T582 1299T595 1332T613 1357Q628 1373 654 1380T716 1387Q773 1387 800 1370T828 1308V1308Z"
/>
<glyph unicode="&#x1ef2;" glyph-name="Ygrave" horiz-adv-x="978" d="M1151 1350Q1088 1236 1025 1130T898 926T767 737T633 564L523 0H253L363 564Q328 652 298 742T241 928T193 1129T153 1350H439Q450 1276 462 1207T489 1071T520 940T556 812Q600 872 642
938T725 1073T802 1212T874 1350H1151ZM745 1438L351 1560L471 1717L827 1549L745 1438Z" />
<glyph unicode="&#x1ef3;" glyph-name="ygrave" horiz-adv-x="962" d="M1025 1002Q956 805 886 642T747 346T610 109T477 -73T348 -205T225 -294T112 -343T9 -358Q-30 -358 -70 -348T-148 -316L-119 -167Q-109 -169 -95 -170T-67 -172T-40 -173T-16 -174Q11 -174
34 -171T79 -161T119 -140T159 -107Q172 -94 183 -79T203 -48T215 -12T219 30Q219 59 217 99T206 186L117 1002H386L435 440Q440 406 442 374T445 307Q445 292 444 277T441 247T437 218T430 192Q475 280 521 379T610 584T689 795T753 1002H1025ZM600 1110L298 1350L480
1450L732 1180L600 1110Z" />
<glyph unicode="&#x200b;" glyph-name="uni200B" horiz-adv-x="0" />
<glyph unicode="&#x2010;" glyph-name="hyphen" horiz-adv-x="474" d="M44 478L81 668H501L464 478H44Z" />
<glyph unicode="&#x2011;" glyph-name="hyphen" horiz-adv-x="474" d="M44 478L81 668H501L464 478H44Z" />
<glyph unicode="&#x2013;" glyph-name="endash" horiz-adv-x="1000" d="M88 507L124 691H946L909 507H88Z" />
<glyph unicode="&#x2014;" glyph-name="emdash" horiz-adv-x="2000" d="M256 507L293 691H1776L1740 507H256Z" />
<glyph unicode="&#x2015;" glyph-name="uni2015" horiz-adv-x="2000" d="M256 507L293 691H1776L1740 507H256Z" />
<glyph unicode="&#x2018;" glyph-name="quoteleft" horiz-adv-x="562" d="M679 1487Q623 1451 589 1422T537 1368T512 1324T505 1287Q505 1272 510 1263T523 1244T535 1219T541 1182Q541 1165 538 1143T529 1100T514 1060T494 1029Q475 1011 443 1003T362 995Q327
995 304 1001T266 1019T246 1050T239 1096Q239 1157 258 1223T320 1353T430 1477T592 1589L679 1487Z" />
<glyph unicode="&#x2019;" glyph-name="quoteright" horiz-adv-x="572" d="M182 1038Q237 1074 271 1103T324 1157T349 1201T356 1238Q356 1253 350 1262T338 1281T325 1306T319 1343Q319 1360 322 1381T331 1424T346 1465T367 1496Q385 1514 417 1522T498 1530Q533
1530 557 1524T595 1506T615 1474T621 1430Q621 1368 602 1302T540 1172T430 1048T268 936L182 1038Z" />
<glyph unicode="&#x201a;" glyph-name="quotesinglbase" horiz-adv-x="604" d="M-65 -220Q-9 -184 25 -155T78 -101T104 -58T111 -20Q111 -6 106 3T93 23T79 47T73 85Q73 102 76 123T86 166T101 206T122 237Q141 255 172 263T253 271Q288 271 312 265T350 247T370
216T376 172Q376 110 357 44T295 -86T185 -210T22 -321L-65 -220Z" />
<glyph unicode="&#x201c;" glyph-name="quotedblleft" horiz-adv-x="944" d="M657 1485Q603 1449 569 1421T517 1368T491 1324T484 1287Q484 1273 489 1264T502 1245T514 1222T520 1185Q520 1168 517 1147T508 1104T493 1065T472 1035Q463 1027 453 1021T430 1010T398
1004T357 1002Q322 1002 300 1008T265 1026T247 1056T242 1099Q242 1160 260 1224T320 1352T426 1474T584 1585L657 1485ZM1053 1474Q1002 1442 971 1416T921 1366T897 1324T890 1287Q890 1273 895 1264T908 1245T920 1222T926 1185Q926 1168 923 1147T913 1104T898
1065T878 1035Q869 1027 859 1021T836 1010T804 1004T763 1002Q728 1002 706 1008T671 1026T653 1056T647 1099Q647 1160 666 1224T724 1351T827 1470T980 1574L1053 1474Z" />
<glyph unicode="&#x201d;" glyph-name="quotedblright" horiz-adv-x="954" d="M586 1040Q640 1075 673 1104T726 1156T751 1199T758 1237Q758 1251 753 1260T740 1279T728 1302T722 1339Q722 1356 725 1377T735 1419T749 1458T770 1489Q779 1497 789 1503T813
1514T844 1520T886 1522Q920 1522 942 1516T977 1498T995 1468T1001 1425Q1001 1364 983 1300T923 1172T817 1050T658 940L586 1040ZM189 1050Q240 1082 272 1108T321 1157T345 1199T352 1237Q352 1251 347 1260T335 1279T323 1302T317 1339Q317 1356 320 1377T329
1419T344 1458T364 1489Q373 1497 383 1503T407 1514T438 1520T480 1522Q514 1522 536 1516T572 1498T590 1468T595 1425Q595 1364 577 1300T518 1173T415 1054T262 950L189 1050Z" />
<glyph unicode="&#x201e;" glyph-name="quotedblbase" horiz-adv-x="986" d="M340 -218Q394 -183 428 -154T480 -102T505 -59T512 -21Q512 -7 507 1T495 20T483 43T477 80Q477 97 480 118T489 160T504 200T524 230Q534 239 544 245T567 255T598 261T640 263Q674
263 696 258T732 240T750 210T755 167Q755 106 737 42T677 -86T571 -208T413 -318L340 -218ZM-56 -209Q-6 -177 26 -150T76 -101T100 -59T107 -21Q107 -7 102 1T89 20T77 43T71 80Q71 97 74 118T83 160T98 200T119 230Q128 239 138 245T161 255T192 261T234 263Q269
263 291 258T326 240T344 210T349 167Q349 106 331 42T273 -85T170 -204T16 -308L-56 -209Z" />
<glyph unicode="&#x2020;" glyph-name="dagger" horiz-adv-x="774" d="M602 1002L483 392H242L360 1002H156L188 1166H393L442 1418H683L634 1166H839L807 1002H602Z" />
<glyph unicode="&#x2021;" glyph-name="daggerdbl" horiz-adv-x="774" d="M459 271L406 0H168L221 271H14L45 436H252L358 981H151L183 1145H390L444 1418H682L628 1145H834L802 981H596L490 436H696L665 271H459Z" />
<glyph unicode="&#x2022;" glyph-name="bullet" horiz-adv-x="1000" d="M864 620Q864 542 835 477T756 363T641 287T504 259Q434 259 373 285T267 356T196 462T170 592Q170 669 199 735T277 849T392 925T528 953Q599 953 660 927T766 856T837 750T864 620V620Z" />
<glyph unicode="&#x2026;" glyph-name="ellipsis" horiz-adv-x="1554" d="M204 -20Q168 -20 144 -16T104 -1T81 25T74 66Q74 87 78 112T88 162T103 205T122 235Q141 254 170 261T244 269Q280 269 304 265T344 250T367 224T374 183Q374 161 371 136T361 87T345
43T326 14Q308 -5 279 -12T204 -20V-20ZM672 -20Q636 -20 612 -16T572 -1T549 25T542 66Q542 87 546 112T556 162T571 205T590 235Q609 254 638 261T712 269Q748 269 772 265T812 250T835 224T842 183Q842 161 839 136T829 87T813 43T794 14Q776 -5 747 -12T672
-20V-20ZM1140 -20Q1104 -20 1080 -16T1040 -1T1017 25T1010 66Q1010 87 1014 112T1024 162T1039 205T1058 235Q1077 254 1106 261T1180 269Q1216 269 1240 265T1280 250T1303 224T1310 183Q1310 161 1307 136T1297 87T1281 43T1262 14Q1244 -5 1215 -12T1140 -20V-20Z"
/>
<glyph unicode="&#x2030;" glyph-name="perthousand" horiz-adv-x="2114" d="M437 732Q370 732 323 745T246 784T202 851T189 948Q189 993 195 1042T216 1139T258 1228T325 1303T422 1353T554 1372Q621 1372 668 1359T746 1319T789 1252T802 1156Q802 1110 796
1061T775 965T733 876T666 802T569 751T437 732V732ZM613 1136Q613 1189 593 1211T530 1234Q500 1234 477 1220T437 1183T409 1131T391 1072T381 1015T378 968Q378 941 383 923T398 893T424 876T461 870Q491 870 514 884T554 921T582 973T600 1032T610 1089T613
1136V1136ZM170 -43L45 41L1302 1393L1426 1309L170 -43ZM917 -22Q850 -22 803 -9T726 30T683 97T669 194Q669 239 675 288T696 385T738 474T805 549T902 599T1034 618Q1101 618 1148 605T1226 565T1269 498T1283 402Q1283 356 1277 307T1255 211T1213 122T1146
47T1049 -3T917 -22V-22ZM1093 382Q1093 435 1073 457T1010 480Q980 480 957 466T917 429T889 377T871 318T861 261T858 214Q858 187 863 169T878 139T904 122T941 116Q971 116 994 130T1034 167T1062 219T1080 278T1090 335T1093 382V382ZM1610 -22Q1542 -22 1495
-9T1418 30T1375 97T1361 194Q1361 239 1367 288T1388 385T1430 474T1497 549T1594 599T1726 618Q1793 618 1840 605T1918 565T1961 498T1975 402Q1975 356 1969 307T1948 211T1905 122T1838 47T1741 -3T1610 -22V-22ZM1785 382Q1785 435 1765 457T1703 480Q1672
480 1649 466T1609 429T1581 377T1563 318T1553 261T1550 214Q1550 187 1555 169T1570 139T1596 122T1633 116Q1663 116 1686 130T1727 167T1755 219T1773 278T1782 335T1785 382V382Z" />
<glyph unicode="&#x2039;" glyph-name="guilsinglleft" horiz-adv-x="614" d="M276 177L85 592L423 993L592 927L337 579L455 228L276 177Z" />
<glyph unicode="&#x203a;" glyph-name="guilsinglright" horiz-adv-x="616" d="M366 993L558 579L220 177L51 243L305 592L187 942L366 993Z" />
<glyph unicode="&#x2044;" glyph-name="fraction" horiz-adv-x="176" d="M-538 -162L-665 -81L776 1464L901 1383L-538 -162Z" />
<glyph unicode="&#x2060;" glyph-name="uni2060" horiz-adv-x="0" />
<glyph unicode="&#x2070;" glyph-name="zero.superior" horiz-adv-x="800" d="M856 1225Q856 1191 852 1151T839 1070T819 987T792 908T757 838T716 785Q693 761 665 743T601 713T524 694T430 688Q353 688 301 703T215 748T168 822T153 924Q153 958 157 998T170
1079T190 1162T217 1241T252 1311T293 1364Q317 1388 345 1406T408 1436T485 1454T580 1461Q656 1461 709 1446T795 1401T842 1327T856 1225V1225ZM633 1222Q633 1249 629 1267T615 1296T590 1312T552 1317Q527 1317 507 1309T471 1284Q459 1271 447 1246T425 1187T405
1117T390 1045T381 979T377 927Q377 900 381 882T394 853T419 837T458 832Q483 832 502 840T538 865Q551 878 563 903T585 962T604 1031T619 1104T629 1171T633 1222V1222Z" />
<glyph unicode="&#x2074;" glyph-name="four.superior" horiz-adv-x="722" d="M661 846L633 707H419L448 846H102L130 996Q164 1048 205 1105T291 1219T381 1334T471 1442H776L691 999H780L750 846H661ZM537 1310Q509 1280 478 1242T414 1162T351 1079T294 999H477L537
1310Z" />
<glyph unicode="&#x2075;" glyph-name="five.superior" horiz-adv-x="714" d="M740 977Q740 949 734 917T713 853T672 791T605 738T508 702T376 688Q344 688 310 692T241 703T172 721T106 745L139 847Q199 835 247 831T341 826Q391 826 422 837T472 865T498 904T505
948Q505 963 501 976T482 999T444 1015T379 1021Q340 1021 292 1018T191 1008L307 1442H772L742 1286H458L420 1146Q440 1148 464 1149T508 1151Q569 1151 613 1138T685 1101T727 1046T740 977V977Z" />
<glyph unicode="&#x2076;" glyph-name="six.superior" horiz-adv-x="774" d="M805 999Q805 969 798 935T775 866T732 799T663 743T566 703T435 688Q362 688 312 703T230 747T185 822T170 925Q170 950 172 983T181 1055T198 1135T225 1215T263 1292T316 1359Q368
1411 443 1436T615 1461Q642 1461 672 1458T733 1449T795 1434T855 1411L819 1308Q770 1315 724 1320T633 1326Q590 1326 555 1315T493 1280T447 1219T417 1129Q462 1148 506 1156T591 1164Q653 1164 694 1151T760 1115T795 1062T805 999V999ZM582 978Q582 992
579 1003T567 1022T543 1036T505 1041Q480 1041 452 1034T393 1013Q391 999 389 986T385 959T382 933T381 909Q381 861 399 840T460 819Q495 819 518 836T556 879T576 931T582 978V978Z" />
<glyph unicode="&#x2077;" glyph-name="seven.superior" horiz-adv-x="676" d="M577 1012Q539 962 502 916T429 828T358 750T292 686L129 740L517 1278H196L227 1442H813L782 1282L577 1012Z" />
<glyph unicode="&#x2078;" glyph-name="eight.superior" horiz-adv-x="780" d="M798 938Q798 879 775 833T705 753T587 703T419 685Q337 685 282 698T193 733T145 785T130 850Q130 888 141 920T176 980T233 1030T313 1073Q261 1104 240 1140T219 1219Q219 1273
240 1318T304 1395T413 1445T569 1463Q646 1463 699 1452T786 1419T835 1368T850 1301Q850 1271 842 1243T814 1189T764 1139T687 1093Q718 1078 739 1061T773 1024T792 984T798 938V938ZM630 1284Q630 1311 612 1327T548 1343Q522 1343 502 1336T467 1316T446
1286T439 1249Q439 1232 443 1219T458 1194T484 1173T520 1154Q549 1167 570 1181T604 1211T624 1246T630 1284V1284ZM573 909Q573 921 569 934T554 960T523 985T473 1010Q447 997 425 983T387 952T362 915T353 872Q353 857 358 845T375 824T406 811T452 806Q485
806 508 816T545 840T566 873T573 909V909Z" />
<glyph unicode="&#x2079;" glyph-name="nine.superior" horiz-adv-x="770" d="M187 1150Q187 1179 194 1213T217 1283T260 1350T329 1406T426 1446T557 1461Q630 1461 680 1446T762 1402T807 1327T822 1223Q822 1198 820 1165T811 1094T794 1014T767 933T729 856T676
790Q624 738 549 713T377 688Q349 688 317 691T251 701T184 718T120 741L157 844Q181 839 207 836T259 830T311 825T359 823Q402 823 436 834T498 869T544 930T575 1020Q530 1001 486 993T401 985Q339 985 298 998T232 1034T197 1087T187 1150V1150ZM407 1171Q407
1157 410 1146T423 1126T447 1113T485 1108Q509 1108 537 1115T596 1136Q602 1163 605 1190T608 1240Q608 1288 591 1309T530 1330Q494 1330 471 1313T433 1270T413 1218T407 1171V1171Z" />
<glyph unicode="&#x2080;" glyph-name="zero.inferior" horiz-adv-x="800" d="M693 390Q693 356 689 316T676 235T656 152T629 73T594 3T553 -50Q530 -74 502 -92T438 -122T361 -141T267 -147Q190 -147 138 -132T52 -87T5 -13T-10 89Q-10 123 -6 163T7 244T27
327T54 406T89 476T130 529Q154 553 182 571T245 601T322 619T417 626Q493 626 546 611T632 566T679 492T693 390V390ZM470 387Q470 414 466 432T452 461T427 477T389 482Q364 482 344 474T308 449Q296 436 284 411T262 352T242 282T227 210T218 144T214 92Q214
65 218 47T231 18T256 2T295 -3Q320 -3 339 5T375 30Q388 43 400 68T422 127T441 196T456 269T466 336T470 387V387Z" />
<glyph unicode="&#x2081;" glyph-name="one.inferior" horiz-adv-x="688" d="M-37 -128L-7 24H159L238 428L87 387L79 519L316 611H494L379 24H529L499 -128H-37Z" />
<glyph unicode="&#x2082;" glyph-name="two.inferior" horiz-adv-x="720" d="M-53 -128L-21 28Q95 109 171 168T291 271T354 348T372 412Q372 446 350 460T282 474Q241 474 193 463T92 437L80 566Q117 580 153 591T227 610T301 622T375 626Q432 626 477 614T552
578T599 523T616 451Q616 398 595 349T529 251T416 148T255 33H560L529 -128H-53Z" />
<glyph unicode="&#x2083;" glyph-name="three.inferior" horiz-adv-x="714" d="M573 127Q573 103 568 74T550 14T511 -46T444 -97T344 -133T204 -147Q139 -147 69 -135T-66 -97L-30 14Q26 3 74 -2T173 -8Q224 -8 257 3T308 30T334 68T341 111Q341 127 335 140T314
162T271 177T199 182H100L128 321H233Q277 321 306 330T353 355T378 389T385 429Q385 441 382 451T368 469T340 481T294 485Q275 485 252 483T203 477T151 468T101 456L86 577Q153 600 224 613T369 626Q440 626 487 612T563 575T604 521T616 460Q616 421 605 388T573
328T523 283T457 255Q491 248 513 233T549 200T568 163T573 127V127Z" />
<glyph unicode="&#x2084;" glyph-name="four.inferior" horiz-adv-x="722" d="M498 11L470 -128H256L285 11H-61L-33 161Q1 213 42 270T128 384T218 499T308 607H613L528 164H617L587 11H498ZM374 475Q346 445 315 407T251 327T188 244T131 164H314L374 475Z" />
<glyph unicode="&#x2085;" glyph-name="five.inferior" horiz-adv-x="714" d="M577 142Q577 114 571 82T550 18T509 -44T442 -97T345 -133T213 -147Q181 -147 147 -143T78 -132T9 -114T-57 -90L-24 12Q36 0 84 -4T178 -9Q228 -9 259 2T309 30T335 69T342 113Q342
128 338 141T319 164T281 180T216 186Q177 186 129 183T28 173L144 607H609L579 451H295L257 311Q277 313 301 314T345 316Q406 316 450 303T522 266T564 211T577 142V142Z" />
<glyph unicode="&#x2086;" glyph-name="six.inferior" horiz-adv-x="774" d="M642 164Q642 134 635 100T612 31T569 -36T500 -92T403 -132T272 -147Q199 -147 149 -132T67 -88T22 -13T7 90Q7 115 9 148T18 220T35 300T62 380T100 457T153 524Q205 576 280 601T452
626Q479 626 509 623T570 614T632 599T692 576L656 473Q607 480 561 485T470 491Q427 491 392 480T330 445T284 384T254 294Q299 313 343 321T428 329Q490 329 531 316T597 280T632 227T642 164V164ZM419 143Q419 157 416 168T404 187T380 201T342 206Q317 206
289 199T230 178Q228 164 226 151T222 124T219 98T218 74Q218 26 236 5T297 -16Q332 -16 355 1T393 44T413 96T419 143V143Z" />
<glyph unicode="&#x2087;" glyph-name="seven.inferior" horiz-adv-x="676" d="M414 177Q376 127 339 81T266 -7T195 -85T129 -149L-34 -95L354 443H33L64 607H650L619 447L414 177Z" />
<glyph unicode="&#x2088;" glyph-name="eight.inferior" horiz-adv-x="780" d="M635 103Q635 44 612 -2T542 -82T424 -132T256 -150Q174 -150 119 -137T30 -102T-18 -50T-33 15Q-33 53 -22 85T13 145T70 195T150 238Q98 269 77 305T56 384Q56 438 77 483T141 560T250
610T406 628Q483 628 536 617T623 584T672 533T687 466Q687 436 679 408T651 354T601 304T524 258Q555 243 576 226T610 189T629 149T635 103V103ZM467 449Q467 476 449 492T385 508Q359 508 339 501T304 481T283 451T276 414Q276 397 280 384T295 359T321 338T357
319Q386 332 407 346T441 376T461 411T467 449V449ZM410 74Q410 86 406 99T391 125T360 150T310 175Q284 162 262 148T224 117T199 80T190 37Q190 22 195 10T212 -11T243 -24T289 -29Q322 -29 345 -19T382 5T403 38T410 74V74Z" />
<glyph unicode="&#x2089;" glyph-name="nine.inferior" horiz-adv-x="770" d="M24 315Q24 344 31 378T54 448T97 515T166 571T263 611T394 626Q467 626 517 611T599 567T644 492T659 388Q659 363 657 330T648 259T631 179T604 98T566 21T513 -45Q461 -97 386 -122T214
-147Q186 -147 154 -144T88 -134T21 -117T-43 -94L-6 9Q18 4 44 1T96 -5T148 -10T196 -12Q239 -12 273 -1T335 34T381 95T412 185Q367 166 323 158T238 150Q176 150 135 163T69 199T34 252T24 315V315ZM244 336Q244 322 247 311T260 291T284 278T322 273Q346 273
374 280T433 301Q439 328 442 355T445 405Q445 453 428 474T367 495Q331 495 308 478T270 435T250 383T244 336V336Z" />
<glyph unicode="&#x20ac;" glyph-name="Euro" horiz-adv-x="1000" d="M901 161Q860 120 815 86T721 28T617 -9T500 -22Q429 -22 372 -6T270 39T195 111T143 205T115 318T108 445H-9L21 608H126Q130 645 138 680T155 750H50L81 913H202Q243 1026 299 1111T426 1255T578
1342T753 1372Q809 1372 859 1361T950 1326T1023 1265T1074 1174L942 1059Q928 1087 911 1108T871 1144T820 1166T758 1174Q706 1174 662 1154T582 1098T517 1015T469 913H768L737 750H417Q412 732 408 715T399 679T393 644T387 608H708L678 445H379Q376 415 378
384T387 323T409 267T444 222T495 191T563 179Q598 179 631 186T695 207T756 241T815 289L901 161Z" />
<glyph unicode="&#x2122;" glyph-name="trademark" horiz-adv-x="840" d="M369 1260L321 1015H207L256 1260H187L204 1350H451L434 1260H369ZM757 1015Q762 1040 766 1065T775 1116T783 1164T790 1212L689 1015H577L554 1211Q548 1188 543 1164T533 1116T522 1066T510
1015H408Q428 1099 449 1182T494 1350H641L661 1147L760 1350H909Q902 1265 891 1183T864 1015H757Z" />
<glyph unicode="&#x2126;" glyph-name="Omega" horiz-adv-x="1324" d="M641 0L674 169Q727 194 771 244T850 360T912 499T957 645T984 781T993 891Q993 954 980 1005T941 1091T874 1146T781 1165Q724 1165 679 1144T591 1080Q554 1041 525 988T473 874T436 750T412
631T399 529T395 458Q395 406 403 362T426 281T463 216T515 169L483 0H-33L1 175H265Q233 202 208 240T165 324T138 425T128 540Q128 615 141 701T183 875T259 1043T371 1191Q459 1279 572 1325T824 1372Q942 1372 1027 1339T1168 1246T1250 1102T1277 912Q1277
809 1256 703T1191 498T1081 316T924 175H1191L1157 0H641Z" />
<glyph unicode="&#x2202;" glyph-name="partialdiff" horiz-adv-x="1068" d="M46 339Q46 395 53 453T75 568T114 681T173 785T253 875T357 945T485 990T641 1007Q653 1007 667 1007T696 1004T722 1001T741 996Q727 1039 705 1078T648 1157T566 1237T454 1322L627
1433Q717 1390 790 1332T914 1198T993 1025T1021 810Q1021 750 1014 682T992 545T952 406T892 275T812 158T707 65T577 3T419 -20Q329 -20 259 4T142 73T71 185T46 339V339ZM321 354Q321 259 357 218T457 177Q499 177 535 197T599 253T650 334T689 432T718 538T736
643T745 737T746 811Q736 816 720 820T687 827T651 831T617 833Q562 833 519 810T444 748T388 660T350 557T328 451T321 354V354Z" />
<glyph unicode="&#x2206;" glyph-name="Delta" horiz-adv-x="1112" d="M-56 0L-21 183Q41 327 108 475T246 770T390 1064T538 1350H893Q915 1199 931 1053T961 763T984 474T1002 185L967 0H-56ZM729 202Q717 431 698 657T655 1112Q626 1051 590 976T516 818T438
649T363 482T295 329T241 202H729Z" />
<glyph unicode="&#x220f;" glyph-name="product" horiz-adv-x="1306" d="M1262 1141L1041 0H771L992 1141H559L338 0H68L289 1141H163L204 1350H1431L1390 1141H1262Z" />
<glyph unicode="&#x2211;" glyph-name="summation" horiz-adv-x="1000" d="M-20 0L17 189L530 702L226 1169L262 1350H1055L1016 1144H525L816 698L334 211H864L823 0H-20Z" />
<glyph unicode="&#x2212;" glyph-name="minus" horiz-adv-x="1000" d="M74 507L110 692H960L924 507H74Z" />
<glyph unicode="&#x2215;" glyph-name="fraction" horiz-adv-x="176" d="M-538 -162L-665 -81L776 1464L901 1383L-538 -162Z" />
<glyph unicode="&#x2219;" glyph-name="periodcentered" horiz-adv-x="548" d="M269 450Q232 450 207 454T166 469T143 497T135 540Q135 561 139 587T150 636T165 680T184 710Q204 729 234 737T312 746Q349 746 374 742T416 726T439 698T446 656Q446 633 442 608T432
560T416 516T396 486Q377 467 347 459T269 450V450Z" />
<glyph unicode="&#x221a;" glyph-name="radical" horiz-adv-x="1000" d="M1152 1350Q1087 1180 1017 1013T869 677T705 341T522 0H242L204 830H74L108 1002H438L456 286Q520 416 578 544T692 804T800 1070T904 1350H1152Z" />
<glyph unicode="&#x221e;" glyph-name="infinity" horiz-adv-x="2030" d="M1442 191Q1385 191 1330 209T1221 261T1114 341T1009 444Q949 397 884 352T752 270T616 213T479 191Q382 191 313 215T200 283T135 383T114 506Q114 561 127 619T169 732T238 835T336
920T462 976T617 997Q677 997 733 978T843 924T948 843T1052 740Q1112 786 1176 832T1309 914T1446 974T1583 997Q1677 997 1746 974T1861 908T1928 808T1951 682Q1951 630 1940 574T1905 463T1841 359T1746 272T1614 213T1442 191V191ZM1677 643Q1677 671 1670
696T1648 740T1608 770T1548 781Q1515 781 1479 766T1403 726T1318 667T1225 594Q1262 552 1294 518T1358 460T1420 421T1482 407Q1515 407 1542 418T1591 447T1629 488T1656 538T1672 591T1677 643V643ZM389 542Q389 515 396 491T419 448T458 419T518 407Q551
407 586 421T662 461T745 520T835 594Q800 634 768 668T705 728T645 767T584 781Q550 781 523 770T474 741T436 698T410 648T395 594T389 542V542Z" />
<glyph unicode="&#x222b;" glyph-name="integral'" horiz-adv-x="800" d="M873 1238Q849 1245 823 1249T772 1254Q713 1254 683 1222T638 1115L412 -46Q396 -123 369 -182T301 -282T202 -344T68 -365Q33 -365 4 -361T-51 -349T-99 -332T-143 -310L-80 -162Q-55
-169 -30 -174T22 -179Q81 -179 111 -147T156 -40L382 1122Q397 1198 424 1257T492 1357T592 1419T726 1440Q760 1440 789 1436T845 1424T893 1407T936 1385L873 1238Z" />
<glyph unicode="&#x2248;" glyph-name="approxequal" horiz-adv-x="1000" d="M982 775Q946 743 914 720T849 682T783 660T715 653Q671 653 637 661T575 681T522 707T473 732T423 752T365 760Q345 760 326 755T285 738T240 710T190 671L123 814Q159 845 192 868T257
906T322 928T390 935Q434 935 468 927T531 908T583 882T632 856T682 836T741 828Q760 828 780 833T821 850T866 877T917 917L982 775ZM906 384Q870 352 838 329T773 291T707 269T639 262Q595 262 561 270T499 290T446 316T398 341T347 361T290 369Q270 369 251
364T209 348T163 320T112 280L48 423Q84 454 117 477T182 515T247 537T315 544Q359 544 393 536T456 517T508 491T556 465T607 445T664 437Q683 437 703 442T745 459T790 486T841 526L906 384Z" />
<glyph unicode="&#x2260;" glyph-name="notequal" horiz-adv-x="1000" d="M442 331L224 27L59 110L219 331H45L77 498H334L480 699H117L149 866H595L812 1171L978 1088L815 866H990L958 699H703L556 498H918L886 331H442Z" />
<glyph unicode="&#x2264;" glyph-name="lessequal" horiz-adv-x="1000" d="M-20 0L13 174H851L818 0H-20ZM803 273L101 622L134 792L972 1140L1007 960L356 706L908 449L803 273Z" />
<glyph unicode="&#x2265;" glyph-name="greaterequal" horiz-adv-x="1000" d="M-20 0L13 174H851L818 0H-20ZM101 273L65 453L716 708L164 964L269 1140L972 792L939 622L101 273Z" />
<glyph unicode="&#x25ca;" glyph-name="lozenge" horiz-adv-x="1000" d="M495 0H302L67 675L567 1350H759L994 676L495 0ZM604 1081L305 689L462 269L761 662L604 1081Z" />
<glyph unicode="&#xeeee;" glyph-name="BBox" horiz-adv-x="350" d="M350 1800V-400H0V1800H350Z" />
<glyph unicode="&#xf000;" glyph-name="LuFo" horiz-adv-x="360" d="M360 -400H0V-40H360V-400ZM40 -80V-360H320V-80H40ZM80 -120H120V-280H200V-320H80V-120ZM280 -120V-320H240V-240H160V-200H240V-160H160V-120H280ZM360 1410H0V1770H360V1410ZM40 1730V1450H320V1730H40ZM80
1690H120V1530H200V1490H80V1690ZM280 1690V1490H240V1570H160V1610H240V1650H160V1690H280Z" />
<glyph unicode="&#xf6be;" glyph-name="dotlessj" horiz-adv-x="518" d="M305 90Q291 17 268 -45T208 -161T122 -265T4 -364L-155 -280Q-119 -245 -87 -206T-30 -124T14 -36T42 58L225 1002H482L305 90Z" />
<glyph unicode="&#xf6c1;" glyph-name="Scedilla" horiz-adv-x="986" d="M376 -21Q314 -21 260 -12T157 14T66 55T-14 109L68 250Q148 214 217 197T348 179Q408 179 456 193T537 235T587 300T605 387Q605 428 587 460T538 519T468 570T389 620T309 675T239 742T190
828T171 938Q171 1030 204 1108T301 1245T456 1337T661 1370Q710 1370 756 1364T845 1344T928 1309T1005 1261L925 1120Q896 1134 866 1144T806 1161T746 1171T689 1174Q632 1174 589 1160T517 1121T473 1061T458 987Q458 946 477 915T529 856T601 804T684 753T768
698T840 630T891 543T911 432Q911 336 875 254T770 110T602 14T376 -21V-21ZM465 -85Q466 -175 416 -243T264 -366L122 -308Q160 -277 184 -251T223 -199T242 -146T246 -85H465Z" />
<glyph unicode="&#xf6c2;" glyph-name="scedilla" horiz-adv-x="832" d="M285 -21Q192 -21 114 0T-29 63L13 195Q55 186 89 180T152 169T205 163T253 161Q302 161 340 170T405 196T445 239T459 299Q459 328 444 348T403 385T345 415T279 445T213 481T155 527T115
592T99 681Q99 722 108 764T139 844T193 914T271 971T375 1009T507 1023Q546 1023 581 1019T651 1007T719 984T787 950L740 818Q709 825 683 831T632 840T587 845T543 847Q505 847 474 839T420 815T385 776T373 723Q373 686 399 663T467 620T555 581T642 530T710
454T737 339Q737 260 706 194T616 80T474 6T285 -21V-21ZM379 -85Q380 -175 330 -243T178 -366L36 -308Q74 -277 98 -251T137 -199T156 -146T160 -85H379Z" />
<glyph unicode="&#xf6c9;" glyph-name="acute.cap" horiz-adv-x="960" d="M473 1438L399 1549L765 1717L877 1560L473 1438Z" />
<glyph unicode="&#xf6ca;" glyph-name="caron.cap" horiz-adv-x="960" d="M315 1609L395 1717L617 1612L873 1717L926 1613L588 1438L315 1609Z" />
<glyph unicode="&#xf6cb;" glyph-name="dieresis.cap" horiz-adv-x="960" d="M972 1597Q972 1580 970 1563T962 1530T951 1502T938 1483Q921 1466 897 1459T830 1452Q799 1452 778 1456T744 1469T726 1493T720 1530Q720 1547 722 1564T729 1597T740 1625T753 1645Q771
1662 795 1668T861 1675Q892 1675 913 1671T947 1658T966 1634T972 1597V1597ZM560 1597Q560 1580 558 1563T550 1530T539 1502T526 1483Q509 1466 485 1459T418 1452Q388 1452 367 1456T333 1469T314 1493T308 1530Q308 1547 310 1564T318 1597T329 1625T342 1645Q359
1662 383 1668T450 1675Q481 1675 502 1671T536 1658T554 1634T560 1597V1597Z" />
<glyph unicode="&#xf6ce;" glyph-name="grave.cap" horiz-adv-x="960" d="M700 1438L306 1560L426 1717L782 1549L700 1438Z" />
<glyph unicode="&#xf6cf;" glyph-name="hungarumlaut.cap" horiz-adv-x="1060" d="M781 1426L700 1515L1065 1729L1178 1603L781 1426ZM368 1424L276 1504L600 1737L728 1626L368 1424Z" />
<glyph unicode="&#xf6d0;" glyph-name="macron.cap" horiz-adv-x="624" d="M212 1483L244 1651H813L781 1483H212Z" />
<glyph unicode="&#xf730;" glyph-name="zero.oldstyle" horiz-adv-x="1000" d="M979 816Q979 771 973 713T955 589T925 454T883 322T827 204T758 112Q721 75 681 50T596 8T503 -15T401 -22Q312 -22 245 -4T131 55T62 163T38 327Q38 371 44 429T62 553T92 688T134
821T190 940T259 1033Q297 1071 339 1097T426 1138T519 1160T619 1167Q709 1167 776 1148T889 1087T957 978T979 816V816ZM432 174Q469 174 501 185T563 224Q580 242 596 273T628 343T655 427T678 519T697 611T710 696T719 767T722 818Q722 862 714 892T688 940T644
966T582 974Q546 974 514 962T452 921Q429 897 408 851T370 748T339 628T316 507T301 402T295 330Q295 285 304 255T330 207T372 182T432 174V174Z" />
<glyph unicode="&#xf731;" glyph-name="one.oldstyle" horiz-adv-x="1000" d="M23 0L66 218H337L467 888L213 808L183 982L583 1144H797L618 218H860L817 0H23Z" />
<glyph unicode="&#xf732;" glyph-name="two.oldstyle" horiz-adv-x="1000" d="M-14 0L23 194Q155 288 253 361T421 492T535 595T605 680T641 755T651 830Q651 863 640 887T607 925T556 947T490 954Q460 954 429 951T363 940T289 923T204 897L198 1080Q254 1102
302 1117T398 1143T496 1159T608 1165Q691 1165 756 1146T866 1090T933 1000T957 879Q957 824 946 775T909 676T840 577T735 472T587 355T392 219H860L817 0H-14Z" />
<glyph unicode="&#xf733;" glyph-name="three.oldstyle" horiz-adv-x="1000" d="M307 -226Q265 -226 218 -221T120 -204T19 -176T-82 -134L-37 17Q53 -3 124 -12T253 -21Q317 -21 364 -8T444 26T499 76T533 136T550 198T554 258Q554 292 544 319T510 365T450 394T359
404H210L248 601H391Q464 601 512 624T588 685T627 765T639 849Q639 878 630 898T602 931T552 951T478 958Q447 958 412 954T340 944T266 928T195 907L190 1081Q233 1099 278 1114T373 1141T476 1158T589 1165Q678 1165 742 1145T849 1089T912 1002T933 890Q933
849 927 810T906 734T870 663T820 601T753 549T669 511Q716 503 751 482T808 429T842 356T853 269Q853 223 844 169T812 59T750 -47T649 -138T504 -202T307 -226V-226Z" />
<glyph unicode="&#xf734;" glyph-name="four.oldstyle" horiz-adv-x="1000" d="M741 87L683 -208H423L481 87H-45L-4 298Q60 400 130 508T273 726T420 940T567 1144H687H947L783 302H915L873 87H741ZM645 928Q595 858 541 782T433 625T325 463T222 302H523L645 928Z" />
<glyph unicode="&#xf735;" glyph-name="five.oldstyle" horiz-adv-x="1000" d="M314 -226Q273 -226 227 -221T132 -205T29 -177T-79 -136L-33 10Q61 -6 138 -15T276 -25Q334 -25 379 -15T457 15T514 62T551 123T571 195T578 275Q578 351 532 394T380 438Q345 438
311 436T242 429T167 419T82 404L272 1144H494H940L897 923H438L361 631Q389 637 423 639T495 642Q587 642 656 620T772 555T842 453T866 317Q866 261 857 199T823 76T758 -39T657 -135T511 -201T314 -226V-226Z" />
</font>
</defs>
</svg>
