<?xml version="1.0" standalone="no"?> <!DOCTYPE svg PUBLIC "-//W3C//DTD SVG 1.0//EN" "http://www.w3.org/TR/2001/REC-SVG-20010904/DTD/svg10.dtd" > <svg xmlns="http://www.w3.org/2000/svg" width="100%" height="100%">
<defs >
<font id="SunAntwerpen_500" horiz-adv-x="982" ><font-face
    font-family="SunAntwerpen"
    units-per-em="2000"
    panose-1="2 11 5 3 5 3 2 2 2 4"
    ascent="1800"
    descent="-400"
    alphabetic="0" />
<missing-glyph horiz-adv-x="1100" d="M900 200V900H200V200H900ZM500 700V800H800V300H700V500H500V600H700V700H500ZM100 100V1000H1000V100H100ZM300 300V800H400V400H600V300H300Z" />
<glyph unicode="&#xd;" glyph-name="CR" horiz-adv-x="0" />
<glyph unicode=" " glyph-name="space" horiz-adv-x="480" />
<glyph unicode="!" glyph-name="exclam" horiz-adv-x="734" d="M528 86Q528 28 507 7T422 -14Q358 -14 337 7T316 82Q316 140 338 161T424 182Q488 182 508 162T528 86ZM490 298H358L328 1350H522L490 298Z" />
<glyph unicode="&quot;" glyph-name="quotedbl" horiz-adv-x="872" d="M310 840H190L170 1350H330L310 840ZM674 840H554L534 1350H694L674 840Z" />
<glyph unicode="#" glyph-name="numbersign" horiz-adv-x="1012" d="M406 886L362 526H606L648 886H406ZM722 420L674 0H546L594 420H350L302 0H174L222 420H60V526H234L278 886H60V992H290L332 1350H460L418 992H660L702 1350H830L788 992H952V886H776L734 526H952V420H722Z"
/>
<glyph unicode="$" glyph-name="dollar" horiz-adv-x="1000" d="M898 354Q898 216 805 124T550 6L538 -210H438L426 2Q330 8 253 37T112 106L162 196Q220 162 299 142T446 122Q580 122 653 181T726 340Q726 414 681 461T570 542T425 611T280 688T169 796T124 960Q124
1084 205 1170T426 1278L438 1490H538L550 1282Q626 1276 694 1253T814 1198L770 1110Q724 1132 655 1150T516 1168Q405 1168 347 1112T288 976Q288 902 333 854T446 771T593 702T740 625T853 516T898 354Z" />
<glyph unicode="%" glyph-name="percent" horiz-adv-x="1388" d="M1134 292Q1134 402 1103 459T992 516Q928 516 891 469T854 300Q854 182 887 131T994 80Q1072 80 1103 135T1134 292ZM534 1046Q534 1156 503 1213T394 1270Q328 1270 291 1223T254 1054Q254 936
288 885T394 834Q472 834 503 889T534 1046ZM1266 298Q1266 136 1196 60T986 -16Q910 -16 859 2T778 57T735 153T722 294Q722 464 794 538T1002 612Q1150 612 1208 534T1266 298ZM254 -34L164 22L1134 1384L1222 1328L254 -34ZM666 1052Q666 890 596 814T388 738Q312
738 261 756T179 811T135 907T122 1048Q122 1218 194 1292T402 1366Q550 1366 608 1288T666 1052Z" />
<glyph unicode="&amp;" glyph-name="ampersand" horiz-adv-x="1392" d="M818 226Q716 316 616 421T434 632Q360 578 314 511T268 354Q268 228 336 164T530 100Q614 100 689 138T818 226ZM722 1100Q722 1164 682 1212T546 1260Q458 1260 411 1210T364 1082Q364
1030 393 964T486 810Q556 860 601 897T673 967T711 1032T722 1100ZM1306 6Q1286 -4 1260 -10T1188 -16Q1146 -16 1079 26T910 148Q826 72 720 28T498 -16Q308 -16 210 75T112 328Q112 458 182 555T362 726Q286 828 249 910T212 1062Q212 1128 235 1183T302 1279T411
1343T562 1366Q716 1366 794 1297T872 1120Q872 1054 850 1002T787 903T688 813T556 722Q630 626 725 526T912 340Q976 432 1009 538T1042 752H1196Q1196 618 1144 484T1014 248Q1098 178 1154 141T1242 104H1306V6V6Z" />
<glyph unicode="&apos;" glyph-name="quotesingle" horiz-adv-x="640" d="M384 840H270L250 1350H406L384 840Z" />
<glyph unicode="(" glyph-name="parenleft" horiz-adv-x="620" d="M414 -343Q355 -254 308 -150T227 67T175 300T156 542Q156 675 176 801T231 1043T313 1261T414 1450L520 1409Q474 1323 436 1223T369 1014T325 790T308 560Q308 429 326 309T373 79T441 -126T520
-302L414 -343Z" />
<glyph unicode=")" glyph-name="parenright" horiz-adv-x="620" d="M100 -301Q145 -215 184 -115T251 94T295 317T312 548Q312 679 294 799T247 1029T179 1234T100 1410L206 1451Q265 1362 312 1258T393 1041T445 808T464 566Q464 433 444 307T389 65T307 -153T206
-342L100 -301Z" />
<glyph unicode="*" glyph-name="asterisk" horiz-adv-x="1000" d="M800 783L552 959L577 657H425L452 959L204 783L129 915L404 1044L129 1173L204 1305L452 1128L425 1431H577L552 1128L800 1305L875 1173L600 1044L875 915L800 783Z" />
<glyph unicode="+" glyph-name="plus" horiz-adv-x="1000" d="M567 536V158H431V536H84V654H431V1024H567V654H912V536H567Z" />
<glyph unicode="," glyph-name="comma" horiz-adv-x="608" d="M410 84Q410 22 397 -31T357 -128T285 -214T176 -296L112 -226Q198 -162 226 -122T254 -42Q254 -22 246 -10T229 10T212 34T204 80Q204 150 225 171T312 192Q372 192 391 167T410 84Z" />
<glyph unicode="-" glyph-name="hyphen" horiz-adv-x="466" d="M64 522V646H464V522H64Z" />
<glyph unicode="." glyph-name="period" horiz-adv-x="580" d="M410 90Q410 28 390 6T306 -16Q244 -16 223 5T202 86Q202 150 223 171T308 192Q372 192 391 171T410 90Z" />
<glyph unicode="/" glyph-name="slash" horiz-adv-x="1000" d="M150 -208H0L822 1418H974L150 -208Z" />
<glyph unicode="0" glyph-name="zero" horiz-adv-x="1000" d="M901 695Q901 490 875 353T795 134T665 18T487 -17Q422 -17 369 -4T272 40T195 121T140 247T107 424T96 660Q96 861 122 997T200 1215T329 1332T509 1367Q605 1367 678 1337T801 1231T875 1025T901
695V695ZM737 667Q737 780 731 867T713 1018T681 1125T635 1194T574 1232T499 1243Q457 1243 424 1232T363 1194T317 1125T285 1021T266 877T260 689Q260 518 273 406T316 227T390 135T499 109Q540 109 574 120T634 158T680 228T712 333T731 478T737 667V667Z"
/>
<glyph unicode="1" glyph-name="one" horiz-adv-x="1000" d="M892 142V0H145V142H450V1183L178 1076L139 1181L489 1350H620V142H892Z" />
<glyph unicode="2" glyph-name="two" horiz-adv-x="1000" d="M97 0V131Q207 245 291 339T438 512T543 657T610 779T647 884T658 978Q658 1052 639 1100T588 1178T513 1218T423 1230Q390 1230 358 1226T293 1213T223 1194T147 1169L118 1278Q165 1298 207 1314T293
1342T384 1360T490 1367Q557 1367 621 1349T734 1287T814 1175T845 1003Q845 917 817 830T725 643T553 420T286 142H880V0H97Z" />
<glyph unicode="3" glyph-name="three" horiz-adv-x="1000" d="M86 160Q189 137 271 125T418 113Q495 113 547 130T632 181T678 267T692 387Q692 448 678 498T631 582T545 635T415 653H260V778H408Q470 778 516 793T593 839T638 916T653 1024Q653 1073 642 1112T603
1179T532 1222T422 1237Q392 1237 355 1233T280 1223T205 1208T141 1189L117 1297Q147 1309 186 1321T271 1344T369 1360T479 1367Q570 1367 636 1342T746 1272T809 1170T830 1045Q830 977 814 924T770 831T704 767T621 730Q684 726 731 697T810 623T858 520T874
403Q874 295 848 216T767 86T631 9T442 -17Q405 -17 364 -13T276 2T178 27T70 62L86 160Z" />
<glyph unicode="4" glyph-name="four" horiz-adv-x="1000" d="M775 1350V455H937V315H775V0H615V315H55V439Q112 555 173 674T297 910T423 1138T547 1350H775ZM615 1214Q569 1135 518 1046T415 859T308 660T201 455H615V1214Z" />
<glyph unicode="5" glyph-name="five" horiz-adv-x="1000" d="M783 1211H304L277 806Q313 813 362 816T464 820Q566 820 643 792T771 710T849 583T875 415Q875 305 849 225T768 90T631 10T436 -17Q363 -17 273 1T69 58L83 153Q186 135 271 123T426 110Q496 110
548 125T634 174T684 261T701 393Q701 461 685 516T633 611T542 670T409 691Q375 691 342 689T274 683T205 673T131 659L175 1350H311H783V1211Z" />
<glyph unicode="6" glyph-name="six" horiz-adv-x="1000" d="M856 1204Q791 1221 724 1231T590 1242Q519 1242 462 1210T365 1110T303 939T280 692Q320 715 357 733T430 763T503 782T581 788Q659 788 720 764T822 693T885 579T907 426Q907 323 880 241T801 102T678
15T516 -16Q451 -16 397 -4T299 36T221 112T165 232T131 401T119 628Q119 775 135 887T182 1081T254 1217T346 1305T455 1352T575 1366Q640 1366 712 1351T874 1303L856 1204ZM283 570Q283 447 297 359T342 215T418 133T527 107Q582 107 623 126T692 182T732 274T746
398Q746 463 734 512T694 595T624 644T523 661Q498 661 471 657T416 642T354 617T283 579V570Z" />
<glyph unicode="7" glyph-name="seven" horiz-adv-x="1000" d="M636 617Q612 565 585 511T530 400T472 289T413 180T356 76T302 -17L194 25L733 1211H87V1350H924V1228L636 617Z" />
<glyph unicode="8" glyph-name="eight" horiz-adv-x="1000" d="M912 333Q912 260 887 196T809 85T676 11T483 -17Q380 -17 306 7T183 75T111 178T88 311Q88 382 111 438T172 538T261 619T365 687Q316 716 271 750T192 825T137 917T117 1033Q117 1105 142 1166T218
1272T342 1342T512 1367Q616 1367 687 1343T801 1276T863 1176T882 1055Q882 991 862 941T806 849T725 775T630 711Q684 681 735 647T825 567T888 465T912 333V333ZM752 311Q752 371 730 416T670 498T584 566T482 626Q435 598 393 568T318 503T266 426T247 330Q247
277 263 235T313 164T395 119T510 103Q565 103 609 118T686 160T735 226T752 311V311ZM489 1249Q440 1249 401 1235T334 1195T291 1133T276 1052Q276 1000 294 960T345 886T418 825T506 771Q549 797 588 823T658 881T706 949T724 1032Q724 1085 711 1125T669 1193T596
1235T489 1249V1249Z" />
<glyph unicode="9" glyph-name="nine" horiz-adv-x="1000" d="M115 147Q156 138 193 131T266 118T335 111T401 108Q472 108 530 138T630 234T695 404T721 656Q680 632 643 615T570 585T497 566T420 560Q341 560 281 584T178 655T115 769T93 922Q93 1025 121 1107T200
1247T323 1336T484 1367Q548 1367 603 1355T702 1314T779 1237T835 1117T869 947T881 720Q881 571 864 458T816 264T742 128T647 42T537 -3T417 -17Q384 -17 350 -14T277 -2T195 18T100 50L115 147ZM718 778Q718 900 703 988T658 1133T582 1217T474 1244Q418 1244
377 1224T309 1167T269 1075T255 950Q255 885 267 836T307 753T376 704T477 687Q503 687 530 691T585 706T647 731T718 769V778Z" />
<glyph unicode=":" glyph-name="colon" horiz-adv-x="612" d="M432 96Q432 38 410 18T332 -2Q276 -2 253 17T230 92Q230 150 253 170T332 190Q388 190 410 171T432 96ZM432 894Q432 836 410 816T332 796Q276 796 253 816T230 892Q230 950 253 970T332 990Q388
990 410 971T432 894Z" />
<glyph unicode=";" glyph-name="semicolon" horiz-adv-x="612" d="M430 82Q430 -40 375 -127T196 -294L134 -232Q218 -176 250 -130T282 -38Q282 -18 274 -8T255 11T236 35T228 80Q228 138 250 160T332 182Q388 182 409 159T430 82ZM430 894Q430 836 408 816T330
796Q274 796 251 816T228 892Q228 950 251 970T332 990Q386 990 408 971T430 894Z" />
<glyph unicode="&lt;" glyph-name="less" horiz-adv-x="1000" d="M844 142L77 539V651L844 1048L899 931L241 596L899 263L844 142Z" />
<glyph unicode="=" glyph-name="equal" horiz-adv-x="1000" d="M98 346V464H902V346H98ZM98 726V844H902V726H98Z" />
<glyph unicode="&gt;" glyph-name="greater" horiz-adv-x="1000" d="M156 142L101 259L759 594L101 927L156 1048L923 651V539L156 142Z" />
<glyph unicode="?" glyph-name="question" horiz-adv-x="1000" d="M572 82Q572 26 551 6T468 -14Q404 -14 383 6T362 82Q362 140 383 161T470 182Q532 182 552 162T572 82ZM860 1064Q860 992 839 935T785 834T698 736T614 644T561 556T536 442L534 298H402L394
454Q390 516 408 569T457 667T539 771T617 865T663 942T684 1036Q684 1126 622 1181T450 1236Q384 1236 320 1224T200 1194L162 1294Q242 1328 327 1347T490 1366Q584 1366 654 1344T770 1281T838 1185T860 1064Z" />
<glyph unicode="@" glyph-name="at" horiz-adv-x="2020" d="M1174 862Q1143 870 1110 875T1042 880Q966 880 910 852T816 772T760 648T742 490Q742 375 772 320T870 264Q927 264 988 315T1132 482L1174 862ZM1796 816Q1796 673 1760 552T1651 341T1465 200T1206
150H1130L1134 344Q1056 243 981 190T820 136Q695 136 637 220T578 460Q578 713 707 856T1068 1000Q1139 1000 1208 990T1340 964L1262 270Q1359 270 1432 309T1554 419T1625 581T1648 776Q1648 896 1619 993T1525 1161T1357 1271T1106 1310Q910 1310 759 1237T507
1038T358 759T308 444Q308 287 347 166T467 -40T673 -168T970 -212Q1023 -212 1089 -204T1224 -182T1356 -149T1468 -110L1494 -206Q1438 -232 1371 -253T1229 -291T1078 -317T930 -326Q544 -326 351 -137T158 412Q158 618 222 801T413 1124T722 1343T1136 1422Q1305
1422 1430 1379T1637 1256T1757 1065T1796 816Z" />
<glyph unicode="A" glyph-name="A" horiz-adv-x="1068" d="M752 422Q698 610 638 803T514 1190Q462 1016 403 816T296 422H752V422ZM854 0Q838 68 820 144T782 294H264Q248 224 231 149T198 0H34Q72 160 118 330T214 672T318 1016T426 1350H632Q756 990 853 660T1034
0H854Z" />
<glyph unicode="B" glyph-name="B" horiz-adv-x="1120" d="M828 394Q828 515 750 581T510 648H348V130Q376 126 425 123T528 120Q675 120 751 193T828 394ZM762 1018Q762 1112 701 1169T518 1226H348V768H486Q566 768 618 790T702 848T748 928T762 1018ZM1004
410Q1004 320 973 245T878 114T718 28T488 -4Q396 -4 323 -2T184 0V1350H560Q656 1350 726 1327T842 1264T911 1166T934 1042Q934 927 877 848T730 732Q782 725 831 701T919 637T981 540T1004 410Z" />
<glyph unicode="C" glyph-name="C" horiz-adv-x="1036" d="M970 184Q902 92 805 38T580 -16Q352 -16 231 154T110 652Q110 822 145 955T245 1179T400 1318T600 1366Q711 1366 798 1317T948 1146L866 1076Q770 1232 614 1232Q532 1232 470 1189T367 1071T305 897T284
686Q284 401 368 261T614 120Q698 120 765 156T898 268L970 184V184Z" />
<glyph unicode="D" glyph-name="D" horiz-adv-x="1160" d="M876 686Q876 800 856 898T788 1069T661 1183T466 1224Q406 1224 350 1222V132Q414 126 480 126Q674 126 775 263T876 686ZM1050 708Q1050 542 1013 410T900 186T708 45T432 -4Q368 -4 302 -2T184 0V1350Q262
1350 335 1351T490 1352Q646 1352 753 1299T926 1158T1021 953T1050 708Z" />
<glyph unicode="E" glyph-name="E" horiz-adv-x="944" d="M184 0V1350H824V1218H350V766H740V640H350V132H832V0H184Z" />
<glyph unicode="F" glyph-name="F" horiz-adv-x="902" d="M350 1220V748H772V620H350V0H184V1350H812V1220H350Z" />
<glyph unicode="G" glyph-name="G" horiz-adv-x="1144" d="M982 136Q912 72 813 28T578 -16Q472 -16 385 24T237 146T143 356T110 660Q110 834 150 966T259 1187T420 1321T616 1366Q728 1366 818 1317T968 1202L894 1126Q840 1170 772 1201T628 1232Q470 1232
377 1092T284 690Q284 538 307 429T373 252T476 152T610 120Q686 120 738 142T818 186V608H622V734H982V136V136Z" />
<glyph unicode="H" glyph-name="H" horiz-adv-x="1316" d="M966 0V638H350V0H184V1350H350V780H966V1350H1132V0H966Z" />
<glyph unicode="I" glyph-name="I" horiz-adv-x="532" d="M184 0V1350H350V0H184Z" />
<glyph unicode="J" glyph-name="J" horiz-adv-x="548" d="M364 138Q364 60 356 -8T326 -136T268 -248T174 -348L90 -278Q158 -200 178 -100T198 140V1350H364V138V138Z" />
<glyph unicode="K" glyph-name="K" horiz-adv-x="1044" d="M798 0L352 666H350V0H184V1350H350V748H352L774 1350H962L502 736L996 0H798Z" />
<glyph unicode="L" glyph-name="L" horiz-adv-x="842" d="M184 0V1350H350V134H806V0H184Z" />
<glyph unicode="M" glyph-name="M" horiz-adv-x="1680" d="M1346 0Q1344 156 1336 316T1319 624T1298 905T1272 1140H1270L892 0H760L378 1140H376Q366 1028 357 894T341 614T329 312T322 0H160Q168 326 193 674T260 1350H476L840 280H842L1204 1350H1414Q1456
1022 1484 674T1522 0H1346Z" />
<glyph unicode="N" glyph-name="N" horiz-adv-x="1302" d="M956 0L494 822Q459 885 428 942T372 1045Q344 1098 320 1144H318Q320 1097 322 1045Q324 1000 325 945T326 830V0H184V1350H390L804 618Q837 559 868 501T926 394Q955 339 982 288H984Q982 337 980 392Q978
439 977 497T976 614V1350H1120V0H956Z" />
<glyph unicode="O" glyph-name="O" horiz-adv-x="1274" d="M990 664Q990 964 900 1101T632 1238Q554 1238 490 1208T380 1112T309 941T284 688Q284 390 373 252T642 114Q720 114 785 144T895 240T965 411T990 664ZM1164 700Q1164 510 1124 375T1012 153T840 25T622
-16Q506 -16 410 21T247 139T145 347T110 652Q110 836 150 975T264 1201T438 1327T652 1366Q768 1366 862 1330T1024 1214T1128 1007T1164 700Z" />
<glyph unicode="P" glyph-name="P" horiz-adv-x="1030" d="M798 928Q798 1070 721 1148T458 1226H350V626H460Q636 626 717 708T798 928ZM974 948Q974 856 947 774T852 628T679 531T428 498H350V0H184V1350Q250 1350 318 1351T486 1352Q622 1352 716 1323T867
1240T949 1112T974 948Z" />
<glyph unicode="Q" glyph-name="Q" horiz-adv-x="1274" d="M990 664Q990 962 900 1100T632 1238Q552 1238 488 1207T379 1111T309 942T284 690Q284 390 373 252T640 114Q718 114 784 144T896 240T966 414T990 664ZM1336 -306Q1264 -264 1198 -254T1070 -246T950
-250T837 -234T730 -167T624 -16Q504 -18 410 19T248 137T145 348T110 652Q110 842 150 977T262 1198T433 1325T652 1366Q768 1366 862 1330T1024 1214T1128 1007T1164 700Q1164 382 1051 205T734 -4Q786 -68 838 -93T944 -122T1054 -123T1166 -123T1279 -150T1394
-234L1336 -306Z" />
<glyph unicode="R" glyph-name="R" horiz-adv-x="1070" d="M800 979Q800 1037 784 1082T729 1161T631 1210T496 1226H350V722H508Q641 721 720 788T800 979ZM848 0L464 594H350V0H184V1350Q257 1351 336 1352T526 1354Q738 1354 856 1258T974 998Q974 905 943
838T862 727T754 659T632 624L1050 0H848Z" />
<glyph unicode="S" glyph-name="S" horiz-adv-x="992" d="M914 366Q914 283 884 213T795 92T656 12T476 -16Q374 -16 282 13T102 96L144 188Q219 155 302 134T450 112Q580 112 656 173T732 346Q732 421 690 473T594 556T432 638T260 734T153 847T110 1016Q110
1093 139 1157T221 1269T348 1341T508 1366Q597 1366 679 1342T832 1274L790 1182Q729 1208 663 1224T532 1240Q410 1240 347 1184T284 1038Q284 962 326 910T424 826T588 743T763 647T871 534T914 366Z" />
<glyph unicode="T" glyph-name="T" horiz-adv-x="932" d="M548 1218V0H382V1218H32V1350H900V1218H548Z" />
<glyph unicode="U" glyph-name="U" horiz-adv-x="1304" d="M1124 496Q1124 363 1090 266T990 106T835 14T630 -16Q400 -16 290 99T180 470V1350H346V492Q346 386 364 313T419 196T515 131T656 110Q729 110 784 129T879 191T939 306T960 482V1350H1124V496Z" />
<glyph unicode="V" glyph-name="V" horiz-adv-x="1048" d="M1014 1350Q933 995 837 660T622 0H428Q303 361 206 691T34 1350H216Q272 1087 351 805T540 174Q632 459 707 747T848 1350H1014Z" />
<glyph unicode="W" glyph-name="W" horiz-adv-x="1702" d="M1658 1350Q1616 1163 1574 991T1488 654T1396 326T1296 0H1114L888 878L846 1068H844L804 872L596 0H410Q354 171 306 331T215 652T130 985T46 1350H224Q256 1199 290 1055T360 776T422 542T514 210H516L544
348L784 1350H936L1188 368L1222 210H1224Q1302 502 1369 782T1494 1350H1658Z" />
<glyph unicode="X" glyph-name="X" horiz-adv-x="1086" d="M842 0Q756 180 679 319T526 578Q454 464 376 323T220 0H50Q98 108 145 201T240 379T336 544T436 704Q394 774 351 845T265 994T178 1160T86 1350H270Q342 1196 411 1067T548 830Q614 934 686 1063T824
1350H992Q950 1254 908 1171T822 1011T733 862T638 718Q736 562 832 392T1030 0H842Z" />
<glyph unicode="Y" glyph-name="Y" horiz-adv-x="966" d="M968 1350Q864 1119 768 933T566 588V0H400V588Q343 676 292 764T193 944T96 1136T-2 1350H184Q268 1162 341 1018T498 736Q578 864 651 1019T794 1350H968Z" />
<glyph unicode="Z" glyph-name="Z" horiz-adv-x="972" d="M78 0V114L672 1216H108L112 1350H868V1240L274 136H898L892 0H78Z" />
<glyph unicode="[" glyph-name="bracketleft" horiz-adv-x="708" d="M242 -346V1478H575V1373H383V-241H575V-346H242Z" />
<glyph unicode="\" glyph-name="backslash" horiz-adv-x="1000" d="M850 -208L27 1418H177L1000 -208H850Z" />
<glyph unicode="]" glyph-name="bracketright" horiz-adv-x="708" d="M132 -346V-241H324V1373H132V1478H465V-346H132Z" />
<glyph unicode="^" glyph-name="asciicircum" horiz-adv-x="1000" d="M797 731L500 1287L202 731L79 783L431 1418H570L922 782L797 731Z" />
<glyph unicode="_" glyph-name="underscore" horiz-adv-x="1000" d="M0 -351V-229H1000V-351H0Z" />
<glyph unicode="`" glyph-name="grave" horiz-adv-x="658" d="M436 1120L142 1362L260 1440L516 1172L436 1120Z" />
<glyph unicode="a" glyph-name="a" horiz-adv-x="986" d="M662 476H568Q472 476 409 462T309 421T256 358T240 274Q240 194 285 148T414 102Q532 102 662 216V476ZM696 0L682 112Q614 54 537 19T370 -16Q229 -16 156 54T82 250Q82 324 111 385T201 490T356 558T582
582H662V686Q662 790 609 839T438 888Q363 888 289 870T158 830L132 932Q202 962 292 985T483 1008Q574 1008 638 986T742 924T801 830T820 710V0H696Z" />
<glyph unicode="b" glyph-name="b" horiz-adv-x="1038" d="M772 502Q772 672 716 777T558 882Q516 882 453 854T326 768V126Q354 116 394 109T482 102Q542 102 595 126T687 200T749 325T772 502ZM936 532Q936 386 899 282T796 112T640 15T446 -16Q360 -16 295
-7T168 16V1418H326V892Q392 944 459 976T600 1008Q678 1008 740 972T845 873T912 722T936 532Z" />
<glyph unicode="c" glyph-name="c" horiz-adv-x="854" d="M798 130Q738 64 658 24T476 -16Q294 -16 198 110T102 482Q102 604 130 701T209 866T332 971T488 1008Q578 1008 649 976T772 886L710 804Q618 886 508 886Q394 886 331 785T268 506Q268 108 508 108Q570
108 626 132T740 212L798 130V130Z" />
<glyph unicode="d" glyph-name="d" horiz-adv-x="1038" d="M710 864Q672 876 632 883T552 890Q490 890 438 866T348 792T288 666T266 488Q266 312 322 210T480 108Q524 108 585 136T710 222V864ZM740 0L724 110Q658 56 586 20T432 -16Q358 -16 297 19T192 117T125
267T102 458Q102 608 140 712T243 882T393 978T572 1008Q606 1008 645 1005T710 1000V1418H868V0H740Z" />
<glyph unicode="e" glyph-name="e" horiz-adv-x="980" d="M708 590Q708 740 654 817T498 894Q444 894 400 869T329 802T286 705T266 582H708V590ZM266 476V456Q266 270 336 189T540 108Q608 108 681 123T830 170L860 74Q784 33 691 9T502 -16Q406 -16 335 10T212
93T131 242T102 466Q102 728 210 868T508 1008Q596 1008 665 979T781 886T849 721T862 476H266Z" />
<glyph unicode="f" glyph-name="f" horiz-adv-x="590" d="M624 1282Q590 1296 555 1306T488 1316Q414 1316 382 1276T350 1152V992H568V876H350V0H192V876H32V992H192V1144Q192 1280 254 1357T444 1434Q508 1434 563 1416T656 1376L624 1282Z" />
<glyph unicode="g" glyph-name="g" horiz-adv-x="1038" d="M710 862Q672 876 628 883T548 890Q426 890 346 793T266 518Q266 348 321 247T480 146Q532 146 596 179T710 258V862ZM868 32Q868 -86 840 -162T762 -281T642 -340T488 -356Q416 -356 335 -340T178 -296L192
-204Q270 -218 342 -226T474 -234Q594 -234 652 -185T710 -8V138Q650 92 579 58T432 24Q358 24 297 59T193 155T126 300T102 482Q102 620 141 719T245 883T396 978T578 1008Q654 1008 731 997T868 974V32V32Z" />
<glyph unicode="h" glyph-name="h" horiz-adv-x="1080" d="M918 568Q918 522 917 457T915 316T913 159T912 0H756Q756 70 756 144T757 288T759 420T760 528Q760 724 711 802T570 880Q520 880 456 850T326 762V0H168V1418H326V884Q386 936 460 972T624 1008Q692
1008 746 985T838 910T897 774T918 568Z" />
<glyph unicode="i" glyph-name="i" horiz-adv-x="496" d="M168 0V992H326V0H168ZM346 1276Q346 1222 328 1203T250 1184Q186 1184 167 1202T148 1276Q148 1330 167 1349T250 1368Q312 1368 329 1350T346 1276Z" />
<glyph unicode="j" glyph-name="j" horiz-adv-x="496" d="M326 78Q326 6 316 -54T283 -166T223 -265T132 -356L36 -302Q94 -238 131 -154T168 36V992H326V78V78ZM346 1276Q346 1222 328 1203T250 1184Q186 1184 167 1202T148 1276Q148 1330 167 1349T250 1368Q312
1368 329 1350T346 1276Z" />
<glyph unicode="k" glyph-name="k" horiz-adv-x="914" d="M692 0L332 518H326V0H168V1418H326V580H332L646 992H838L478 568L882 0H692Z" />
<glyph unicode="l" glyph-name="l" horiz-adv-x="532" d="M472 6Q444 -4 407 -9T336 -14Q292 -14 261 -6T209 23T178 83T168 182V1418H326V244Q326 154 341 128T404 102Q420 102 435 103T464 106L472 6V6Z" />
<glyph unicode="m" glyph-name="m" horiz-adv-x="1628" d="M1468 568Q1468 518 1467 451T1464 308T1461 153T1460 0H1304Q1304 68 1305 140T1307 281T1309 414T1310 530Q1310 724 1263 802T1132 880Q1080 880 1012 842T880 748Q886 718 891 679T896 572V0H738V530Q738
720 692 800T562 880Q514 880 452 847T326 762V0H168V992H298L312 874Q374 928 452 968T616 1008Q712 1008 769 960T850 850Q926 916 1009 962T1186 1008Q1250 1008 1302 985T1391 910T1448 774T1468 568Z" />
<glyph unicode="n" glyph-name="n" horiz-adv-x="1080" d="M918 568Q918 518 917 451T915 308T913 153T912 0H756Q756 136 758 281T760 532Q760 724 712 802T570 880Q516 880 453 847T326 762V0H168V992H298L312 874Q382 934 460 971T626 1008Q694 1008 748 985T840
910T898 774T918 568Z" />
<glyph unicode="o" glyph-name="o" horiz-adv-x="1044" d="M778 474Q778 586 762 665T713 792T633 863T520 886Q400 886 333 793T266 520Q266 292 329 198T526 104Q644 104 711 198T778 474ZM942 520Q942 382 911 281T822 114T682 16T500 -16Q410 -16 338 10T213
95T131 247T102 474Q102 610 133 711T222 878T362 976T544 1008Q634 1008 707 980T831 895T912 745T942 520Z" />
<glyph unicode="p" glyph-name="p" horiz-adv-x="1038" d="M772 502Q772 672 716 777T558 882Q514 882 452 854T326 768V128Q362 114 402 108T482 102Q544 102 597 126T689 199T750 324T772 502ZM936 534Q936 390 899 286T797 115T645 16T456 -16Q434 -16 397
-15T326 -10V-346H168V992H296L312 880Q380 938 452 973T600 1008Q678 1008 740 972T846 873T913 723T936 534Z" />
<glyph unicode="q" glyph-name="q" horiz-adv-x="1038" d="M710 864Q678 876 636 883T554 890Q492 890 440 865T349 791T288 666T266 488Q266 316 321 212T478 108Q530 108 593 142T710 222V864ZM710 -346V100Q656 54 584 19T438 -16Q360 -16 298 19T193 117T126
267T102 458Q102 602 139 706T242 877T398 976T594 1008Q732 1008 868 974V-346H710Z" />
<glyph unicode="r" glyph-name="r" horiz-adv-x="698" d="M630 838Q604 848 586 850T554 852Q508 852 457 812T326 674V0H168V992H298L314 814Q358 868 393 905T458 964T515 996T568 1006Q608 1006 648 986L630 838Z" />
<glyph unicode="s" glyph-name="s" horiz-adv-x="802" d="M722 274Q722 145 626 65T366 -16Q288 -16 219 2T82 54L102 144Q175 122 231 112T342 102Q447 102 500 146T554 260Q554 297 539 325T497 373T440 409T356 444T271 479T204 516T144 568T102 639T86 734Q86
854 175 931T410 1008Q471 1008 528 995T646 950L622 862Q523 892 436 892Q347 892 299 852T250 750Q250 703 274 671T337 617T443 568T552 522T632 472T697 392T722 274Z" />
<glyph unicode="t" glyph-name="t" horiz-adv-x="694" d="M642 42Q520 -16 418 -16Q296 -16 243 42T190 250V876H32V992H192Q204 1058 215 1127T234 1274H348V992H616V876H348V290Q348 184 372 145T466 106Q494 106 530 112T622 138L642 42V42Z" />
<glyph unicode="u" glyph-name="u" horiz-adv-x="1080" d="M780 0L766 116Q698 56 620 20T456 -16Q388 -16 333 7T240 82T181 218T160 424Q160 474 161 541T164 684T167 839T168 992H324Q324 856 322 711T320 460Q320 272 366 192T510 112Q564 112 627 144T752
228V992H910V0H780Z" />
<glyph unicode="v" glyph-name="v" horiz-adv-x="922" d="M868 992Q844 874 812 747T739 492T649 239T542 0H526H386H364L38 992H210L428 334L474 166Q552 364 609 575T700 992H868V992Z" />
<glyph unicode="w" glyph-name="w" horiz-adv-x="1460" d="M1400 992Q1358 762 1287 512T1114 0H942L748 666L720 794H718L692 664L522 0H342L50 992H220L398 360L444 186H446L478 332L644 992H814L1012 314L1044 188H1046Q1108 388 1159 589T1240 992H1400V992Z" />
<glyph unicode="x" glyph-name="x" horiz-adv-x="938" d="M700 0L458 430Q394 316 334 203T230 0H52L368 524L102 992H284L478 628Q502 668 528 716T579 813T625 909T662 992H834L566 544L886 0H700Z" />
<glyph unicode="y" glyph-name="y" horiz-adv-x="922" d="M868 992Q808 706 744 494T615 133T485 -112T358 -261T240 -334T130 -354Q104 -354 72 -347T8 -328V-232Q24 -234 50 -235T94 -236Q196 -236 264 -174Q310 -130 329 -90T348 4Q348 42 335 101T284 264L38
992H210L404 400Q436 310 453 229T464 102Q498 186 533 292T599 514T656 753T700 992H868V992Z" />
<glyph unicode="z" glyph-name="z" horiz-adv-x="800" d="M708 0H84V102L508 870H102L108 992H690V892L266 124H712L708 0Z" />
<glyph unicode="{" glyph-name="braceleft" horiz-adv-x="776" d="M535 -346Q465 -346 419 -330T346 -282T308 -203T297 -96V325Q297 365 291 400T268 460T223 501T149 517H104V635H149Q193 635 222 649T267 688T290 747T297 819V1230Q297 1289 311 1335T356 1413T432
1461T542 1478H611V1378H559Q530 1378 508 1369T470 1340T446 1293T437 1231V875Q437 802 425 749T389 659T331 604T254 577Q297 571 331 551T388 494T424 403T437 275V-99Q437 -139 444 -167T465 -213T503 -238T561 -246H611V-346H535Z" />
<glyph unicode="|" glyph-name="bar" horiz-adv-x="504" d="M179 -346V1506H322V-346H179Z" />
<glyph unicode="}" glyph-name="braceright" horiz-adv-x="776" d="M624 517Q580 517 551 503T506 463T483 405T476 333V-98Q476 -158 462 -204T417 -281T341 -329T231 -346H162V-246H214Q243 -246 265 -237T303 -208T327 -161T336 -99V277Q336 350 348 403T384
493T442 548T519 575Q476 581 442 601T385 658T349 749T336 877V1231Q336 1271 329 1299T308 1345T270 1370T212 1378H162V1478H238Q308 1478 354 1462T427 1414T465 1335T476 1228V827Q476 787 482 752T505 691T550 650T624 635H669V517H624Z" />
<glyph unicode="~" glyph-name="asciitilde" horiz-adv-x="1000" d="M925 1174Q925 1114 907 1063T856 974T774 915T665 893Q609 893 570 908T502 947T451 998T408 1048T363 1087T305 1103Q275 1103 252 1091T212 1056T188 999T180 922H59V947Q59 1011 78 1062T131
1151T213 1208T318 1229Q373 1229 412 1214T480 1175T532 1124T575 1074T621 1035T679 1019Q713 1019 736 1032T774 1070T796 1127T803 1201H925V1174Z" />
<glyph unicode="&#x8e;" glyph-name="Zcaron" horiz-adv-x="972" d="M78 0V114L672 1216H108L112 1350H868V1240L274 136H898L892 0H78ZM250 1708L494 1584L736 1708L780 1636L492 1456L204 1634L250 1708Z" />
<glyph unicode="&#x9e;" glyph-name="zcaron" horiz-adv-x="800" d="M708 0H84V102L508 870H102L108 992H690V892L266 124H712L708 0ZM658 1124L386 1376L444 1444L662 1278L880 1444L936 1376L658 1124Z" />
<glyph unicode="&#xa0;" glyph-name="space" horiz-adv-x="480" />
<glyph unicode="&#xa1;" glyph-name="exclamdown" horiz-adv-x="734" d="M378 845L407 -208H213L244 845H378ZM207 1059Q207 1087 211 1106T227 1135T259 1150T312 1155Q344 1155 364 1151T397 1136T413 1106T418 1059Q418 1031 414 1012T397 982T365 966T312
961Q280 961 260 965T228 981T212 1011T207 1059V1059Z" />
<glyph unicode="&#xa2;" glyph-name="cent" horiz-adv-x="1000" d="M846 348Q794 300 733 265T594 220L580 -4H480L468 212Q310 228 221 334T132 662Q132 764 157 846T226 988T332 1085T468 1136L480 1354H580L594 1138Q660 1132 714 1104T820 1024L760 944Q704
988 654 1007T558 1026Q444 1026 371 936T298 688Q298 506 366 419T552 332Q674 332 790 430L846 348V348Z" />
<glyph unicode="&#xa3;" glyph-name="sterling" horiz-adv-x="1000" d="M86 0V110Q144 168 181 225T237 343T258 472T250 622H70V736H230Q216 794 203 858T190 988Q190 1088 217 1159T292 1275T406 1342T550 1364Q628 1364 716 1342T868 1288L844 1198Q688 1242
588 1242Q520 1242 476 1224T406 1175T370 1102T360 1010Q360 938 373 872T400 736H768V622H418Q428 546 426 480T408 354T359 239T272 130H900V0H86Z" />
<glyph unicode="&#xa4;" glyph-name="currency" horiz-adv-x="1000" d="M708 508Q708 670 657 736T494 802Q398 802 344 740T290 544Q290 380 341 313T502 246Q598 246 653 309T708 508ZM820 34L690 204Q644 176 594 161T482 146Q370 146 304 194L182 34L72 108L212
256Q182 298 164 361T146 510Q146 680 224 780L72 940L180 1016L312 844Q356 874 405 889T518 904Q624 904 698 854L820 1016L930 940L786 790Q818 748 836 687T854 544Q854 370 776 270L930 108L820 34Z" />
<glyph unicode="&#xa5;" glyph-name="yen" horiz-adv-x="1000" d="M580 482V312H864V200H580V0H420V200H136V312H420V482H136V594H420V636Q365 719 315 802T216 973T121 1152T22 1350H204Q285 1171 358 1032T516 764Q557 826 596 897T672 1044T740 1193T808 1350H980Q861
1113 772 950T580 636V594H864V482H580Z" />
<glyph unicode="&#xa6;" glyph-name="brokenbar" horiz-adv-x="504" d="M320 -346H183V395H320V-346ZM183 1512H320V733H183V1512Z" />
<glyph unicode="&#xa7;" glyph-name="section" horiz-adv-x="1006" d="M247 -196Q295 -214 338 -222T432 -230Q481 -230 514 -218T566 -183T594 -129T602 -60Q602 -14 581 27T524 108T443 188T351 272T258 364T177 470T120 595T98 744Q98 823 116 900T169 1045T249
1173T349 1274T462 1340T582 1365Q644 1365 696 1351T787 1313L753 1218Q717 1230 673 1236T585 1243Q537 1243 505 1231T454 1197T426 1144T418 1074Q418 1028 439 987T496 905T577 825T670 741T763 648T844 541T901 415T923 264Q923 186 904 111T851 -33T772
-160T672 -260T558 -327T436 -351Q400 -351 370 -347T313 -336T262 -317T212 -290L247 -196ZM783 236Q783 314 759 377T697 495T610 595T514 685T424 772T354 861T318 960T332 1074Q308 1042 291 1007T262 934T244 856T237 772Q237 695 261 633T324 517T410 418T506
329T596 242T666 152T701 51T686 -68Q708 -38 725 -7T756 61T776 140T783 236V236Z" />
<glyph unicode="&#xa8;" glyph-name="dieresis" horiz-adv-x="842" d="M314 1276Q314 1227 298 1211T230 1194Q177 1194 160 1210T142 1276Q142 1327 160 1344T230 1362Q282 1362 298 1346T314 1276ZM700 1276Q700 1227 683 1211T614 1194Q562 1194 545 1210T528
1276Q528 1327 545 1344T614 1362Q667 1362 683 1346T700 1276Z" />
<glyph unicode="&#xa9;" glyph-name="copyright" horiz-adv-x="1548" d="M1458 676Q1458 581 1435 493T1368 327T1263 186T1125 76T960 5T774 -20Q624 -20 498 32T281 178T139 398T88 674Q88 768 111 856T178 1022T283 1162T420 1272T585 1343T772 1368Q926 1368
1052 1315T1269 1168T1408 948T1458 676ZM1338 676Q1338 803 1297 910T1180 1096T1002 1218T774 1262Q654 1262 551 1216T371 1091T252 904T208 674Q208 550 251 443T369 257T548 132T774 86Q894 86 997 132T1176 258T1295 445T1338 676ZM1026 402Q978 357 917
328T770 298Q626 298 547 390T468 668Q468 759 491 831T558 955T661 1033T794 1060Q860 1060 910 1038T1006 968L950 898Q911 930 875 942T802 954Q760 954 727 935T669 880T633 796T620 686Q620 549 665 478T798 406Q843 406 886 422T974 474L1026 402Z" />
<glyph unicode="&#xaa;" glyph-name="ordfeminine" horiz-adv-x="918" d="M598 678L588 766Q554 740 524 721T464 690T406 671T347 665Q297 665 257 681T189 725T147 792T132 874Q132 921 151 964T214 1041T328 1095T501 1115H572V1183Q572 1222 560 1249T525
1293T471 1317T400 1325Q352 1325 297 1315T187 1285L164 1372Q193 1384 227 1395T298 1414T373 1427T447 1431Q523 1431 574 1414T655 1365T696 1291T708 1196V678H598ZM572 1024H497Q428 1024 384 1014T314 987T278 944T268 888Q268 863 275 841T297 803T334
777T387 767Q406 767 427 774T472 792T521 818T572 849V1024ZM142 422V523H723V422H142Z" />
<glyph unicode="&#xab;" glyph-name="guillemotleft" horiz-adv-x="1008" d="M344 206L97 590L344 974L447 933L262 590L447 246L344 206ZM732 219L495 590L733 961L834 921L659 590L834 258L732 219Z" />
<glyph unicode="&#xac;" glyph-name="logicalnot" horiz-adv-x="1000" d="M749 266V535H82V655H885V266H749Z" />
<glyph unicode="&#xad;" glyph-name="hyphen" horiz-adv-x="466" d="M64 522V646H464V522H64Z" />
<glyph unicode="&#xae;" glyph-name="registered" horiz-adv-x="1134" d="M630 1070Q630 1104 610 1122T544 1140H514V1000H552Q588 1000 609 1020T630 1070ZM730 1078Q730 1033 702 999T624 944L750 734H632L532 928H514V734H416V1212Q449 1212 494 1213T556
1214Q643 1214 686 1178T730 1078ZM920 968Q920 1041 894 1107T819 1222T705 1300T566 1328Q491 1328 426 1300T312 1223T237 1107T210 968Q210 895 236 829T311 714T425 636T566 608Q640 608 705 636T818 713T893 829T920 968ZM1020 970Q1020 876 986 794T888
649T742 553T564 518Q469 518 386 552T240 647T144 791T110 968Q110 1061 144 1143T242 1288T388 1385T566 1420Q661 1420 744 1386T890 1290T986 1146T1020 970Z" />
<glyph unicode="&#xaf;" glyph-name="macron" horiz-adv-x="808" d="M142 1206V1322H664V1206H142Z" />
<glyph unicode="&#xb0;" glyph-name="degree" horiz-adv-x="900" d="M719 1122Q719 1057 702 1009T652 927T568 878T453 861Q383 861 333 875T249 921T200 1001T184 1116Q184 1181 201 1230T253 1313T339 1363T459 1380Q527 1380 576 1365T657 1319T704 1239T719
1122V1122ZM587 1120Q587 1166 580 1197T558 1245T518 1270T454 1277Q415 1277 389 1268T347 1241T324 1192T317 1120Q317 1078 322 1048T341 1000T383 973T454 964Q492 964 517 973T557 1001T580 1050T587 1120V1120Z" />
<glyph unicode="&#xb1;" glyph-name="plusminus" horiz-adv-x="1000" d="M86 0V114H909V0H86ZM566 622V265H433V622H86V736H433V1085H566V736H909V622H566Z" />
<glyph unicode="&#xb2;" glyph-name="twosuperior" horiz-adv-x="686" d="M84 728V826Q187 910 255 974T362 1087T418 1173T434 1240Q434 1275 423 1298T393 1334T348 1353T294 1358Q250 1358 206 1347T114 1324L94 1408Q125 1419 154 1428T213 1445T277 1456T350
1460Q396 1460 439 1449T514 1414T566 1352T586 1260Q586 1218 570 1174T516 1078T414 968T254 836H608V728H84Z" />
<glyph unicode="&#xb3;" glyph-name="threesuperior" horiz-adv-x="688" d="M618 942Q618 880 598 837T540 767T448 727T324 714Q271 714 210 723T76 756L88 832Q153 820 204 814T300 808Q392 808 431 839T470 932Q470 992 429 1024T290 1056H190V1148H292Q367
1148 406 1177T446 1262Q446 1310 414 1337T310 1364Q290 1364 267 1362T218 1357T169 1348T124 1338L104 1418Q151 1435 214 1447T350 1460Q473 1460 532 1410T592 1278Q592 1243 582 1216T553 1167T511 1133T460 1112Q497 1107 526 1092T576 1054T607 1002T618
942Z" />
<glyph unicode="&#xb4;" glyph-name="acute" horiz-adv-x="658" d="M224 1120L142 1172L398 1440L516 1362L224 1120Z" />
<glyph unicode="&#xb5;" glyph-name="mu" horiz-adv-x="1086" d="M787 0L773 117Q741 89 707 65T636 24T561 -2T486 -12Q425 -12 381 15T316 80Q316 80 316 62T318 14T320 -54T322 -133T325 -211T327 -280T328 -328T329 -346H169V991H326V423Q326 351 333 294T362
196T420 134T515 112Q542 112 572 120T633 144T696 181T759 229V991H917V0H787Z" />
<glyph unicode="&#xb6;" glyph-name="paragraph" horiz-adv-x="1240" d="M926 -209V1240H729V-209H597V600Q501 584 418 605T273 675T176 800T141 968Q141 1051 168 1120T248 1241T377 1321T550 1350H1058V-209H926Z" />
<glyph unicode="&#xb7;" glyph-name="periodcentered" horiz-adv-x="522" d="M363 595Q363 564 359 544T344 512T312 496T262 492Q230 492 211 496T179 511T163 542T159 592Q159 622 163 642T179 675T211 691T263 695Q294 695 313 691T344 676T359 645T363 595V595Z" />
<glyph unicode="&#xb8;" glyph-name="cedilla" horiz-adv-x="522" d="M376 -86Q386 -171 349 -236T230 -358L142 -308Q202 -255 222 -209T236 -86H376Z" />
<glyph unicode="&#xb9;" glyph-name="onesuperior" horiz-adv-x="672" d="M102 728V830H286V1328L124 1280L100 1360L318 1450H426V830H592V728H102Z" />
<glyph unicode="&#xba;" glyph-name="ordmasculine" horiz-adv-x="870" d="M753 1065Q753 963 727 888T655 764T547 690T413 665Q346 665 290 684T191 747T124 863T100 1039Q100 1141 126 1215T199 1336T305 1407T434 1431Q501 1431 559 1410T660 1345T728 1232T753
1065V1065ZM613 1029Q613 1110 601 1166T565 1258T506 1310T424 1327Q380 1327 346 1310T289 1261T253 1180T240 1071Q240 987 252 930T289 837T348 785T430 769Q472 769 506 784T563 831T600 912T613 1029V1029ZM135 422V523H716V422H135Z" />
<glyph unicode="&#xbb;" glyph-name="guillemotright" horiz-adv-x="1008" d="M663 974L910 590L663 206L560 247L745 590L560 934L663 974ZM275 961L512 590L274 219L173 259L348 590L173 921L275 961Z" />
<glyph unicode="&#xbc;" glyph-name="onequarter" horiz-adv-x="1426" d="M102 728V830H286V1328L124 1280L100 1360L318 1450H426V830H592V728H102ZM1286 1461L1378 1409L236 -138L144 -87L1286 1461ZM1273 40V-116H1135V40H779V134Q810 190 847 251T923 374T1003
493T1081 602H1273V142H1383V40H1273ZM1135 510Q1107 475 1076 431T1012 339T949 240T889 142H1135V510Z" />
<glyph unicode="&#xbd;" glyph-name="onehalf" horiz-adv-x="1492" d="M102 728V830H286V1328L124 1280L100 1360L318 1450H426V830H592V728H102ZM1286 1461L1378 1409L236 -138L144 -87L1286 1461ZM889 -116V-18Q992 66 1060 130T1167 243T1223 329T1239 396Q1239
431 1228 454T1198 490T1153 509T1099 514Q1055 514 1011 503T919 480L899 564Q930 575 959 584T1018 601T1082 612T1155 616Q1201 616 1244 605T1319 570T1371 508T1391 416Q1391 374 1375 330T1321 234T1219 124T1059 -8H1413V-116H889Z" />
<glyph unicode="&#xbe;" glyph-name="threequarters" horiz-adv-x="1446" d="M618 942Q618 880 598 837T540 767T448 727T324 714Q271 714 210 723T76 756L88 832Q153 820 204 814T300 808Q392 808 431 839T470 932Q470 992 429 1024T290 1056H190V1148H292Q367
1148 406 1177T446 1262Q446 1310 414 1337T310 1364Q290 1364 267 1362T218 1357T169 1348T124 1338L104 1418Q151 1435 214 1447T350 1460Q473 1460 532 1410T592 1278Q592 1243 582 1216T553 1167T511 1133T460 1112Q497 1107 526 1092T576 1054T607 1002T618
942ZM1307 1461L1399 1409L257 -138L165 -87L1307 1461ZM1293 40V-116H1155V40H799V134Q830 190 867 251T943 374T1023 493T1101 602H1293V142H1403V40H1293ZM1155 510Q1127 475 1096 431T1032 339T969 240T909 142H1155V510Z" />
<glyph unicode="&#xbf;" glyph-name="questiondown" horiz-adv-x="1000" d="M141 88Q141 160 164 214T222 314T299 398T376 482T436 578T463 700L466 845H598L606 689Q609 621 590 566T538 462T468 372T396 290T340 207T317 117Q317 68 332 29T377 -37T450 -80T549
-95Q584 -95 618 -92T685 -82T745 -68T799 -51L838 -152Q799 -168 758 -181T674 -204T591 -219T511 -224Q414 -224 344 -201T229 -137T163 -38T141 88V88ZM427 1059Q427 1087 432 1106T448 1135T480 1150T531 1155Q564 1155 585 1151T618 1136T634 1106T639 1059Q639
1031 634 1012T617 982T584 966T530 961Q499 961 479 965T448 981T432 1011T427 1059V1059Z" />
<glyph unicode="&#xc0;" glyph-name="Agrave" horiz-adv-x="1068" d="M752 422Q698 610 638 803T514 1190Q462 1016 403 816T296 422H752V422ZM854 0Q838 68 820 144T782 294H264Q248 224 231 149T198 0H34Q72 160 118 330T214 672T318 1016T426 1350H632Q756
990 853 660T1034 0H854ZM575 1456L213 1596L289 1708L625 1532L575 1456Z" />
<glyph unicode="&#xc1;" glyph-name="Aacute" horiz-adv-x="1068" d="M752 422Q698 610 638 803T514 1190Q462 1016 403 816T296 422H752V422ZM854 0Q838 68 820 144T782 294H264Q248 224 231 149T198 0H34Q72 160 118 330T214 672T318 1016T426 1350H632Q756
990 853 660T1034 0H854ZM467 1456L417 1532L753 1708L829 1596L467 1456Z" />
<glyph unicode="&#xc2;" glyph-name="Acircumflex" horiz-adv-x="1068" d="M752 422Q698 610 638 803T514 1190Q462 1016 403 816T296 422H752V422ZM854 0Q838 68 820 144T782 294H264Q248 224 231 149T198 0H34Q72 160 118 330T214 672T318 1016T426 1350H632Q756
990 853 660T1034 0H854ZM774 1456L528 1578L288 1456L242 1528L532 1708L818 1530L774 1456Z" />
<glyph unicode="&#xc3;" glyph-name="Atilde" horiz-adv-x="1068" d="M752 422Q698 610 638 803T514 1190Q462 1016 403 816T296 422H752V422ZM854 0Q838 68 820 144T782 294H264Q248 224 231 149T198 0H34Q72 160 118 330T214 672T318 1016T426 1350H632Q756
990 853 660T1034 0H854ZM861 1628Q808 1539 760 1503T641 1466Q598 1466 565 1480T493 1524T435 1565T393 1576Q361 1576 336 1555T263 1470L191 1520Q244 1609 292 1645T411 1682Q454 1682 487 1668T560 1624T617 1583T659 1572Q691 1572 716 1593T789 1678L861
1628Z" />
<glyph unicode="&#xc4;" glyph-name="Adieresis" horiz-adv-x="1068" d="M752 422Q698 610 638 803T514 1190Q462 1016 403 816T296 422H752V422ZM854 0Q838 68 820 144T782 294H264Q248 224 231 149T198 0H34Q72 160 118 330T214 672T318 1016T426 1350H632Q756
990 853 660T1034 0H854ZM817 1556Q817 1509 800 1493T731 1476Q677 1476 660 1492T643 1556Q643 1605 660 1621T731 1638Q782 1638 799 1622T817 1556ZM419 1556Q419 1509 402 1493T333 1476Q282 1476 264 1492T245 1556Q245 1604 263 1621T333 1638Q385 1638
402 1622T419 1556Z" />
<glyph unicode="&#xc5;" glyph-name="Aring" horiz-adv-x="1068" d="M752 422Q698 610 638 803T514 1190Q462 1016 403 816T296 422H752V422ZM854 0Q838 68 820 144T782 294H264Q248 224 231 149T198 0H34Q72 160 118 330T214 672T318 1016T426 1350H632Q756 990
853 660T1034 0H854ZM723 1552Q723 1513 709 1482T668 1430T603 1397T519 1385Q468 1385 432 1395T372 1425T337 1475T326 1543Q326 1579 340 1609T381 1661T446 1695T531 1708Q581 1708 618 1697T678 1665T712 1615T723 1552V1552ZM611 1545Q611 1590 591 1610T525
1631Q478 1631 458 1610T437 1545Q437 1523 442 1508T457 1482T484 1467T525 1462Q573 1462 592 1483T611 1545V1545Z" />
<glyph unicode="&#xc6;" glyph-name="AE" horiz-adv-x="1428" d="M667 0V295H258Q243 259 228 221T199 145T170 70T145 0H-26Q44 173 117 345T266 687T421 1023T581 1350H1307V1218H833V766H1224V639H833V133H1315V0H667ZM667 1220H665Q613 1114 566 1012T474
811T387 615T306 423H667V1220Z" />
<glyph unicode="&#xc7;" glyph-name="Ccedilla" horiz-adv-x="1036" d="M970 184Q902 92 805 38T580 -16Q352 -16 231 154T110 652Q110 822 145 955T245 1179T400 1318T600 1366Q711 1366 798 1317T948 1146L866 1076Q770 1232 614 1232Q532 1232 470 1189T367
1071T305 897T284 686Q284 401 368 261T614 120Q698 120 765 156T898 268L970 184V184ZM663 -86Q673 -171 636 -236T517 -358L429 -308Q489 -255 509 -209T523 -86H663Z" />
<glyph unicode="&#xc8;" glyph-name="Egrave" horiz-adv-x="944" d="M184 0V1350H824V1218H350V766H740V640H350V132H832V0H184ZM560 1456L198 1596L274 1708L610 1532L560 1456Z" />
<glyph unicode="&#xc9;" glyph-name="Eacute" horiz-adv-x="944" d="M184 0V1350H824V1218H350V766H740V640H350V132H832V0H184ZM449 1456L399 1532L735 1708L811 1596L449 1456Z" />
<glyph unicode="&#xca;" glyph-name="Ecircumflex" horiz-adv-x="944" d="M184 0V1350H824V1218H350V766H740V640H350V132H832V0H184ZM744 1456L498 1578L258 1456L212 1528L502 1708L788 1530L744 1456Z" />
<glyph unicode="&#xcb;" glyph-name="Edieresis" horiz-adv-x="944" d="M184 0V1350H824V1218H350V766H740V640H350V132H832V0H184ZM787 1556Q787 1509 770 1493T701 1476Q647 1476 630 1492T613 1556Q613 1605 630 1621T701 1638Q752 1638 769 1622T787 1556ZM389
1556Q389 1509 372 1493T303 1476Q252 1476 234 1492T215 1556Q215 1604 233 1621T303 1638Q355 1638 372 1622T389 1556Z" />
<glyph unicode="&#xcc;" glyph-name="Igrave" horiz-adv-x="532" d="M184 0V1350H350V0H184ZM311 1456L-51 1596L25 1708L361 1532L311 1456Z" />
<glyph unicode="&#xcd;" glyph-name="Iacute" horiz-adv-x="532" d="M184 0V1350H350V0H184ZM206 1456L156 1532L492 1708L568 1596L206 1456Z" />
<glyph unicode="&#xce;" glyph-name="Icircumflex" horiz-adv-x="532" d="M184 0V1350H350V0H184ZM511 1456L265 1578L25 1456L-21 1528L269 1708L555 1530L511 1456Z" />
<glyph unicode="&#xcf;" glyph-name="Idieresis" horiz-adv-x="532" d="M184 0V1350H350V0H184ZM553 1556Q553 1509 536 1493T467 1476Q413 1476 396 1492T379 1556Q379 1605 396 1621T467 1638Q518 1638 535 1622T553 1556ZM155 1556Q155 1509 138 1493T69 1476Q18
1476 0 1492T-19 1556Q-19 1604 -1 1621T69 1638Q121 1638 138 1622T155 1556Z" />
<glyph unicode="&#xd0;" glyph-name="Eth" horiz-adv-x="1180" d="M203 1350Q282 1350 355 1351T511 1353Q614 1353 696 1329T840 1262T946 1159T1018 1027T1058 874T1071 708Q1071 542 1034 410T921 186T729 45T453 -4Q421 -4 388 -4T323 -3T260 -1T203 0V639H73V766H203V1350ZM369
766H613V639H369V132Q401 129 434 128T499 127Q596 127 670 161T794 264T869 439T895 685Q895 761 887 831T859 961T807 1069T730 1152T624 1205T486 1224Q471 1224 457 1224T428 1224T399 1224T369 1222V766Z" />
<glyph unicode="&#xd1;" glyph-name="Ntilde" horiz-adv-x="1302" d="M956 0L494 822Q459 885 428 942T372 1045Q344 1098 320 1144H318Q320 1097 322 1045Q324 1000 325 945T326 830V0H184V1350H390L804 618Q837 559 868 501T926 394Q955 339 982 288H984Q982
337 980 392Q978 439 977 497T976 614V1350H1120V0H956ZM1004 1628Q951 1539 903 1503T784 1466Q741 1466 708 1480T636 1524T578 1565T536 1576Q504 1576 479 1555T406 1470L334 1520Q387 1609 435 1645T554 1682Q597 1682 630 1668T703 1624T760 1583T802 1572Q834
1572 859 1593T932 1678L1004 1628Z" />
<glyph unicode="&#xd2;" glyph-name="Ograve" horiz-adv-x="1274" d="M990 664Q990 964 900 1101T632 1238Q554 1238 490 1208T380 1112T309 941T284 688Q284 390 373 252T642 114Q720 114 785 144T895 240T965 411T990 664ZM1164 700Q1164 510 1124 375T1012
153T840 25T622 -16Q506 -16 410 21T247 139T145 347T110 652Q110 836 150 975T264 1201T438 1327T652 1366Q768 1366 862 1330T1024 1214T1128 1007T1164 700ZM660 1456L298 1596L374 1708L710 1532L660 1456Z" />
<glyph unicode="&#xd3;" glyph-name="Oacute" horiz-adv-x="1274" d="M990 664Q990 964 900 1101T632 1238Q554 1238 490 1208T380 1112T309 941T284 688Q284 390 373 252T642 114Q720 114 785 144T895 240T965 411T990 664ZM1164 700Q1164 510 1124 375T1012
153T840 25T622 -16Q506 -16 410 21T247 139T145 347T110 652Q110 836 150 975T264 1201T438 1327T652 1366Q768 1366 862 1330T1024 1214T1128 1007T1164 700ZM604 1456L554 1532L890 1708L966 1596L604 1456Z" />
<glyph unicode="&#xd4;" glyph-name="Ocircumflex" horiz-adv-x="1274" d="M990 664Q990 964 900 1101T632 1238Q554 1238 490 1208T380 1112T309 941T284 688Q284 390 373 252T642 114Q720 114 785 144T895 240T965 411T990 664ZM1164 700Q1164 510 1124 375T1012
153T840 25T622 -16Q506 -16 410 21T247 139T145 347T110 652Q110 836 150 975T264 1201T438 1327T652 1366Q768 1366 862 1330T1024 1214T1128 1007T1164 700ZM882 1456L636 1578L396 1456L350 1528L640 1708L926 1530L882 1456Z" />
<glyph unicode="&#xd5;" glyph-name="Otilde" horiz-adv-x="1274" d="M990 664Q990 964 900 1101T632 1238Q554 1238 490 1208T380 1112T309 941T284 688Q284 390 373 252T642 114Q720 114 785 144T895 240T965 411T990 664ZM1164 700Q1164 510 1124 375T1012
153T840 25T622 -16Q506 -16 410 21T247 139T145 347T110 652Q110 836 150 975T264 1201T438 1327T652 1366Q768 1366 862 1330T1024 1214T1128 1007T1164 700ZM973 1628Q920 1539 872 1503T753 1466Q710 1466 677 1480T605 1524T547 1565T505 1576Q473 1576 448
1555T375 1470L303 1520Q356 1609 404 1645T523 1682Q566 1682 599 1668T672 1624T729 1583T771 1572Q803 1572 828 1593T901 1678L973 1628Z" />
<glyph unicode="&#xd6;" glyph-name="Odieresis" horiz-adv-x="1274" d="M990 664Q990 964 900 1101T632 1238Q554 1238 490 1208T380 1112T309 941T284 688Q284 390 373 252T642 114Q720 114 785 144T895 240T965 411T990 664ZM1164 700Q1164 510 1124 375T1012
153T840 25T622 -16Q506 -16 410 21T247 139T145 347T110 652Q110 836 150 975T264 1201T438 1327T652 1366Q768 1366 862 1330T1024 1214T1128 1007T1164 700ZM922 1556Q922 1509 905 1493T836 1476Q782 1476 765 1492T748 1556Q748 1605 765 1621T836 1638Q887
1638 904 1622T922 1556ZM524 1556Q524 1509 507 1493T438 1476Q387 1476 369 1492T350 1556Q350 1604 368 1621T438 1638Q490 1638 507 1622T524 1556Z" />
<glyph unicode="&#xd7;" glyph-name="multiply" horiz-adv-x="1000" d="M862 322L774 233L501 507L227 233L140 320L414 594L142 865L230 954L502 682L774 954L861 867L589 595L862 322Z" />
<glyph unicode="&#xd8;" glyph-name="Oslash" horiz-adv-x="1274" d="M1165 698Q1165 571 1147 470T1095 289T1013 152T905 57T773 1T622 -17Q540 -17 468 3T336 66L210 -147L116 -94L251 133Q185 210 147 337T109 652Q109 778 127 880T179 1061T261 1198T369
1293T501 1349T652 1367Q736 1367 807 1347T938 1284L1064 1497L1158 1444L1022 1218Q1089 1140 1127 1012T1165 698V698ZM997 663Q997 792 979 890T924 1055L412 191Q455 148 512 128T643 107Q696 107 743 120T830 162T900 235T952 340T985 482T997 663V663ZM632
1243Q551 1243 486 1213T374 1116T302 943T277 687Q277 561 295 463T350 297L863 1160Q819 1201 762 1222T632 1243V1243Z" />
<glyph unicode="&#xd9;" glyph-name="Ugrave" horiz-adv-x="1304" d="M1124 496Q1124 363 1090 266T990 106T835 14T630 -16Q400 -16 290 99T180 470V1350H346V492Q346 386 364 313T419 196T515 131T656 110Q729 110 784 129T879 191T939 306T960 482V1350H1124V496ZM674
1456L312 1596L388 1708L724 1532L674 1456Z" />
<glyph unicode="&#xda;" glyph-name="Uacute" horiz-adv-x="1304" d="M1124 496Q1124 363 1090 266T990 106T835 14T630 -16Q400 -16 290 99T180 470V1350H346V492Q346 386 364 313T419 196T515 131T656 110Q729 110 784 129T879 191T939 306T960 482V1350H1124V496ZM641
1456L591 1532L927 1708L1003 1596L641 1456Z" />
<glyph unicode="&#xdb;" glyph-name="Ucircumflex" horiz-adv-x="1304" d="M1124 496Q1124 363 1090 266T990 106T835 14T630 -16Q400 -16 290 99T180 470V1350H346V492Q346 386 364 313T419 196T515 131T656 110Q729 110 784 129T879 191T939 306T960 482V1350H1124V496ZM898
1456L652 1578L412 1456L366 1528L656 1708L942 1530L898 1456Z" />
<glyph unicode="&#xdc;" glyph-name="Udieresis" horiz-adv-x="1304" d="M1124 496Q1124 363 1090 266T990 106T835 14T630 -16Q400 -16 290 99T180 470V1350H346V492Q346 386 364 313T419 196T515 131T656 110Q729 110 784 129T879 191T939 306T960 482V1350H1124V496ZM938
1556Q938 1509 921 1493T852 1476Q798 1476 781 1492T764 1556Q764 1605 781 1621T852 1638Q903 1638 920 1622T938 1556ZM540 1556Q540 1509 523 1493T454 1476Q403 1476 385 1492T366 1556Q366 1604 384 1621T454 1638Q506 1638 523 1622T540 1556Z" />
<glyph unicode="&#xdd;" glyph-name="Yacute" horiz-adv-x="966" d="M968 1350Q864 1119 768 933T566 588V0H400V588Q343 676 292 764T193 944T96 1136T-2 1350H184Q268 1162 341 1018T498 736Q578 864 651 1019T794 1350H968ZM457 1456L407 1532L743 1708L819
1596L457 1456Z" />
<glyph unicode="&#xde;" glyph-name="Thorn" horiz-adv-x="1030" d="M183 0V1350H351V1132Q377 1133 409 1133T487 1133Q623 1133 716 1104T866 1021T949 894T974 728Q974 636 945 554T849 411T678 314T419 278H349V0H183ZM349 404H460Q548 404 611 425T716 487T778
583T799 708Q799 779 781 834T721 928T616 986T457 1006H349V404Z" />
<glyph unicode="&#xdf;" glyph-name="germandbls" horiz-adv-x="1094" d="M169 0V1009Q169 1114 193 1193T267 1326T389 1406T558 1433Q638 1433 699 1415T803 1362T867 1279T889 1173Q889 1101 873 1054T831 975T776 922T722 878T680 827T663 756Q663 718 678
689T718 636T775 592T840 549T904 502T961 445T1001 372T1017 277Q1017 216 997 163T939 71T845 9T716 -14Q654 -14 597 -1T490 39L510 127Q545 115 592 108T684 101Q726 101 757 113T811 146T844 196T855 259Q855 314 829 351T764 417T680 473T596 535T532 618T506
737Q506 793 523 830T565 895T620 945T676 994T719 1057T736 1149Q736 1189 724 1220T687 1272T627 1304T547 1316Q484 1316 442 1296T374 1237T338 1144T327 1019V0H169Z" />
<glyph unicode="&#xe0;" glyph-name="agrave" horiz-adv-x="986" d="M662 476H568Q472 476 409 462T309 421T256 358T240 274Q240 194 285 148T414 102Q532 102 662 216V476ZM696 0L682 112Q614 54 537 19T370 -16Q229 -16 156 54T82 250Q82 324 111 385T201 490T356
558T582 582H662V686Q662 790 609 839T438 888Q363 888 289 870T158 830L132 932Q202 962 292 985T483 1008Q574 1008 638 986T742 924T801 830T820 710V0H696ZM487 1120L193 1362L311 1440L567 1172L487 1120Z" />
<glyph unicode="&#xe1;" glyph-name="aacute" horiz-adv-x="986" d="M662 476H568Q472 476 409 462T309 421T256 358T240 274Q240 194 285 148T414 102Q532 102 662 216V476ZM696 0L682 112Q614 54 537 19T370 -16Q229 -16 156 54T82 250Q82 324 111 385T201 490T356
558T582 582H662V686Q662 790 609 839T438 888Q363 888 289 870T158 830L132 932Q202 962 292 985T483 1008Q574 1008 638 986T742 924T801 830T820 710V0H696ZM460 1120L378 1172L634 1440L752 1362L460 1120Z" />
<glyph unicode="&#xe2;" glyph-name="acircumflex" horiz-adv-x="986" d="M662 476H568Q472 476 409 462T309 421T256 358T240 274Q240 194 285 148T414 102Q532 102 662 216V476ZM696 0L682 112Q614 54 537 19T370 -16Q229 -16 156 54T82 250Q82 324 111 385T201
490T356 558T582 582H662V686Q662 790 609 839T438 888Q363 888 289 870T158 830L132 932Q202 962 292 985T483 1008Q574 1008 638 986T742 924T801 830T820 710V0H696ZM697 1126L477 1292L259 1126L203 1192L481 1444L753 1192L697 1126Z" />
<glyph unicode="&#xe3;" glyph-name="atilde" horiz-adv-x="986" d="M662 476H568Q472 476 409 462T309 421T256 358T240 274Q240 194 285 148T414 102Q532 102 662 216V476ZM696 0L682 112Q614 54 537 19T370 -16Q229 -16 156 54T82 250Q82 324 111 385T201 490T356
558T582 582H662V686Q662 790 609 839T438 888Q363 888 289 870T158 830L132 932Q202 962 292 985T483 1008Q574 1008 638 986T742 924T801 830T820 710V0H696ZM1053 1322Q1002 1233 956 1197T839 1160Q796 1160 763 1174T691 1219T634 1259T593 1270Q561 1270
536 1249T463 1164L393 1216Q420 1261 443 1291T491 1340T544 1368T609 1378Q652 1378 684 1364T756 1320T813 1279T855 1268Q887 1268 912 1290T983 1374L1053 1322Z" />
<glyph unicode="&#xe4;" glyph-name="adieresis" horiz-adv-x="986" d="M662 476H568Q472 476 409 462T309 421T256 358T240 274Q240 194 285 148T414 102Q532 102 662 216V476ZM696 0L682 112Q614 54 537 19T370 -16Q229 -16 156 54T82 250Q82 324 111 385T201
490T356 558T582 582H662V686Q662 790 609 839T438 888Q363 888 289 870T158 830L132 932Q202 962 292 985T483 1008Q574 1008 638 986T742 924T801 830T820 710V0H696ZM374 1276Q374 1227 358 1211T290 1194Q237 1194 220 1210T202 1276Q202 1327 220 1344T290
1362Q342 1362 358 1346T374 1276ZM760 1276Q760 1227 743 1211T674 1194Q622 1194 605 1210T588 1276Q588 1327 605 1344T674 1362Q727 1362 743 1346T760 1276Z" />
<glyph unicode="&#xe5;" glyph-name="aring" horiz-adv-x="986" d="M662 476H568Q472 476 409 462T309 421T256 358T240 274Q240 194 285 148T414 102Q532 102 662 216V476ZM696 0L682 112Q614 54 537 19T370 -16Q229 -16 156 54T82 250Q82 324 111 385T201 490T356
558T582 582H662V686Q662 790 609 839T438 888Q363 888 289 870T158 830L132 932Q202 962 292 985T483 1008Q574 1008 638 986T742 924T801 830T820 710V0H696ZM673 1276Q673 1233 659 1200T617 1143T551 1107T464 1094Q412 1094 375 1105T313 1138T278 1192T267
1266Q267 1306 281 1339T323 1396T390 1433T477 1446Q528 1446 565 1434T627 1400T662 1346T673 1276V1276ZM558 1269Q558 1292 553 1309T537 1338T510 1354T470 1360Q423 1360 403 1338T382 1269Q382 1246 387 1230T402 1202T429 1186T470 1181Q519 1181 538 1204T558
1269V1269Z" />
<glyph unicode="&#xe6;" glyph-name="ae" horiz-adv-x="1532" d="M1412 73Q1336 34 1245 9T1053 -17Q996 -17 945 -6T849 29T771 91T714 183Q680 132 642 94T560 32T470 -4T369 -17Q228 -17 155 53T82 251Q82 324 111 385T201 491T357 559T583 583H662V687Q662
738 649 775T609 838T540 876T438 889Q399 889 361 884T287 870T219 852T158 831L133 931Q166 946 205 960T289 984T383 1001T484 1007Q545 1007 592 996T674 964T732 914T769 848Q794 887 824 917T890 967T969 997T1061 1008Q1119 1008 1169 995T1261 955T1333
885T1384 783T1412 647T1414 475H817V456Q817 363 835 297T887 190T973 129T1091 109Q1124 109 1160 112T1232 123T1306 142T1382 170L1412 73ZM1259 583V589Q1259 661 1247 717T1208 813T1142 874T1049 895Q992 895 951 871T881 804T837 705T818 583H1259ZM568
476Q469 476 406 461T305 419T255 354T241 273Q241 234 252 203T284 149T338 115T413 103Q492 103 554 149T662 277Q662 322 662 372T662 476H568Z" />
<glyph unicode="&#xe7;" glyph-name="ccedilla" horiz-adv-x="854" d="M798 130Q738 64 658 24T476 -16Q294 -16 198 110T102 482Q102 604 130 701T209 866T332 971T488 1008Q578 1008 649 976T772 886L710 804Q618 886 508 886Q394 886 331 785T268 506Q268 108
508 108Q570 108 626 132T740 212L798 130V130ZM543 -86Q553 -171 516 -236T397 -358L309 -308Q369 -255 389 -209T403 -86H543Z" />
<glyph unicode="&#xe8;" glyph-name="egrave" horiz-adv-x="980" d="M708 590Q708 740 654 817T498 894Q444 894 400 869T329 802T286 705T266 582H708V590ZM266 476V456Q266 270 336 189T540 108Q608 108 681 123T830 170L860 74Q784 33 691 9T502 -16Q406 -16
335 10T212 93T131 242T102 466Q102 728 210 868T508 1008Q596 1008 665 979T781 886T849 721T862 476H266ZM518 1120L224 1362L342 1440L598 1172L518 1120Z" />
<glyph unicode="&#xe9;" glyph-name="eacute" horiz-adv-x="980" d="M708 590Q708 740 654 817T498 894Q444 894 400 869T329 802T286 705T266 582H708V590ZM266 476V456Q266 270 336 189T540 108Q608 108 681 123T830 170L860 74Q784 33 691 9T502 -16Q406 -16
335 10T212 93T131 242T102 466Q102 728 210 868T508 1008Q596 1008 665 979T781 886T849 721T862 476H266ZM495 1120L413 1172L669 1440L787 1362L495 1120Z" />
<glyph unicode="&#xea;" glyph-name="ecircumflex" horiz-adv-x="980" d="M708 590Q708 740 654 817T498 894Q444 894 400 869T329 802T286 705T266 582H708V590ZM266 476V456Q266 270 336 189T540 108Q608 108 681 123T830 170L860 74Q784 33 691 9T502 -16Q406
-16 335 10T212 93T131 242T102 466Q102 728 210 868T508 1008Q596 1008 665 979T781 886T849 721T862 476H266ZM717 1126L497 1292L279 1126L223 1192L501 1444L773 1192L717 1126Z" />
<glyph unicode="&#xeb;" glyph-name="edieresis" horiz-adv-x="980" d="M708 590Q708 740 654 817T498 894Q444 894 400 869T329 802T286 705T266 582H708V590ZM266 476V456Q266 270 336 189T540 108Q608 108 681 123T830 170L860 74Q784 33 691 9T502 -16Q406
-16 335 10T212 93T131 242T102 466Q102 728 210 868T508 1008Q596 1008 665 979T781 886T849 721T862 476H266ZM391 1276Q391 1227 375 1211T307 1194Q254 1194 237 1210T219 1276Q219 1327 237 1344T307 1362Q359 1362 375 1346T391 1276ZM777 1276Q777 1227
760 1211T691 1194Q639 1194 622 1210T605 1276Q605 1327 622 1344T691 1362Q744 1362 760 1346T777 1276Z" />
<glyph unicode="&#xec;" glyph-name="igrave" horiz-adv-x="496" d="M169 0V991H327V0H169ZM278 1120L-16 1362L102 1440L358 1172L278 1120Z" />
<glyph unicode="&#xed;" glyph-name="iacute" horiz-adv-x="496" d="M169 0V991H327V0H169ZM232 1120L150 1172L406 1440L524 1362L232 1120Z" />
<glyph unicode="&#xee;" glyph-name="icircumflex" horiz-adv-x="496" d="M169 0V991H327V0H169ZM468 1126L248 1292L30 1126L-26 1192L252 1444L524 1192L468 1126Z" />
<glyph unicode="&#xef;" glyph-name="idieresis" horiz-adv-x="496" d="M169 0V991H327V0H169ZM492 1276Q492 1251 489 1236T476 1211T451 1198T408 1194Q381 1194 365 1197T339 1210T326 1234T322 1276Q322 1303 326 1319T339 1344T364 1358T408 1362Q435 1362
451 1359T476 1346T488 1320T492 1276ZM176 1276Q176 1251 173 1236T161 1211T136 1198T94 1194Q66 1194 49 1197T23 1210T10 1234T6 1276Q6 1303 10 1319T23 1344T49 1358T94 1362Q120 1362 136 1359T160 1346T172 1320T176 1276Z" />
<glyph unicode="&#xf0;" glyph-name="eth" horiz-adv-x="1038" d="M697 1224Q749 1161 790 1091T860 942T904 779T919 599Q919 483 904 393T860 234T791 118T704 41T602 -2T490 -16Q386 -16 312 18T189 116T117 268T93 467Q93 597 124 695T214 861T355 962T538
996Q556 996 577 995T617 991T652 986T675 980Q665 1001 652 1024T624 1073T589 1124T547 1176L346 1069L279 1152L476 1256Q443 1291 399 1331T298 1418H505Q519 1406 535 1392T567 1364T599 1334T626 1306L810 1403L877 1320L697 1224ZM748 562Q748 664 737 735T712
853Q698 859 678 864T633 872T582 878T532 881Q473 881 424 858T339 789T283 671T263 502Q263 398 279 324T327 202T404 132T512 109Q558 109 600 126T675 193T728 331T748 562V562Z" />
<glyph unicode="&#xf1;" glyph-name="ntilde" horiz-adv-x="1080" d="M918 568Q918 518 917 451T915 308T913 153T912 0H756Q756 136 758 281T760 532Q760 724 712 802T570 880Q516 880 453 847T326 762V0H168V992H298L312 874Q382 934 460 971T626 1008Q694 1008
748 985T840 910T898 774T918 568ZM878 1322Q827 1233 781 1197T664 1160Q621 1160 588 1174T516 1219T459 1259T418 1270Q386 1270 361 1249T288 1164L218 1216Q245 1261 268 1291T316 1340T369 1368T434 1378Q477 1378 509 1364T581 1320T638 1279T680 1268Q712
1268 737 1290T808 1374L878 1322Z" />
<glyph unicode="&#xf2;" glyph-name="ograve" horiz-adv-x="1044" d="M778 474Q778 586 762 665T713 792T633 863T520 886Q400 886 333 793T266 520Q266 292 329 198T526 104Q644 104 711 198T778 474ZM942 520Q942 382 911 281T822 114T682 16T500 -16Q410 -16
338 10T213 95T131 247T102 474Q102 610 133 711T222 878T362 976T544 1008Q634 1008 707 980T831 895T912 745T942 520ZM534 1120L240 1362L358 1440L614 1172L534 1120Z" />
<glyph unicode="&#xf3;" glyph-name="oacute" horiz-adv-x="1044" d="M778 474Q778 586 762 665T713 792T633 863T520 886Q400 886 333 793T266 520Q266 292 329 198T526 104Q644 104 711 198T778 474ZM942 520Q942 382 911 281T822 114T682 16T500 -16Q410 -16
338 10T213 95T131 247T102 474Q102 610 133 711T222 878T362 976T544 1008Q634 1008 707 980T831 895T912 745T942 520ZM517 1120L435 1172L691 1440L809 1362L517 1120Z" />
<glyph unicode="&#xf4;" glyph-name="ocircumflex" horiz-adv-x="1044" d="M778 474Q778 586 762 665T713 792T633 863T520 886Q400 886 333 793T266 520Q266 292 329 198T526 104Q644 104 711 198T778 474ZM942 520Q942 382 911 281T822 114T682 16T500 -16Q410
-16 338 10T213 95T131 247T102 474Q102 610 133 711T222 878T362 976T544 1008Q634 1008 707 980T831 895T912 745T942 520ZM747 1126L527 1292L309 1126L253 1192L531 1444L803 1192L747 1126Z" />
<glyph unicode="&#xf5;" glyph-name="otilde" horiz-adv-x="1044" d="M778 474Q778 586 762 665T713 792T633 863T520 886Q400 886 333 793T266 520Q266 292 329 198T526 104Q644 104 711 198T778 474ZM942 520Q942 382 911 281T822 114T682 16T500 -16Q410 -16
338 10T213 95T131 247T102 474Q102 610 133 711T222 878T362 976T544 1008Q634 1008 707 980T831 895T912 745T942 520ZM851 1322Q800 1233 754 1197T637 1160Q594 1160 561 1174T489 1219T432 1259T391 1270Q359 1270 334 1249T261 1164L191 1216Q218 1261 241
1291T289 1340T342 1368T407 1378Q450 1378 482 1364T554 1320T611 1279T653 1268Q685 1268 710 1290T781 1374L851 1322Z" />
<glyph unicode="&#xf6;" glyph-name="odieresis" horiz-adv-x="1044" d="M778 474Q778 586 762 665T713 792T633 863T520 886Q400 886 333 793T266 520Q266 292 329 198T526 104Q644 104 711 198T778 474ZM942 520Q942 382 911 281T822 114T682 16T500 -16Q410
-16 338 10T213 95T131 247T102 474Q102 610 133 711T222 878T362 976T544 1008Q634 1008 707 980T831 895T912 745T942 520ZM418 1276Q418 1227 402 1211T334 1194Q281 1194 264 1210T246 1276Q246 1327 264 1344T334 1362Q386 1362 402 1346T418 1276ZM804 1276Q804
1227 787 1211T718 1194Q666 1194 649 1210T632 1276Q632 1327 649 1344T718 1362Q771 1362 787 1346T804 1276Z" />
<glyph unicode="&#xf7;" glyph-name="divide" horiz-adv-x="1000" d="M596 213Q596 185 593 167T578 137T547 121T499 117Q468 117 450 121T420 136T405 164T401 210Q401 239 404 258T419 288T450 303T501 307Q530 307 548 303T578 288T592 259T596 213V213ZM84
536V654H913V536H84ZM596 976Q596 948 593 931T578 902T549 887T501 883Q470 883 451 887T420 902T405 932T401 979Q401 1007 404 1025T419 1054T449 1069T499 1073Q528 1073 547 1069T577 1054T592 1024T596 976V976Z" />
<glyph unicode="&#xf8;" glyph-name="oslash" horiz-adv-x="1044" d="M823 905Q880 845 911 749T942 514Q942 422 928 348T888 215T823 113T736 40T629 -3T504 -17Q449 -17 400 -6T310 28L209 -146L116 -93L220 87Q163 146 133 241T102 478Q102 568 116 642T156
776T221 878T308 951T415 994T540 1008Q592 1008 643 998T733 963L835 1137L928 1085L823 905ZM377 139Q404 119 441 109T525 98Q584 98 632 120T714 188T767 304T786 471Q786 568 773 640T733 761L377 139ZM667 852Q638 872 601 882T519 893Q460 893 412 871T329
803T277 687T258 521Q258 422 270 351T311 229L667 852Z" />
<glyph unicode="&#xf9;" glyph-name="ugrave" horiz-adv-x="1080" d="M780 0L766 116Q698 56 620 20T456 -16Q388 -16 333 7T240 82T181 218T160 424Q160 474 161 541T164 684T167 839T168 992H324Q324 856 322 711T320 460Q320 272 366 192T510 112Q564 112 627
144T752 228V992H910V0H780ZM561 1120L267 1362L385 1440L641 1172L561 1120Z" />
<glyph unicode="&#xfa;" glyph-name="uacute" horiz-adv-x="1080" d="M780 0L766 116Q698 56 620 20T456 -16Q388 -16 333 7T240 82T181 218T160 424Q160 474 161 541T164 684T167 839T168 992H324Q324 856 322 711T320 460Q320 272 366 192T510 112Q564 112 627
144T752 228V992H910V0H780ZM539 1120L457 1172L713 1440L831 1362L539 1120Z" />
<glyph unicode="&#xfb;" glyph-name="ucircumflex" horiz-adv-x="1080" d="M780 0L766 116Q698 56 620 20T456 -16Q388 -16 333 7T240 82T181 218T160 424Q160 474 161 541T164 684T167 839T168 992H324Q324 856 322 711T320 460Q320 272 366 192T510 112Q564
112 627 144T752 228V992H910V0H780ZM759 1126L539 1292L321 1126L265 1192L543 1444L815 1192L759 1126Z" />
<glyph unicode="&#xfc;" glyph-name="udieresis" horiz-adv-x="1080" d="M780 0L766 116Q698 56 620 20T456 -16Q388 -16 333 7T240 82T181 218T160 424Q160 474 161 541T164 684T167 839T168 992H324Q324 856 322 711T320 460Q320 272 366 192T510 112Q564 112
627 144T752 228V992H910V0H780ZM435 1276Q435 1227 419 1211T351 1194Q298 1194 281 1210T263 1276Q263 1327 281 1344T351 1362Q403 1362 419 1346T435 1276ZM821 1276Q821 1227 804 1211T735 1194Q683 1194 666 1210T649 1276Q649 1327 666 1344T735 1362Q788
1362 804 1346T821 1276Z" />
<glyph unicode="&#xfd;" glyph-name="yacute" horiz-adv-x="922" d="M868 992Q808 706 744 494T615 133T485 -112T358 -261T240 -334T130 -354Q104 -354 72 -347T8 -328V-232Q24 -234 50 -235T94 -236Q196 -236 264 -174Q310 -130 329 -90T348 4Q348 42 335 101T284
264L38 992H210L404 400Q436 310 453 229T464 102Q498 186 533 292T599 514T656 753T700 992H868V992ZM475 1120L393 1172L649 1440L767 1362L475 1120Z" />
<glyph unicode="&#xfe;" glyph-name="thorn" horiz-adv-x="1038" d="M169 -346V1418H327V891Q358 917 391 938T458 975T527 999T600 1008Q677 1008 739 972T845 873T912 723T936 533Q936 387 899 283T797 113T645 15T457 -17Q444 -17 427 -17T393 -15T358 -13T327
-8V-346H169ZM327 126Q341 120 359 116T399 108T441 104T481 102Q543 102 596 126T688 199T749 324T772 501Q772 587 758 657T716 778T649 855T558 883Q515 883 453 854T327 766V126Z" />
<glyph unicode="&#xff;" glyph-name="ydieresis" horiz-adv-x="922" d="M868 992Q808 706 744 494T615 133T485 -112T358 -261T240 -334T130 -354Q104 -354 72 -347T8 -328V-232Q24 -234 50 -235T94 -236Q196 -236 264 -174Q310 -130 329 -90T348 4Q348 42 335
101T284 264L38 992H210L404 400Q436 310 453 229T464 102Q498 186 533 292T599 514T656 753T700 992H868V992ZM354 1276Q354 1227 338 1211T270 1194Q217 1194 200 1210T182 1276Q182 1327 200 1344T270 1362Q322 1362 338 1346T354 1276ZM740 1276Q740 1227 723
1211T654 1194Q602 1194 585 1210T568 1276Q568 1327 585 1344T654 1362Q707 1362 723 1346T740 1276Z" />
<glyph unicode="&#x100;" glyph-name="Amacron" horiz-adv-x="1068" d="M752 422Q698 610 638 803T514 1190Q462 1016 403 816T296 422H752V422ZM854 0Q838 68 820 144T782 294H264Q248 224 231 149T198 0H34Q72 160 118 330T214 672T318 1016T426 1350H632Q756
990 853 660T1034 0H854ZM263 1502V1614H803V1502H263Z" />
<glyph unicode="&#x101;" glyph-name="amacron" horiz-adv-x="986" d="M662 476H568Q472 476 409 462T309 421T256 358T240 274Q240 194 285 148T414 102Q532 102 662 216V476ZM696 0L682 112Q614 54 537 19T370 -16Q229 -16 156 54T82 250Q82 324 111 385T201
490T356 558T582 582H662V686Q662 790 609 839T438 888Q363 888 289 870T158 830L132 932Q202 962 292 985T483 1008Q574 1008 638 986T742 924T801 830T820 710V0H696ZM220 1206V1322H742V1206H220Z" />
<glyph unicode="&#x102;" glyph-name="Abreve" horiz-adv-x="1068" d="M752 422Q698 610 638 803T514 1190Q462 1016 403 816T296 422H752V422ZM854 0Q838 68 820 144T782 294H264Q248 224 231 149T198 0H34Q72 160 118 330T214 672T318 1016T426 1350H632Q756
990 853 660T1034 0H854ZM795 1708Q795 1655 777 1607T725 1522T640 1465T529 1444Q465 1444 415 1464T331 1520T280 1604T263 1708H365Q365 1648 406 1604T529 1560Q609 1560 652 1603T695 1708H795Z" />
<glyph unicode="&#x103;" glyph-name="abreve" horiz-adv-x="986" d="M662 476H568Q472 476 409 462T309 421T256 358T240 274Q240 194 285 148T414 102Q532 102 662 216V476ZM696 0L682 112Q614 54 537 19T370 -16Q229 -16 156 54T82 250Q82 324 111 385T201
490T356 558T582 582H662V686Q662 790 609 839T438 888Q363 888 289 870T158 830L132 932Q202 962 292 985T483 1008Q574 1008 638 986T742 924T801 830T820 710V0H696ZM744 1430Q744 1291 674 1216T476 1140Q343 1140 276 1215T208 1430H310Q310 1264 476 1264Q642
1264 642 1430H744Z" />
<glyph unicode="&#x104;" glyph-name="Aogonek" horiz-adv-x="1068" d="M1062 -308Q1029 -331 985 -343T898 -356Q815 -356 775 -320T734 -220Q734 -190 743 -161T769 -103T807 -49T854 0Q839 68 821 144T782 294H264Q247 225 230 150T198 0H34Q72 160 117 329T213
671T317 1015T426 1350H632Q693 1171 748 999T853 660T948 329T1034 0Q990 -19 959 -42T909 -90T880 -140T870 -190Q870 -220 885 -239T940 -258Q963 -258 988 -250T1034 -230L1062 -308ZM752 422Q698 611 639 804T514 1190Q488 1104 460 1009T403 816T347 618T296
422H752Z" />
<glyph unicode="&#x105;" glyph-name="aogonek" horiz-adv-x="986" d="M662 476H568Q471 476 406 461T305 419T255 355T240 274Q240 193 285 148T414 102Q533 102 662 216V476ZM682 112Q606 49 533 17T370 -16Q230 -16 156 53T82 250Q82 326 111 386T202 491T358
558T582 582H662V686Q662 790 609 839T438 888Q367 888 296 872T158 830L132 932Q215 966 300 987T482 1008Q571 1008 636 987T741 926T801 832T820 710V0Q789 -25 765 -48T725 -95T699 -142T690 -190Q690 -258 762 -258Q783 -258 809 -250T856 -230L882 -308Q815
-356 720 -356Q638 -356 596 -320T554 -220Q554 -160 590 -99T692 12L682 112Z" />
<glyph unicode="&#x106;" glyph-name="Cacute" horiz-adv-x="1036" d="M970 184Q902 92 805 38T580 -16Q352 -16 231 154T110 652Q110 822 145 955T245 1179T400 1318T600 1366Q711 1366 798 1317T948 1146L866 1076Q770 1232 614 1232Q532 1232 470 1189T367
1071T305 897T284 686Q284 401 368 261T614 120Q698 120 765 156T898 268L970 184V184ZM585 1456L535 1532L871 1708L947 1596L585 1456Z" />
<glyph unicode="&#x107;" glyph-name="cacute" horiz-adv-x="854" d="M798 130Q738 64 658 24T476 -16Q294 -16 198 110T102 482Q102 604 130 701T209 866T332 971T488 1008Q578 1008 649 976T772 886L710 804Q618 886 508 886Q394 886 331 785T268 506Q268 108
508 108Q570 108 626 132T740 212L798 130V130ZM523 1120L441 1172L697 1440L815 1362L523 1120Z" />
<glyph unicode="&#x108;" glyph-name="Ccircumflex" horiz-adv-x="1036" d="M970 184Q902 92 805 38T580 -16Q352 -16 231 154T110 652Q110 822 145 955T245 1179T400 1318T600 1366Q711 1366 798 1317T948 1146L866 1076Q770 1232 614 1232Q532 1232 470 1189T367
1071T305 897T284 686Q284 401 368 261T614 120Q698 120 765 156T898 268L970 184V184ZM832 1456L586 1578L346 1456L300 1528L590 1708L876 1530L832 1456Z" />
<glyph unicode="&#x109;" glyph-name="ccircumflex" horiz-adv-x="854" d="M798 130Q738 64 658 24T476 -16Q294 -16 198 110T102 482Q102 604 130 701T209 866T332 971T488 1008Q578 1008 649 976T772 886L710 804Q618 886 508 886Q394 886 331 785T268 506Q268
108 508 108Q570 108 626 132T740 212L798 130V130ZM706 1126L486 1292L268 1126L212 1192L490 1444L762 1192L706 1126Z" />
<glyph unicode="&#x10a;" glyph-name="Cdotaccent" horiz-adv-x="1036" d="M970 184Q902 92 805 38T580 -16Q352 -16 231 154T110 652Q110 822 145 955T245 1179T400 1318T600 1366Q711 1366 798 1317T948 1146L866 1076Q770 1232 614 1232Q532 1232 470 1189T367
1071T305 897T284 686Q284 401 368 261T614 120Q698 120 765 156T898 268L970 184V184ZM681 1561Q681 1513 662 1496T587 1479Q528 1479 510 1495T491 1561Q491 1612 510 1628T587 1645Q646 1645 663 1629T681 1561Z" />
<glyph unicode="&#x10b;" glyph-name="cdotaccent" horiz-adv-x="854" d="M798 130Q738 64 658 24T476 -16Q294 -16 198 110T102 482Q102 604 130 701T209 866T332 971T488 1008Q578 1008 649 976T772 886L710 804Q618 886 508 886Q394 886 331 785T268 506Q268
108 508 108Q570 108 626 132T740 212L798 130V130ZM574 1281Q574 1228 556 1211T478 1193Q416 1193 396 1210T376 1281Q376 1335 396 1353T478 1371Q538 1371 556 1354T574 1281Z" />
<glyph unicode="&#x10c;" glyph-name="Ccaron" horiz-adv-x="1036" d="M970 184Q902 92 805 38T580 -16Q352 -16 231 154T110 652Q110 822 145 955T245 1179T400 1318T600 1366Q711 1366 798 1317T948 1146L866 1076Q770 1232 614 1232Q532 1232 470 1189T367
1071T305 897T284 686Q284 401 368 261T614 120Q698 120 765 156T898 268L970 184V184ZM369 1708L613 1584L855 1708L899 1636L611 1456L323 1634L369 1708Z" />
<glyph unicode="&#x10d;" glyph-name="ccaron" horiz-adv-x="854" d="M798 130Q738 64 658 24T476 -16Q294 -16 198 110T102 482Q102 604 130 701T209 866T332 971T488 1008Q578 1008 649 976T772 886L710 804Q618 886 508 886Q394 886 331 785T268 506Q268 108
508 108Q570 108 626 132T740 212L798 130V130ZM493 1124L221 1376L279 1444L497 1278L715 1444L771 1376L493 1124Z" />
<glyph unicode="&#x10e;" glyph-name="Dcaron" horiz-adv-x="1160" d="M876 686Q876 800 856 898T788 1069T661 1183T466 1224Q406 1224 350 1222V132Q414 126 480 126Q674 126 775 263T876 686ZM1050 708Q1050 542 1013 410T900 186T708 45T432 -4Q368 -4 302
-2T184 0V1350Q262 1350 335 1351T490 1352Q646 1352 753 1299T926 1158T1021 953T1050 708ZM303 1708L547 1584L789 1708L833 1636L545 1456L257 1634L303 1708Z" />
<glyph unicode="&#x10f;" glyph-name="dcaron" horiz-adv-x="1092" d="M710 864Q672 876 632 883T552 890Q490 890 438 866T348 792T288 666T266 488Q266 312 322 210T480 108Q524 108 585 136T710 222V864ZM740 0L724 110Q658 56 586 20T432 -16Q358 -16 297
19T192 117T125 267T102 458Q102 608 140 712T243 882T393 978T572 1008Q606 1008 645 1005T710 1000V1418H868V0H740ZM1044 1130L956 1146L1026 1500L1156 1474L1044 1130Z" />
<glyph unicode="&#x110;" glyph-name="Dcroat" horiz-adv-x="1180" d="M203 1350Q282 1350 355 1351T511 1353Q614 1353 696 1329T840 1262T946 1159T1018 1027T1058 874T1071 708Q1071 542 1034 410T921 186T729 45T453 -4Q421 -4 388 -4T323 -3T260 -1T203 0V639H73V766H203V1350ZM369
766H613V639H369V132Q401 129 434 128T499 127Q596 127 670 161T794 264T869 439T895 685Q895 761 887 831T859 961T807 1069T730 1152T624 1205T486 1224Q471 1224 457 1224T428 1224T399 1224T369 1222V766Z" />
<glyph unicode="&#x111;" glyph-name="dcroat" horiz-adv-x="1038" d="M710 864Q672 876 632 883T552 890Q490 890 438 866T348 792T288 666T266 488Q266 312 322 210T480 108Q524 108 585 136T710 222V864ZM868 0H740L724 110Q658 56 586 20T432 -16Q358 -16
297 19T192 117T125 267T102 458Q102 608 140 712T243 882T393 978T572 1008Q606 1008 645 1005T710 1000V1152H488V1250H710V1418H868V1250H1030V1152H868V0Z" />
<glyph unicode="&#x112;" glyph-name="Emacron" horiz-adv-x="944" d="M184 0V1350H824V1218H350V766H740V640H350V132H832V0H184ZM228 1502V1614H768V1502H228Z" />
<glyph unicode="&#x113;" glyph-name="emacron" horiz-adv-x="980" d="M708 590Q708 740 654 817T498 894Q444 894 400 869T329 802T286 705T266 582H708V590ZM266 476V456Q266 270 336 189T540 108Q608 108 681 123T830 170L860 74Q784 33 691 9T502 -16Q406
-16 335 10T212 93T131 242T102 466Q102 728 210 868T508 1008Q596 1008 665 979T781 886T849 721T862 476H266ZM230 1206V1322H752V1206H230Z" />
<glyph unicode="&#x114;" glyph-name="Ebreve" horiz-adv-x="944" d="M184 0V1350H824V1218H350V766H740V640H350V132H832V0H184ZM768 1708Q768 1655 750 1607T698 1522T613 1465T502 1444Q438 1444 388 1464T304 1520T253 1604T236 1708H338Q338 1648 379 1604T502
1560Q582 1560 625 1603T668 1708H768Z" />
<glyph unicode="&#x115;" glyph-name="ebreve" horiz-adv-x="980" d="M708 590Q708 740 654 817T498 894Q444 894 400 869T329 802T286 705T266 582H708V590ZM266 476V456Q266 270 336 189T540 108Q608 108 681 123T830 170L860 74Q784 33 691 9T502 -16Q406 -16
335 10T212 93T131 242T102 466Q102 728 210 868T508 1008Q596 1008 665 979T781 886T849 721T862 476H266ZM764 1430Q764 1291 694 1216T496 1140Q363 1140 296 1215T228 1430H330Q330 1264 496 1264Q662 1264 662 1430H764Z" />
<glyph unicode="&#x116;" glyph-name="Edotaccent" horiz-adv-x="944" d="M184 0V1350H824V1218H350V766H740V640H350V132H832V0H184ZM605 1558Q605 1510 586 1493T511 1476Q452 1476 434 1492T415 1558Q415 1609 434 1625T511 1642Q570 1642 587 1626T605 1558Z" />
<glyph unicode="&#x117;" glyph-name="edotaccent" horiz-adv-x="980" d="M708 590Q708 740 654 817T498 894Q444 894 400 869T329 802T286 705T266 582H708V590ZM266 476V456Q266 270 336 189T540 108Q608 108 681 123T830 170L860 74Q784 33 691 9T502 -16Q406
-16 335 10T212 93T131 242T102 466Q102 728 210 868T508 1008Q596 1008 665 979T781 886T849 721T862 476H266ZM595 1281Q595 1228 577 1211T499 1193Q437 1193 417 1210T397 1281Q397 1335 417 1353T499 1371Q559 1371 577 1354T595 1281Z" />
<glyph unicode="&#x118;" glyph-name="Eogonek" horiz-adv-x="944" d="M832 0Q766 -47 732 -95T698 -190Q698 -258 768 -258Q789 -258 815 -250T862 -230L890 -308Q857 -330 813 -343T726 -356Q645 -356 604 -320T562 -220Q562 -162 595 -104T684 0H184V1350H824V1218H350V766H740V640H350V132H832V0Z"
/>
<glyph unicode="&#x119;" glyph-name="eogonek" horiz-adv-x="980" d="M708 590Q708 735 656 814T498 894Q443 894 401 870T330 803T286 704T266 582H708V590ZM860 74Q813 35 778 -1T718 -71T682 -134T670 -190Q670 -258 740 -258Q762 -258 787 -251T836 -230L862
-308Q792 -356 698 -356Q617 -356 576 -320T534 -220Q534 -163 567 -106T662 4Q588 -16 502 -16Q409 -16 336 10T211 94T130 244T102 466Q102 725 208 866T508 1008Q598 1008 666 978T781 884T849 719T862 476H266V456Q266 274 334 191T540 108Q608 108 681 123T830
170L860 74Z" />
<glyph unicode="&#x11a;" glyph-name="Ecaron" horiz-adv-x="944" d="M184 0V1350H824V1218H350V766H740V640H350V132H832V0H184ZM260 1708L504 1584L746 1708L790 1636L502 1456L214 1634L260 1708Z" />
<glyph unicode="&#x11b;" glyph-name="ecaron" horiz-adv-x="980" d="M708 590Q708 740 654 817T498 894Q444 894 400 869T329 802T286 705T266 582H708V590ZM266 476V456Q266 270 336 189T540 108Q608 108 681 123T830 170L860 74Q784 33 691 9T502 -16Q406 -16
335 10T212 93T131 242T102 466Q102 728 210 868T508 1008Q596 1008 665 979T781 886T849 721T862 476H266ZM497 1124L225 1376L283 1444L501 1278L719 1444L775 1376L497 1124Z" />
<glyph unicode="&#x11c;" glyph-name="Gcircumflex" horiz-adv-x="1144" d="M982 136Q912 72 813 28T578 -16Q472 -16 385 24T237 146T143 356T110 660Q110 834 150 966T259 1187T420 1321T616 1366Q728 1366 818 1317T968 1202L894 1126Q840 1170 772 1201T628
1232Q470 1232 377 1092T284 690Q284 538 307 429T373 252T476 152T610 120Q686 120 738 142T818 186V608H622V734H982V136V136ZM855 1456L609 1578L369 1456L323 1528L613 1708L899 1530L855 1456Z" />
<glyph unicode="&#x11d;" glyph-name="gcircumflex" horiz-adv-x="1038" d="M710 862Q672 876 628 883T548 890Q426 890 346 793T266 518Q266 348 321 247T480 146Q532 146 596 179T710 258V862ZM868 32Q868 -86 840 -162T762 -281T642 -340T488 -356Q416 -356
335 -340T178 -296L192 -204Q270 -218 342 -226T474 -234Q594 -234 652 -185T710 -8V138Q650 92 579 58T432 24Q358 24 297 59T193 155T126 300T102 482Q102 620 141 719T245 883T396 978T578 1008Q654 1008 731 997T868 974V32V32ZM737 1126L517 1292L299 1126L243
1192L521 1444L793 1192L737 1126Z" />
<glyph unicode="&#x11e;" glyph-name="Gbreve" horiz-adv-x="1144" d="M982 136Q912 72 813 28T578 -16Q472 -16 385 24T237 146T143 356T110 660Q110 834 150 966T259 1187T420 1321T616 1366Q728 1366 818 1317T968 1202L894 1126Q840 1170 772 1201T628 1232Q470
1232 377 1092T284 690Q284 538 307 429T373 252T476 152T610 120Q686 120 738 142T818 186V608H622V734H982V136V136ZM859 1708Q859 1655 841 1607T789 1522T704 1465T593 1444Q529 1444 479 1464T395 1520T344 1604T327 1708H429Q429 1648 470 1604T593 1560Q673
1560 716 1603T759 1708H859Z" />
<glyph unicode="&#x11f;" glyph-name="gbreve" horiz-adv-x="1038" d="M710 862Q672 876 628 883T548 890Q426 890 346 793T266 518Q266 348 321 247T480 146Q532 146 596 179T710 258V862ZM868 32Q868 -86 840 -162T762 -281T642 -340T488 -356Q416 -356 335
-340T178 -296L192 -204Q270 -218 342 -226T474 -234Q594 -234 652 -185T710 -8V138Q650 92 579 58T432 24Q358 24 297 59T193 155T126 300T102 482Q102 620 141 719T245 883T396 978T578 1008Q654 1008 731 997T868 974V32V32ZM803 1430Q803 1291 733 1216T535
1140Q402 1140 335 1215T267 1430H369Q369 1264 535 1264Q701 1264 701 1430H803Z" />
<glyph unicode="&#x120;" glyph-name="Gdotaccent" horiz-adv-x="1144" d="M982 136Q912 72 813 28T578 -16Q472 -16 385 24T237 146T143 356T110 660Q110 834 150 966T259 1187T420 1321T616 1366Q728 1366 818 1317T968 1202L894 1126Q840 1170 772 1201T628
1232Q470 1232 377 1092T284 690Q284 538 307 429T373 252T476 152T610 120Q686 120 738 142T818 186V608H622V734H982V136V136ZM706 1561Q706 1513 687 1496T612 1479Q553 1479 535 1495T516 1561Q516 1612 535 1628T612 1645Q671 1645 688 1629T706 1561Z" />
<glyph unicode="&#x121;" glyph-name="gdotaccent" horiz-adv-x="1038" d="M710 862Q672 876 628 883T548 890Q426 890 346 793T266 518Q266 348 321 247T480 146Q532 146 596 179T710 258V862ZM868 32Q868 -86 840 -162T762 -281T642 -340T488 -356Q416 -356
335 -340T178 -296L192 -204Q270 -218 342 -226T474 -234Q594 -234 652 -185T710 -8V138Q650 92 579 58T432 24Q358 24 297 59T193 155T126 300T102 482Q102 620 141 719T245 883T396 978T578 1008Q654 1008 731 997T868 974V32V32ZM613 1281Q613 1228 595 1211T517
1193Q455 1193 435 1210T415 1281Q415 1335 435 1353T517 1371Q577 1371 595 1354T613 1281Z" />
<glyph unicode="&#x122;" glyph-name="Gcommaaccent" horiz-adv-x="1144" d="M982 136Q912 72 813 28T578 -16Q472 -16 385 24T237 146T143 356T110 660Q110 834 150 966T259 1187T420 1321T616 1366Q728 1366 818 1317T968 1202L894 1126Q840 1170 772 1201T628
1232Q470 1232 377 1092T284 690Q284 538 307 429T373 252T476 152T610 120Q686 120 738 142T818 186V608H622V734H982V136V136ZM588 -76Q664 -76 664 -152Q664 -232 613 -280T458 -356L430 -296Q530 -248 530 -202Q530 -194 528 -191T521 -180T513 -164T510 -142Q510
-111 529 -94T588 -76Z" />
<glyph unicode="&#x123;" glyph-name="gcommaaccent" horiz-adv-x="1038" d="M710 862Q672 876 628 883T548 890Q426 890 346 793T266 518Q266 348 321 247T480 146Q532 146 596 179T710 258V862ZM868 32Q868 -86 840 -162T762 -281T642 -340T488 -356Q416 -356
335 -340T178 -296L192 -204Q270 -218 342 -226T474 -234Q594 -234 652 -185T710 -8V138Q650 92 579 58T432 24Q358 24 297 59T193 155T126 300T102 482Q102 620 141 719T245 883T396 978T578 1008Q654 1008 731 997T868 974V32V32ZM586 1128Q510 1128 510 1206Q510
1291 569 1349T746 1430L768 1368Q737 1358 713 1344T674 1315T652 1284T644 1256Q644 1248 646 1244T653 1232T661 1216T664 1194Q664 1163 645 1146T586 1128Z" />
<glyph unicode="&#x124;" glyph-name="Hcircumflex" horiz-adv-x="1316" d="M966 0V638H350V0H184V1350H350V780H966V1350H1132V0H966ZM901 1456L655 1578L415 1456L369 1528L659 1708L945 1530L901 1456Z" />
<glyph unicode="&#x125;" glyph-name="hcircumflex" horiz-adv-x="1080" d="M918 568Q918 522 917 457T915 316T913 159T912 0H756Q756 70 756 144T757 288T759 420T760 528Q760 724 711 802T570 880Q520 880 456 850T326 762V0H168V1418H326V884Q386 936 460
972T624 1008Q692 1008 746 985T838 910T897 774T918 568ZM495 1518L249 1640L9 1518L-37 1590L253 1770L539 1592L495 1518Z" />
<glyph unicode="&#x126;" glyph-name="Hbar" horiz-adv-x="1356" d="M987 0V592H369V0H203V970H39V1093H203V1350H369V1093H987V1350H1153V1093H1316V970H1153V0H987ZM987 729V970H369V729H987Z" />
<glyph unicode="&#x127;" glyph-name="hbar" horiz-adv-x="1080" d="M755 0Q755 71 755 144T757 287T759 418T760 526Q760 624 748 691T711 799T651 858T569 877Q545 877 516 870T456 847T393 810T327 760V0H169V1158H10V1270H169V1426H327V1270H614V1158H327V882Q357
908 391 930T462 968T539 995T624 1005Q691 1005 745 982T838 908T898 772T919 565Q919 520 918 455T915 315T913 159T912 0H755Z" />
<glyph unicode="&#x128;" glyph-name="Itilde" horiz-adv-x="532" d="M184 0V1350H350V0H184ZM602 1628Q549 1539 501 1503T382 1466Q339 1466 306 1480T234 1524T176 1565T134 1576Q102 1576 77 1555T4 1470L-68 1520Q-15 1609 33 1645T152 1682Q195 1682 228
1668T301 1624T358 1583T400 1572Q432 1572 457 1593T530 1678L602 1628Z" />
<glyph unicode="&#x129;" glyph-name="itilde" horiz-adv-x="496" d="M169 0V991H327V0H169ZM578 1322Q527 1233 481 1197T364 1160Q321 1160 288 1174T216 1219T159 1259T118 1270Q86 1270 61 1249T-12 1164L-82 1216Q-55 1261 -32 1291T16 1340T69 1368T134
1378Q177 1378 209 1364T281 1320T338 1279T380 1268Q412 1268 437 1290T508 1374L578 1322Z" />
<glyph unicode="&#x12a;" glyph-name="Imacron" horiz-adv-x="532" d="M184 0V1350H350V0H184ZM-4 1502V1614H536V1502H-4Z" />
<glyph unicode="&#x12b;" glyph-name="imacron" horiz-adv-x="496" d="M169 0V991H327V0H169ZM-12 1206V1322H510V1206H-12Z" />
<glyph unicode="&#x12c;" glyph-name="Ibreve" horiz-adv-x="532" d="M184 0V1350H350V0H184ZM534 1708Q534 1655 516 1607T464 1522T379 1465T268 1444Q204 1444 154 1464T70 1520T19 1604T2 1708H104Q104 1648 145 1604T268 1560Q348 1560 391 1603T434 1708H534Z" />
<glyph unicode="&#x12d;" glyph-name="ibreve" horiz-adv-x="496" d="M169 0V991H327V0H169ZM518 1430Q518 1291 448 1216T250 1140Q117 1140 50 1215T-18 1430H84Q84 1264 250 1264Q416 1264 416 1430H518Z" />
<glyph unicode="&#x12e;" glyph-name="Iogonek" horiz-adv-x="532" d="M184 1350H350V0Q318 -18 292 -41T247 -89T218 -140T208 -190Q208 -258 280 -258Q301 -258 327 -250T374 -230L400 -308Q333 -356 238 -356Q156 -356 114 -320T72 -220Q72 -166 101 -111T184 0V1350Z" />
<glyph unicode="&#x12f;" glyph-name="iogonek" horiz-adv-x="496" d="M346 1276Q346 1222 328 1203T250 1184Q187 1184 168 1202T148 1276Q148 1331 168 1349T250 1368Q311 1368 328 1351T346 1276ZM168 992H326V0Q296 -18 272 -41T230 -89T203 -140T194 -190Q194
-258 264 -258Q285 -258 311 -250T358 -230L384 -308Q353 -330 309 -343T222 -356Q140 -356 99 -321T58 -220Q58 -166 87 -112T168 0V992Z" />
<glyph unicode="&#x130;" glyph-name="Idotaccent" horiz-adv-x="532" d="M184 0V1350H350V0H184ZM361 1558Q361 1510 342 1493T267 1476Q208 1476 190 1492T171 1558Q171 1609 190 1625T267 1642Q326 1642 343 1626T361 1558Z" />
<glyph unicode="&#x131;" glyph-name="dotlessi" horiz-adv-x="496" d="M169 0V991H327V0H169Z" />
<glyph unicode="&#x132;" glyph-name="IJ" horiz-adv-x="1080" d="M184 0V1350H350V0H184ZM896 138Q896 60 888 -8T858 -136T800 -248T706 -348L622 -278Q690 -200 710 -100T730 140V1350H896V138V138Z" />
<glyph unicode="&#x133;" glyph-name="ij" horiz-adv-x="990" d="M168 0V992H326V0H168ZM346 1276Q346 1222 328 1203T250 1184Q186 1184 167 1202T148 1276Q148 1330 167 1349T250 1368Q312 1368 329 1350T346 1276ZM821 78Q821 6 811 -54T778 -166T718 -265T627
-356L531 -302Q589 -238 626 -154T663 36V992H821V78V78ZM841 1276Q841 1222 823 1203T745 1184Q681 1184 662 1202T643 1276Q643 1330 662 1349T745 1368Q807 1368 824 1350T841 1276Z" />
<glyph unicode="&#x134;" glyph-name="Jcircumflex" horiz-adv-x="548" d="M364 138Q364 60 356 -8T326 -136T268 -248T174 -348L90 -278Q158 -200 178 -100T198 140V1350H364V138V138ZM525 1456L279 1578L39 1456L-7 1528L283 1708L569 1530L525 1456Z" />
<glyph unicode="&#x135;" glyph-name="jcircumflex" horiz-adv-x="496" d="M327 78Q327 6 317 -54T283 -166T223 -264T131 -355L36 -302Q95 -239 132 -154T169 36V991H327V78ZM467 1126L247 1292L29 1126L-27 1192L251 1444L523 1192L467 1126Z" />
<glyph unicode="&#x136;" glyph-name="Kcommaaccent" horiz-adv-x="1044" d="M798 0L352 666H350V0H184V1350H350V748H352L774 1350H962L502 736L996 0H798ZM556 -76Q632 -76 632 -152Q632 -232 581 -280T426 -356L398 -296Q498 -248 498 -202Q498 -194 496 -191T489
-180T481 -164T478 -142Q478 -111 497 -94T556 -76Z" />
<glyph unicode="&#x137;" glyph-name="kcommaaccent" horiz-adv-x="914" d="M692 0L332 518H326V0H168V1418H326V580H332L646 992H838L478 568L882 0H692ZM495 -76Q571 -76 571 -152Q571 -232 520 -280T365 -356L337 -296Q437 -248 437 -202Q437 -194 435 -191T428
-180T420 -164T417 -142Q417 -111 436 -94T495 -76Z" />
<glyph unicode="&#x138;" glyph-name="kgreenlandic" horiz-adv-x="914" d="M691 0L332 498H327V0H169V991H327V559H332L647 991H838L477 547L882 0H691Z" />
<glyph unicode="&#x139;" glyph-name="Lacute" horiz-adv-x="842" d="M184 0V1350H350V134H806V0H184ZM287 1456L237 1532L573 1708L649 1596L287 1456Z" />
<glyph unicode="&#x13a;" glyph-name="lacute" horiz-adv-x="532" d="M472 6Q444 -4 407 -9T336 -14Q292 -14 261 -6T209 23T178 83T168 182V1418H326V244Q326 154 341 128T404 102Q420 102 435 103T464 106L472 6V6ZM255 1474L205 1550L541 1726L617 1614L255 1474Z" />
<glyph unicode="&#x13b;" glyph-name="Lcommaaccent" horiz-adv-x="842" d="M184 0V1350H350V134H806V0H184ZM488 -76Q564 -76 564 -152Q564 -232 513 -280T358 -356L330 -296Q430 -248 430 -202Q430 -194 428 -191T421 -180T413 -164T410 -142Q410 -111 429 -94T488
-76Z" />
<glyph unicode="&#x13c;" glyph-name="lcommaaccent" horiz-adv-x="532" d="M472 6Q444 -4 407 -9T336 -14Q292 -14 261 -6T209 23T178 83T168 182V1418H326V244Q326 154 341 128T404 102Q420 102 435 103T464 106L472 6V6ZM346 -76Q422 -76 422 -152Q422 -232
371 -280T216 -356L188 -296Q288 -248 288 -202Q288 -194 286 -191T279 -180T271 -164T268 -142Q268 -111 287 -94T346 -76Z" />
<glyph unicode="&#x13d;" glyph-name="Lcaron" horiz-adv-x="842" d="M184 0V1350H350V134H806V0H184ZM611 1130L523 1146L593 1500L723 1474L611 1130Z" />
<glyph unicode="&#x13e;" glyph-name="lcaron" horiz-adv-x="582" d="M472 6Q444 -4 407 -9T336 -14Q292 -14 261 -6T209 23T178 83T168 182V1418H326V244Q326 154 341 128T404 102Q420 102 435 103T464 106L472 6V6ZM502 1130L414 1146L484 1500L614 1474L502 1130Z" />
<glyph unicode="&#x13f;" glyph-name="Ldot" horiz-adv-x="1052" d="M184 0V1350H350V134H806V0H184ZM955 675Q955 644 951 624T936 592T904 576T854 572Q822 572 803 576T771 591T755 622T751 672Q751 702 755 722T771 755T803 771T855 775Q886 775 905 771T936
756T951 725T955 675V675Z" />
<glyph unicode="&#x140;" glyph-name="ldot" horiz-adv-x="940" d="M472 6Q444 -4 407 -9T336 -14Q292 -14 261 -6T209 23T178 83T168 182V1418H326V244Q326 154 341 128T404 102Q420 102 435 103T464 106L472 6V6ZM820 595Q820 564 816 544T801 512T769 496T719
492Q687 492 668 496T636 511T620 542T616 592Q616 622 620 642T636 675T668 691T720 695Q751 695 770 691T801 676T816 645T820 595V595Z" />
<glyph unicode="&#x141;" glyph-name="Lslash" horiz-adv-x="860" d="M612 1042V915L367 781V133H823V0H201V695L46 611V739L201 821V1350H367V907L612 1042Z" />
<glyph unicode="&#x142;" glyph-name="lslash" horiz-adv-x="554" d="M489 6Q475 2 459 -2T425 -8T389 -11T353 -13Q310 -13 279 -5T227 24T196 84T186 183V662L39 582V708L186 789V1418H344V875L491 955V829L344 748V244Q344 198 347 171T358 128T382 107T420
102Q435 102 451 103T481 105L489 6Z" />
<glyph unicode="&#x143;" glyph-name="Nacute" horiz-adv-x="1302" d="M956 0L494 822Q459 885 428 942T372 1045Q344 1098 320 1144H318Q320 1097 322 1045Q324 1000 325 945T326 830V0H184V1350H390L804 618Q837 559 868 501T926 394Q955 339 982 288H984Q982
337 980 392Q978 439 977 497T976 614V1350H1120V0H956ZM641 1456L591 1532L927 1708L1003 1596L641 1456Z" />
<glyph unicode="&#x144;" glyph-name="nacute" horiz-adv-x="1080" d="M918 568Q918 518 917 451T915 308T913 153T912 0H756Q756 136 758 281T760 532Q760 724 712 802T570 880Q516 880 453 847T326 762V0H168V992H298L312 874Q382 934 460 971T626 1008Q694
1008 748 985T840 910T898 774T918 568ZM543 1120L461 1172L717 1440L835 1362L543 1120Z" />
<glyph unicode="&#x145;" glyph-name="Ncommaaccent" horiz-adv-x="1302" d="M956 0L494 822Q459 885 428 942T372 1045Q344 1098 320 1144H318Q320 1097 322 1045Q324 1000 325 945T326 830V0H184V1350H390L804 618Q837 559 868 501T926 394Q955 339 982 288H984Q982
337 980 392Q978 439 977 497T976 614V1350H1120V0H956ZM635 -76Q711 -76 711 -152Q711 -232 660 -280T505 -356L477 -296Q577 -248 577 -202Q577 -194 575 -191T568 -180T560 -164T557 -142Q557 -111 576 -94T635 -76Z" />
<glyph unicode="&#x146;" glyph-name="ncommaaccent" horiz-adv-x="1080" d="M918 568Q918 518 917 451T915 308T913 153T912 0H756Q756 136 758 281T760 532Q760 724 712 802T570 880Q516 880 453 847T326 762V0H168V992H298L312 874Q382 934 460 971T626 1008Q694
1008 748 985T840 910T898 774T918 568ZM537 -76Q613 -76 613 -152Q613 -232 562 -280T407 -356L379 -296Q479 -248 479 -202Q479 -194 477 -191T470 -180T462 -164T459 -142Q459 -111 478 -94T537 -76Z" />
<glyph unicode="&#x147;" glyph-name="Ncaron" horiz-adv-x="1302" d="M956 0L494 822Q459 885 428 942T372 1045Q344 1098 320 1144H318Q320 1097 322 1045Q324 1000 325 945T326 830V0H184V1350H390L804 618Q837 559 868 501T926 394Q955 339 982 288H984Q982
337 980 392Q978 439 977 497T976 614V1350H1120V0H956ZM436 1708L680 1584L922 1708L966 1636L678 1456L390 1634L436 1708Z" />
<glyph unicode="&#x148;" glyph-name="ncaron" horiz-adv-x="1080" d="M918 568Q918 518 917 451T915 308T913 153T912 0H756Q756 136 758 281T760 532Q760 724 712 802T570 880Q516 880 453 847T326 762V0H168V992H298L312 874Q382 934 460 971T626 1008Q694
1008 748 985T840 910T898 774T918 568ZM541 1124L269 1376L327 1444L545 1278L763 1444L819 1376L541 1124Z" />
<glyph unicode="&#x149;" glyph-name="napostrophe" horiz-adv-x="1190" d="M46 1101Q84 1127 109 1150T150 1195T172 1235T179 1272Q179 1292 172 1302T157 1321T141 1343T134 1384Q134 1411 137 1430T150 1460T178 1476T228 1481Q256 1481 273 1476T300 1459T312
1429T316 1386Q316 1325 304 1277T265 1187T198 1109T101 1038L46 1101ZM1028 568Q1028 518 1027 451T1025 308T1023 153T1022 0H866Q866 136 868 281T870 532Q870 724 822 802T680 880Q626 880 563 847T436 762V0H278V992H408L422 874Q492 934 570 971T736 1008Q804
1008 858 985T950 910T1008 774T1028 568Z" />
<glyph unicode="&#x14a;" glyph-name="Eng" horiz-adv-x="1302" d="M1119 62Q1119 -6 1111 -64T1082 -174T1023 -270T929 -357L852 -282Q883 -254 903 -222T936 -155T953 -81T958 0H945L491 821Q456 883 425 941T371 1045Q343 1097 320 1144H318Q320 1097 322
1045Q324 1001 325 945T326 830V0H183V1350H390L805 604Q837 546 868 486T925 378Q955 321 982 268H985Q982 320 981 376Q979 424 978 482T977 598V1350H1119V62Z" />
<glyph unicode="&#x14b;" glyph-name="eng" horiz-adv-x="1080" d="M625 -302Q684 -239 721 -154T758 36V531Q758 628 746 694T711 802T652 861T571 879Q543 879 513 871T452 847T390 810T327 762V0H169V991H299L313 874Q347 904 384 929T460 971T541 998T625
1008Q693 1008 747 985T838 909T896 774T916 568V78Q916 6 906 -54T873 -166T812 -264T721 -355L625 -302Z" />
<glyph unicode="&#x14c;" glyph-name="Omacron" horiz-adv-x="1274" d="M990 664Q990 964 900 1101T632 1238Q554 1238 490 1208T380 1112T309 941T284 688Q284 390 373 252T642 114Q720 114 785 144T895 240T965 411T990 664ZM1164 700Q1164 510 1124 375T1012
153T840 25T622 -16Q506 -16 410 21T247 139T145 347T110 652Q110 836 150 975T264 1201T438 1327T652 1366Q768 1366 862 1330T1024 1214T1128 1007T1164 700ZM366 1502V1614H906V1502H366Z" />
<glyph unicode="&#x14d;" glyph-name="omacron" horiz-adv-x="1044" d="M778 474Q778 586 762 665T713 792T633 863T520 886Q400 886 333 793T266 520Q266 292 329 198T526 104Q644 104 711 198T778 474ZM942 520Q942 382 911 281T822 114T682 16T500 -16Q410
-16 338 10T213 95T131 247T102 474Q102 610 133 711T222 878T362 976T544 1008Q634 1008 707 980T831 895T912 745T942 520ZM259 1206V1322H781V1206H259Z" />
<glyph unicode="&#x14e;" glyph-name="Obreve" horiz-adv-x="1274" d="M990 664Q990 964 900 1101T632 1238Q554 1238 490 1208T380 1112T309 941T284 688Q284 390 373 252T642 114Q720 114 785 144T895 240T965 411T990 664ZM1164 700Q1164 510 1124 375T1012
153T840 25T622 -16Q506 -16 410 21T247 139T145 347T110 652Q110 836 150 975T264 1201T438 1327T652 1366Q768 1366 862 1330T1024 1214T1128 1007T1164 700ZM904 1708Q904 1655 886 1607T834 1522T749 1465T638 1444Q574 1444 524 1464T440 1520T389 1604T372
1708H474Q474 1648 515 1604T638 1560Q718 1560 761 1603T804 1708H904Z" />
<glyph unicode="&#x14f;" glyph-name="obreve" horiz-adv-x="1044" d="M778 474Q778 586 762 665T713 792T633 863T520 886Q400 886 333 793T266 520Q266 292 329 198T526 104Q644 104 711 198T778 474ZM942 520Q942 382 911 281T822 114T682 16T500 -16Q410 -16
338 10T213 95T131 247T102 474Q102 610 133 711T222 878T362 976T544 1008Q634 1008 707 980T831 895T912 745T942 520ZM789 1430Q789 1291 719 1216T521 1140Q388 1140 321 1215T253 1430H355Q355 1264 521 1264Q687 1264 687 1430H789Z" />
<glyph unicode="&#x150;" glyph-name="Ohungarumlaut" horiz-adv-x="1274" d="M990 664Q990 964 900 1101T632 1238Q554 1238 490 1208T380 1112T309 941T284 688Q284 390 373 252T642 114Q720 114 785 144T895 240T965 411T990 664ZM1164 700Q1164 510 1124 375T1012
153T840 25T622 -16Q506 -16 410 21T247 139T145 347T110 652Q110 836 150 975T264 1201T438 1327T652 1366Q768 1366 862 1330T1024 1214T1128 1007T1164 700ZM460 1442L394 1492L684 1724L782 1644L460 1442ZM828 1446L770 1502L1088 1712L1178 1624L828 1446Z"
/>
<glyph unicode="&#x151;" glyph-name="ohungarumlaut" horiz-adv-x="1044" d="M778 474Q778 586 762 665T713 792T633 863T520 886Q400 886 333 793T266 520Q266 292 329 198T526 104Q644 104 711 198T778 474ZM942 520Q942 382 911 281T822 114T682 16T500 -16Q410
-16 338 10T213 95T131 247T102 474Q102 610 133 711T222 878T362 976T544 1008Q634 1008 707 980T831 895T912 745T942 520ZM347 1114L267 1166L501 1444L617 1368L347 1114ZM693 1120L615 1174L867 1436L983 1356L693 1120Z" />
<glyph unicode="&#x152;" glyph-name="OE" horiz-adv-x="1536" d="M803 0Q758 -8 712 -12T622 -17Q504 -17 410 20T248 137T145 344T109 653Q109 778 127 880T179 1062T261 1198T370 1293T502 1349T653 1367Q692 1367 734 1364T816 1350H1416V1218H941V766H1333V639H941V133H1424V0H803ZM775
1211Q745 1224 710 1230T632 1237Q553 1237 489 1207T379 1111T310 940T285 688Q285 536 307 427T375 249T487 146T642 113Q680 113 713 117T775 130V1211Z" />
<glyph unicode="&#x153;" glyph-name="oe" horiz-adv-x="1652" d="M1532 73Q1456 34 1365 9T1173 -17Q1117 -17 1068 -6T978 28T903 90T846 182Q821 130 786 93T707 31T612 -5T504 -17Q415 -17 341 10T214 96T131 249T102 478Q102 568 116 643T156 777T221 879T307
951T414 994T538 1008Q591 1008 640 997T731 962T807 900T866 805Q886 848 915 885T983 949T1071 992T1180 1008Q1238 1008 1288 995T1380 955T1453 885T1504 783T1531 647T1534 475H937V456Q937 363 955 297T1007 190T1093 129T1211 109Q1244 109 1279 112T1351
123T1425 142T1502 170L1532 73ZM1379 583V589Q1379 661 1366 717T1328 813T1262 874T1169 895Q1112 895 1071 871T1001 804T957 705T938 583H1379ZM777 471Q777 584 762 663T714 792T634 864T518 887Q460 887 414 865T335 798T284 684T266 521Q266 407 281 328T329
199T410 127T527 104Q584 104 630 126T709 193T759 308T777 471V471Z" />
<glyph unicode="&#x154;" glyph-name="Racute" horiz-adv-x="1070" d="M800 979Q800 1037 784 1082T729 1161T631 1210T496 1226H350V722H508Q641 721 720 788T800 979ZM848 0L464 594H350V0H184V1350Q257 1351 336 1352T526 1354Q738 1354 856 1258T974 998Q974
905 943 838T862 727T754 659T632 624L1050 0H848ZM470 1456L420 1532L756 1708L832 1596L470 1456Z" />
<glyph unicode="&#x155;" glyph-name="racute" horiz-adv-x="698" d="M630 838Q604 848 586 850T554 852Q508 852 457 812T326 674V0H168V992H298L314 814Q358 868 393 905T458 964T515 996T568 1006Q608 1006 648 986L630 838ZM397 1120L315 1172L571 1440L689
1362L397 1120Z" />
<glyph unicode="&#x156;" glyph-name="Rcommaaccent" horiz-adv-x="1070" d="M800 979Q800 1037 784 1082T729 1161T631 1210T496 1226H350V722H508Q641 721 720 788T800 979ZM848 0L464 594H350V0H184V1350Q257 1351 336 1352T526 1354Q738 1354 856 1258T974
998Q974 905 943 838T862 727T754 659T632 624L1050 0H848ZM564 -76Q640 -76 640 -152Q640 -232 589 -280T434 -356L406 -296Q506 -248 506 -202Q506 -194 504 -191T497 -180T489 -164T486 -142Q486 -111 505 -94T564 -76Z" />
<glyph unicode="&#x157;" glyph-name="rcommaaccent" horiz-adv-x="698" d="M630 838Q604 848 586 850T554 852Q508 852 457 812T326 674V0H168V992H298L314 814Q358 868 393 905T458 964T515 996T568 1006Q608 1006 648 986L630 838ZM511 -76Q587 -76 587 -152Q587
-232 536 -280T381 -356L353 -296Q453 -248 453 -202Q453 -194 451 -191T444 -180T436 -164T433 -142Q433 -111 452 -94T511 -76Z" />
<glyph unicode="&#x158;" glyph-name="Rcaron" horiz-adv-x="1070" d="M800 979Q800 1037 784 1082T729 1161T631 1210T496 1226H350V722H508Q641 721 720 788T800 979ZM848 0L464 594H350V0H184V1350Q257 1351 336 1352T526 1354Q738 1354 856 1258T974 998Q974
905 943 838T862 727T754 659T632 624L1050 0H848ZM289 1708L533 1584L775 1708L819 1636L531 1456L243 1634L289 1708Z" />
<glyph unicode="&#x159;" glyph-name="rcaron" horiz-adv-x="698" d="M630 838Q604 848 586 850T554 852Q508 852 457 812T326 674V0H168V992H298L314 814Q358 868 393 905T458 964T515 996T568 1006Q608 1006 648 986L630 838ZM661 1124L389 1376L447 1444L665
1278L883 1444L939 1376L661 1124Z" />
<glyph unicode="&#x15a;" glyph-name="Sacute" horiz-adv-x="992" d="M914 366Q914 283 884 213T795 92T656 12T476 -16Q374 -16 282 13T102 96L144 188Q219 155 302 134T450 112Q580 112 656 173T732 346Q732 421 690 473T594 556T432 638T260 734T153 847T110
1016Q110 1093 139 1157T221 1269T348 1341T508 1366Q597 1366 679 1342T832 1274L790 1182Q729 1208 663 1224T532 1240Q410 1240 347 1184T284 1038Q284 962 326 910T424 826T588 743T763 647T871 534T914 366ZM476 1456L426 1532L762 1708L838 1596L476 1456Z"
/>
<glyph unicode="&#x15b;" glyph-name="sacute" horiz-adv-x="802" d="M722 274Q722 145 626 65T366 -16Q288 -16 219 2T82 54L102 144Q175 122 231 112T342 102Q447 102 500 146T554 260Q554 297 539 325T497 373T440 409T356 444T271 479T204 516T144 568T102
639T86 734Q86 854 175 931T410 1008Q471 1008 528 995T646 950L622 862Q523 892 436 892Q347 892 299 852T250 750Q250 703 274 671T337 617T443 568T552 522T632 472T697 392T722 274ZM401 1120L319 1172L575 1440L693 1362L401 1120Z" />
<glyph unicode="&#x15c;" glyph-name="Scircumflex" horiz-adv-x="992" d="M914 366Q914 283 884 213T795 92T656 12T476 -16Q374 -16 282 13T102 96L144 188Q219 155 302 134T450 112Q580 112 656 173T732 346Q732 421 690 473T594 556T432 638T260 734T153 847T110
1016Q110 1093 139 1157T221 1269T348 1341T508 1366Q597 1366 679 1342T832 1274L790 1182Q729 1208 663 1224T532 1240Q410 1240 347 1184T284 1038Q284 962 326 910T424 826T588 743T763 647T871 534T914 366ZM759 1456L513 1578L273 1456L227 1528L517 1708L803
1530L759 1456Z" />
<glyph unicode="&#x15d;" glyph-name="scircumflex" horiz-adv-x="802" d="M722 274Q722 145 626 65T366 -16Q288 -16 219 2T82 54L102 144Q175 122 231 112T342 102Q447 102 500 146T554 260Q554 297 539 325T497 373T440 409T356 444T271 479T204 516T144 568T102
639T86 734Q86 854 175 931T410 1008Q471 1008 528 995T646 950L622 862Q523 892 436 892Q347 892 299 852T250 750Q250 703 274 671T337 617T443 568T552 522T632 472T697 392T722 274ZM876 1126L656 1292L438 1126L382 1192L660 1444L932 1192L876 1126Z" />
<glyph unicode="&#x15e;" glyph-name="Scedilla" horiz-adv-x="992" d="M914 366Q914 283 884 213T795 92T656 12T476 -16Q374 -16 282 13T102 96L144 188Q219 155 302 134T450 112Q580 112 656 173T732 346Q732 421 690 473T594 556T432 638T260 734T153 847T110
1016Q110 1093 139 1157T221 1269T348 1341T508 1366Q597 1366 679 1342T832 1274L790 1182Q729 1208 663 1224T532 1240Q410 1240 347 1184T284 1038Q284 962 326 910T424 826T588 743T763 647T871 534T914 366ZM553 -86Q563 -171 526 -236T407 -358L319 -308Q379
-255 399 -209T413 -86H553Z" />
<glyph unicode="&#x15f;" glyph-name="scedilla" horiz-adv-x="802" d="M722 274Q722 145 626 65T366 -16Q288 -16 219 2T82 54L102 144Q175 122 231 112T342 102Q447 102 500 146T554 260Q554 297 539 325T497 373T440 409T356 444T271 479T204 516T144 568T102
639T86 734Q86 854 175 931T410 1008Q471 1008 528 995T646 950L622 862Q523 892 436 892Q347 892 299 852T250 750Q250 703 274 671T337 617T443 568T552 522T632 472T697 392T722 274ZM449 -86Q459 -171 422 -236T303 -358L215 -308Q275 -255 295 -209T309 -86H449Z"
/>
<glyph unicode="&#x160;" glyph-name="Scaron" horiz-adv-x="992" d="M914 366Q914 283 884 213T795 92T656 12T476 -16Q374 -16 282 13T102 96L144 188Q219 155 302 134T450 112Q580 112 656 173T732 346Q732 421 690 473T594 556T432 638T260 734T153 847T110
1016Q110 1093 139 1157T221 1269T348 1341T508 1366Q597 1366 679 1342T832 1274L790 1182Q729 1208 663 1224T532 1240Q410 1240 347 1184T284 1038Q284 962 326 910T424 826T588 743T763 647T871 534T914 366ZM255 1708L499 1584L741 1708L785 1636L497 1456L209
1634L255 1708Z" />
<glyph unicode="&#x161;" glyph-name="scaron" horiz-adv-x="802" d="M722 274Q722 145 626 65T366 -16Q288 -16 219 2T82 54L102 144Q175 122 231 112T342 102Q447 102 500 146T554 260Q554 297 539 325T497 373T440 409T356 444T271 479T204 516T144 568T102
639T86 734Q86 854 175 931T410 1008Q471 1008 528 995T646 950L622 862Q523 892 436 892Q347 892 299 852T250 750Q250 703 274 671T337 617T443 568T552 522T632 472T697 392T722 274ZM655 1124L383 1376L441 1444L659 1278L877 1444L933 1376L655 1124Z" />
<glyph unicode="&#x162;" glyph-name="uni0162" horiz-adv-x="932" d="M548 1218V0H382V1218H32V1350H900V1218H548ZM469 -76Q545 -76 545 -152Q545 -232 494 -280T339 -356L311 -296Q411 -248 411 -202Q411 -194 409 -191T402 -180T394 -164T391 -142Q391 -111
410 -94T469 -76Z" />
<glyph unicode="&#x163;" glyph-name="uni0163" horiz-adv-x="694" d="M642 42Q520 -16 418 -16Q296 -16 243 42T190 250V876H32V992H192Q204 1058 215 1127T234 1274H348V992H616V876H348V290Q348 184 372 145T466 106Q494 106 530 112T622 138L642 42V42ZM413
-76Q489 -76 489 -152Q489 -232 438 -280T283 -356L255 -296Q355 -248 355 -202Q355 -194 353 -191T346 -180T338 -164T335 -142Q335 -111 354 -94T413 -76Z" />
<glyph unicode="&#x164;" glyph-name="Tcaron" horiz-adv-x="932" d="M548 1218V0H382V1218H32V1350H900V1218H548ZM225 1708L469 1584L711 1708L755 1636L467 1456L179 1634L225 1708Z" />
<glyph unicode="&#x165;" glyph-name="tcaron" horiz-adv-x="728" d="M642 42Q520 -16 418 -16Q296 -16 243 42T190 250V876H32V992H192Q204 1058 215 1127T234 1274H348V992H616V876H348V290Q348 184 372 145T466 106Q494 106 530 112T622 138L642 42V42ZM557
1130L469 1146L539 1500L669 1474L557 1130Z" />
<glyph unicode="&#x166;" glyph-name="Tbar" horiz-adv-x="932" d="M549 1217V728H784V608H549V0H382V608H148V728H382V1217H31V1350H901V1217H549Z" />
<glyph unicode="&#x167;" glyph-name="tbar" horiz-adv-x="694" d="M642 43Q582 13 525 -1T418 -16Q355 -16 312 -2T241 44T202 126T190 250V468H64V581H190V877H31V991H193Q204 1057 214 1126T234 1274H348V991H616V877H348V581H586V468H348V289Q348 238 353
203T371 147T407 116T466 106Q493 106 530 112T623 139L642 43Z" />
<glyph unicode="&#x168;" glyph-name="Utilde" horiz-adv-x="1304" d="M1124 496Q1124 363 1090 266T990 106T835 14T630 -16Q400 -16 290 99T180 470V1350H346V492Q346 386 364 313T419 196T515 131T656 110Q729 110 784 129T879 191T939 306T960 482V1350H1124V496ZM987
1628Q934 1539 886 1503T767 1466Q724 1466 691 1480T619 1524T561 1565T519 1576Q487 1576 462 1555T389 1470L317 1520Q370 1609 418 1645T537 1682Q580 1682 613 1668T686 1624T743 1583T785 1572Q817 1572 842 1593T915 1678L987 1628Z" />
<glyph unicode="&#x169;" glyph-name="utilde" horiz-adv-x="1080" d="M780 0L766 116Q698 56 620 20T456 -16Q388 -16 333 7T240 82T181 218T160 424Q160 474 161 541T164 684T167 839T168 992H324Q324 856 322 711T320 460Q320 272 366 192T510 112Q564 112
627 144T752 228V992H910V0H780ZM869 1322Q818 1233 772 1197T655 1160Q612 1160 579 1174T507 1219T450 1259T409 1270Q377 1270 352 1249T279 1164L209 1216Q236 1261 259 1291T307 1340T360 1368T425 1378Q468 1378 500 1364T572 1320T629 1279T671 1268Q703
1268 728 1290T799 1374L869 1322Z" />
<glyph unicode="&#x16a;" glyph-name="Umacron" horiz-adv-x="1304" d="M1124 496Q1124 363 1090 266T990 106T835 14T630 -16Q400 -16 290 99T180 470V1350H346V492Q346 386 364 313T419 196T515 131T656 110Q729 110 784 129T879 191T939 306T960 482V1350H1124V496ZM381
1502V1614H921V1502H381Z" />
<glyph unicode="&#x16b;" glyph-name="umacron" horiz-adv-x="1080" d="M780 0L766 116Q698 56 620 20T456 -16Q388 -16 333 7T240 82T181 218T160 424Q160 474 161 541T164 684T167 839T168 992H324Q324 856 322 711T320 460Q320 272 366 192T510 112Q564 112
627 144T752 228V992H910V0H780ZM282 1206V1322H804V1206H282Z" />
<glyph unicode="&#x16c;" glyph-name="Ubreve" horiz-adv-x="1304" d="M1124 496Q1124 363 1090 266T990 106T835 14T630 -16Q400 -16 290 99T180 470V1350H346V492Q346 386 364 313T419 196T515 131T656 110Q729 110 784 129T879 191T939 306T960 482V1350H1124V496ZM919
1708Q919 1655 901 1607T849 1522T764 1465T653 1444Q589 1444 539 1464T455 1520T404 1604T387 1708H489Q489 1648 530 1604T653 1560Q733 1560 776 1603T819 1708H919Z" />
<glyph unicode="&#x16d;" glyph-name="ubreve" horiz-adv-x="1080" d="M780 0L766 116Q698 56 620 20T456 -16Q388 -16 333 7T240 82T181 218T160 424Q160 474 161 541T164 684T167 839T168 992H324Q324 856 322 711T320 460Q320 272 366 192T510 112Q564 112
627 144T752 228V992H910V0H780ZM807 1430Q807 1291 737 1216T539 1140Q406 1140 339 1215T271 1430H373Q373 1264 539 1264Q705 1264 705 1430H807Z" />
<glyph unicode="&#x16e;" glyph-name="Uring" horiz-adv-x="1304" d="M1124 496Q1124 363 1090 266T990 106T835 14T630 -16Q400 -16 290 99T180 470V1350H346V492Q346 386 364 313T419 196T515 131T656 110Q729 110 784 129T879 191T939 306T960 482V1350H1124V496ZM851
1552Q851 1513 837 1482T796 1430T731 1397T647 1385Q596 1385 560 1395T500 1425T465 1475T454 1543Q454 1579 468 1609T509 1661T574 1695T659 1708Q709 1708 746 1697T806 1665T840 1615T851 1552V1552ZM739 1545Q739 1590 719 1610T653 1631Q606 1631 586 1610T565
1545Q565 1523 570 1508T585 1482T612 1467T653 1462Q701 1462 720 1483T739 1545V1545Z" />
<glyph unicode="&#x16f;" glyph-name="uring" horiz-adv-x="1080" d="M780 0L766 116Q698 56 620 20T456 -16Q388 -16 333 7T240 82T181 218T160 424Q160 474 161 541T164 684T167 839T168 992H324Q324 856 322 711T320 460Q320 272 366 192T510 112Q564 112 627
144T752 228V992H910V0H780ZM752 1276Q752 1233 738 1200T696 1143T630 1107T543 1094Q491 1094 454 1105T392 1138T357 1192T346 1266Q346 1306 360 1339T402 1396T469 1433T556 1446Q607 1446 644 1434T706 1400T741 1346T752 1276V1276ZM637 1269Q637 1292 632
1309T616 1338T589 1354T549 1360Q502 1360 482 1338T461 1269Q461 1246 466 1230T481 1202T508 1186T549 1181Q598 1181 617 1204T637 1269V1269Z" />
<glyph unicode="&#x170;" glyph-name="Uhungarumlaut" horiz-adv-x="1304" d="M1124 496Q1124 363 1090 266T990 106T835 14T630 -16Q400 -16 290 99T180 470V1350H346V492Q346 386 364 313T419 196T515 131T656 110Q729 110 784 129T879 191T939 306T960 482V1350H1124V496ZM464
1442L398 1492L688 1724L786 1644L464 1442ZM832 1446L774 1502L1092 1712L1182 1624L832 1446Z" />
<glyph unicode="&#x171;" glyph-name="uhungarumlaut" horiz-adv-x="1080" d="M780 0L766 116Q698 56 620 20T456 -16Q388 -16 333 7T240 82T181 218T160 424Q160 474 161 541T164 684T167 839T168 992H324Q324 856 322 711T320 460Q320 272 366 192T510 112Q564
112 627 144T752 228V992H910V0H780ZM376 1114L296 1166L530 1444L646 1368L376 1114ZM722 1120L644 1174L896 1436L1012 1356L722 1120Z" />
<glyph unicode="&#x172;" glyph-name="Uogonek" horiz-adv-x="1304" d="M756 0Q726 -9 696 -12T630 -16Q398 -16 289 100T180 470V1350H346V492Q346 386 364 313T419 196T515 131T656 110Q729 110 784 129T879 191T939 306T960 482V1350H1124V496Q1124 360 1090
266T1000 116Q865 -19 819 -75T772 -190Q772 -258 842 -258Q864 -258 889 -251T938 -230L964 -308Q894 -356 802 -356Q720 -356 678 -320T636 -220Q636 -166 669 -107T756 0Z" />
<glyph unicode="&#x173;" glyph-name="uogonek" horiz-adv-x="1080" d="M766 116Q693 53 616 19T454 -16Q385 -16 331 8T239 84T180 220T160 424Q160 468 161 520T164 675T167 852T168 992H324Q324 897 322 711T320 460Q320 272 366 192T508 112Q561 112 624 143T752
228V992H910V0Q847 -52 815 -97T782 -190Q782 -258 852 -258Q873 -258 899 -250T946 -230L974 -308Q904 -356 810 -356Q729 -356 688 -320T646 -220Q646 -161 682 -101T780 8L766 116Z" />
<glyph unicode="&#x174;" glyph-name="Wcircumflex" horiz-adv-x="1702" d="M1658 1350Q1616 1163 1574 991T1488 654T1396 326T1296 0H1114L888 878L846 1068H844L804 872L596 0H410Q354 171 306 331T215 652T130 985T46 1350H224Q256 1199 290 1055T360 776T422
542T514 210H516L544 348L784 1350H936L1188 368L1222 210H1224Q1302 502 1369 782T1494 1350H1658ZM1103 1456L857 1578L617 1456L571 1528L861 1708L1147 1530L1103 1456Z" />
<glyph unicode="&#x175;" glyph-name="wcircumflex" horiz-adv-x="1460" d="M1400 992Q1358 762 1287 512T1114 0H942L748 666L720 794H718L692 664L522 0H342L50 992H220L398 360L444 186H446L478 332L644 992H814L1012 314L1044 188H1046Q1108 388 1159 589T1240
992H1400V992ZM951 1126L731 1292L513 1126L457 1192L735 1444L1007 1192L951 1126Z" />
<glyph unicode="&#x176;" glyph-name="Ycircumflex" horiz-adv-x="966" d="M968 1350Q864 1119 768 933T566 588V0H400V588Q343 676 292 764T193 944T96 1136T-2 1350H184Q268 1162 341 1018T498 736Q578 864 651 1019T794 1350H968ZM731 1456L485 1578L245 1456L199
1528L489 1708L775 1530L731 1456Z" />
<glyph unicode="&#x177;" glyph-name="ycircumflex" horiz-adv-x="922" d="M868 992Q808 706 744 494T615 133T485 -112T358 -261T240 -334T130 -354Q104 -354 72 -347T8 -328V-232Q24 -234 50 -235T94 -236Q196 -236 264 -174Q310 -130 329 -90T348 4Q348 42
335 101T284 264L38 992H210L404 400Q436 310 453 229T464 102Q498 186 533 292T599 514T656 753T700 992H868V992ZM687 1126L467 1292L249 1126L193 1192L471 1444L743 1192L687 1126Z" />
<glyph unicode="&#x178;" glyph-name="Ydieresis" horiz-adv-x="966" d="M968 1350Q864 1119 768 933T566 588V0H400V588Q343 676 292 764T193 944T96 1136T-2 1350H184Q268 1162 341 1018T498 736Q578 864 651 1019T794 1350H968ZM776 1556Q776 1509 759 1493T690
1476Q636 1476 619 1492T602 1556Q602 1605 619 1621T690 1638Q741 1638 758 1622T776 1556ZM378 1556Q378 1509 361 1493T292 1476Q241 1476 223 1492T204 1556Q204 1604 222 1621T292 1638Q344 1638 361 1622T378 1556Z" />
<glyph unicode="&#x179;" glyph-name="Zacute" horiz-adv-x="972" d="M78 0V114L672 1216H108L112 1350H868V1240L274 136H898L892 0H78ZM451 1456L401 1532L737 1708L813 1596L451 1456Z" />
<glyph unicode="&#x17a;" glyph-name="zacute" horiz-adv-x="800" d="M708 0H84V102L508 870H102L108 992H690V892L266 124H712L708 0ZM415 1120L333 1172L589 1440L707 1362L415 1120Z" />
<glyph unicode="&#x17b;" glyph-name="Zdotaccent" horiz-adv-x="972" d="M78 0V114L672 1216H108L112 1350H868V1240L274 136H898L892 0H78ZM585 1558Q585 1510 566 1493T491 1476Q432 1476 414 1492T395 1558Q395 1609 414 1625T491 1642Q550 1642 567 1626T585 1558Z" />
<glyph unicode="&#x17c;" glyph-name="zdotaccent" horiz-adv-x="800" d="M708 0H84V102L508 870H102L108 992H690V892L266 124H712L708 0ZM501 1278Q501 1225 483 1208T405 1190Q343 1190 323 1207T303 1278Q303 1332 323 1350T405 1368Q465 1368 483 1351T501 1278Z" />
<glyph unicode="&#x17d;" glyph-name="Zcaron" horiz-adv-x="972" d="M78 0V114L672 1216H108L112 1350H868V1240L274 136H898L892 0H78ZM250 1708L494 1584L736 1708L780 1636L492 1456L204 1634L250 1708Z" />
<glyph unicode="&#x17e;" glyph-name="zcaron" horiz-adv-x="800" d="M708 0H84V102L508 870H102L108 992H690V892L266 124H712L708 0ZM658 1124L386 1376L444 1444L662 1278L880 1444L936 1376L658 1124Z" />
<glyph unicode="&#x17f;" glyph-name="longs" horiz-adv-x="520" d="M578 1289Q548 1301 516 1308T453 1315Q386 1315 357 1275T327 1150V0H169V1144Q169 1211 183 1265T226 1356T300 1414T406 1435Q436 1435 464 1431T518 1419T566 1403T607 1384L578 1289Z" />
<glyph unicode="&#x192;" glyph-name="florin" horiz-adv-x="1000" d="M912 1212Q882 1227 844 1236T772 1246Q732 1246 704 1236T657 1204T625 1150T608 1072L569 742H876V632H560L497 72Q489 5 469 -49T414 -141T329 -200T213 -221Q181 -221 152 -216T95 -203T44
-184T1 -161L32 -70Q63 -84 100 -94T173 -104Q211 -104 240 -94T289 -62T321 -8T338 70L402 632H125V742H411L449 1070Q456 1137 476 1191T531 1284T615 1343T731 1364Q763 1364 793 1359T850 1345T900 1327T944 1304L912 1212Z" />
<glyph unicode="&#x1e6;" glyph-name="Gcaron" horiz-adv-x="1144" d="M982 136Q912 72 813 28T578 -16Q472 -16 385 24T237 146T143 356T110 660Q110 834 150 966T259 1187T420 1321T616 1366Q728 1366 818 1317T968 1202L894 1126Q840 1170 772 1201T628 1232Q470
1232 377 1092T284 690Q284 538 307 429T373 252T476 152T610 120Q686 120 738 142T818 186V608H622V734H982V136V136ZM365 1708L609 1584L851 1708L895 1636L607 1456L319 1634L365 1708Z" />
<glyph unicode="&#x1e7;" glyph-name="gcaron" horiz-adv-x="1038" d="M710 862Q672 876 628 883T548 890Q426 890 346 793T266 518Q266 348 321 247T480 146Q532 146 596 179T710 258V862ZM868 32Q868 -86 840 -162T762 -281T642 -340T488 -356Q416 -356 335
-340T178 -296L192 -204Q270 -218 342 -226T474 -234Q594 -234 652 -185T710 -8V138Q650 92 579 58T432 24Q358 24 297 59T193 155T126 300T102 482Q102 620 141 719T245 883T396 978T578 1008Q654 1008 731 997T868 974V32V32ZM515 1124L243 1376L301 1444L519
1278L737 1444L793 1376L515 1124Z" />
<glyph unicode="&#x1fa;" glyph-name="Aringacute" horiz-adv-x="1068" d="M752 422Q698 610 638 803T514 1190Q462 1016 403 816T296 422H752V422ZM854 0Q838 68 820 144T782 294H264Q248 224 231 149T198 0H34Q72 160 118 330T214 672T318 1016T426 1350H632Q756
990 853 660T1034 0H854ZM717 1498Q717 1473 704 1452T666 1416T606 1391T528 1381Q483 1381 450 1389T394 1411T361 1444T350 1488Q350 1512 363 1533T401 1570T460 1595T539 1604Q584 1604 617 1597T672 1575T706 1542T717 1498V1498ZM610 1495Q610 1518 592
1532T533 1546Q492 1546 474 1530T456 1490Q456 1468 473 1454T533 1440Q574 1440 592 1456T610 1495V1495ZM705 1770L744 1695L444 1637L421 1690L705 1770Z" />
<glyph unicode="&#x1fb;" glyph-name="aringacute" horiz-adv-x="986" d="M662 476H568Q472 476 409 462T309 421T256 358T240 274Q240 194 285 148T414 102Q532 102 662 216V476ZM696 0L682 112Q614 54 537 19T370 -16Q229 -16 156 54T82 250Q82 324 111 385T201
490T356 558T582 582H662V686Q662 790 609 839T438 888Q363 888 289 870T158 830L132 932Q202 962 292 985T483 1008Q574 1008 638 986T742 924T801 830T820 710V0H696ZM675 1263Q675 1224 661 1194T620 1142T557 1109T475 1097Q374 1097 330 1138T286 1255Q286
1291 300 1321T340 1373T403 1407T487 1419Q536 1419 571 1408T630 1376T664 1327T675 1263V1263ZM566 1257Q566 1279 561 1295T546 1322T519 1337T480 1342Q434 1342 414 1322T394 1257Q394 1235 399 1220T414 1194T440 1179T480 1174Q528 1174 547 1195T566 1257V1257ZM603
1770L720 1700L483 1508L404 1553L603 1770Z" />
<glyph unicode="&#x1fc;" glyph-name="AEacute" horiz-adv-x="1428" d="M667 0V295H258Q243 259 228 221T199 145T170 70T145 0H-26Q44 173 117 345T266 687T421 1023T581 1350H1307V1218H833V766H1224V639H833V133H1315V0H667ZM667 1220H665Q613 1114 566 1012T474
811T387 615T306 423H667V1220ZM876 1456L826 1532L1162 1708L1238 1596L876 1456Z" />
<glyph unicode="&#x1fd;" glyph-name="aeacute" horiz-adv-x="1532" d="M1412 73Q1336 34 1245 9T1053 -17Q996 -17 945 -6T849 29T771 91T714 183Q680 132 642 94T560 32T470 -4T369 -17Q228 -17 155 53T82 251Q82 324 111 385T201 491T357 559T583 583H662V687Q662
738 649 775T609 838T540 876T438 889Q399 889 361 884T287 870T219 852T158 831L133 931Q166 946 205 960T289 984T383 1001T484 1007Q545 1007 592 996T674 964T732 914T769 848Q794 887 824 917T890 967T969 997T1061 1008Q1119 1008 1169 995T1261 955T1333
885T1384 783T1412 647T1414 475H817V456Q817 363 835 297T887 190T973 129T1091 109Q1124 109 1160 112T1232 123T1306 142T1382 170L1412 73ZM1259 583V589Q1259 661 1247 717T1208 813T1142 874T1049 895Q992 895 951 871T881 804T837 705T818 583H1259ZM568
476Q469 476 406 461T305 419T255 354T241 273Q241 234 252 203T284 149T338 115T413 103Q492 103 554 149T662 277Q662 322 662 372T662 476H568ZM785 1120L703 1172L959 1440L1077 1362L785 1120Z" />
<glyph unicode="&#x1fe;" glyph-name="Oslashacute" horiz-adv-x="1274" d="M1165 698Q1165 571 1147 470T1095 289T1013 152T905 57T773 1T622 -17Q540 -17 468 3T336 66L210 -147L116 -94L251 133Q185 210 147 337T109 652Q109 778 127 880T179 1061T261 1198T369
1293T501 1349T652 1367Q736 1367 807 1347T938 1284L1064 1497L1158 1444L1022 1218Q1089 1140 1127 1012T1165 698V698ZM997 663Q997 792 979 890T924 1055L412 191Q455 148 512 128T643 107Q696 107 743 120T830 162T900 235T952 340T985 482T997 663V663ZM632
1243Q551 1243 486 1213T374 1116T302 943T277 687Q277 561 295 463T350 297L863 1160Q819 1201 762 1222T632 1243V1243ZM603 1466L553 1542L889 1718L965 1606L603 1466Z" />
<glyph unicode="&#x1ff;" glyph-name="oslashacute" horiz-adv-x="1044" d="M823 905Q880 845 911 749T942 514Q942 422 928 348T888 215T823 113T736 40T629 -3T504 -17Q449 -17 400 -6T310 28L209 -146L116 -93L220 87Q163 146 133 241T102 478Q102 568 116
642T156 776T221 878T308 951T415 994T540 1008Q592 1008 643 998T733 963L835 1137L928 1085L823 905ZM377 139Q404 119 441 109T525 98Q584 98 632 120T714 188T767 304T786 471Q786 568 773 640T733 761L377 139ZM667 852Q638 872 601 882T519 893Q460 893 412
871T329 803T277 687T258 521Q258 422 270 351T311 229L667 852ZM516 1120L434 1172L690 1440L808 1362L516 1120Z" />
<glyph unicode="&#x218;" glyph-name="Scommaaccent" horiz-adv-x="992" d="M914 366Q914 283 884 213T795 92T656 12T476 -16Q374 -16 282 13T102 96L144 188Q219 155 302 134T450 112Q580 112 656 173T732 346Q732 421 690 473T594 556T432 638T260 734T153
847T110 1016Q110 1093 139 1157T221 1269T348 1341T508 1366Q597 1366 679 1342T832 1274L790 1182Q729 1208 663 1224T532 1240Q410 1240 347 1184T284 1038Q284 962 326 910T424 826T588 743T763 647T871 534T914 366ZM496 -76Q572 -76 572 -152Q572 -232 521
-280T366 -356L338 -296Q438 -248 438 -202Q438 -194 436 -191T429 -180T421 -164T418 -142Q418 -111 437 -94T496 -76Z" />
<glyph unicode="&#x219;" glyph-name="scommaaccent" horiz-adv-x="802" d="M722 274Q722 145 626 65T366 -16Q288 -16 219 2T82 54L102 144Q175 122 231 112T342 102Q447 102 500 146T554 260Q554 297 539 325T497 373T440 409T356 444T271 479T204 516T144 568T102
639T86 734Q86 854 175 931T410 1008Q471 1008 528 995T646 950L622 862Q523 892 436 892Q347 892 299 852T250 750Q250 703 274 671T337 617T443 568T552 522T632 472T697 392T722 274ZM390 -76Q466 -76 466 -152Q466 -232 415 -280T260 -356L232 -296Q332 -248
332 -202Q332 -194 330 -191T323 -180T315 -164T312 -142Q312 -111 331 -94T390 -76Z" />
<glyph unicode="&#x21a;" glyph-name="Tcommaaccent" horiz-adv-x="932" d="M548 1218V0H382V1218H32V1350H900V1218H548ZM469 -76Q545 -76 545 -152Q545 -232 494 -280T339 -356L311 -296Q411 -248 411 -202Q411 -194 409 -191T402 -180T394 -164T391 -142Q391
-111 410 -94T469 -76Z" />
<glyph unicode="&#x21b;" glyph-name="tcommaaccent" horiz-adv-x="694" d="M642 42Q520 -16 418 -16Q296 -16 243 42T190 250V876H32V992H192Q204 1058 215 1127T234 1274H348V992H616V876H348V290Q348 184 372 145T466 106Q494 106 530 112T622 138L642 42V42ZM413
-76Q489 -76 489 -152Q489 -232 438 -280T283 -356L255 -296Q355 -248 355 -202Q355 -194 353 -191T346 -180T338 -164T335 -142Q335 -111 354 -94T413 -76Z" />
<glyph unicode="&#x237;" glyph-name="dotlessj" horiz-adv-x="496" d="M327 78Q327 6 317 -54T283 -166T223 -264T131 -355L36 -302Q95 -239 132 -154T169 36V991H327V78Z" />
<glyph unicode="&#x2bc;" glyph-name="apostrophe" horiz-adv-x="442" d="M46 1101Q84 1127 109 1150T150 1195T172 1235T179 1272Q179 1292 172 1302T157 1321T141 1343T134 1384Q134 1411 137 1430T150 1460T178 1476T228 1481Q256 1481 273 1476T300 1459T312
1429T316 1386Q316 1325 304 1277T265 1187T198 1109T101 1038L46 1101Z" />
<glyph unicode="&#x2c6;" glyph-name="circumflex" horiz-adv-x="834" d="M636 1126L416 1292L198 1126L142 1192L420 1444L692 1192L636 1126Z" />
<glyph unicode="&#x2c7;" glyph-name="caron" horiz-adv-x="834" d="M414 1124L142 1376L200 1444L418 1278L636 1444L692 1376L414 1124Z" />
<glyph unicode="&#x2c9;" glyph-name="macron" horiz-adv-x="808" d="M142 1206V1322H664V1206H142Z" />
<glyph unicode="&#x2d8;" glyph-name="breve" horiz-adv-x="820" d="M678 1430Q678 1291 608 1216T410 1140Q277 1140 210 1215T142 1430H244Q244 1264 410 1264Q576 1264 576 1430H678Z" />
<glyph unicode="&#x2d9;" glyph-name="dotaccent" horiz-adv-x="484" d="M340 1278Q340 1225 322 1208T244 1190Q182 1190 162 1207T142 1278Q142 1332 162 1350T244 1368Q304 1368 322 1351T340 1278Z" />
<glyph unicode="&#x2da;" glyph-name="ring" horiz-adv-x="692" d="M549 1276Q549 1233 535 1200T493 1143T427 1107T340 1094Q288 1094 251 1105T189 1138T154 1192T143 1266Q143 1306 157 1339T199 1396T266 1433T353 1446Q404 1446 441 1434T503 1400T538 1346T549
1276V1276ZM434 1269Q434 1292 429 1309T413 1338T386 1354T346 1360Q299 1360 279 1338T258 1269Q258 1246 263 1230T278 1202T305 1186T346 1181Q395 1181 414 1204T434 1269V1269Z" />
<glyph unicode="&#x2db;" glyph-name="ogonek" horiz-adv-x="612" d="M470 -308Q439 -330 394 -343T308 -356Q226 -356 184 -320T142 -220Q142 -163 176 -105T264 0H406Q341 -52 310 -98T278 -190Q278 -222 295 -240T350 -258Q371 -258 397 -250T444 -230L470 -308Z" />
<glyph unicode="&#x2dc;" glyph-name="tilde" horiz-adv-x="946" d="M802 1322Q751 1233 705 1197T588 1160Q545 1160 512 1174T440 1219T383 1259T342 1270Q310 1270 285 1249T212 1164L142 1216Q169 1261 192 1291T240 1340T293 1368T358 1378Q401 1378 433
1364T505 1320T562 1279T604 1268Q636 1268 661 1290T732 1374L802 1322Z" />
<glyph unicode="&#x2dd;" glyph-name="hungarumlaut" horiz-adv-x="1000" d="M222 1114L142 1166L376 1444L492 1368L222 1114ZM568 1120L490 1174L742 1436L858 1356L568 1120Z" />
<glyph unicode="&#x312;" glyph-name="uni0312" horiz-adv-x="544" d="M218 1128Q142 1128 142 1206Q142 1291 201 1349T378 1430L400 1368Q369 1358 345 1344T306 1315T284 1284T276 1256Q276 1248 278 1244T285 1232T293 1216T296 1194Q296 1163 277 1146T218 1128Z" />
<glyph unicode="&#x315;" glyph-name="uni0315" horiz-adv-x="484" d="M230 1130L142 1146L212 1500L342 1474L230 1130Z" />
<glyph unicode="&#x326;" glyph-name="uni0326" horiz-adv-x="518" d="M300 -76Q376 -76 376 -152Q376 -232 325 -280T170 -356L142 -296Q242 -248 242 -202Q242 -194 240 -191T233 -180T225 -164T222 -142Q222 -111 241 -94T300 -76Z" />
<glyph unicode="&#x37e;" glyph-name="semicolon" horiz-adv-x="612" d="M430 82Q430 -40 375 -127T196 -294L134 -232Q218 -176 250 -130T282 -38Q282 -18 274 -8T255 11T236 35T228 80Q228 138 250 160T332 182Q388 182 409 159T430 82ZM430 894Q430 836 408
816T330 796Q274 796 251 816T228 892Q228 950 251 970T332 990Q386 990 408 971T430 894Z" />
<glyph unicode="&#x394;" glyph-name="Delta" horiz-adv-x="1052" d="M52 0V112Q89 259 132 415T222 730T318 1045T418 1350H624Q680 1185 731 1027T828 716T917 413T998 112V0H52ZM820 130Q749 396 669 659T506 1190Q482 1112 456 1023T402 839T347 648T296 460T250
284T214 130H820Z" />
<glyph unicode="&#x3a9;" glyph-name="Omega" horiz-adv-x="1334" d="M766 0V123Q820 152 866 205T946 333T998 502T1017 706Q1017 776 1008 842T980 968T932 1075T864 1159T774 1214T662 1234Q602 1234 554 1214T467 1157T400 1070T354 961T327 837T318 705Q318
593 336 499T387 332T466 205T569 123V0H78V118H403Q341 152 293 211T211 345T161 507T143 688Q143 780 157 866T200 1027T274 1164T379 1272T514 1342T681 1367Q809 1367 905 1319T1065 1186T1160 983T1192 726Q1192 618 1171 524T1113 353T1026 217T918 118H1257V0H766Z"
/>
<glyph unicode="&#x3bc;" glyph-name="mu" horiz-adv-x="1086" d="M787 0L773 117Q741 89 707 65T636 24T561 -2T486 -12Q425 -12 381 15T316 80Q316 80 316 62T318 14T320 -54T322 -133T325 -211T327 -280T328 -328T329 -346H169V991H326V423Q326 351 333 294T362
196T420 134T515 112Q542 112 572 120T633 144T696 181T759 229V991H917V0H787Z" />
<glyph unicode="&#x3c0;" glyph-name="pi" horiz-adv-x="1234" d="M957 879H757Q755 697 758 569T765 354T776 217T793 142T818 110T850 103Q869 103 897 109T955 129L972 37Q933 16 889 2T804 -13Q773 -13 748 -6T702 24T665 87T635 196T619 361T615 594L612
879H314Q314 876 314 846T312 767T311 659T309 533T307 405T306 287T305 193T304 137Q304 110 304 87T303 46T302 16T302 0H157Q157 -3 157 11T157 60T158 148T161 278Q162 362 163 455T165 632T168 782T170 879H22V991H957V879Z" />
<glyph unicode="&#x1e02;" glyph-name="uni1E02" horiz-adv-x="1120" d="M828 394Q828 515 750 581T510 648H348V130Q376 126 425 123T528 120Q675 120 751 193T828 394ZM762 1018Q762 1112 701 1169T518 1226H348V768H486Q566 768 618 790T702 848T748 928T762
1018ZM1004 410Q1004 320 973 245T878 114T718 28T488 -4Q396 -4 323 -2T184 0V1350H560Q656 1350 726 1327T842 1264T911 1166T934 1042Q934 927 877 848T730 732Q782 725 831 701T919 637T981 540T1004 410ZM616 1558Q616 1510 597 1493T522 1476Q463 1476 445
1492T426 1558Q426 1609 445 1625T522 1642Q581 1642 598 1626T616 1558Z" />
<glyph unicode="&#x1e03;" glyph-name="uni1E03" horiz-adv-x="1038" d="M169 1410H327V891Q359 918 392 939T459 975T528 999T600 1008Q677 1008 739 972T845 872T912 721T936 532Q936 386 899 282T795 111T640 14T446 -17Q403 -17 366 -14T295 -7T230 3T169
15V1410ZM327 126Q354 115 393 109T481 102Q543 102 596 126T688 199T749 324T772 501Q772 586 758 656T716 777T649 855T558 883Q537 883 510 876T453 855T391 819T327 768V126ZM346 1639Q346 1615 342 1600T328 1575T299 1562T250 1558Q220 1558 201 1561T171
1573T157 1598T153 1639Q153 1665 157 1681T172 1706T202 1719T251 1722Q281 1722 299 1719T328 1707T342 1681T346 1639V1639Z" />
<glyph unicode="&#x1e0a;" glyph-name="uni1E0A" horiz-adv-x="1160" d="M876 686Q876 800 856 898T788 1069T661 1183T466 1224Q406 1224 350 1222V132Q414 126 480 126Q674 126 775 263T876 686ZM1050 708Q1050 542 1013 410T900 186T708 45T432 -4Q368 -4 302
-2T184 0V1350Q262 1350 335 1351T490 1352Q646 1352 753 1299T926 1158T1021 953T1050 708ZM632 1558Q632 1510 613 1493T538 1476Q479 1476 461 1492T442 1558Q442 1609 461 1625T538 1642Q597 1642 614 1626T632 1558Z" />
<glyph unicode="&#x1e0b;" glyph-name="uni1E0B" horiz-adv-x="1038" d="M740 0L724 111Q691 84 657 61T586 20T511 -7T433 -17Q357 -17 296 18T191 117T125 267T102 458Q102 607 140 711T243 881T393 977T572 1008Q607 1008 646 1005T711 999V1410H869V0H740ZM711
864Q672 877 632 883T552 890Q490 890 438 866T348 792T288 667T266 489Q266 400 280 330T322 211T389 135T479 108Q523 108 584 136T711 221V864ZM887 1639Q887 1615 883 1600T869 1575T840 1562T791 1558Q761 1558 742 1561T712 1573T698 1598T694 1639Q694 1665
698 1681T713 1706T743 1719T792 1722Q822 1722 840 1719T869 1707T883 1681T887 1639V1639Z" />
<glyph unicode="&#x1e1e;" glyph-name="uni1E1E" horiz-adv-x="902" d="M350 1220V748H772V620H350V0H184V1350H812V1220H350ZM606 1558Q606 1510 587 1493T512 1476Q453 1476 435 1492T416 1558Q416 1609 435 1625T512 1642Q571 1642 588 1626T606 1558Z" />
<glyph unicode="&#x1e1f;" glyph-name="uni1E1F" horiz-adv-x="590" d="M623 1279Q589 1293 554 1302T487 1311Q412 1311 381 1271T349 1148V991H569V877H349V0H191V877H31V991H191V1134Q191 1200 206 1254T251 1346T330 1404T443 1424Q475 1424 505 1420T562
1408T612 1392T655 1372L623 1279ZM512 1639Q512 1615 508 1600T494 1575T465 1562T416 1558Q386 1558 367 1561T337 1573T323 1598T319 1639Q319 1665 323 1681T338 1706T368 1719T417 1722Q447 1722 465 1719T494 1707T508 1681T512 1639V1639Z" />
<glyph unicode="&#x1e40;" glyph-name="uni1E40" horiz-adv-x="1680" d="M1346 0Q1344 156 1336 316T1319 624T1298 905T1272 1140H1270L892 0H760L378 1140H376Q366 1028 357 894T341 614T329 312T322 0H160Q168 326 193 674T260 1350H476L840 280H842L1204 1350H1414Q1456
1022 1484 674T1522 0H1346ZM936 1558Q936 1510 917 1493T842 1476Q783 1476 765 1492T746 1558Q746 1609 765 1625T842 1642Q901 1642 918 1626T936 1558Z" />
<glyph unicode="&#x1e41;" glyph-name="uni1E41" horiz-adv-x="1628" d="M1468 568Q1468 518 1467 451T1464 308T1461 153T1460 0H1304Q1304 68 1305 140T1307 281T1309 414T1310 530Q1310 724 1263 802T1132 880Q1080 880 1012 842T880 748Q886 718 891 679T896
572V0H738V530Q738 720 692 800T562 880Q514 880 452 847T326 762V0H168V992H298L312 874Q374 928 452 968T616 1008Q712 1008 769 960T850 850Q926 916 1009 962T1186 1008Q1250 1008 1302 985T1391 910T1448 774T1468 568ZM912 1278Q912 1225 894 1208T816 1190Q754
1190 734 1207T714 1278Q714 1332 734 1350T816 1368Q876 1368 894 1351T912 1278Z" />
<glyph unicode="&#x1e56;" glyph-name="uni1E56" horiz-adv-x="1030" d="M798 928Q798 1070 721 1148T458 1226H350V626H460Q636 626 717 708T798 928ZM974 948Q974 856 947 774T852 628T679 531T428 498H350V0H184V1350Q250 1350 318 1351T486 1352Q622 1352
716 1323T867 1240T949 1112T974 948ZM611 1558Q611 1510 592 1493T517 1476Q458 1476 440 1492T421 1558Q421 1609 440 1625T517 1642Q576 1642 593 1626T611 1558Z" />
<glyph unicode="&#x1e57;" glyph-name="uni1E57" horiz-adv-x="1038" d="M772 502Q772 672 716 777T558 882Q514 882 452 854T326 768V128Q362 114 402 108T482 102Q544 102 597 126T689 199T750 324T772 502ZM936 534Q936 390 899 286T797 115T645 16T456 -16Q434
-16 397 -15T326 -10V-346H168V992H296L312 880Q380 938 452 973T600 1008Q678 1008 740 972T846 873T913 723T936 534ZM617 1278Q617 1225 599 1208T521 1190Q459 1190 439 1207T419 1278Q419 1332 439 1350T521 1368Q581 1368 599 1351T617 1278Z" />
<glyph unicode="&#x1e60;" glyph-name="uni1E60" horiz-adv-x="992" d="M914 366Q914 283 884 213T795 92T656 12T476 -16Q374 -16 282 13T102 96L144 188Q219 155 302 134T450 112Q580 112 656 173T732 346Q732 421 690 473T594 556T432 638T260 734T153 847T110
1016Q110 1093 139 1157T221 1269T348 1341T508 1366Q597 1366 679 1342T832 1274L790 1182Q729 1208 663 1224T532 1240Q410 1240 347 1184T284 1038Q284 962 326 910T424 826T588 743T763 647T871 534T914 366ZM591 1563Q591 1515 572 1498T497 1481Q438 1481
420 1497T401 1563Q401 1614 420 1630T497 1647Q556 1647 573 1631T591 1563Z" />
<glyph unicode="&#x1e61;" glyph-name="uni1E61" horiz-adv-x="802" d="M722 274Q722 145 626 65T366 -16Q288 -16 219 2T82 54L102 144Q175 122 231 112T342 102Q447 102 500 146T554 260Q554 297 539 325T497 373T440 409T356 444T271 479T204 516T144 568T102
639T86 734Q86 854 175 931T410 1008Q471 1008 528 995T646 950L622 862Q523 892 436 892Q347 892 299 852T250 750Q250 703 274 671T337 617T443 568T552 522T632 472T697 392T722 274ZM499 1281Q499 1228 481 1211T403 1193Q341 1193 321 1210T301 1281Q301 1335
321 1353T403 1371Q463 1371 481 1354T499 1281Z" />
<glyph unicode="&#x1e6a;" glyph-name="uni1E6A" horiz-adv-x="932" d="M548 1218V0H382V1218H32V1350H900V1218H548ZM561 1558Q561 1510 542 1493T467 1476Q408 1476 390 1492T371 1558Q371 1609 390 1625T467 1642Q526 1642 543 1626T561 1558Z" />
<glyph unicode="&#x1e6b;" glyph-name="uni1E6B" horiz-adv-x="694" d="M642 42Q520 -16 418 -16Q296 -16 243 42T190 250V876H32V992H192Q204 1058 215 1127T234 1274H348V992H616V876H348V290Q348 184 372 145T466 106Q494 106 530 112T622 138L642 42V42ZM340
1278Q340 1225 322 1208T244 1190Q182 1190 162 1207T142 1278Q142 1332 162 1350T244 1368Q304 1368 322 1351T340 1278Z" />
<glyph unicode="&#x1e80;" glyph-name="Wgrave" horiz-adv-x="1702" d="M1658 1350Q1616 1163 1574 991T1488 654T1396 326T1296 0H1114L888 878L846 1068H844L804 872L596 0H410Q354 171 306 331T215 652T130 985T46 1350H224Q256 1199 290 1055T360 776T422
542T514 210H516L544 348L784 1350H936L1188 368L1222 210H1224Q1302 502 1369 782T1494 1350H1658ZM921 1456L559 1596L635 1708L971 1532L921 1456Z" />
<glyph unicode="&#x1e81;" glyph-name="wgrave" horiz-adv-x="1460" d="M1400 992Q1358 762 1287 512T1114 0H942L748 666L720 794H718L692 664L522 0H342L50 992H220L398 360L444 186H446L478 332L644 992H814L1012 314L1044 188H1046Q1108 388 1159 589T1240
992H1400V992ZM756 1120L462 1362L580 1440L836 1172L756 1120Z" />
<glyph unicode="&#x1e82;" glyph-name="Wacute" horiz-adv-x="1702" d="M1658 1350Q1616 1163 1574 991T1488 654T1396 326T1296 0H1114L888 878L846 1068H844L804 872L596 0H410Q354 171 306 331T215 652T130 985T46 1350H224Q256 1199 290 1055T360 776T422
542T514 210H516L544 348L784 1350H936L1188 368L1222 210H1224Q1302 502 1369 782T1494 1350H1658ZM795 1456L745 1532L1081 1708L1157 1596L795 1456Z" />
<glyph unicode="&#x1e83;" glyph-name="wacute" horiz-adv-x="1460" d="M1400 992Q1358 762 1287 512T1114 0H942L748 666L720 794H718L692 664L522 0H342L50 992H220L398 360L444 186H446L478 332L644 992H814L1012 314L1044 188H1046Q1108 388 1159 589T1240
992H1400V992ZM694 1120L612 1172L868 1440L986 1362L694 1120Z" />
<glyph unicode="&#x1e84;" glyph-name="Wdieresis" horiz-adv-x="1702" d="M1658 1350Q1616 1163 1574 991T1488 654T1396 326T1296 0H1114L888 878L846 1068H844L804 872L596 0H410Q354 171 306 331T215 652T130 985T46 1350H224Q256 1199 290 1055T360 776T422
542T514 210H516L544 348L784 1350H936L1188 368L1222 210H1224Q1302 502 1369 782T1494 1350H1658ZM1148 1556Q1148 1509 1131 1493T1062 1476Q1008 1476 991 1492T974 1556Q974 1605 991 1621T1062 1638Q1113 1638 1130 1622T1148 1556ZM750 1556Q750 1509 733
1493T664 1476Q613 1476 595 1492T576 1556Q576 1604 594 1621T664 1638Q716 1638 733 1622T750 1556Z" />
<glyph unicode="&#x1e85;" glyph-name="wdieresis" horiz-adv-x="1460" d="M1400 992Q1358 762 1287 512T1114 0H942L748 666L720 794H718L692 664L522 0H342L50 992H220L398 360L444 186H446L478 332L644 992H814L1012 314L1044 188H1046Q1108 388 1159 589T1240
992H1400V992ZM625 1276Q625 1227 609 1211T541 1194Q488 1194 471 1210T453 1276Q453 1327 471 1344T541 1362Q593 1362 609 1346T625 1276ZM1011 1276Q1011 1227 994 1211T925 1194Q873 1194 856 1210T839 1276Q839 1327 856 1344T925 1362Q978 1362 994 1346T1011
1276Z" />
<glyph unicode="&#x1ef2;" glyph-name="Ygrave" horiz-adv-x="966" d="M968 1350Q864 1119 768 933T566 588V0H400V588Q343 676 292 764T193 944T96 1136T-2 1350H184Q268 1162 341 1018T498 736Q578 864 651 1019T794 1350H968ZM546 1456L184 1596L260 1708L596
1532L546 1456Z" />
<glyph unicode="&#x1ef3;" glyph-name="ygrave" horiz-adv-x="922" d="M868 992Q808 706 744 494T615 133T485 -112T358 -261T240 -334T130 -354Q104 -354 72 -347T8 -328V-232Q24 -234 50 -235T94 -236Q196 -236 264 -174Q310 -130 329 -90T348 4Q348 42 335
101T284 264L38 992H210L404 400Q436 310 453 229T464 102Q498 186 533 292T599 514T656 753T700 992H868V992ZM488 1120L194 1362L312 1440L568 1172L488 1120Z" />
<glyph unicode="&#x200b;" glyph-name="uni200B" horiz-adv-x="0" />
<glyph unicode="&#x2010;" glyph-name="hyphen" horiz-adv-x="466" d="M64 522V646H464V522H64Z" />
<glyph unicode="&#x2011;" glyph-name="hyphen" horiz-adv-x="466" d="M64 522V646H464V522H64Z" />
<glyph unicode="&#x2013;" glyph-name="endash" horiz-adv-x="1000" d="M91 535V655H910V535H91Z" />
<glyph unicode="&#x2014;" glyph-name="emdash" horiz-adv-x="2000" d="M299 535V655H1700V535H299Z" />
<glyph unicode="&#x2015;" glyph-name="uni2015" horiz-adv-x="2000" d="M299 535V655H1700V535H299Z" />
<glyph unicode="&#x2018;" glyph-name="quoteleft" horiz-adv-x="540" d="M442 1483Q401 1454 375 1430T332 1383T309 1341T302 1302Q302 1287 305 1279T314 1263T326 1250T338 1235T347 1213T351 1180Q351 1149 348 1128T333 1095T300 1077T246 1071Q214 1071
195 1077T166 1096T152 1129T148 1178Q148 1242 161 1294T203 1391T274 1475T380 1552L442 1483Z" />
<glyph unicode="&#x2019;" glyph-name="quoteright" horiz-adv-x="556" d="M113 1088Q153 1116 180 1141T223 1188T246 1231T253 1270Q253 1291 246 1301T229 1322T212 1346T204 1391Q204 1422 208 1443T223 1476T254 1494T309 1500Q340 1500 359 1494T389 1475T403
1442T407 1394Q407 1329 394 1277T353 1181T280 1097T176 1019L113 1088Z" />
<glyph unicode="&#x201a;" glyph-name="quotesinglbase" horiz-adv-x="608" d="M115 -225Q155 -196 182 -172T225 -125T248 -82T255 -43Q255 -22 247 -12T230 9T213 33T205 78Q205 109 209 130T224 163T256 181T311 187Q341 187 360 181T390 162T405 129T409 81Q409
16 396 -36T354 -132T282 -216T177 -294L115 -225Z" />
<glyph unicode="&#x201c;" glyph-name="quotedblleft" horiz-adv-x="900" d="M802 1479Q762 1451 736 1427T694 1380T672 1338T665 1300Q665 1279 672 1269T689 1249T705 1225T712 1181Q712 1151 709 1131T695 1098T664 1080T611 1074Q582 1074 564 1080T536 1099T523
1131T519 1178Q519 1241 532 1292T572 1388T641 1470T743 1546L802 1479ZM436 1483Q394 1453 367 1428T324 1381T301 1338T294 1300Q294 1279 301 1269T318 1249T334 1225T342 1181Q342 1151 338 1131T324 1098T293 1080T241 1074Q211 1074 193 1080T165 1099T152
1131T148 1178Q148 1241 161 1292T201 1388T272 1472T377 1550L436 1483Z" />
<glyph unicode="&#x201d;" glyph-name="quotedblright" horiz-adv-x="916" d="M479 1088Q520 1117 547 1142T591 1190T614 1233T621 1272Q621 1292 614 1302T597 1322T581 1346T574 1390Q574 1420 577 1440T591 1473T622 1491T675 1497Q704 1497 722 1491T750
1472T764 1440T768 1393Q768 1329 755 1278T714 1183T643 1099T538 1021L479 1088ZM113 1092Q152 1120 178 1144T221 1191T243 1233T250 1272Q250 1292 243 1302T227 1322T211 1346T203 1390Q203 1420 206 1440T220 1473T251 1491T304 1497Q333 1497 351 1491T380
1472T393 1440T397 1393Q397 1329 384 1278T344 1183T274 1101T173 1025L113 1092Z" />
<glyph unicode="&#x201e;" glyph-name="quotedblbase" horiz-adv-x="968" d="M480 -225Q522 -196 549 -171T592 -123T615 -80T622 -41Q622 -21 615 -11T599 9T583 33T575 77Q575 107 579 127T593 160T623 178T676 184Q705 184 723 178T752 159T765 127T769 80Q769
16 756 -35T716 -130T644 -213T540 -292L480 -225ZM115 -221Q154 -193 180 -169T223 -122T245 -80T252 -41Q252 -21 245 -11T228 9T212 33T204 77Q204 107 208 127T222 160T253 178T305 184Q334 184 352 178T381 159T394 127T398 80Q398 16 385 -35T345 -130T275
-212T174 -288L115 -221Z" />
<glyph unicode="&#x2020;" glyph-name="dagger" horiz-adv-x="748" d="M450 1034V413H299V1034H78V1143H299V1418H450V1143H670V1034H450Z" />
<glyph unicode="&#x2021;" glyph-name="daggerdbl" horiz-adv-x="748" d="M449 290V0H300V290H78V400H300V1024H78V1134H300V1418H449V1134H670V1024H449V400H670V290H449Z" />
<glyph unicode="&#x2022;" glyph-name="bullet" horiz-adv-x="1000" d="M765 610Q765 556 745 508T688 423T603 366T500 345Q445 345 397 366T313 423T256 507T235 610Q235 665 255 713T312 798T397 855T500 876Q555 876 603 855T687 798T744 714T765 610V610Z" />
<glyph unicode="&#x2026;" glyph-name="ellipsis" horiz-adv-x="1554" d="M1312 87Q1312 57 1308 38T1293 6T1262 -10T1212 -15Q1180 -15 1161 -11T1131 5T1115 36T1111 84Q1111 114 1115 134T1130 166T1162 182T1213 187Q1244 187 1263 183T1293 167T1308 136T1312
87V87ZM860 87Q860 57 856 38T841 6T810 -10T760 -15Q728 -15 709 -11T679 5T663 36T659 84Q659 114 663 134T678 166T710 182T761 187Q791 187 810 183T841 167T856 136T860 87V87ZM408 87Q408 57 404 38T389 6T358 -10T307 -15Q276 -15 257 -11T227 5T211 36T207
84Q207 114 211 134T226 166T258 182T309 187Q339 187 358 183T389 167T404 136T408 87V87Z" />
<glyph unicode="&#x2030;" glyph-name="perthousand" horiz-adv-x="2064" d="M1134 292Q1134 402 1103 459T992 516Q928 516 891 469T854 300Q854 182 887 131T994 80Q1072 80 1103 135T1134 292ZM534 1046Q534 1156 503 1213T394 1270Q328 1270 291 1223T254
1054Q254 936 288 885T394 834Q472 834 503 889T534 1046ZM1810 292Q1810 402 1779 459T1668 516Q1604 516 1567 469T1530 300Q1530 182 1564 131T1670 80Q1748 80 1779 135T1810 292ZM1266 298Q1266 136 1196 60T986 -16Q910 -16 859 2T778 57T735 153T722 294Q722
464 794 538T1002 612Q1150 612 1208 534T1266 298ZM254 -34L164 22L1134 1384L1222 1328L254 -34ZM666 1052Q666 890 596 814T388 738Q312 738 261 756T179 811T135 907T122 1048Q122 1218 194 1292T402 1366Q550 1366 608 1288T666 1052ZM1942 298Q1942 136 1872
60T1662 -16Q1586 -16 1535 2T1454 57T1411 153T1398 294Q1398 464 1470 538T1678 612Q1826 612 1884 534T1942 298Z" />
<glyph unicode="&#x2039;" glyph-name="guilsinglleft" horiz-adv-x="606" d="M350 206L103 590L350 974L455 933L270 590L455 246L350 206Z" />
<glyph unicode="&#x203a;" glyph-name="guilsinglright" horiz-adv-x="608" d="M257 974L503 590L256 206L152 247L337 590L152 934L257 974Z" />
<glyph unicode="&#x2044;" glyph-name="fraction" horiz-adv-x="148" d="M614 1461L706 1409L-436 -138L-528 -87L614 1461Z" />
<glyph unicode="&#x2060;" glyph-name="uni2060" horiz-adv-x="0" />
<glyph unicode="&#x2070;" glyph-name="zero.superior" horiz-adv-x="748" d="M662 1096Q662 994 644 922T588 803T494 736T362 714Q287 714 234 731T146 790T94 901T76 1078Q76 1179 94 1251T148 1369T241 1438T376 1460Q451 1460 504 1443T592 1385T644 1274T662
1096ZM516 1082Q516 1168 508 1222T483 1306T438 1349T368 1362Q328 1362 301 1348T256 1302T230 1219T222 1092Q222 1008 230 954T255 868T300 823T368 810Q408 810 436 825T481 872T507 955T516 1082Z" />
<glyph unicode="&#x2074;" glyph-name="four.superior" horiz-adv-x="702" d="M548 884V728H410V884H54V978Q85 1034 122 1095T198 1218T278 1337T356 1446H548V986H658V884H548ZM410 1354Q382 1319 351 1275T287 1183T224 1084T164 986H410V1354Z" />
<glyph unicode="&#x2075;" glyph-name="five.superior" horiz-adv-x="692" d="M260 1341L244 1148Q264 1151 294 1153T357 1155Q418 1155 466 1142T547 1102T597 1038T614 947Q614 887 596 843T540 771T448 728T319 714Q295 714 267 717T209 726T146 740T79 760L90
831Q151 819 204 814T300 808Q343 808 374 814T426 836T457 875T468 935Q468 968 458 992T427 1032T372 1056T291 1065Q250 1065 207 1062T114 1050L146 1445H554V1341H260Z" />
<glyph unicode="&#x2076;" glyph-name="six.superior" horiz-adv-x="724" d="M611 1348Q566 1356 521 1361T433 1367Q387 1367 352 1353T292 1307T255 1228T241 1112Q288 1134 332 1145T428 1156Q485 1156 526 1142T596 1102T638 1039T652 957Q652 901 633 857T577
780T489 731T374 714Q308 714 257 729T171 785T118 893T99 1067Q99 1182 123 1258T190 1379T290 1441T415 1459Q437 1459 462 1457T513 1450T567 1438T626 1420L611 1348ZM510 945Q510 1007 478 1039T382 1071Q350 1071 316 1063T241 1033Q241 972 249 929T274
858T318 817T382 804Q445 804 477 841T510 945V945Z" />
<glyph unicode="&#x2077;" glyph-name="seven.superior" horiz-adv-x="672" d="M438 1042Q414 998 387 953T332 864T277 781T225 712L122 746L444 1336H71V1445H611V1347L438 1042Z" />
<glyph unicode="&#x2078;" glyph-name="eight.superior" horiz-adv-x="724" d="M649 911Q649 867 632 831T578 768T485 728T349 713Q276 713 224 725T139 761T91 819T75 896Q75 930 87 958T120 1009T172 1050T239 1085Q167 1118 132 1161T96 1269Q96 1312 113
1347T164 1407T249 1446T370 1460Q442 1460 491 1448T570 1412T615 1356T629 1282Q629 1221 591 1181T474 1103Q561 1069 605 1026T649 911V911ZM489 1272Q489 1325 459 1350T358 1375Q301 1375 269 1349T236 1277Q236 1254 243 1236T265 1201T305 1171T363 1143Q429
1171 459 1201T489 1272V1272ZM506 895Q506 920 496 940T466 979T414 1012T342 1044Q279 1015 248 982T217 905Q217 852 255 825T368 798Q399 798 424 804T467 824T496 854T506 895V895Z" />
<glyph unicode="&#x2079;" glyph-name="nine.superior" horiz-adv-x="720" d="M101 827Q155 818 204 812T295 806Q340 806 375 820T436 865T474 944T487 1061Q439 1038 395 1027T300 1016Q244 1016 203 1030T133 1070T91 1132T77 1215Q77 1270 96 1315T151 1392T238
1441T355 1459Q420 1459 471 1444T557 1388T610 1280T629 1106Q629 990 605 915T539 794T438 732T314 714Q270 714 213 723T86 757L101 827ZM488 1140Q488 1200 480 1243T454 1315T409 1356T347 1369Q283 1369 251 1332T218 1228Q218 1197 226 1174T250 1134T290
1110T347 1102Q379 1102 412 1110T488 1140V1140Z" />
<glyph unicode="&#x2080;" glyph-name="zero.inferior" horiz-adv-x="748" d="M662 252Q662 150 644 78T588 -41T494 -108T362 -130Q287 -130 234 -113T146 -54T94 57T76 234Q76 335 94 407T148 525T241 594T376 616Q451 616 504 599T592 541T644 430T662 252ZM516
238Q516 324 508 378T483 462T438 505T368 518Q328 518 301 504T256 458T230 375T222 248Q222 164 230 110T255 24T300 -21T368 -34Q408 -34 436 -19T481 28T507 111T516 238Z" />
<glyph unicode="&#x2081;" glyph-name="one.inferior" horiz-adv-x="672" d="M102 -116V-14H286V484L124 436L100 516L318 606H426V-14H592V-116H102Z" />
<glyph unicode="&#x2082;" glyph-name="two.inferior" horiz-adv-x="686" d="M84 -116V-18Q187 66 255 130T362 243T418 329T434 396Q434 431 423 454T393 490T348 509T294 514Q250 514 206 503T114 480L94 564Q125 575 154 584T213 601T277 612T350 616Q396 616
439 605T514 570T566 508T586 416Q586 374 570 330T516 234T414 124T254 -8H608V-116H84Z" />
<glyph unicode="&#x2083;" glyph-name="three.inferior" horiz-adv-x="688" d="M618 98Q618 36 598 -7T540 -77T448 -117T324 -130Q271 -130 210 -121T76 -88L88 -12Q153 -24 204 -30T300 -36Q392 -36 431 -5T470 88Q470 148 429 180T290 212H190V304H292Q367
304 406 333T446 418Q446 466 414 493T310 520Q290 520 267 518T218 513T169 504T124 494L104 574Q151 591 214 603T350 616Q473 616 532 566T592 434Q592 399 582 372T553 323T511 289T460 268Q497 263 526 248T576 210T607 158T618 98Z" />
<glyph unicode="&#x2084;" glyph-name="four.inferior" horiz-adv-x="702" d="M548 40V-116H410V40H54V134Q85 190 122 251T198 374T278 493T356 602H548V142H658V40H548ZM410 510Q382 475 351 431T287 339T224 240T164 142H410V510Z" />
<glyph unicode="&#x2085;" glyph-name="five.inferior" horiz-adv-x="692" d="M260 497L244 304Q264 307 294 309T357 311Q418 311 466 298T547 258T597 194T614 103Q614 43 596 -1T540 -73T448 -116T319 -130Q295 -130 267 -127T209 -118T146 -104T79 -84L90
-13Q151 -25 204 -30T300 -36Q343 -36 374 -30T426 -8T457 31T468 91Q468 124 458 148T427 188T372 212T291 221Q250 221 207 218T114 206L146 601H554V497H260Z" />
<glyph unicode="&#x2086;" glyph-name="six.inferior" horiz-adv-x="724" d="M611 504Q566 512 521 517T433 523Q387 523 352 509T292 463T255 384T241 268Q288 290 332 301T428 312Q485 312 526 298T596 258T638 195T652 113Q652 57 633 13T577 -64T489 -113T374
-130Q308 -130 257 -115T171 -59T118 49T99 223Q99 338 123 414T190 535T290 597T415 615Q437 615 462 613T513 606T567 594T626 576L611 504ZM510 101Q510 163 478 195T382 227Q350 227 316 219T241 189Q241 128 249 85T274 14T318 -27T382 -40Q445 -40 477 -3T510
101V101Z" />
<glyph unicode="&#x2087;" glyph-name="seven.inferior" horiz-adv-x="672" d="M438 198Q414 154 387 109T332 20T277 -63T225 -132L122 -98L444 492H71V601H611V503L438 198Z" />
<glyph unicode="&#x2088;" glyph-name="eight.inferior" horiz-adv-x="724" d="M649 67Q649 23 632 -13T578 -76T485 -116T349 -131Q276 -131 224 -119T139 -83T91 -25T75 52Q75 86 87 114T120 165T172 206T239 241Q167 274 132 317T96 425Q96 468 113 503T164
563T249 602T370 616Q442 616 491 604T570 568T615 512T629 438Q629 377 591 337T474 259Q561 225 605 182T649 67V67ZM489 428Q489 481 459 506T358 531Q301 531 269 505T236 433Q236 410 243 392T265 357T305 327T363 299Q429 327 459 357T489 428V428ZM506 51Q506
76 496 96T466 135T414 168T342 200Q279 171 248 138T217 61Q217 8 255 -19T368 -46Q399 -46 424 -40T467 -20T496 10T506 51V51Z" />
<glyph unicode="&#x2089;" glyph-name="nine.inferior" horiz-adv-x="720" d="M101 -17Q155 -26 204 -32T295 -38Q340 -38 375 -24T436 21T474 100T487 217Q439 194 395 183T300 172Q244 172 203 186T133 226T91 288T77 371Q77 426 96 471T151 548T238 597T355
615Q420 615 471 600T557 544T610 436T629 262Q629 146 605 71T539 -50T438 -112T314 -130Q270 -130 213 -121T86 -87L101 -17ZM488 296Q488 356 480 399T454 471T409 512T347 525Q283 525 251 488T218 384Q218 353 226 330T250 290T290 266T347 258Q379 258 412
266T488 296V296Z" />
<glyph unicode="&#x20ac;" glyph-name="Euro" horiz-adv-x="1000" d="M674 873V766H284Q282 746 281 726T280 685Q280 662 280 639T284 593H674V486H295Q306 394 331 324T397 207T491 135T612 111Q653 111 690 119T761 146T826 190T889 252L957 172Q922 130 883
95T797 35T697 -3T580 -17Q485 -17 407 15T271 110T175 268T124 486H6V593H116Q114 609 114 625T114 660Q114 687 115 713T119 766H6V873H130Q147 989 189 1080T291 1235T430 1333T597 1367Q649 1367 698 1356T790 1320T870 1255T937 1156L861 1088Q815 1164 755
1202T608 1241Q538 1241 484 1211T392 1131T329 1014T295 873H674Z" />
<glyph unicode="&#x2122;" glyph-name="trademark" horiz-adv-x="820" d="M208 1284V1018H124V1284H50V1350H280V1284H208ZM646 1018Q646 1083 644 1139T636 1254L560 1018H470L396 1254Q391 1181 389 1128T386 1018H308Q313 1111 319 1192T336 1350H448L522 1112L596
1350H706Q714 1273 719 1192T728 1018H646Z" />
<glyph unicode="&#x2126;" glyph-name="Omega" horiz-adv-x="1334" d="M766 0V123Q820 152 866 205T946 333T998 502T1017 706Q1017 776 1008 842T980 968T932 1075T864 1159T774 1214T662 1234Q602 1234 554 1214T467 1157T400 1070T354 961T327 837T318 705Q318
593 336 499T387 332T466 205T569 123V0H78V118H403Q341 152 293 211T211 345T161 507T143 688Q143 780 157 866T200 1027T274 1164T379 1272T514 1342T681 1367Q809 1367 905 1319T1065 1186T1160 983T1192 726Q1192 618 1171 524T1113 353T1026 217T918 118H1257V0H766Z"
/>
<glyph unicode="&#x2202;" glyph-name="partialdiff" horiz-adv-x="1030" d="M457 1425Q547 1370 630 1296T778 1122T881 893T919 598Q919 486 904 398T861 242T793 125T707 45T606 -1T494 -16Q391 -16 316 17T191 113T117 265T93 467Q93 601 124 700T215 864T359
962T550 995Q567 995 585 994T622 990T655 985T679 979Q657 1024 628 1069T556 1161T455 1261T315 1374L457 1425ZM750 559Q750 663 740 733T718 851Q703 857 681 863T634 872T582 878T533 881Q475 881 426 858T341 789T283 671T262 502Q262 396 278 322T327 201T406
131T515 109Q559 109 601 126T677 193T730 330T750 559V559Z" />
<glyph unicode="&#x2206;" glyph-name="Delta" horiz-adv-x="1052" d="M52 0V112Q89 259 132 415T222 730T318 1045T418 1350H624Q680 1185 731 1027T828 716T917 413T998 112V0H52ZM820 130Q749 396 669 659T506 1190Q482 1112 456 1023T402 839T347 648T296
460T250 284T214 130H820Z" />
<glyph unicode="&#x220f;" glyph-name="product" horiz-adv-x="1306" d="M1099 1217V0H933V1217H380V0H214V1217H56V1350H1260V1217H1099Z" />
<glyph unicode="&#x2211;" glyph-name="summation" horiz-adv-x="1000" d="M81 0V109L541 698L106 1232V1350H882V1220H308L723 710L275 135H907V0H81Z" />
<glyph unicode="&#x2212;" glyph-name="minus" horiz-adv-x="1000" d="M87 536V657H916V536H87Z" />
<glyph unicode="&#x2215;" glyph-name="fraction" horiz-adv-x="148" d="M614 1461L706 1409L-436 -138L-528 -87L614 1461Z" />
<glyph unicode="&#x2219;" glyph-name="periodcentered" horiz-adv-x="522" d="M363 595Q363 564 359 544T344 512T312 496T262 492Q230 492 211 496T179 511T163 542T159 592Q159 622 163 642T179 675T211 691T263 695Q294 695 313 691T344 676T359 645T363 595V595Z" />
<glyph unicode="&#x221a;" glyph-name="radical" horiz-adv-x="1000" d="M968 1350Q934 1185 894 1019T805 684T701 344T582 0H406L187 876H15V991H318L513 181Q559 325 600 466T678 752T748 1044T811 1350H968Z" />
<glyph unicode="&#x221e;" glyph-name="infinity" horiz-adv-x="2030" d="M1886 610Q1886 523 1864 448T1793 315T1669 225T1490 192Q1430 192 1371 217T1251 283T1131 380T1009 497Q956 441 898 386T779 288T653 219T520 192Q423 192 353 224T236 308T169 431T147
578Q147 666 172 742T247 875T370 964T540 996Q600 996 660 971T781 904T901 806T1021 689Q1075 745 1133 800T1252 898T1378 969T1511 996Q1606 996 1676 965T1793 882T1863 759T1886 610V610ZM1716 595Q1716 642 1705 690T1668 775T1602 836T1501 860Q1455 860
1410 840T1318 783T1225 700T1128 600Q1179 546 1228 497T1324 410T1416 351T1506 328Q1563 328 1603 351T1668 412T1704 498T1716 595V595ZM317 593Q317 545 328 498T365 413T432 352T532 328Q578 328 623 349T715 405T807 488T902 589Q851 642 803 691T708 778T616
838T528 860Q470 860 430 837T365 776T329 690T317 593V593Z" />
<glyph unicode="&#x222b;" glyph-name="integral'" horiz-adv-x="800" d="M721 1295Q698 1302 668 1308T607 1315Q532 1315 501 1274T469 1140V-66Q469 -133 454 -187T409 -278T330 -336T217 -357Q190 -357 166 -353T118 -344T74 -330T34 -312L59 -217Q82 -224
112 -230T173 -237Q248 -237 279 -196T311 -62V1144Q311 1211 326 1265T371 1356T450 1414T563 1435Q590 1435 614 1431T662 1422T706 1408T746 1390L721 1295Z" />
<glyph unicode="&#x2248;" glyph-name="approxequal" horiz-adv-x="1000" d="M907 792Q873 761 843 739T784 702T724 680T661 673Q619 673 587 681T527 702T475 729T427 756T375 777T313 785Q294 785 275 780T234 765T189 737T136 696L85 784Q119 816 149 838T208
875T268 896T332 903Q373 903 405 895T465 874T517 847T565 820T616 799T679 791Q698 791 717 796T758 811T803 839T857 880L907 792ZM907 406Q873 375 843 353T784 316T724 294T661 287Q619 287 587 295T527 316T475 343T427 370T375 391T313 399Q294 399 275
394T234 379T189 351T136 310L85 398Q119 429 149 452T208 489T268 510T332 517Q373 517 405 509T465 488T517 461T565 434T616 413T679 405Q698 405 717 410T758 425T803 453T857 494L907 406Z" />
<glyph unicode="&#x2260;" glyph-name="notequal" horiz-adv-x="1000" d="M444 351L277 39L168 94L309 351H97V462H364L508 728H97V839H564L731 1151L840 1098L698 839H908V728H643L499 462H908V351H444Z" />
<glyph unicode="&#x2264;" glyph-name="lessequal" horiz-adv-x="1000" d="M86 0V114H909V0H86ZM861 257L86 624V730L861 1096L910 983L244 679L910 373L861 257Z" />
<glyph unicode="&#x2265;" glyph-name="greaterequal" horiz-adv-x="1000" d="M86 0V114H909V0H86ZM135 257L85 371L752 674L85 981L135 1096L909 730V624L135 257Z" />
<glyph unicode="&#x25ca;" glyph-name="lozenge" horiz-adv-x="1000" d="M563 0H428L52 670L436 1350H570L946 680L563 0ZM492 1191L206 687L508 159L794 663L492 1191Z" />
<glyph unicode="&#xeeee;" glyph-name="BBox" horiz-adv-x="350" d="M350 1800V-400H0V1800H350Z" />
<glyph unicode="&#xf000;" glyph-name="LuFo" horiz-adv-x="360" d="M360 -400H0V-40H360V-400ZM40 -80V-360H320V-80H40ZM80 -120H120V-280H200V-320H80V-120ZM280 -120V-320H240V-240H160V-200H240V-160H160V-120H280ZM360 1410H0V1770H360V1410ZM40 1730V1450H320V1730H40ZM80
1690H120V1530H200V1490H80V1690ZM280 1690V1490H240V1570H160V1610H240V1650H160V1690H280Z" />
<glyph unicode="&#xf6be;" glyph-name="dotlessj" horiz-adv-x="496" d="M327 78Q327 6 317 -54T283 -166T223 -264T131 -355L36 -302Q95 -239 132 -154T169 36V991H327V78Z" />
<glyph unicode="&#xf6c1;" glyph-name="Scedilla" horiz-adv-x="992" d="M914 366Q914 283 884 213T795 92T656 12T476 -16Q374 -16 282 13T102 96L144 188Q219 155 302 134T450 112Q580 112 656 173T732 346Q732 421 690 473T594 556T432 638T260 734T153 847T110
1016Q110 1093 139 1157T221 1269T348 1341T508 1366Q597 1366 679 1342T832 1274L790 1182Q729 1208 663 1224T532 1240Q410 1240 347 1184T284 1038Q284 962 326 910T424 826T588 743T763 647T871 534T914 366ZM553 -86Q563 -171 526 -236T407 -358L319 -308Q379
-255 399 -209T413 -86H553Z" />
<glyph unicode="&#xf6c2;" glyph-name="scedilla" horiz-adv-x="802" d="M722 274Q722 145 626 65T366 -16Q288 -16 219 2T82 54L102 144Q175 122 231 112T342 102Q447 102 500 146T554 260Q554 297 539 325T497 373T440 409T356 444T271 479T204 516T144 568T102
639T86 734Q86 854 175 931T410 1008Q471 1008 528 995T646 950L622 862Q523 892 436 892Q347 892 299 852T250 750Q250 703 274 671T337 617T443 568T552 522T632 472T697 392T722 274ZM449 -86Q459 -171 422 -236T303 -358L215 -308Q275 -255 295 -209T309 -86H449Z"
/>
<glyph unicode="&#xf6c9;" glyph-name="acute.cap" horiz-adv-x="696" d="M192 1456L142 1532L478 1708L554 1596L192 1456Z" />
<glyph unicode="&#xf6ca;" glyph-name="caron.cap" horiz-adv-x="862" d="M188 1708L432 1584L674 1708L718 1636L430 1456L142 1634L188 1708Z" />
<glyph unicode="&#xf6cb;" glyph-name="dieresis.cap" horiz-adv-x="856" d="M714 1556Q714 1509 697 1493T628 1476Q574 1476 557 1492T540 1556Q540 1605 557 1621T628 1638Q679 1638 696 1622T714 1556ZM316 1556Q316 1509 299 1493T230 1476Q179 1476 161
1492T142 1556Q142 1604 160 1621T230 1638Q282 1638 299 1622T316 1556Z" />
<glyph unicode="&#xf6ce;" glyph-name="grave.cap" horiz-adv-x="696" d="M504 1456L142 1596L218 1708L554 1532L504 1456Z" />
<glyph unicode="&#xf6cf;" glyph-name="hungarumlaut.cap" horiz-adv-x="1068" d="M208 1442L142 1492L432 1724L530 1644L208 1442ZM576 1446L518 1502L836 1712L926 1624L576 1446Z" />
<glyph unicode="&#xf6d0;" glyph-name="macron.cap" horiz-adv-x="826" d="M142 1502V1614H682V1502H142Z" />
<glyph unicode="&#xf730;" glyph-name="zero.oldstyle" horiz-adv-x="1000" d="M752 552Q752 694 736 786T688 932T609 1007T498 1028Q436 1028 388 1007T309 933T262 792T246 570Q246 440 260 352T305 210T386 132T508 108Q640 108 696 213T752 552ZM916 568Q916
260 808 122T492 -16Q384 -16 306 11T179 103T106 278T82 556Q82 724 112 838T197 1022T332 1122T510 1152Q610 1152 686 1125T813 1031T890 852T916 568Z" />
<glyph unicode="&#xf731;" glyph-name="one.oldstyle" horiz-adv-x="1000" d="M146 0V136H450V970L176 876L140 978L488 1134H620V136H892V0H146Z" />
<glyph unicode="&#xf732;" glyph-name="two.oldstyle" horiz-adv-x="1000" d="M112 0V114Q292 264 402 365T574 540T657 673T678 798Q678 858 659 899T608 967T532 1006T440 1018Q376 1018 312 1005T158 964L134 1074Q182 1092 225 1106T310 1130T398 1145T500
1150Q576 1150 641 1130T754 1069T830 965T858 818Q858 734 831 663T742 515T577 348T324 136H890V0H112Z" />
<glyph unicode="&#xf733;" glyph-name="three.oldstyle" horiz-adv-x="1000" d="M868 192Q868 -20 763 -121T442 -222Q362 -222 270 -203T64 -144L80 -46Q184 -68 266 -80T416 -92Q562 -92 624 -30T686 176Q686 313 618 377T408 442H270V568H402Q648 568 648 814Q648
920 594 970T416 1020Q386 1020 349 1017T275 1007T202 991T134 972L110 1080Q172 1104 268 1127T474 1150Q564 1150 631 1126T741 1059T804 958T824 834Q824 706 767 625T616 520Q675 511 723 483T804 411T852 309T868 192Z" />
<glyph unicode="&#xf734;" glyph-name="four.oldstyle" horiz-adv-x="1000" d="M614 1000Q568 923 518 834T415 646T308 444T202 236H614V1000ZM774 100V-208H614V100H54V220Q112 338 174 459T299 699T425 928T544 1134Q659 1134 774 1134V236H936V100H774Z" />
<glyph unicode="&#xf735;" glyph-name="five.oldstyle" horiz-adv-x="1000" d="M876 206Q876 -14 768 -118T436 -222Q364 -222 273 -205T70 -148L84 -52Q186 -72 271 -84T426 -96Q568 -96 635 -34T702 182Q702 320 633 401T408 482Q340 482 274 474T132 450L174
1134H782V994H304L278 596Q324 604 368 607T464 610Q666 610 771 502T876 206Z" />
<glyph unicode="&#xf736;" glyph-name="six.oldstyle" horiz-adv-x="1000" d="M746 398Q746 530 694 596T524 662Q472 662 416 643T282 578V570Q282 324 342 215T526 106Q638 106 692 182T746 398ZM908 426Q908 324 880 242T801 103T677 15T516 -16Q420 -16 346
12T222 112T146 309T120 628Q120 848 156 991T254 1217T399 1333T574 1366Q642 1366 713 1351T874 1302L856 1204Q792 1220 724 1231T590 1242Q446 1242 365 1110T280 692Q362 738 431 763T580 788Q738 788 823 693T908 426Z" />
<glyph unicode="&#xf737;" glyph-name="seven.oldstyle" horiz-adv-x="1000" d="M636 414Q600 336 558 252T472 85T384 -77T302 -222L194 -180L728 994H88V1134H920V1012L636 414Z" />
<glyph unicode="&#xf738;" glyph-name="eight.oldstyle" horiz-adv-x="1000" d="M752 316Q752 371 732 415T675 495T594 560T486 622Q371 555 310 491T248 330Q248 222 314 162T510 102Q618 102 685 161T752 316ZM726 1042Q726 1143 670 1196T498 1250Q394 1250
334 1196T274 1054Q274 959 334 897T510 770Q614 829 670 890T726 1042ZM914 334Q914 259 888 196T809 85T674 11T484 -16Q285 -16 186 71T86 308Q86 377 108 433T170 533T258 613T372 684Q248 757 181 836T114 1032Q114 1105 140 1166T217 1272T343 1341T512 1366Q613
1366 685 1343T802 1277T866 1178T886 1054Q886 938 819 858T634 710Q696 676 744 642T831 563T892 461T914 334Z" />
<glyph unicode="&#xf739;" glyph-name="nine.oldstyle" horiz-adv-x="1000" d="M718 564Q718 810 659 919T474 1028Q362 1028 308 951T254 736Q254 604 306 538T478 472Q530 472 586 491T718 556V564ZM882 506Q882 286 844 144T742 -80T594 -193T416 -224Q350
-224 276 -210T100 -158L116 -60Q198 -80 267 -90T402 -100Q472 -100 530 -69T630 27T695 195T720 442Q638 396 570 371T420 346Q262 346 178 441T94 708Q94 810 122 892T201 1031T324 1119T484 1150Q580 1150 655 1122T780 1022T856 825T882 506Z" />
<glyph unicode="&#xf8ff;" glyph-name="" horiz-adv-x="2000" d="M1358 258L1428 95L1361 77L1428 -79L1359 -97L1382 -151L1316 -301H1200Q1196 -323 1180 -341T1138 -372T1077 -392T1001 -400Q960 -400 925 -393T864 -372T821 -340T802 -301H686L572 -30L640
-11L572 153L647 171L606 271V439Q574 474 548 515T502 603T472 701T461 807Q461 881 480 950T535 1079T619 1188T728 1271T857 1325T1001 1345Q1075 1345 1143 1326T1272 1272T1381 1188T1465 1079T1519 951T1539 807Q1539 750 1528 698T1498 599T1452 511T1394
438V268L1358 258ZM1092 798Q1071 800 1050 801T1006 802Q980 802 956 802T908 798L939 492H1062L1092 798ZM91 741Q89 757 89 773T88 807T88 840T91 873L340 854Q338 842 338 831T338 807T338 783T340 760L91 741ZM311 1404Q321 1416 332 1428T355 1452T379 1476T403
1496L567 1307Q557 1299 548 1291T531 1275T515 1258T500 1240L311 1404ZM1047 1467Q1035 1468 1024 1468T1000 1469T976 1469T953 1467L932 1766Q948 1767 965 1768T999 1769Q1017 1769 1034 1769T1068 1766L1047 1467ZM1500 1240Q1492 1250 1484 1259T1468 1276T1450
1292T1433 1307L1597 1496Q1609 1486 1621 1475T1645 1452T1669 1428T1689 1404L1500 1240ZM1660 760Q1661 772 1661 784T1662 808T1662 831T1660 854L1909 873Q1911 856 1911 840T1912 807T1912 774T1909 741L1660 760ZM1271 492Q1301 517 1327 550T1373 624T1404
710T1416 807Q1416 893 1383 969T1294 1101T1163 1190T1001 1223Q915 1223 839 1190T707 1101T617 969T584 807Q584 761 594 717T622 633T668 557T731 492H852L817 783Q797 778 775 770T735 756Q724 752 717 758T706 777T701 804T701 833T707 857T720 869Q751 879
785 887T855 901T928 910T1001 914Q1039 914 1076 911T1149 901T1219 887T1286 869Q1292 867 1296 857T1302 833T1303 804T1298 777T1286 759T1268 757Q1250 763 1227 770T1182 783L1149 492H1271ZM1271 393H730V279L763 200L1271 329V393ZM1242 230L722 97L757
17L1277 149L1242 230ZM1246 49L724 -85L777 -215H1224L1253 -148L1241 -121L1082 -162L1053 -83L1277 -27L1246 49ZM1020 848Q1022 855 1020 862H1018Q1020 855 1018 848H1020ZM1016 858Q1011 859 1011 858T1012 855T1014 852T1012 852V850Q1017 849 1017 850T1017
852T1014 855T1016 856V858ZM1010 856Q1010 861 1004 858V856Q1008 858 1008 856Q1004 856 1004 852Q1004 849 1006 849T1008 852V850H1010V856ZM1002 848Q1000 855 1002 862H1000Q998 855 1000 848H1002ZM996 852Q993 850 993 854T996 856V858Q990 859 990 853T996
850V852ZM988 858H986V852Q986 850 985 850T984 852V858H982V852Q982 849 985 849T988 852V858ZM980 852H978V860H976V850H980V852ZM1007 853Q1007 851 1007 851T1007 853Q1006 853 1006 853T1007 853Z" />
<glyph unicode="&#xfb00;" glyph-name="f_f" horiz-adv-x="1152" d="M1185 1283Q1152 1297 1117 1306T1049 1315Q975 1315 943 1275T911 1152V991H1131V877H911V0H753V877H349V0H191V877H31V991H191V1130Q191 1197 206 1251T251 1342T329 1400T440 1421Q499 1421
550 1406T640 1370L610 1274Q584 1285 550 1293T484 1301Q412 1301 381 1261T349 1138V991H753V1144Q753 1211 768 1265T814 1356T892 1414T1006 1435Q1037 1435 1067 1430T1124 1417T1175 1399T1218 1377L1185 1283Z" />
<glyph unicode="&#xfb01;" glyph-name="fi" horiz-adv-x="1080" d="M753 0V877H349V0H191V877H31V991H191V1144Q191 1211 206 1265T251 1356T329 1414T440 1435Q498 1435 547 1421T630 1389L601 1289Q576 1300 544 1307T482 1315Q410 1315 380 1276T349 1152V991H911V0H753ZM931
1276Q931 1249 927 1232T913 1204T884 1189T834 1184Q802 1184 783 1188T752 1203T737 1231T733 1276Q733 1303 737 1321T752 1349T782 1363T834 1367Q865 1367 884 1364T913 1350T927 1322T931 1276V1276Z" />
<glyph unicode="&#xfb02;" glyph-name="fl" horiz-adv-x="1116" d="M1055 6Q1041 2 1025 -2T991 -8T955 -11T920 -13Q876 -13 845 -5T792 24T762 84T752 183V1298Q732 1302 710 1305T665 1310T619 1314T575 1316Q513 1316 470 1304T400 1264T361 1192T349 1085V991H548V877H349V0H191V877H31V991H191V1078Q191
1154 205 1219T258 1332T365 1407T541 1435Q569 1435 599 1434T658 1430T712 1425T760 1418H910V244Q910 198 913 171T924 128T947 107T986 102Q1002 102 1018 103T1047 105L1055 6Z" />
<glyph unicode="&#xfb03;" glyph-name="f_f_i" horiz-adv-x="1642" d="M1315 0V877H911V0H753V877H349V0H191V877H31V991H191V1130Q191 1197 206 1251T251 1342T329 1400T440 1421Q499 1421 550 1406T640 1370L610 1274Q584 1285 550 1293T484 1301Q412 1301 381
1261T349 1138V991H753V1144Q753 1211 768 1265T813 1356T891 1414T1002 1435Q1060 1435 1109 1421T1192 1389L1163 1289Q1138 1300 1107 1307T1044 1315Q972 1315 942 1276T911 1152V991H1473V0H1315ZM1493 1276Q1493 1249 1490 1232T1476 1204T1446 1189T1396
1184Q1364 1184 1345 1188T1314 1203T1299 1231T1295 1276Q1295 1303 1299 1321T1314 1349T1345 1363T1396 1367Q1427 1367 1446 1364T1475 1350T1489 1322T1493 1276V1276Z" />
<glyph unicode="&#xfb04;" glyph-name="f_f_l" horiz-adv-x="1678" d="M1617 6Q1603 2 1587 -2T1553 -8T1517 -11T1482 -13Q1438 -13 1407 -5T1354 24T1324 84T1314 183V1298Q1294 1302 1272 1305T1227 1310T1181 1314T1137 1316Q1075 1316 1032 1304T962 1264T923
1192T911 1085V991H1110V877H911V0H753V877H349V0H191V877H31V991H191V1130Q191 1197 206 1251T251 1342T329 1400T440 1421Q499 1421 550 1406T640 1370L607 1274Q581 1286 548 1293T484 1301Q412 1301 381 1261T349 1138V991H753V1078Q753 1154 767 1219T820
1332T927 1407T1103 1435Q1131 1435 1161 1434T1220 1430T1274 1425T1322 1418H1472V244Q1472 198 1475 171T1486 128T1510 107T1548 102Q1564 102 1580 103T1609 105L1617 6Z" />
<glyph unicode="&#xfb06;" glyph-name="s_t" horiz-adv-x="1454" d="M1403 43Q1343 13 1286 -1T1180 -16Q1117 -16 1074 -2T1003 44T963 126T951 250V877H793V991H951V1048Q951 1118 938 1166T899 1244T834 1288T743 1302Q700 1302 664 1289T601 1252T560 1193T545
1114Q545 1089 551 1065T569 1020T599 981T644 951L623 862Q598 869 574 875T526 885T481 891T437 893Q390 893 356 882T298 851T263 805T251 749Q251 706 271 676T324 625T399 586T486 551T572 512T648 459T701 382T722 274Q722 210 697 157T626 65T515 6T367
-16Q286 -16 216 2T81 54L102 143Q172 122 229 113T343 103Q397 103 436 115T502 148T540 197T553 260Q553 304 533 333T480 385T405 423T319 458T233 497T158 551T105 627T85 735Q85 793 108 843T174 930T276 986T410 1007Q427 1007 440 1006T464 1003Q475 1001
483 999Q454 1018 437 1056T419 1139Q419 1202 445 1254T517 1342T626 1398T766 1418Q851 1418 915 1397T1022 1332T1087 1221T1109 1065V991H1377V877H1109V289Q1109 238 1114 203T1132 147T1168 116T1228 106Q1254 106 1291 112T1384 139L1403 43Z" />
<glyph unicode="&#xfeff;" glyph-name="uniFEFF" horiz-adv-x="0" />
</font>
</defs>
</svg>
