<?xml version="1.0" standalone="no"?>
<!DOCTYPE svg PUBLIC "-//W3C//DTD SVG 1.1//EN" "http://www.w3.org/Graphics/SVG/1.1/DTD/svg11.dtd" >
<svg xmlns="http://www.w3.org/2000/svg">
<metadata></metadata>
<defs>
<font id="sunregular" horiz-adv-x="1024" >
<font-face units-per-em="2048" ascent="1638" descent="-410" />
<missing-glyph horiz-adv-x="491" />
<glyph horiz-adv-x="0" />
<glyph unicode="&#xd;" horiz-adv-x="491" />
<glyph horiz-adv-x="0" />
<glyph horiz-adv-x="0" />
<glyph unicode=" "  horiz-adv-x="491" />
<glyph unicode="&#x09;" horiz-adv-x="491" />
<glyph unicode="&#xa0;" horiz-adv-x="491" />
<glyph unicode="!" horiz-adv-x="765" d="M176 1382h498l-62 -936h-370zM193 178q0 53 11 91t37.5 61.5t71.5 35t115 11.5t117 -10.5t73.5 -34t38 -61.5t11.5 -93t-11.5 -93t-39 -62.5t-73.5 -35t-116 -10.5t-115 10.5t-71.5 35t-37.5 62.5t-11 93z" />
<glyph unicode="&#x22;" horiz-adv-x="1044" d="M92 1382h385l-35 -553h-313zM567 1382h385l-34 -553h-314z" />
<glyph unicode="#" horiz-adv-x="1064" d="M43 385v238h100l21 186h-121v233h145l39 340h279l-37 -340h197l39 340h278l-37 -340h74v-233h-100l-21 -186h121v-238h-146l-45 -385h-278l41 385h-195l-43 -385h-278l37 385h-70zM422 623h199l18 186h-195z" />
<glyph unicode="$" d="M20 145l107 209q59 -27 130 -45t144 -18q45 0 72 9t41 24.5t18.5 32t4.5 32.5q0 41 -36 66.5t-91.5 51t-118 55.5t-117.5 77t-91 117.5t-36 179.5q0 147 80 246.5t229 136.5l23 219h229l25 -207q86 -10 165 -44t138 -93l-113 -199q-55 33 -111.5 49.5t-125.5 16.5 q-57 0 -87 -28.5t-30 -65.5q0 -47 38 -76t95 -54.5t125 -54t125 -74.5t95 -116t38 -176q0 -70 -21.5 -135.5t-64.5 -118.5t-109.5 -92t-156.5 -54l-25 -239h-229l-23 233q-113 12 -193.5 47t-142.5 88z" />
<glyph unicode="%" horiz-adv-x="1474" d="M53 1079q0 174 90 254t271 80q94 0 158.5 -18.5t103.5 -59.5t56.5 -104.5t17.5 -155.5q0 -174 -90.5 -254t-270.5 -80q-94 0 -158.5 18.5t-103.5 59.5t-56.5 104.5t-17.5 155.5zM113 63l1048 1367l201 -111l-1049 -1366zM338 1075q0 -82 20.5 -107.5t42.5 -25.5 q25 0 44.5 26.5t19.5 110.5q0 82 -20.5 107.5t-43.5 25.5q-25 0 -44 -26.5t-19 -110.5zM725 307q0 174 90 254t270 80q94 0 159 -18.5t103.5 -59.5t56 -104.5t17.5 -155.5q0 -174 -90 -254t-270 -80q-94 0 -158.5 18.5t-103.5 59.5t-56.5 104.5t-17.5 155.5zM1010 303 q0 -82 20.5 -107.5t42.5 -25.5q25 0 44.5 26.5t19.5 110.5q0 82 -20.5 107.5t-43.5 25.5q-25 0 -44 -26.5t-19 -110.5z" />
<glyph unicode="&#x26;" horiz-adv-x="1349" d="M31 373q0 68 18.5 121t49 96t71.5 79t88 66q-61 94 -100 181.5t-39 154.5q0 147 112.5 242.5t350.5 95.5q90 0 165.5 -17.5t130 -53t85 -91t30.5 -131.5q0 -74 -21.5 -132t-57 -105.5t-83 -84t-96.5 -69.5q39 -43 79 -87t81 -87q14 59 19.5 123.5t3.5 134.5h380 q0 -164 -32.5 -290t-91.5 -222q45 -39 63 -39h72v-250q-25 -10 -65 -23.5t-134 -13.5q-35 0 -84 23.5t-111 64.5q-92 -47 -190 -66.5t-201 -19.5q-141 0 -235 34t-151.5 89.5t-82 127t-24.5 149.5zM416 397q0 -76 47 -111.5t108 -35.5q54 0 97 14q-57 53 -114.5 112.5 t-111.5 123.5q-27 -49 -26 -103zM498 1104q0 -29 17 -68t48 -88q62 66 62 156q0 35 -16.5 51t-45.5 16q-66 0 -65 -67z" />
<glyph unicode="'" horiz-adv-x="655" d="M156 1382h366l-35 -553h-297z" />
<glyph unicode="(" horiz-adv-x="634" d="M49 545q0 268 79 501.5t212 432.5l276 -84q-43 -70 -80.5 -159t-66.5 -195.5t-45 -229.5t-16 -260q0 -133 16 -254t45 -228.5t66.5 -199.5t80.5 -166l-276 -80q-63 92 -116.5 194.5t-92.5 216t-60.5 240.5t-21.5 271z" />
<glyph unicode=")" horiz-adv-x="634" d="M18 -297q86 141 147.5 356t61.5 492q0 131 -16 252t-45 228.5t-67 199.5t-81 164l279 84q127 -188 208 -412.5t81 -509.5q0 -270 -79 -503.5t-210 -430.5z" />
<glyph unicode="*" d="M31 989l209 72l-209 76l159 288l172 -151l-34 219h368l-32 -215l172 147l161 -288l-209 -72l209 -80l-161 -289l-177 152l33 -219h-364l34 217l-172 -150z" />
<glyph unicode="+" d="M57 473v266h285v322h342v-322h279v-266h-279v-330h-342v330h-285z" />
<glyph unicode="," horiz-adv-x="628" d="M29 -236q49 37 78.5 64t46 49.5t21.5 43t5 48.5q0 25 -14 40.5t-31.5 36t-32 51t-14.5 85.5q0 68 10.5 113t37 72.5t72.5 40t118 12.5t114.5 -14.5t65 -44t29 -75t6.5 -106.5q0 -92 -14.5 -164.5t-52.5 -137t-106.5 -127t-177.5 -132.5z" />
<glyph unicode="-" horiz-adv-x="495" d="M35 459v295h459v-295h-459z" />
<glyph unicode="." horiz-adv-x="593" d="M82 193q0 66 9 109.5t35 69t70 37t113 11.5q68 0 112 -11.5t68.5 -37t33.5 -69t9 -109.5t-9 -108t-33.5 -68.5t-68.5 -37t-112 -10.5q-70 0 -113.5 10.5t-69.5 37t-35 68.5t-9 108z" />
<glyph unicode="/" d="M0 -213l694 1665h330l-696 -1665h-328z" />
<glyph unicode="0" d="M20 584q0 174 31 294.5t92.5 196.5t155.5 110t221 34q129 0 220 -29t149.5 -98.5t86.5 -187.5t28 -296q0 -182 -34 -305t-98.5 -196.5t-157.5 -105.5t-212 -32q-133 0 -225.5 32t-148.5 103.5t-82 189.5t-26 290zM428 600q0 -111 3 -174.5t12.5 -97t25.5 -43t43 -9.5 q23 0 37 9.5t23.5 42t13.5 98t4 176.5q0 106 -3 169t-12.5 95.5t-23.5 43t-39 10.5t-40 -7.5t-25.5 -39t-14.5 -96t-4 -177.5z" />
<glyph unicode="1" d="M29 995l401 193h342v-864h203v-324h-883v324h230v487l-193 -59z" />
<glyph unicode="2" d="M39 1098q57 25 111.5 46t109.5 37.5t115.5 26t130.5 9.5q125 0 212 -29t141 -80t78 -119.5t24 -150.5q0 -135 -85 -252t-264 -240h369v-346h-932v295q150 113 237 187.5t131 130t56 98.5t12 90q0 12 -5 26.5t-19.5 26.5t-40 20.5t-64.5 8.5q-57 0 -122.5 -16.5 t-149.5 -41.5z" />
<glyph unicode="3" d="M16 -123l23 232q78 -14 138.5 -19.5t107.5 -5.5q74 0 117.5 12.5t67.5 33t32 46t8 51.5q0 59 -33 94t-129 35h-166v310h162q86 0 117 28.5t31 100.5q0 59 -31 77.5t-96 18.5q-66 0 -129.5 -14.5t-137.5 -40.5l-49 268q111 47 217.5 80t233.5 33q242 0 347 -103.5 t105 -296.5q0 -100 -49 -166.5t-137 -113.5q111 -29 166 -111t55 -180q0 -133 -44 -225.5t-118.5 -148.5t-177 -82t-219.5 -26q-90 0 -199.5 27t-212.5 86z" />
<glyph unicode="4" d="M16 70v331q51 168 133 375t185 412h584v-762h92v-356h-92v-283h-414v283h-488zM360 426h144v397q-51 -123 -86 -223t-58 -174z" />
<glyph unicode="5" d="M14 -121l27 221q92 -10 161.5 -16t123.5 -6q70 0 111.5 9t65 27.5t31 46t7.5 64.5q0 76 -30 117t-126 41q-72 0 -142.5 -9t-176.5 -28l49 842h774v-346h-440l-11 -146q8 6 36 7.5t54 1.5q242 0 352.5 -116t110.5 -339q0 -121 -39 -212t-110.5 -151.5t-171 -91.5 t-219.5 -31q-88 0 -196 25t-241 90z" />
<glyph unicode="6" d="M29 705q0 188 40 322t111.5 219t168.5 125t212 40q92 0 185.5 -24.5t195.5 -86.5l-35 -223q-74 14 -144.5 22.5t-139.5 8.5q-76 0 -130.5 -60.5t-68.5 -216.5q59 35 110.5 53.5t110.5 18.5q104 0 173 -27.5t109 -81t56 -130.5t16 -175q0 -111 -32.5 -205t-94 -163.5 t-149.5 -108.5t-199 -39q-117 0 -209 27t-155.5 104.5t-97 222t-33.5 378.5zM436 559q0 -92 7.5 -148.5t19.5 -88t29.5 -43t37.5 -11.5q14 0 27.5 7.5t23 28t14.5 58.5t5 99q0 82 -13.5 105.5t-51.5 23.5q-35 0 -53.5 -4t-45.5 -15v-12z" />
<glyph unicode="7" d="M39 842v346h950v-324l-227 -483q-49 -106 -95 -191.5t-91.5 -158t-91.5 -136t-95 -128.5l-283 100l398 975h-465z" />
<glyph unicode="8" d="M23 371q0 104 45 178t129 123q-66 47 -110 130t-44 216q0 84 27.5 156.5t86 126t148.5 83t215 29.5q238 0 347.5 -90t109.5 -283q0 -113 -44 -187.5t-110 -117.5q84 -43 130 -122t46 -220q0 -92 -26.5 -170t-88 -134t-158.5 -88t-239 -32q-131 0 -220 29t-143 81 t-77.5 126t-23.5 166zM414 393q0 -66 21.5 -103.5t76.5 -37.5q53 0 74.5 34t21.5 85q0 61 -33.5 95t-99.5 56q-29 -25 -45 -59.5t-16 -69.5zM434 1028q0 -102 86 -147q70 51 70 125q0 78 -17.5 105.5t-62.5 27.5q-76 0 -76 -111z" />
<glyph unicode="9" d="M27 702q0 111 32.5 205t94 164t149.5 109t199 39q117 0 209 -27t155.5 -104.5t97 -222.5t33.5 -378q0 -188 -39.5 -326t-111.5 -228.5t-169 -133.5t-212 -43q-92 0 -192.5 20.5t-223.5 92.5l25 217q113 -16 187.5 -21.5t141.5 -5.5q76 0 130.5 68t68.5 233 q-59 -35 -110.5 -53t-110.5 -18q-104 0 -173 27.5t-109 81t-56 130t-16 174.5zM426 731q0 -41 3 -66.5t10 -40t20.5 -18.5t32.5 -4q35 0 55 4t43 15v12q0 88 -7.5 145.5t-19.5 89t-29.5 44t-37.5 12.5q-16 0 -28.5 -8.5t-22 -30t-14.5 -58t-5 -96.5z" />
<glyph unicode=":" horiz-adv-x="626" d="M123 180q0 111 54 155t161 44q111 0 164 -43t53 -156t-53 -154.5t-164 -41.5q-106 0 -160.5 42t-54.5 154zM123 864q0 111 54 155t161 44q111 0 164 -43t53 -156t-53 -155.5t-164 -42.5q-106 0 -160.5 43t-54.5 155z" />
<glyph unicode=";" horiz-adv-x="626" d="M45 -260q92 72 134 129t42 113q0 25 -16.5 37t-37 29.5t-36.5 45t-16 82.5q0 115 55 158t164 43q106 0 159.5 -41t53.5 -162q0 -123 -81 -267.5t-265 -283.5zM115 864q0 111 54 155t163 44t162 -43t53 -156t-54.5 -155.5t-160.5 -42.5q-109 0 -163 43t-54 155z" />
<glyph unicode="&#x3c;" d="M43 406v249l782 398l168 -275l-532 -241l526 -242l-168 -285z" />
<glyph unicode="=" d="M78 219v258h872v-258h-872zM78 596v254h872v-254h-872z" />
<glyph unicode="&#x3e;" d="M35 287l530 241l-526 244l170 285l776 -398v-247l-782 -400z" />
<glyph unicode="?" d="M63 1276q207 133 459 133q217 0 329 -92.5t112 -278.5q0 -80 -20.5 -133t-51.5 -91t-68 -66.5t-68.5 -58.5t-54 -65.5t-26.5 -86.5l-6 -91h-367l-6 70q-8 90 4 146.5t34.5 93.5t50.5 60.5t53.5 46t43 52t17.5 78.5q0 29 -22.5 58.5t-90.5 29.5q-90 0 -201 -49zM246 178 q0 53 11 91t39 61.5t74 35t115 11.5q70 0 116 -10.5t72.5 -34t37 -61.5t10.5 -93t-10.5 -93t-38 -62.5t-73.5 -35t-118 -10.5q-135 0 -185 45.5t-50 155.5z" />
<glyph unicode="@" horiz-adv-x="2086" d="M55 475q0 221 84 405.5t235.5 316.5t363.5 206t468 74q213 0 368 -51.5t256 -140.5t149.5 -208t48.5 -254q0 -162 -51.5 -294t-144.5 -226t-226 -145.5t-297 -51.5h-179l-28 125q-70 -74 -129.5 -103.5t-126.5 -29.5q-74 0 -126 29t-86 80t-50.5 123.5t-16.5 158.5 q0 154 44 260.5t120 174t177.5 97.5t215.5 30q98 0 195.5 -14.5t183.5 -49.5l-67 -586q39 0 74.5 24t62 70t43 114.5t16.5 158.5q0 84 -27.5 162t-86 137t-150.5 94t-223 35q-172 0 -304 -58.5t-220.5 -151.5t-133.5 -210t-45 -233q0 -147 41 -265t116 -201t179.5 -127 t231.5 -44q129 0 257 25.5t251 68.5l65 -233q-154 -72 -309.5 -112t-323.5 -40q-197 0 -361.5 52t-282.5 158.5t-184.5 268.5t-66.5 381zM930 543q0 -86 9 -113t30 -27q23 0 43 13.5t55 62.5l37 291q-10 2 -19.5 2h-17.5q-23 0 -46.5 -9t-44 -35t-33.5 -71t-13 -114z" />
<glyph unicode="A" horiz-adv-x="1294" d="M-2 0q39 186 80 362.5t85 347.5t91 337.5t100 334.5h584q111 -338 195 -677.5t163 -704.5h-460q-4 23 -9.5 54.5t-11.5 64.5t-11 62.5t-9 49.5h-353q-8 -41 -18 -104.5t-21 -126.5h-405zM506 545h225q-27 117 -56.5 243.5t-58.5 235.5q-12 -53 -27.5 -115.5t-30.5 -126 t-28.5 -125t-23.5 -112.5z" />
<glyph unicode="B" horiz-adv-x="1243" d="M100 0v1382h559q246 0 360 -91t114 -249q0 -104 -37 -166.5t-111 -103.5q55 -14 96 -46t68 -73t40 -89t13 -97q0 -92 -34.5 -177t-111.5 -150.5t-198 -104.5t-295 -39q-78 0 -202.5 2t-260.5 2zM520 295q14 -2 40 -3t36 -1q90 0 123 40.5t33 110.5q0 25 -7.5 48.5t-26 44 t-50 33t-80.5 12.5h-68v-285zM520 862h51q72 0 100.5 33t28.5 82q0 51 -24.5 84t-85.5 33h-70v-232z" />
<glyph unicode="C" horiz-adv-x="1064" d="M43 662q0 383 150.5 567t441.5 184q51 0 106.5 -12t107.5 -39t99 -69t82 -103l-188 -197q-35 37 -74 58.5t-74 21.5t-70.5 -13t-64.5 -52t-48 -111t-19 -188q0 -121 13 -198t37.5 -122t60.5 -61.5t83 -16.5q102 0 197 105l182 -207q-35 -59 -85 -104.5t-110.5 -75 t-126 -45t-127.5 -15.5q-299 0 -436 169t-137 524z" />
<glyph unicode="D" horiz-adv-x="1265" d="M100 0v1382q141 0 263 2t233 2q172 0 292 -45t193.5 -130t107.5 -205.5t34 -270.5q0 -360 -167 -552.5t-526 -192.5q-104 0 -209.5 4t-220.5 6zM530 315q12 -2 22.5 -2h20.5q57 0 95.5 28t61 78t32.5 120.5t10 154.5q0 117 -15.5 190.5t-41 115.5t-59 57.5t-70.5 15.5 h-27.5t-28.5 -2v-756z" />
<glyph unicode="E" horiz-adv-x="966" d="M100 0v1382h803v-321h-373v-205h314v-307h-314v-223h381v-326h-811z" />
<glyph unicode="F" horiz-adv-x="933" d="M100 0v1382h795v-321h-365v-234h322v-315h-322v-512h-430z" />
<glyph unicode="G" horiz-adv-x="1189" d="M43 649q0 389 169 576.5t470 187.5q150 0 263.5 -69.5t178.5 -194.5l-190 -166q-74 55 -125 74.5t-111 19.5q-51 0 -90 -17.5t-65.5 -59.5t-40 -112.5t-13.5 -174.5q0 -117 10.5 -196t29 -125t46 -65.5t62.5 -19.5q18 0 34.5 4t33.5 8v230h-113v307h532v-715 q-104 -78 -241.5 -125t-307.5 -47q-279 0 -405.5 177.5t-126.5 502.5z" />
<glyph unicode="H" horiz-adv-x="1347" d="M100 0v1382h430v-479h287v479h430v-1382h-430v547h-287v-547h-430z" />
<glyph unicode="I" horiz-adv-x="630" d="M100 0v1382h430v-1382h-430z" />
<glyph unicode="J" horiz-adv-x="630" d="M-23 -195q41 51 66 98.5t37 95.5t16 98t4 110v1175h430v-1228q0 -160 -85 -292t-263 -224z" />
<glyph unicode="K" horiz-adv-x="1183" d="M100 0v1382h430v-540l183 540h448l-262 -602l285 -780h-475l-179 573v-573h-430z" />
<glyph unicode="L" horiz-adv-x="862" d="M100 0v1382h430v-1067h306v-315h-736z" />
<glyph unicode="M" horiz-adv-x="1759" d="M66 0q4 180 12 352t19.5 342t26.5 341t36 347h567l164 -694h2l172 694h534q18 -176 33 -347t26 -341t21.5 -342t18.5 -352h-451q0 109 -2 210t-5 202.5t-6 204t-9 212.5h-2l-185 -829h-374l-179 829h-2q-6 -113 -10 -215t-6 -202.5t-4 -201.5t-2 -210h-395z" />
<glyph unicode="N" horiz-adv-x="1329" d="M100 0v1382h521l260 -600v600h348v-1382h-471l-307 756v-756h-351z" />
<glyph unicode="O" horiz-adv-x="1323" d="M43 666q0 383 166 565t467 182q156 0 269.5 -38t188 -119.5t110.5 -213t36 -317.5q0 -389 -166 -572.5t-465 -183.5q-152 0 -265.5 35t-189 116t-113.5 215t-38 331zM494 727q0 -143 13 -229t35.5 -131t55.5 -58.5t72 -13.5q33 0 62.5 12t51 51t33.5 112t12 196 q0 141 -13 224t-35.5 128t-55.5 58.5t-72 13.5q-33 0 -62.5 -12.5t-51 -50.5t-33.5 -109.5t-12 -190.5z" />
<glyph unicode="P" horiz-adv-x="1183" d="M100 0v1382q135 0 277.5 2t255.5 2q141 0 242.5 -30.5t166 -90t94 -144t29.5 -193.5q0 -117 -31.5 -214.5t-103.5 -166t-188.5 -106.5t-286.5 -38h-25v-403h-430zM530 711h39q148 0 148 184q0 96 -35 140t-113 44h-39v-368z" />
<glyph unicode="Q" horiz-adv-x="1323" d="M43 666q0 383 166 565t467 182q156 0 269.5 -38t188 -119.5t110.5 -213t36 -317.5q0 -168 -30.5 -293t-86 -213t-130.5 -141t-163 -78q41 -45 83 -60.5t85 -16.5h22q32 0 66 2q10 1 21 1q36 0 75 -8q50 -10 105 -42t117 -101l-129 -160q-55 33 -119 37q-50 3 -103 3h-26 h-33q-50 0 -100 2q-66 3 -125 31.5t-110.5 94t-86.5 188.5q-147 0 -253.5 40t-177 124t-104.5 216t-34 315zM494 727q0 -143 13 -229t35.5 -131t55.5 -58.5t72 -13.5q33 0 62.5 12t51 51t33.5 112t12 196q0 141 -13 224t-35.5 128t-55.5 58.5t-72 13.5q-33 0 -62.5 -12.5 t-51 -50.5t-33.5 -109.5t-12 -190.5z" />
<glyph unicode="R" horiz-adv-x="1187" d="M100 0v1382q143 4 283.5 6.5t241.5 2.5q141 0 238.5 -28t157.5 -78t87 -119.5t27 -155.5q0 -152 -45.5 -236t-128.5 -135l223 -639h-479l-138 535h-37v-535h-430zM530 838h31q76 0 100.5 32.5t24.5 106.5q0 61 -25.5 89t-89.5 28h-41v-256z" />
<glyph unicode="S" horiz-adv-x="1015" d="M4 131l96 215q100 -37 170 -51t113 -14q141 0 141 90q0 45 -35.5 76.5t-91 62.5t-118 65.5t-118 87t-91 127t-35.5 183.5q0 102 37 183t102.5 137.5t155.5 86t198 29.5q104 0 208 -29.5t216 -107.5l-96 -215q-82 29 -142.5 39t-101.5 10q-125 0 -125 -86q0 -47 38 -80 t95.5 -64.5t125 -68.5t125 -88t95.5 -124t38 -177q0 -90 -32 -171t-97.5 -142.5t-167 -97.5t-240.5 -36q-135 0 -252 44t-211 116z" />
<glyph unicode="T" horiz-adv-x="956" d="M25 1057v325h905v-325h-240v-1057h-430v1057h-235z" />
<glyph unicode="U" horiz-adv-x="1335" d="M98 449v933h430v-895q0 -119 33 -165t105 -46q76 0 112.5 39t36.5 148v919h422v-897q0 -145 -45 -243.5t-125 -158.5t-188.5 -87t-233.5 -27q-133 0 -235.5 24.5t-171 82t-104.5 148.5t-36 225z" />
<glyph unicode="V" horiz-adv-x="1187" d="M0 1382h469q12 -199 55 -444.5t105 -513.5q55 221 92 470t53 488h414q-25 -186 -56.5 -362t-70.5 -347t-87 -338t-108 -335h-536q-115 338 -194 677t-136 705z" />
<glyph unicode="W" horiz-adv-x="1794" d="M8 1382h459q4 -74 12 -158.5t19.5 -187t26 -225.5t28.5 -272h2l41 249l125 594h432l127 -616l39 -227h4q14 137 26.5 252.5t20.5 217t14.5 192.5t10.5 181h391q-53 -371 -118.5 -708.5t-147.5 -673.5h-473l-115 520l-41 250h-2l-39 -244l-105 -526h-466q-88 340 -153 679 t-118 703z" />
<glyph unicode="X" horiz-adv-x="1142" d="M-12 0q72 207 146.5 390t158.5 343q-43 84 -80 163t-69.5 156.5t-63.5 158.5t-62 171h455q10 -39 24.5 -85t30 -92t31.5 -90t33 -79q16 33 33.5 77t35 91t33 93t27.5 85h401q-66 -195 -133 -350t-145 -293q78 -143 159.5 -334.5t151.5 -404.5h-465q-33 104 -71.5 206.5 t-77.5 188.5q-37 -86 -74 -188.5t-68 -206.5h-411z" />
<glyph unicode="Y" horiz-adv-x="1021" d="M-20 1382h460q16 -113 41 -224t56 -216q33 100 54 210t40 230h411q-72 -274 -149.5 -480t-169.5 -359v-543h-430v543q-96 182 -175 384.5t-138 454.5z" />
<glyph unicode="Z" horiz-adv-x="999" d="M33 0v311l405 738h-395v333h907v-305l-409 -741h432v-336h-940z" />
<glyph unicode="[" horiz-adv-x="755" d="M115 -354v1867h534v-213h-170v-1445h170v-209h-534z" />
<glyph unicode="\" d="M0 1452h326l698 -1665h-326z" />
<glyph unicode="]" horiz-adv-x="755" d="M104 -145h170v1445h-170v213h535v-1867h-535v209z" />
<glyph unicode="^" d="M12 834l348 618h310l346 -621l-318 -102l-186 391l-190 -391z" />
<glyph unicode="_" d="M0 -66h1024v-288h-1024v288z" />
<glyph unicode="`" horiz-adv-x="645" d="M0 1368l264 133l291 -274l-182 -107z" />
<glyph unicode="a" horiz-adv-x="1093" d="M23 289q0 174 140 275.5t412 101.5h37v34q0 84 -135 84q-78 0 -169 -17t-177 -46l-47 242q121 53 241.5 80.5t247.5 27.5q211 0 328 -87t117 -251v-733h-313l-25 88q-59 -55 -132 -87t-171 -32q-174 0 -264 80t-90 240zM418 332q0 -80 82 -80q29 0 60.5 15.5t51.5 31.5 v131h-49q-145 0 -145 -98z" />
<glyph unicode="b" horiz-adv-x="1138" d="M78 25v1427h409v-463q37 31 95.5 57.5t128.5 26.5q109 0 183.5 -42t120.5 -112.5t66.5 -162t20.5 -189.5q0 -158 -40 -271.5t-116 -186t-185.5 -106.5t-250.5 -34q-53 0 -110.5 4t-114 12.5t-109.5 18.5t-98 21zM487 266q10 -4 26.5 -8t43.5 -4q61 0 95 62.5t34 205.5 q0 137 -27.5 188.5t-68.5 51.5q-45 0 -103 -41v-455z" />
<glyph unicode="c" horiz-adv-x="856" d="M37 508q0 119 31.5 221t93 179t149.5 121t201 44q106 0 188 -33.5t142 -99.5l-135 -211q-18 16 -52 30.5t-75 14.5q-47 0 -83 -52t-36 -181q0 -82 8 -134.5t21.5 -81t32 -40t38.5 -11.5q59 0 103.5 14.5t80.5 43.5l111 -211q-57 -55 -151.5 -101.5t-223.5 -46.5 q-229 0 -336.5 132.5t-107.5 402.5z" />
<glyph unicode="d" horiz-adv-x="1138" d="M37 475q0 158 39 271.5t109.5 186.5t170 106.5t219.5 33.5q25 0 45.5 -1t30.5 -3v383h410v-1452h-334l-27 92q-57 -57 -125.5 -90t-146.5 -33q-109 0 -183.5 42t-120.5 113t-66.5 162t-20.5 189zM453 520q0 -70 7 -116t19.5 -73.5t29.5 -38.5t40 -11q45 0 102 41v454 q-10 4 -26.5 8t-42.5 4q-61 0 -95 -62t-34 -206z" />
<glyph unicode="e" horiz-adv-x="1089" d="M37 498q0 143 38 251.5t107.5 180t168 107.5t220.5 36q113 0 206 -29.5t157.5 -103.5t95.5 -199q22 -90 22 -215q0 -48 -3 -102h-596v-6q0 -70 42 -106t115 -36q68 0 171.5 13.5t209.5 40.5l49 -228q-117 -61 -245.5 -97t-257.5 -36q-113 0 -205 27t-157.5 88 t-101.5 162.5t-36 251.5zM455 666h202v2q0 86 -25.5 113.5t-70.5 27.5t-73.5 -33t-32.5 -110z" />
<glyph unicode="f" horiz-adv-x="651" d="M12 762v280h84v74q0 86 16.5 153.5t55.5 116t102.5 73t157.5 24.5t160.5 -20.5t124.5 -51.5l-47 -227q-31 6 -53.5 8t-43.5 2q-37 0 -50 -17.5t-13 -52.5v-82h127v-280h-127v-762h-410v762h-84z" />
<glyph unicode="g" horiz-adv-x="1150" d="M37 492q0 301 155.5 441t436.5 140q51 0 108.5 -5t114.5 -12t110.5 -17.5t98.5 -20.5v-969q0 -129 -42 -213t-112.5 -133t-162 -68.5t-189.5 -19.5q-94 0 -195.5 26.5t-234.5 88.5l27 219q162 -25 260 -34q52 -5 91 -5q35 0 60 4q53 8 70.5 30.5t17.5 59.5v80 q-43 -33 -98 -58.5t-125 -25.5q-106 0 -181 41t-121 109.5t-67.5 156.5t-21.5 185zM453 532q0 -135 28.5 -182t67.5 -47q45 0 102 41v432q-10 4 -26.5 8t-42.5 4q-59 0 -94 -59t-35 -197z" />
<glyph unicode="h" horiz-adv-x="1138" d="M78 0v1452h409v-467q45 39 107.5 63.5t140.5 24.5q176 0 255 -114.5t79 -370.5q0 -92 -4 -246t-4 -342h-412q0 174 4 314.5t4 215.5q0 80 -4 124t-11 64.5t-19.5 25t-30.5 4.5q-39 0 -105 -33v-715h-409z" />
<glyph unicode="i" horiz-adv-x="565" d="M45 1280q0 53 11.5 92t39 63.5t72.5 36t115 11.5t115.5 -10.5t73.5 -35t38 -63.5t10 -94q0 -53 -11 -92t-39 -63.5t-73 -36t-114 -11.5q-72 0 -117 10.5t-72.5 35t-38 63.5t-10.5 94zM78 0v1042h409v-1042h-409z" />
<glyph unicode="j" horiz-adv-x="565" d="M-49 -274q61 84 94 161.5t33 161.5v993h409v-931q0 -152 -63.5 -268.5t-194.5 -227.5zM45 1280q0 53 11.5 92t39 63.5t72.5 36t115 11.5t115.5 -10.5t73.5 -35t38 -63.5t10 -94q0 -53 -11 -92t-39 -63.5t-73 -36t-114 -11.5q-72 0 -117 10.5t-72.5 35t-38 63.5t-10.5 94z " />
<glyph unicode="k" horiz-adv-x="1089" d="M78 0v1452h409v-788l123 378h467l-223 -436l236 -606h-472l-131 465v-465h-409z" />
<glyph unicode="l" horiz-adv-x="598" d="M78 195v1257h409v-1094q0 -39 3.5 -60.5t10.5 -32.5t17 -13t25 -2h45l14 -234q-59 -18 -120.5 -28.5t-155.5 -10.5q-117 0 -182.5 46.5t-65.5 171.5z" />
<glyph unicode="m" horiz-adv-x="1695" d="M78 0v1042h334l26 -92q59 59 132 91t161 32q92 0 159.5 -31.5t102.5 -97.5q137 129 307 129q182 0 258 -115.5t76 -367.5q0 -84 -4 -238.5t-4 -351.5h-412q0 182 4.5 322.5t4.5 205.5q0 80 -3 125t-10.5 65.5t-19.5 25t-31 4.5q-35 0 -104 -33q2 -16 2 -47v-68v-600h-408 v528q0 80 -3 125t-10 65.5t-18.5 25t-27.5 4.5q-37 0 -103 -33v-715h-409z" />
<glyph unicode="n" horiz-adv-x="1138" d="M78 0v1042h334l26 -92q59 59 134 91t163 32q180 0 257 -116.5t77 -368.5q0 -84 -4 -237.5t-4 -350.5h-412q0 90 1 172t3 150.5t3 122t1 85.5q0 80 -4 124t-11 64.5t-19.5 25t-30.5 4.5q-39 0 -105 -33v-715h-409z" />
<glyph unicode="o" horiz-adv-x="1150" d="M37 500q0 291 146.5 432t410.5 141q127 0 224 -27.5t163 -91t99.5 -164t33.5 -247.5q0 -291 -146.5 -432.5t-410.5 -141.5q-127 0 -224 28t-163 91.5t-99.5 163.5t-33.5 248zM455 545q0 -98 10 -153.5t26.5 -84t38 -36t45.5 -7.5q25 0 46.5 8.5t39 34t26.5 71.5t9 120 q0 98 -10 153.5t-26.5 84t-38 35.5t-46.5 7t-46 -8t-38.5 -33.5t-26.5 -72t-9 -119.5z" />
<glyph unicode="p" horiz-adv-x="1138" d="M78 -354v1396h334l26 -92q57 57 126 90t147 33q109 0 183.5 -42t120.5 -112.5t66.5 -162t20.5 -189.5q0 -158 -39 -271.5t-109.5 -186t-170 -106.5t-220.5 -34q-25 0 -45 1t-31 3v-327h-409zM487 266q10 -4 26.5 -8t43.5 -4q61 0 95 62.5t34 205.5q0 137 -27.5 188.5 t-68.5 51.5q-45 0 -103 -41v-455z" />
<glyph unicode="q" horiz-adv-x="1138" d="M37 475q0 158 40 271.5t115.5 186.5t185 106.5t251.5 33.5q51 0 108.5 -5t114.5 -12t110.5 -17.5t98.5 -20.5v-1372h-410v407q-37 -31 -95 -57.5t-128 -26.5q-109 0 -183.5 42t-120.5 113t-66.5 162t-20.5 189zM453 520q0 -70 7 -116t20.5 -73.5t30.5 -38.5t38 -11 q45 0 102 41v454q-10 4 -26.5 8t-42.5 4q-61 0 -95 -62t-34 -206z" />
<glyph unicode="r" horiz-adv-x="794" d="M78 0v1042h334l30 -131q63 94 116.5 127t113.5 33q29 0 60.5 -6t62.5 -21l-50 -346q-41 10 -66.5 13.5t-41.5 3.5q-35 0 -66.5 -23.5t-83.5 -93.5v-598h-409z" />
<glyph unicode="s" horiz-adv-x="894" d="M20 78l25 198q100 -16 161.5 -20t104.5 -4q80 0 105.5 16.5t25.5 38.5q0 12 -6 21.5t-21.5 19.5t-43 21.5t-70.5 25.5q-141 47 -208.5 122t-67.5 208q0 80 31.5 144.5t89 108.5t137 68.5t178.5 24.5q82 0 164 -21.5t186 -78.5l-33 -199q-86 16 -134 22.5t-91 6.5 q-55 0 -77.5 -14.5t-22.5 -32.5q0 -25 24.5 -39.5t102.5 -40.5q164 -53 230.5 -134t66.5 -200q0 -78 -32 -144.5t-94.5 -116.5t-153.5 -79t-208 -29q-96 0 -183 27t-186 80z" />
<glyph unicode="t" horiz-adv-x="718" d="M12 762v280h103q27 72 47 146t43 166h301v-312h160v-280h-160v-426q0 -39 16.5 -51.5t34.5 -12.5q20 0 47 2t66 9l24 -232q-90 -47 -160.5 -63.5t-140.5 -16.5q-160 0 -228.5 59.5t-68.5 207.5v524h-84z" />
<glyph unicode="u" horiz-adv-x="1138" d="M70 455q0 84 4 237.5t4 349.5h411q0 -182 -4 -322t-4 -208q0 -80 4 -124t11.5 -64.5t19.5 -24.5t31 -4q39 0 104 33v714h410v-1042h-334l-27 92q-59 -59 -133.5 -91t-163.5 -32q-182 0 -257.5 117t-75.5 369z" />
<glyph unicode="v" horiz-adv-x="1052" d="M0 1042h440l80 -442l35 -254q23 111 38 203t25.5 175t14.5 161q3 52 3 104q0 26 -1 53h418q-14 -150 -36 -283.5t-52.5 -259.5t-69.5 -249t-84 -250h-580z" />
<glyph unicode="w" horiz-adv-x="1644" d="M6 1042h436l60 -452l20 -166h2l21 172l61 446h490l80 -454l20 -162h2q27 186 43 330q11 96 11 192q0 47 -3 94h389q-10 -145 -29.5 -279t-47 -262t-62.5 -252t-74 -249h-507l-70 426l-27 190h-4l-18 -190l-64 -426h-508z" />
<glyph unicode="x" horiz-adv-x="1026" d="M-12 0l235 539l-213 503h451l78 -286q10 29 21 69.5t21.5 81.5t16.5 77t8 58h402l-217 -467l247 -575h-460l-95 313q-23 -78 -42 -158.5t-31 -154.5h-422z" />
<glyph unicode="y" horiz-adv-x="1044" d="M0 1042h436l103 -534q10 -47 15 -90t5 -88q41 193 63 373q12 103 12 199q0 72 -7 140h417q-18 -352 -96 -617t-191.5 -442.5t-254 -266.5t-281.5 -89q-39 0 -91 15.5t-107 48.5v231q35 -6 71.5 -8t57.5 -2q41 0 63.5 3t38.5 13q25 14 25 37q0 18 -6.5 45t-16.5 66z" />
<glyph unicode="z" horiz-adv-x="819" d="M23 0v258l270 485h-258l12 299h717v-256l-277 -483h312l-11 -303h-765z" />
<glyph unicode="{" horiz-adv-x="794" d="M59 446v287h74h24.5t20.5 7.5t13.5 23.5t5.5 49v385q0 150 79.5 232.5t253.5 82.5h154v-233h-78q-47 0 -58 -21.5t-11 -68.5v-363q0 -31 -5.5 -63.5t-18.5 -63t-38.5 -59.5t-68.5 -51q43 -23 68.5 -51.5t38.5 -59t18.5 -63.5t5.5 -66v-381q0 -47 11 -68.5t58 -21.5h78 v-233h-156q-172 0 -251.5 86t-79.5 231v404q0 61 -18.5 70t-45.5 9h-74z" />
<glyph unicode="|" horiz-adv-x="524" d="M88 -354v1896h350v-1896h-350z" />
<glyph unicode="}" horiz-adv-x="794" d="M113 -121h73q47 0 60.5 21.5t13.5 68.5v381q0 33 4 66t18.5 63.5t39 59t67.5 51.5q-43 23 -67.5 51.5t-39 59t-18.5 63.5t-4 65v361q0 45 -12 67.5t-58 22.5h-77v233h153q172 0 252 -86t80 -231v-383q0 -61 17.5 -70.5t46.5 -9.5h73v-287h-73h-25.5t-20 -7t-13.5 -23.5 t-5 -48.5v-406q0 -150 -80 -232.5t-254 -82.5h-151v233z" />
<glyph unicode="~" d="M20 870v74q0 180 91.5 284.5t263.5 104.5q90 0 143 -33.5t83 -75.5t43 -76t24 -34q4 0 8 1t7 15.5t4 47t1 96.5h311v-76q0 -180 -93 -284.5t-265 -104.5q-90 0 -143.5 35t-83 76t-42 75.5t-20.5 34.5q-6 0 -10 -2t-7 -16.5t-4 -47t-1 -94.5h-310z" />
<glyph unicode="&#xa1;" horiz-adv-x="765" d="M76 -213l61 993h332l68 -993h-461zM90 999q0 111 52.5 153t162.5 42q104 0 157.5 -42t53.5 -153q0 -109 -53 -150.5t-162 -41.5q-111 0 -161 41t-50 151z" />
<glyph unicode="&#xa2;" d="M63 680q0 96 28 176t78 143.5t119.5 106.5t153.5 65l29 224h240l26 -224q113 -31 203 -104l-133 -207q-29 16 -67 31.5t-81 15.5q-25 0 -54.5 -6t-56 -26.5t-45 -58.5t-18.5 -101q0 -84 16.5 -130t41 -68.5t52.5 -28t50 -5.5q59 0 108.5 16.5t96.5 51.5l111 -211 q-47 -35 -101.5 -63.5t-120.5 -47.5l-28 -245h-240l-27 223q-88 12 -158.5 44t-119.5 88t-76 140t-27 201z" />
<glyph unicode="&#xa3;" d="M47 567v260h105q-10 27 -18.5 76t-8.5 96q0 213 118.5 308.5t346.5 95.5q104 0 200.5 -24.5t167.5 -67.5l-28 -213q-61 4 -110.5 6t-88.5 2q-57 0 -92 -5t-54.5 -18.5t-25.5 -38t-6 -61.5q0 -41 7 -78t20 -78h256v-260h-224q2 -90 -11 -146t-48 -102h426v-319h-911v260 q72 78 100.5 149.5t26.5 157.5h-148z" />
<glyph unicode="&#xa4;" d="M23 137l118 137q-61 90 -61 246q0 168 74 266l-131 152l256 141l112 -153q29 4 61.5 6t69.5 2q61 0 117 -6l111 151l256 -141l-125 -143q66 -88 65 -236q0 -160 -76 -264l136 -158l-261 -141l-108 156q-33 -4 -67.5 -7.5t-73.5 -3.5q-31 0 -57.5 1t-51.5 3l-106 -149z M414 557q0 -72 8 -113t21.5 -61.5t32 -25.5t36.5 -5t34.5 6.5t30 23.5t20.5 49t7 85q0 72 -8 113t-20.5 61.5t-30 25.5t-35.5 5q-20 0 -37.5 -6t-31 -23.5t-20.5 -49.5t-7 -85z" />
<glyph unicode="&#xa5;" d="M12 1382h439q16 -94 37.5 -179t48.5 -148q29 59 48 144t36 183h397q-66 -193 -142.5 -353.5t-162.5 -289.5v-12h229v-252h-229v-106h229v-252h-229v-117h-402v117h-229v252h229v106h-229v252h229v12q-92 152 -165.5 311.5t-133.5 331.5z" />
<glyph unicode="&#xa6;" horiz-adv-x="524" d="M88 -354v774h350v-774h-350zM88 735v813h350v-813h-350z" />
<glyph unicode="&#xa7;" horiz-adv-x="1044" d="M20 676q0 121 52.5 249t138.5 232.5t196.5 172t225.5 67.5q68 0 136.5 -25.5t123.5 -68.5l-66 -222q-66 18 -110.5 22.5t-79.5 4.5q-57 0 -69.5 -13.5t-12.5 -54.5q0 -29 35 -59.5t86 -68.5t111.5 -87t111.5 -115.5t86 -154.5t35 -203q0 -90 -29.5 -179t-80 -168 t-115 -146.5t-134 -116.5t-139 -76.5t-129.5 -27.5q-139 0 -278 100l75 217q70 -18 117 -22.5t82 -4.5q66 0 81 11.5t15 40.5q0 39 -34.5 74.5t-86 75.5t-111.5 88t-111.5 112.5t-86.5 148.5t-35 197zM338 723q0 -84 49 -140.5t111.5 -103.5t120 -92t73.5 -104q8 12 10.5 22 t2.5 12q0 55 -25 100.5t-61.5 82.5t-80.5 67.5t-83 60t-68 59.5t-35 63q-6 -2 -10 -15z" />
<glyph unicode="&#xa8;" horiz-adv-x="886" d="M53 1298q0 88 46 125t139 37q92 0 136 -37t44 -125t-46 -126.5t-134 -38.5q-92 0 -138.5 38.5t-46.5 126.5zM481 1298q0 88 44 125t137 37q90 0 135 -37t45 -125t-47 -126.5t-133 -38.5q-92 0 -136.5 38.5t-44.5 126.5z" />
<glyph unicode="&#xa9;" horiz-adv-x="1583" d="M47 682q0 162 60.5 294t165 226t242.5 145.5t292 51.5q156 0 293 -49.5t238.5 -140.5t161 -221t59.5 -292t-61.5 -294t-166 -226t-243 -146.5t-291.5 -52.5q-162 0 -299.5 48.5t-237.5 139.5t-156.5 221t-56.5 296zM367 690q0 -102 31.5 -184t90 -141.5t137.5 -91 t175 -31.5q92 0 172 31.5t138 90t92 141.5t34 183t-34 182t-93 140.5t-138 90.5t-171 32t-172 -32t-138.5 -90.5t-91 -139t-32.5 -181.5zM436 680q0 92 24.5 173t72 140.5t115 93t155.5 33.5q158 0 264 -112l-98 -150q-23 16 -51.5 26.5t-63.5 10.5q-39 0 -66.5 -42 t-27.5 -142q0 -66 6 -108t17.5 -66.5t26.5 -33.5t32 -9q88 0 157 51l86 -156q-57 -51 -132.5 -87t-170.5 -36q-180 0 -263 102.5t-83 311.5z" />
<glyph unicode="&#xaa;" horiz-adv-x="940" d="M76 905q0 135 107.5 199.5t295.5 64.5h29v23q0 23 -16.5 32t-65.5 9q-47 0 -110.5 -9.5t-145.5 -31.5l-37 194q104 41 190.5 61.5t178.5 20.5q162 0 244.5 -59t82.5 -201v-514h-251l-17 54q-45 -33 -102.5 -51.5t-122.5 -18.5q-53 0 -100.5 14.5t-82 42t-56 70.5 t-21.5 100zM135 391v209h692v-209h-692zM379 926q0 -23 16.5 -31t38.5 -8q14 0 34.5 3t39.5 7v98h-23q-37 0 -57 -8t-31.5 -18.5t-14.5 -22.5t-3 -20z" />
<glyph unicode="&#xab;" horiz-adv-x="1040" d="M33 563l293 438l268 -86l-184 -352l184 -352l-270 -84zM477 563l283 430l270 -82l-178 -348l176 -346l-268 -82z" />
<glyph unicode="&#xac;" d="M39 410v252h919v-525h-321v273h-598z" />
<glyph unicode="&#xad;" horiz-adv-x="495" d="M35 459v295h459v-295h-459z" />
<glyph unicode="&#xae;" horiz-adv-x="1161" d="M55 993q0 104 42 194.5t115 157t169 104.5t205 38t205 -38t166.5 -103.5t111.5 -157t41 -195.5t-43 -194t-115.5 -157t-170 -104.5t-203.5 -37.5q-109 0 -204 37.5t-166 103.5t-112 157t-41 195zM262 995q0 -66 24.5 -125t67.5 -104t101.5 -70.5t126.5 -25.5 q66 0 123 25.5t100 69.5t68.5 102t25.5 124t-24.5 125.5t-67.5 104.5t-100.5 71.5t-124.5 26.5q-66 0 -124.5 -25.5t-101.5 -69.5t-68.5 -103.5t-25.5 -125.5zM389 782v445q55 0 107.5 2t93.5 2q88 0 147.5 -33t59.5 -111q0 -41 -20.5 -75.5t-55.5 -50.5l70 -179h-177 l-45 154h-18v-154h-162zM551 1038h37q27 0 37 13.5t10 29.5q0 23 -10.5 32t-38.5 9h-35v-84z" />
<glyph unicode="&#xaf;" horiz-adv-x="690" d="M27 1188v266h626v-266h-626z" />
<glyph unicode="&#xb0;" horiz-adv-x="923" d="M74 1130q0 170 102.5 253t290.5 83q199 0 294 -74.5t95 -252.5q0 -170 -101.5 -255t-291.5 -85q-201 0 -295 76.5t-94 254.5zM362 1137q0 -63 26 -89t77 -26q53 0 77.5 24.5t24.5 90.5q0 59 -24.5 83.5t-77.5 24.5t-78 -24.5t-25 -83.5z" />
<glyph unicode="&#xb1;" d="M61 0v276h904v-276h-904zM61 614v275h295v299h316v-299h293v-275h-293v-307h-316v307h-295z" />
<glyph unicode="&#xb2;" d="M203 772v199q80 43 128 71.5t73.5 50t33.5 38t8 34.5q0 33 -55 33q-35 0 -70.5 -8t-70.5 -23l-29 179q74 31 143.5 49t159.5 18q145 0 215 -56.5t70 -142.5q0 -41 -17.5 -74.5t-44 -61t-58.5 -48t-62 -37.5h198v-221h-622z" />
<glyph unicode="&#xb3;" d="M197 788l24 146q49 -8 94 -12t82 -4q51 0 66.5 8t15.5 35q0 18 -17.5 29t-68.5 11h-84v158h80q47 0 62.5 11.5t15.5 29.5q0 23 -14.5 30t-57.5 7q-37 0 -72.5 -4t-74.5 -14l-21 141q53 25 126 39t141 14q283 0 282 -174q0 -47 -16.5 -75.5t-65.5 -61.5q57 -23 87 -55 t30 -91q0 -98 -84 -156.5t-248 -58.5q-72 0 -147.5 12.5t-134.5 34.5z" />
<glyph unicode="&#xb4;" horiz-adv-x="645" d="M25 1227l311 280l258 -133l-395 -254z" />
<glyph unicode="&#xb5;" horiz-adv-x="1144" d="M78 -354v1396h407v-550q0 -80 9.5 -121t22.5 -58.5t26.5 -18.5t21.5 -1q16 0 42 4t48 12v733h412v-1042h-340l-20 84q-55 -47 -97.5 -70.5t-93.5 -23.5q2 0 -3 0t-12 -1t-12.5 -3t-3.5 -6v-334h-407z" />
<glyph unicode="&#xb6;" horiz-adv-x="1390" d="M37 944q0 209 117.5 323.5t341.5 114.5h745v-1597h-303v1358h-182v-1358h-303v731q-92 0 -168 28.5t-131.5 84t-86 134.5t-30.5 181z" />
<glyph unicode="&#xb7;" horiz-adv-x="600" d="M80 713q0 111 55 154.5t166 43.5q113 0 166 -42.5t53 -155.5t-54 -155t-165 -42t-166 42t-55 155z" />
<glyph unicode="&#xb8;" horiz-adv-x="632" d="M39 -313q84 74 101.5 125t-5.5 104h342q23 -98 -27.5 -171t-170.5 -132z" />
<glyph unicode="&#xb9;" d="M229 1255l246 127h219v-381h109v-229h-555v229h135v113l-113 -37z" />
<glyph unicode="&#xba;" horiz-adv-x="890" d="M49 1057q0 100 31 176t84 128t127 78.5t160 26.5q172 0 278.5 -92t106.5 -287q0 -98 -31 -174.5t-85 -128t-128 -78t-162 -26.5q-172 0 -276.5 88t-104.5 289zM106 391v209h695v-209h-695zM369 1092q0 -70 6 -109t17 -57.5t24.5 -22.5t27.5 -4q12 0 25.5 4t23 18.5 t15.5 44t6 78.5q0 70 -6 110t-16.5 60.5t-22.5 24.5t-25 4q-16 0 -29.5 -5t-23.5 -21.5t-16 -46t-6 -78.5z" />
<glyph unicode="&#xbb;" horiz-adv-x="1040" d="M33 215l174 348l-174 348l270 80l283 -428l-285 -430zM455 213l184 350l-184 352l272 84l289 -436l-291 -438z" />
<glyph unicode="&#xbc;" horiz-adv-x="1474" d="M59 1255l246 127h219v-381h109v-229h-555v229h135v113l-113 -37zM113 63l1048 1367l201 -111l-1049 -1366zM741 78v188q41 86 90.5 169t110.5 175h408v-325h75v-207h-75v-78h-301v78h-308zM950 279h101v176q-29 -41 -56.5 -88.5t-44.5 -87.5z" />
<glyph unicode="&#xbd;" horiz-adv-x="1474" d="M59 1255l246 127h219v-381h109v-229h-555v229h135v113l-113 -37zM113 63l1048 1367l201 -111l-1049 -1366zM788 0v199q80 43 128.5 71.5t74 50t33.5 38t8 34.5q0 33 -55 33q-35 0 -71 -8t-70 -23l-29 178q74 31 143.5 49.5t159.5 18.5q145 0 215 -56.5t70 -142.5 q0 -41 -17.5 -74.5t-44 -61t-58.5 -48t-63 -37.5h199v-221h-623z" />
<glyph unicode="&#xbe;" horiz-adv-x="1474" d="M41 788l25 146q49 -8 94 -12t82 -4q51 0 66.5 8t15.5 35q0 18 -17.5 29t-68.5 11h-84v158h79q47 0 62.5 11.5t15.5 29.5q0 23 -14 30t-57 7q-37 0 -73 -4t-75 -14l-20 141q53 25 125.5 39t140.5 14q283 0 283 -174q0 -47 -16.5 -75.5t-65.5 -61.5q57 -23 86.5 -55 t29.5 -91q0 -98 -84 -156.5t-247 -58.5q-72 0 -148 12.5t-135 34.5zM113 63l1048 1367l201 -111l-1049 -1366zM741 78v188q41 86 90.5 169t110.5 175h408v-325h75v-207h-75v-78h-301v78h-308zM950 279h101v176q-29 -41 -56.5 -88.5t-44.5 -87.5z" />
<glyph unicode="&#xbf;" d="M55 147q0 78 21.5 134.5t54.5 99.5t71 77t72.5 67.5t59 71.5t31.5 89l10 90h315l6 -20q14 -98 7 -167t-26.5 -117t-47 -82t-52 -65.5t-42 -66.5t-17.5 -84q0 -29 22.5 -58.5t88.5 -29.5q29 0 86 11.5t116 37.5l117 -241q-98 -68 -215 -102t-239 -34q-217 0 -328 101.5 t-111 287.5zM317 995q0 111 51.5 153t161.5 42q104 0 158.5 -42t54.5 -153q0 -109 -54 -150.5t-161 -41.5q-111 0 -161 41t-50 151z" />
<glyph unicode="&#xc0;" horiz-adv-x="1294" d="M-2 0q39 186 80 362.5t85 347.5t91 337.5t100 334.5h584q111 -338 195 -677.5t163 -704.5h-460q-4 23 -9.5 54.5t-11.5 64.5t-11 62.5t-9 49.5h-353q-8 -41 -18 -104.5t-21 -126.5h-405zM215 1569l197 203l389 -173l-125 -153zM506 545h225q-27 117 -56.5 243.5 t-58.5 235.5q-12 -53 -27.5 -115.5t-30.5 -126t-28.5 -125t-23.5 -112.5z" />
<glyph unicode="&#xc1;" horiz-adv-x="1294" d="M-2 0q39 186 80 362.5t85 347.5t91 337.5t100 334.5h584q111 -338 195 -677.5t163 -704.5h-460q-4 23 -9.5 54.5t-11.5 64.5t-11 62.5t-9 49.5h-353q-8 -41 -18 -104.5t-21 -126.5h-405zM383 1599l403 173l187 -203l-461 -123zM506 545h225q-27 117 -56.5 243.5 t-58.5 235.5q-12 -53 -27.5 -115.5t-30.5 -126t-28.5 -125t-23.5 -112.5z" />
<glyph unicode="&#xc2;" horiz-adv-x="1294" d="M-2 0q39 186 80 362.5t85 347.5t91 337.5t100 334.5h584q111 -338 195 -677.5t163 -704.5h-460q-4 23 -9.5 54.5t-11.5 64.5t-11 62.5t-9 49.5h-353q-8 -41 -18 -104.5t-21 -126.5h-405zM293 1581l340 191l334 -193l-107 -125l-231 80l-230 -80zM506 545h225 q-27 117 -56.5 243.5t-58.5 235.5q-12 -53 -27.5 -115.5t-30.5 -126t-28.5 -125t-23.5 -112.5z" />
<glyph unicode="&#xc3;" horiz-adv-x="1294" d="M-2 0q39 186 80 362.5t85 347.5t91 337.5t100 334.5h584q111 -338 195 -677.5t163 -704.5h-460q-4 23 -9.5 54.5t-11.5 64.5t-11 62.5t-9 49.5h-353q-8 -41 -18 -104.5t-21 -126.5h-405zM260 1575q39 90 103.5 143.5t158.5 53.5q41 0 75 -14.5t60.5 -31t45 -31 t26.5 -14.5q16 0 30.5 18.5t43.5 72.5l174 -103q-47 -100 -113.5 -146t-152.5 -46q-49 0 -81 13t-55.5 30.5t-39 31t-29.5 13.5q-20 0 -34.5 -19.5t-37.5 -68.5zM506 545h225q-27 117 -56.5 243.5t-58.5 235.5q-12 -53 -27.5 -115.5t-30.5 -126t-28.5 -125t-23.5 -112.5z " />
<glyph unicode="&#xc4;" horiz-adv-x="1294" d="M-2 0q39 186 80 362.5t85 347.5t91 337.5t100 334.5h584q111 -338 195 -677.5t163 -704.5h-460q-4 23 -9.5 54.5t-11.5 64.5t-11 62.5t-9 49.5h-353q-8 -41 -18 -104.5t-21 -126.5h-405zM213 1622q0 88 38 119t140 31q104 0 139 -30t35 -116q0 -88 -38 -118.5t-140 -30.5 q-104 0 -139 29.5t-35 115.5zM506 545h225q-27 117 -56.5 243.5t-58.5 235.5q-12 -53 -27.5 -115.5t-30.5 -126t-28.5 -125t-23.5 -112.5zM664 1622q0 88 37.5 119t140.5 31q104 0 139 -30t35 -116q0 -88 -38 -118.5t-140 -30.5q-104 0 -139 29.5t-35 115.5z" />
<glyph unicode="&#xc5;" horiz-adv-x="1294" d="M-2 0q39 186 80 362.5t85 347.5t91 337.5t100 334.5h584q111 -338 195 -677.5t163 -704.5h-460q-4 23 -9.5 54.5t-11.5 64.5t-11 62.5t-9 49.5h-353q-8 -41 -18 -104.5t-21 -126.5h-405zM336 1632q0 111 84 176.5t219 65.5q156 0 227.5 -60.5t73.5 -179.5 q0 -117 -77.5 -181.5t-221.5 -64.5q-143 0 -223 60.5t-82 183.5zM506 545h225q-27 117 -56.5 243.5t-58.5 235.5q-12 -53 -27.5 -115.5t-30.5 -126t-28.5 -125t-23.5 -112.5zM568 1632q0 -78 71 -78q72 0 72 78t-72 78t-71 -78z" />
<glyph unicode="&#xc6;" horiz-adv-x="1556" d="M-68 0q59 186 120 362.5t123.5 347.5t128 337.5t136.5 334.5h1053v-321h-373v-205h314v-307h-314v-223h381v-326h-811v231h-282q-12 -41 -30 -104.5t-34 -126.5h-412zM506 545h184v522h-2q-53 -139 -102 -279.5t-80 -242.5z" />
<glyph unicode="&#xc7;" horiz-adv-x="1064" d="M43 662q0 383 150.5 567t441.5 184q51 0 106.5 -12t107.5 -39t99 -69t82 -103l-188 -197q-35 37 -74 58.5t-74 21.5t-70.5 -13t-64.5 -52t-48 -111t-19 -188q0 -121 13 -198t37.5 -122t60.5 -61.5t83 -16.5q102 0 197 105l182 -207q-35 -59 -85 -104.5t-110.5 -75 t-126 -45t-127.5 -15.5q-299 0 -436 169t-137 524zM328 -313q84 74 101.5 125t-5.5 104h342q23 -98 -27.5 -171t-170.5 -132z" />
<glyph unicode="&#xc8;" horiz-adv-x="966" d="M100 0v1382h803v-321h-373v-205h314v-307h-314v-223h381v-326h-811zM115 1569l196 203l389 -173l-125 -153z" />
<glyph unicode="&#xc9;" horiz-adv-x="966" d="M100 0v1382h803v-321h-373v-205h314v-307h-314v-223h381v-326h-811zM276 1599l404 173l186 -203l-460 -123z" />
<glyph unicode="&#xca;" horiz-adv-x="966" d="M100 0v1382h803v-321h-373v-205h314v-307h-314v-223h381v-326h-811zM162 1581l340 191l334 -193l-107 -125l-231 80l-230 -80z" />
<glyph unicode="&#xcb;" horiz-adv-x="966" d="M100 0v1382h803v-321h-373v-205h314v-307h-314v-223h381v-326h-811zM102 1622q0 88 38 119t141 31q104 0 139 -30t35 -116q0 -88 -38 -118.5t-141 -30.5q-104 0 -139 29.5t-35 115.5zM553 1622q0 88 38 119t140 31q104 0 139 -30t35 -116q0 -88 -38 -118.5t-140 -30.5 q-104 0 -139 29.5t-35 115.5z" />
<glyph unicode="&#xcc;" horiz-adv-x="630" d="M-20 1569l196 203l389 -173l-125 -153zM100 0v1382h430v-1382h-430z" />
<glyph unicode="&#xcd;" horiz-adv-x="630" d="M39 1599l403 173l187 -203l-461 -123zM100 0v1382h430v-1382h-430z" />
<glyph unicode="&#xce;" horiz-adv-x="630" d="M-18 1581l340 191l333 -193l-106 -125l-232 80l-229 -80zM100 0v1382h430v-1382h-430z" />
<glyph unicode="&#xcf;" horiz-adv-x="630" d="M-86 1622q0 88 38 119t140 31q104 0 139 -30t35 -116q0 -88 -38 -118.5t-140 -30.5q-104 0 -139 29.5t-35 115.5zM100 0v1382h430v-1382h-430zM365 1622q0 88 37.5 119t140.5 31q104 0 139 -30t35 -116q0 -88 -38 -118.5t-140 -30.5q-104 0 -139 29.5t-35 115.5z" />
<glyph unicode="&#xd0;" horiz-adv-x="1282" d="M18 565v279h107v538q141 0 257 2t228 2q172 0 292 -45t194.5 -130t108.5 -205.5t34 -270.5q0 -360 -167 -552.5t-529 -192.5q-104 0 -204.5 4t-213.5 6v565h-107zM545 313h24q63 0 107.5 28t72 78t40 120.5t12.5 154.5q0 117 -17.5 190.5t-46 115.5t-65.5 57.5t-74 15.5 h-26.5t-26.5 -2v-227h129v-279h-129v-252z" />
<glyph unicode="&#xd1;" horiz-adv-x="1349" d="M100 0v1382h521l260 -600v600h348v-1382h-471l-307 756v-756h-351zM332 1575q39 90 103.5 143.5t158.5 53.5q41 0 74.5 -14.5t60.5 -31t45.5 -31t26.5 -14.5q16 0 30.5 18.5t42.5 72.5l175 -103q-47 -100 -114 -146t-153 -46q-49 0 -80.5 13t-55 30.5t-39 31t-29.5 13.5 q-20 0 -35 -19.5t-37 -68.5z" />
<glyph unicode="&#xd2;" horiz-adv-x="1323" d="M43 666q0 383 166 565t467 182q156 0 269.5 -38t188 -119.5t110.5 -213t36 -317.5q0 -389 -166 -572.5t-465 -183.5q-152 0 -265.5 35t-189 116t-113.5 215t-38 331zM287 1569l196 203l389 -173l-124 -153zM494 727q0 -143 13 -229t35.5 -131t55.5 -58.5t72 -13.5 q33 0 62.5 12t51 51t33.5 112t12 196q0 141 -13 224t-35.5 128t-55.5 58.5t-72 13.5q-33 0 -62.5 -12.5t-51 -50.5t-33.5 -109.5t-12 -190.5z" />
<glyph unicode="&#xd3;" horiz-adv-x="1323" d="M43 666q0 383 166 565t467 182q156 0 269.5 -38t188 -119.5t110.5 -213t36 -317.5q0 -389 -166 -572.5t-465 -183.5q-152 0 -265.5 35t-189 116t-113.5 215t-38 331zM446 1599l404 173l186 -203l-461 -123zM494 727q0 -143 13 -229t35.5 -131t55.5 -58.5t72 -13.5 q33 0 62.5 12t51 51t33.5 112t12 196q0 141 -13 224t-35.5 128t-55.5 58.5t-72 13.5q-33 0 -62.5 -12.5t-51 -50.5t-33.5 -109.5t-12 -190.5z" />
<glyph unicode="&#xd4;" horiz-adv-x="1323" d="M43 666q0 383 166 565t467 182q156 0 269.5 -38t188 -119.5t110.5 -213t36 -317.5q0 -389 -166 -572.5t-465 -183.5q-152 0 -265.5 35t-189 116t-113.5 215t-38 331zM326 1581l340 191l333 -193l-106 -125l-231 80l-230 -80zM494 727q0 -143 13 -229t35.5 -131 t55.5 -58.5t72 -13.5q33 0 62.5 12t51 51t33.5 112t12 196q0 141 -13 224t-35.5 128t-55.5 58.5t-72 13.5q-33 0 -62.5 -12.5t-51 -50.5t-33.5 -109.5t-12 -190.5z" />
<glyph unicode="&#xd5;" horiz-adv-x="1323" d="M43 666q0 383 166 565t467 182q156 0 269.5 -38t188 -119.5t110.5 -213t36 -317.5q0 -389 -166 -572.5t-465 -183.5q-152 0 -265.5 35t-189 116t-113.5 215t-38 331zM307 1575q39 90 103.5 143.5t158.5 53.5q41 0 75 -14.5t60.5 -31t45 -31t26.5 -14.5q16 0 30.5 18.5 t43.5 72.5l174 -103q-47 -100 -113.5 -146t-152.5 -46q-49 0 -81 13t-55.5 30.5t-39 31t-29.5 13.5q-20 0 -34.5 -19.5t-37.5 -68.5zM494 727q0 -143 13 -229t35.5 -131t55.5 -58.5t72 -13.5q33 0 62.5 12t51 51t33.5 112t12 196q0 141 -13 224t-35.5 128t-55.5 58.5 t-72 13.5q-33 0 -62.5 -12.5t-51 -50.5t-33.5 -109.5t-12 -190.5z" />
<glyph unicode="&#xd6;" horiz-adv-x="1323" d="M43 666q0 383 166 565t467 182q156 0 269.5 -38t188 -119.5t110.5 -213t36 -317.5q0 -389 -166 -572.5t-465 -183.5q-152 0 -265.5 35t-189 116t-113.5 215t-38 331zM262 1622q0 88 38 119t140 31q104 0 139 -30t35 -116q0 -88 -37.5 -118.5t-140.5 -30.5 q-104 0 -139 29.5t-35 115.5zM494 727q0 -143 13 -229t35.5 -131t55.5 -58.5t72 -13.5q33 0 62.5 12t51 51t33.5 112t12 196q0 141 -13 224t-35.5 128t-55.5 58.5t-72 13.5q-33 0 -62.5 -12.5t-51 -50.5t-33.5 -109.5t-12 -190.5zM713 1622q0 88 37.5 119t140.5 31 q104 0 139 -30t35 -116q0 -88 -38 -118.5t-140 -30.5q-104 0 -139 29.5t-35 115.5z" />
<glyph unicode="&#xd7;" d="M72 375l229 229l-229 230l213 213l229 -230l229 230l213 -213l-229 -230l229 -229l-213 -213l-229 229l-229 -229z" />
<glyph unicode="&#xd8;" horiz-adv-x="1323" d="M43 666q0 383 166 565t467 182q154 0 268 -37l115 189l207 -109l-127 -205q141 -161 141 -526q0 -389 -166 -572.5t-465 -183.5q-78 0 -144.5 8.5t-125.5 28.5l-115 -186l-207 108l125 205q-70 82 -104.5 211t-34.5 322zM463 729q0 -35 1 -68.5t3 -62.5l297 485 q-25 18 -52.5 24.5t-60.5 6.5q-39 0 -73.5 -13.5t-60 -53t-40 -116.5t-14.5 -202zM559 301q23 -18 51.5 -24.5t61.5 -6.5q39 0 73.5 13.5t60 54.5t40 119t14.5 207q0 35 -1 64.5t-3 57.5z" />
<glyph unicode="&#xd9;" horiz-adv-x="1335" d="M98 449v933h430v-895q0 -119 33 -165t105 -46q76 0 112.5 39t36.5 148v919h422v-897q0 -145 -45 -243.5t-125 -158.5t-188.5 -87t-233.5 -27q-133 0 -235.5 24.5t-171 82t-104.5 148.5t-36 225zM225 1569l197 203l389 -173l-125 -153z" />
<glyph unicode="&#xda;" horiz-adv-x="1335" d="M98 449v933h430v-895q0 -119 33 -165t105 -46q76 0 112.5 39t36.5 148v919h422v-897q0 -145 -45 -243.5t-125 -158.5t-188.5 -87t-233.5 -27q-133 0 -235.5 24.5t-171 82t-104.5 148.5t-36 225zM528 1599l404 173l186 -203l-461 -123z" />
<glyph unicode="&#xdb;" horiz-adv-x="1335" d="M98 449v933h430v-895q0 -119 33 -165t105 -46q76 0 112.5 39t36.5 148v919h422v-897q0 -145 -45 -243.5t-125 -158.5t-188.5 -87t-233.5 -27q-133 0 -235.5 24.5t-171 82t-104.5 148.5t-36 225zM336 1581l340 191l334 -193l-107 -125l-231 80l-230 -80z" />
<glyph unicode="&#xdc;" horiz-adv-x="1335" d="M98 449v933h430v-895q0 -119 33 -165t105 -46q76 0 112.5 39t36.5 148v919h422v-897q0 -145 -45 -243.5t-125 -158.5t-188.5 -87t-233.5 -27q-133 0 -235.5 24.5t-171 82t-104.5 148.5t-36 225zM266 1622q0 88 38 119t140 31q104 0 139 -30t35 -116q0 -88 -37.5 -118.5 t-140.5 -30.5q-104 0 -139 29.5t-35 115.5zM717 1622q0 88 38 119t140 31q104 0 139 -30t35 -116q0 -88 -38 -118.5t-140 -30.5q-104 0 -139 29.5t-35 115.5z" />
<glyph unicode="&#xdd;" horiz-adv-x="1021" d="M-20 1382h460q16 -113 41 -224t56 -216q33 100 54 210t40 230h411q-72 -274 -149.5 -480t-169.5 -359v-543h-430v543q-96 182 -175 384.5t-138 454.5zM324 1599l403 173l186 -203l-460 -123z" />
<glyph unicode="&#xde;" horiz-adv-x="1183" d="M100 0v1382h430v-198h103q141 0 242.5 -31t166 -90t94 -144t29.5 -194q0 -117 -31.5 -214t-103.5 -166t-188.5 -106.5t-286.5 -37.5h-25v-201h-430zM530 508h39q148 0 148 184q0 96 -35 140.5t-113 44.5h-39v-369z" />
<glyph unicode="&#xdf;" horiz-adv-x="1220" d="M78 0v993q0 117 39 206t109.5 149.5t169 92.5t218.5 32q131 0 224.5 -25t152 -70t85 -106.5t26.5 -134.5q0 -106 -24.5 -160.5t-55.5 -84.5t-55.5 -51.5t-24.5 -60.5q0 -35 42 -67.5t93 -79.5t93 -115t42 -174q0 -74 -21.5 -140.5t-65.5 -116.5t-113.5 -78.5 t-167.5 -28.5q-78 0 -154 20t-145 66l24 188q51 -4 84 -5t66 -1q47 0 63.5 17.5t16.5 37.5q0 45 -41 77t-91.5 74t-91 103t-40.5 166q0 70 28.5 121t62 91t62.5 72.5t29 67.5q0 49 -29 80t-82 31q-74 0 -93 -40t-19 -142v-1004h-416z" />
<glyph unicode="&#xe0;" horiz-adv-x="1089" d="M23 289q0 174 140 275.5t412 101.5h37v34q0 84 -135 84q-78 0 -169 -17t-177 -46l-47 242q121 53 241.5 80.5t247.5 27.5q211 0 328 -87t117 -251v-733h-313l-25 88q-59 -55 -132 -87t-171 -32q-174 0 -264 80t-90 240zM174 1368l264 133l291 -274l-182 -107zM418 332 q0 -80 82 -80q29 0 60.5 15.5t51.5 31.5v131h-49q-145 0 -145 -98z" />
<glyph unicode="&#xe1;" horiz-adv-x="1089" d="M23 289q0 174 140 275.5t412 101.5h37v34q0 84 -135 84q-78 0 -169 -17t-177 -46l-47 242q121 53 241.5 80.5t247.5 27.5q211 0 328 -87t117 -251v-733h-313l-25 88q-59 -55 -132 -87t-171 -32q-174 0 -264 80t-90 240zM348 1227l311 280l259 -133l-396 -254zM418 332 q0 -80 82 -80q29 0 60.5 15.5t51.5 31.5v131h-49q-145 0 -145 -98z" />
<glyph unicode="&#xe2;" horiz-adv-x="1089" d="M23 289q0 174 140 275.5t412 101.5h37v34q0 84 -135 84q-78 0 -169 -17t-177 -46l-47 242q121 53 241.5 80.5t247.5 27.5q211 0 328 -87t117 -251v-733h-313l-25 88q-59 -55 -132 -87t-171 -32q-174 0 -264 80t-90 240zM242 1262l321 268l303 -268l-98 -136l-213 129 l-215 -127zM418 332q0 -80 82 -80q29 0 60.5 15.5t51.5 31.5v131h-49q-145 0 -145 -98z" />
<glyph unicode="&#xe3;" horiz-adv-x="1089" d="M23 289q0 174 140 275.5t412 101.5h37v34q0 84 -135 84q-78 0 -169 -17t-177 -46l-47 242q121 53 241.5 80.5t247.5 27.5q211 0 328 -87t117 -251v-733h-313l-25 88q-59 -55 -132 -87t-171 -32q-174 0 -264 80t-90 240zM188 1274q39 90 103.5 143t159.5 53q41 0 74.5 -14 t60 -30.5t45 -31t26.5 -14.5q16 0 30.5 19.5t43.5 73.5l154 -103q-47 -102 -113.5 -148t-153.5 -46q-49 0 -80.5 13t-55 30.5t-39 31t-29.5 13.5q-20 0 -34.5 -19.5t-37.5 -68.5zM418 332q0 -80 82 -80q29 0 60.5 15.5t51.5 31.5v131h-49q-145 0 -145 -98z" />
<glyph unicode="&#xe4;" horiz-adv-x="1089" d="M23 289q0 174 140 275.5t412 101.5h37v34q0 84 -135 84q-78 0 -169 -17t-177 -46l-47 242q121 53 241.5 80.5t247.5 27.5q211 0 328 -87t117 -251v-733h-313l-25 88q-59 -55 -132 -87t-171 -32q-174 0 -264 80t-90 240zM145 1298q0 88 46.5 125t138.5 37t136 -37t44 -125 t-46 -126.5t-134 -38.5q-92 0 -138.5 38.5t-46.5 126.5zM418 332q0 -80 82 -80q29 0 60.5 15.5t51.5 31.5v131h-49q-145 0 -145 -98zM573 1298q0 88 44.5 125t136.5 37q90 0 135 -37t45 -125t-47 -126.5t-133 -38.5q-92 0 -136.5 38.5t-44.5 126.5z" />
<glyph unicode="&#xe5;" horiz-adv-x="1089" d="M23 289q0 174 140 275.5t412 101.5h37v34q0 84 -135 84q-78 0 -169 -17t-177 -46l-47 242q121 53 241.5 80.5t247.5 27.5q211 0 328 -87t117 -251v-733h-313l-25 88q-59 -55 -132 -87t-171 -32q-174 0 -264 80t-90 240zM252 1372q0 111 84 176.5t219 65.5 q156 0 227.5 -60.5t73.5 -179.5q0 -117 -78 -181.5t-221 -64.5t-223 60.5t-82 183.5zM418 332q0 -80 82 -80q29 0 60.5 15.5t51.5 31.5v131h-49q-145 0 -145 -98zM483 1372q0 -78 72 -78t72 78t-72 78t-72 -78z" />
<glyph unicode="&#xe6;" horiz-adv-x="1646" d="M23 289q0 174 138 272t410 98h37v41q0 84 -135 84q-78 0 -167 -17t-175 -46l-47 242q121 53 239.5 80.5t245.5 27.5q86 0 161 -19.5t122 -50.5q59 33 123.5 52.5t154.5 19.5q113 0 206.5 -29.5t158 -101.5t94 -193.5t17.5 -308.5h-598v-20q0 -70 44 -107t117 -37 q68 0 170.5 13.5t208.5 40.5l49 -228q-117 -61 -244.5 -97t-256.5 -36t-220.5 33t-150.5 109q-59 -51 -146 -96.5t-198 -45.5q-358 0 -358 320zM422 348q0 -88 84 -88q29 0 55.5 14.5t46.5 34.5v131h-49q-72 0 -104.5 -25.5t-32.5 -66.5zM1012 659h207v3q0 88 -25 117.5 t-74 29.5t-76.5 -33t-31.5 -117z" />
<glyph unicode="&#xe7;" horiz-adv-x="878" d="M37 508q0 119 31.5 221t93 179t149.5 121t201 44q106 0 188 -33.5t142 -99.5l-135 -211q-18 16 -52 30.5t-75 14.5q-47 0 -83 -52t-36 -181q0 -82 8 -134.5t21.5 -81t32 -40t38.5 -11.5q59 0 103.5 14.5t80.5 43.5l111 -211q-57 -55 -151.5 -101.5t-223.5 -46.5 q-229 0 -336.5 132.5t-107.5 402.5zM201 -313q84 74 101 125t-5 104h342q23 -98 -27.5 -171t-171.5 -132z" />
<glyph unicode="&#xe8;" horiz-adv-x="1085" d="M37 498q0 143 38 251.5t107.5 180t168 107.5t220.5 36q113 0 206 -29.5t157.5 -103.5t95.5 -199t19 -317h-596v-6q0 -70 42 -106t115 -36q68 0 171.5 13.5t209.5 40.5l49 -228q-117 -61 -245.5 -97t-257.5 -36q-113 0 -205 27t-157.5 88t-101.5 162.5t-36 251.5z M182 1368l264 133l291 -274l-182 -107zM455 666h202v2q0 86 -25.5 113.5t-70.5 27.5t-73.5 -33t-32.5 -110z" />
<glyph unicode="&#xe9;" horiz-adv-x="1085" d="M37 498q0 143 38 251.5t107.5 180t168 107.5t220.5 36q113 0 206 -29.5t157.5 -103.5t95.5 -199t19 -317h-596v-6q0 -70 42 -106t115 -36q68 0 171.5 13.5t209.5 40.5l49 -228q-117 -61 -245.5 -97t-257.5 -36q-113 0 -205 27t-157.5 88t-101.5 162.5t-36 251.5z M344 1227l311 280l258 -133l-395 -254zM455 666h202v2q0 86 -25.5 113.5t-70.5 27.5t-73.5 -33t-32.5 -110z" />
<glyph unicode="&#xea;" horiz-adv-x="1085" d="M37 498q0 143 38 251.5t107.5 180t168 107.5t220.5 36q113 0 206 -29.5t157.5 -103.5t95.5 -199t19 -317h-596v-6q0 -70 42 -106t115 -36q68 0 171.5 13.5t209.5 40.5l49 -228q-117 -61 -245.5 -97t-257.5 -36q-113 0 -205 27t-157.5 88t-101.5 162.5t-36 251.5z M252 1262l321 268l304 -268l-99 -136l-213 129l-215 -127zM455 666h202v2q0 86 -25.5 113.5t-70.5 27.5t-73.5 -33t-32.5 -110z" />
<glyph unicode="&#xeb;" horiz-adv-x="1085" d="M37 498q0 143 38 251.5t107.5 180t168 107.5t220.5 36q113 0 206 -29.5t157.5 -103.5t95.5 -199t19 -317h-596v-6q0 -70 42 -106t115 -36q68 0 171.5 13.5t209.5 40.5l49 -228q-117 -61 -245.5 -97t-257.5 -36q-113 0 -205 27t-157.5 88t-101.5 162.5t-36 251.5z M170 1298q0 88 46 125t138 37t136.5 -37t44.5 -125t-46.5 -126.5t-134.5 -38.5q-92 0 -138 38.5t-46 126.5zM455 666h202v2q0 86 -25.5 113.5t-70.5 27.5t-73.5 -33t-32.5 -110zM598 1298q0 88 44 125t136 37q90 0 135 -37t45 -125t-47 -126.5t-133 -38.5q-92 0 -136 38.5 t-44 126.5z" />
<glyph unicode="&#xec;" horiz-adv-x="565" d="M-14 1368l264 133l291 -274l-182 -107zM78 0v1042h409v-1042h-409z" />
<glyph unicode="&#xed;" horiz-adv-x="565" d="M25 1227l311 280l258 -133l-395 -254zM78 0v1042h409v-1042h-409z" />
<glyph unicode="&#xee;" horiz-adv-x="565" d="M-31 1262l322 268l303 -268l-99 -136l-213 129l-215 -127zM78 0v1042h409v-1042h-409z" />
<glyph unicode="&#xef;" horiz-adv-x="565" d="M-107 1298q0 88 46 125t139 37q92 0 136 -37t44 -125t-46 -126.5t-134 -38.5q-92 0 -138.5 38.5t-46.5 126.5zM78 0v1042h409v-1042h-409zM321 1298q0 88 44 125t137 37q90 0 135 -37t45 -125t-47 -126.5t-133 -38.5q-92 0 -136.5 38.5t-44.5 126.5z" />
<glyph unicode="&#xf0;" horiz-adv-x="1132" d="M25 463q0 123 31.5 231.5t96 188.5t162 126t226.5 46q4 0 17 -1t20 -3q-14 18 -28.5 38.5t-33.5 40.5l-172 -20l-151 178l169 21q-45 43 -88 78.5t-86 64.5h488q37 -20 80 -59l157 16l152 -180l-154 -15q80 -111 138.5 -255t58.5 -312q0 -184 -40 -312t-115.5 -208 t-183 -117t-245.5 -37q-244 0 -371.5 124t-127.5 366zM467 520q0 -125 25.5 -181t72.5 -56q27 0 45.5 7t29.5 34.5t16.5 81t5.5 145.5q0 66 -7.5 126t-17.5 103q-10 2 -19.5 2h-17.5q-78 0 -105.5 -69.5t-27.5 -192.5z" />
<glyph unicode="&#xf1;" horiz-adv-x="1138" d="M78 0v1042h334l26 -92q59 59 134 91t163 32q180 0 257 -116.5t77 -368.5q0 -84 -4 -237.5t-4 -350.5h-412q0 90 1 172t3 150.5t3 122t1 85.5q0 80 -4 124t-11 64.5t-19.5 25t-30.5 4.5q-39 0 -105 -33v-715h-409zM205 1274q39 90 103.5 143t158.5 53q41 0 74.5 -14 t60.5 -30.5t45 -31t27 -14.5q16 0 30.5 19.5t42.5 73.5l154 -103q-47 -102 -113.5 -148t-152.5 -46q-49 0 -81 13t-55.5 30.5t-39 31t-29.5 13.5q-20 0 -34.5 -19.5t-37.5 -68.5z" />
<glyph unicode="&#xf2;" horiz-adv-x="1150" d="M37 500q0 291 146.5 432t410.5 141q127 0 224 -27.5t163 -91t99.5 -164t33.5 -247.5q0 -291 -146.5 -432.5t-410.5 -141.5q-127 0 -224 28t-163 91.5t-99.5 163.5t-33.5 248zM201 1368l264 133l291 -274l-182 -107zM455 545q0 -98 10 -153.5t26.5 -84t38 -36t45.5 -7.5 q25 0 46.5 8.5t39 34t26.5 71.5t9 120q0 98 -10 153.5t-26.5 84t-38 35.5t-46.5 7t-46 -8t-38.5 -33.5t-26.5 -72t-9 -119.5z" />
<glyph unicode="&#xf3;" horiz-adv-x="1150" d="M37 500q0 291 146.5 432t410.5 141q127 0 224 -27.5t163 -91t99.5 -164t33.5 -247.5q0 -291 -146.5 -432.5t-410.5 -141.5q-127 0 -224 28t-163 91.5t-99.5 163.5t-33.5 248zM383 1227l311 280l258 -133l-395 -254zM455 545q0 -98 10 -153.5t26.5 -84t38 -36t45.5 -7.5 q25 0 46.5 8.5t39 34t26.5 71.5t9 120q0 98 -10 153.5t-26.5 84t-38 35.5t-46.5 7t-46 -8t-38.5 -33.5t-26.5 -72t-9 -119.5z" />
<glyph unicode="&#xf4;" horiz-adv-x="1150" d="M37 500q0 291 146.5 432t410.5 141q127 0 224 -27.5t163 -91t99.5 -164t33.5 -247.5q0 -291 -146.5 -432.5t-410.5 -141.5q-127 0 -224 28t-163 91.5t-99.5 163.5t-33.5 248zM272 1262l322 268l303 -268l-99 -136l-213 129l-215 -127zM455 545q0 -98 10 -153.5t26.5 -84 t38 -36t45.5 -7.5q25 0 46.5 8.5t39 34t26.5 71.5t9 120q0 98 -10 153.5t-26.5 84t-38 35.5t-46.5 7t-46 -8t-38.5 -33.5t-26.5 -72t-9 -119.5z" />
<glyph unicode="&#xf5;" horiz-adv-x="1150" d="M37 500q0 291 146.5 432t410.5 141q127 0 224 -27.5t163 -91t99.5 -164t33.5 -247.5q0 -291 -146.5 -432.5t-410.5 -141.5q-127 0 -224 28t-163 91.5t-99.5 163.5t-33.5 248zM230 1274q39 90 103.5 143t158.5 53q41 0 74.5 -14t60.5 -30.5t45 -31t27 -14.5 q16 0 30.5 19.5t42.5 73.5l154 -103q-47 -102 -113.5 -148t-152.5 -46q-49 0 -81 13t-55.5 30.5t-39 31t-29.5 13.5q-20 0 -34.5 -19.5t-37.5 -68.5zM455 545q0 -98 10 -153.5t26.5 -84t38 -36t45.5 -7.5q25 0 46.5 8.5t39 34t26.5 71.5t9 120q0 98 -10 153.5t-26.5 84 t-38 35.5t-46.5 7t-46 -8t-38.5 -33.5t-26.5 -72t-9 -119.5z" />
<glyph unicode="&#xf6;" horiz-adv-x="1150" d="M37 500q0 291 146.5 432t410.5 141q127 0 224 -27.5t163 -91t99.5 -164t33.5 -247.5q0 -291 -146.5 -432.5t-410.5 -141.5q-127 0 -224 28t-163 91.5t-99.5 163.5t-33.5 248zM186 1298q0 88 46 125t139 37q92 0 136 -37t44 -125t-46 -126.5t-134 -38.5q-92 0 -138.5 38.5 t-46.5 126.5zM455 545q0 -98 10 -153.5t26.5 -84t38 -36t45.5 -7.5q25 0 46.5 8.5t39 34t26.5 71.5t9 120q0 98 -10 153.5t-26.5 84t-38 35.5t-46.5 7t-46 -8t-38.5 -33.5t-26.5 -72t-9 -119.5zM614 1298q0 88 44 125t137 37q90 0 135 -37t45 -125t-47 -126.5t-133 -38.5 q-92 0 -136.5 38.5t-44.5 126.5z" />
<glyph unicode="&#xf7;" d="M90 406v262h846v-262h-846zM313 152q0 98 48.5 139t152.5 41q100 0 152.5 -41t52.5 -139t-48 -138.5t-157 -40.5q-104 0 -152.5 38t-48.5 141zM313 922q0 98 48.5 138t152.5 40q100 0 152.5 -40t52.5 -138t-48 -139.5t-157 -41.5q-104 0 -152.5 38t-48.5 143z" />
<glyph unicode="&#xf8;" horiz-adv-x="1150" d="M37 500q0 291 146.5 432t410.5 141q57 0 108.5 -5t96.5 -17l114 172l187 -107l-109 -170q59 -63 91 -161.5t32 -241.5q0 -291 -146.5 -432.5t-410.5 -141.5q-102 0 -184 19l-109 -168l-207 108l109 162q-66 63 -97.5 162.5t-31.5 247.5zM424 516.5q0 -14.5 2 -31.5 l205 310q-23 8 -56 8q-31 0 -58.5 -9.5t-47.5 -37t-32.5 -77.5t-12.5 -132v-30.5zM537 242q10 -2 19 -2h19q31 0 59 9t48 36.5t32.5 78t12.5 132.5v43z" />
<glyph unicode="&#xf9;" horiz-adv-x="1138" d="M70 455q0 84 4 237.5t4 349.5h411q0 -182 -4 -322t-4 -208q0 -80 4 -124t11.5 -64.5t19.5 -24.5t31 -4q39 0 104 33v714h410v-1042h-334l-27 92q-59 -59 -133.5 -91t-163.5 -32q-182 0 -257.5 117t-75.5 369zM217 1368l264 133l291 -274l-182 -107z" />
<glyph unicode="&#xfa;" horiz-adv-x="1138" d="M70 455q0 84 4 237.5t4 349.5h411q0 -182 -4 -322t-4 -208q0 -80 4 -124t11.5 -64.5t19.5 -24.5t31 -4q39 0 104 33v714h410v-1042h-334l-27 92q-59 -59 -133.5 -91t-163.5 -32q-182 0 -257.5 117t-75.5 369zM381 1227l311 280l258 -133l-395 -254z" />
<glyph unicode="&#xfb;" horiz-adv-x="1138" d="M70 455q0 84 4 237.5t4 349.5h411q0 -182 -4 -322t-4 -208q0 -80 4 -124t11.5 -64.5t19.5 -24.5t31 -4q39 0 104 33v714h410v-1042h-334l-27 92q-59 -59 -133.5 -91t-163.5 -32q-182 0 -257.5 117t-75.5 369zM278 1262l322 268l303 -268l-99 -136l-213 129l-215 -127z " />
<glyph unicode="&#xfc;" horiz-adv-x="1138" d="M70 455q0 84 4 237.5t4 349.5h411q0 -182 -4 -322t-4 -208q0 -80 4 -124t11.5 -64.5t19.5 -24.5t31 -4q39 0 104 33v714h410v-1042h-334l-27 92q-59 -59 -133.5 -91t-163.5 -32q-182 0 -257.5 117t-75.5 369zM172 1298q0 88 46 125t139 37q92 0 136 -37t44 -125 t-46 -126.5t-134 -38.5q-92 0 -138.5 38.5t-46.5 126.5zM600 1298q0 88 44 125t137 37q90 0 135 -37t45 -125t-47 -126.5t-133 -38.5q-92 0 -136.5 38.5t-44.5 126.5z" />
<glyph unicode="&#xfd;" horiz-adv-x="1044" d="M0 1042h436l103 -534q10 -47 15 -90t5 -88q41 193 62.5 373t5.5 339h417q-18 -352 -96 -617t-191.5 -442.5t-254 -266.5t-281.5 -89q-39 0 -91 15.5t-107 48.5v231q35 -6 71.5 -8t57.5 -2q41 0 63.5 3t38.5 13q25 14 25 37q0 18 -6.5 45t-16.5 66zM25 1227l311 280 l258 -133l-395 -254z" />
<glyph unicode="&#xfe;" horiz-adv-x="1138" d="M78 -354v1806h409v-463q37 31 95.5 57.5t128.5 26.5q109 0 183.5 -42t120.5 -112.5t66.5 -162t20.5 -189.5q0 -158 -39 -271.5t-109.5 -186t-170 -106.5t-220.5 -34q-25 0 -45 1t-31 3v-327h-409zM487 266q10 -4 26.5 -8t43.5 -4q61 0 95 62.5t34 205.5 q0 137 -27.5 188.5t-68.5 51.5q-47 0 -103 -49v-447z" />
<glyph unicode="&#xff;" horiz-adv-x="1044" d="M0 1042h436l103 -534q10 -47 15 -90t5 -88q41 193 62.5 373t5.5 339h417q-18 -352 -96 -617t-191.5 -442.5t-254 -266.5t-281.5 -89q-39 0 -91 15.5t-107 48.5v231q35 -6 71.5 -8t57.5 -2q41 0 63.5 3t38.5 13q25 14 25 37q0 18 -6.5 45t-16.5 66zM135 1298q0 88 46 125 t139 37q92 0 136 -37t44 -125t-46 -126.5t-134 -38.5q-92 0 -138.5 38.5t-46.5 126.5zM563 1298q0 88 44 125t137 37q90 0 135 -37t45 -125t-47 -126.5t-133 -38.5q-92 0 -136.5 38.5t-44.5 126.5z" />
<glyph unicode="&#x152;" horiz-adv-x="1628" d="M43 666q0 383 166 565t467 182q141 0 250 -31h639v-321h-373v-205h313v-307h-313v-223h381v-326h-701q-98 -31 -223 -31q-152 0 -265.5 35t-189 116t-113.5 215t-38 331zM494 727q0 -143 13 -229t35.5 -131t55.5 -58.5t72 -13.5q27 0 50 5t42 22v733q-23 20 -49.5 27.5 t-59.5 7.5t-62.5 -12.5t-51 -50.5t-33.5 -109.5t-12 -190.5z" />
<glyph unicode="&#x153;" horiz-adv-x="1738" d="M37 502q0 291 145.5 431t405.5 140q104 0 187 -18.5t149 -69.5q53 43 129.5 65.5t169.5 22.5q113 0 206 -29.5t157.5 -101.5t94 -193.5t17.5 -308.5h-598v-20q0 -70 44 -107t118 -37q70 0 171 13.5t207 40.5l50 -228q-117 -61 -245 -97t-257 -36q-92 0 -168 18.5 t-141 65.5q-61 -47 -143.5 -65.5t-178.5 -18.5q-127 0 -224 29t-163 91.5t-99.5 163.5t-33.5 249zM455 547q0 -98 10 -154.5t26.5 -85t39 -36t47.5 -7.5t46 9.5t37.5 34t25.5 69.5t9 119q0 98 -10 154.5t-26.5 85t-38 35.5t-41.5 7q-27 0 -49.5 -8t-40 -32.5t-26.5 -70.5 t-9 -120zM1104 659h207v3q0 88 -24.5 117.5t-74.5 29.5q-49 0 -76.5 -33t-31.5 -117z" />
<glyph unicode="&#x178;" horiz-adv-x="1021" d="M-20 1382h460q16 -113 41 -224t56 -216q33 100 54 210t40 230h411q-72 -274 -149.5 -480t-169.5 -359v-543h-430v543q-96 182 -175 384.5t-138 454.5zM135 1622q0 88 38 119t140 31q104 0 139 -30t35 -116q0 -88 -37.5 -118.5t-140.5 -30.5q-104 0 -139 29.5t-35 115.5z M586 1622q0 88 38 119t140 31q104 0 139 -30t35 -116q0 -88 -38 -118.5t-140 -30.5q-104 0 -139 29.5t-35 115.5z" />
<glyph unicode="&#x2c6;" horiz-adv-x="718" d="M47 1262l322 268l303 -268l-99 -136l-213 129l-215 -127z" />
<glyph unicode="&#x2dc;" horiz-adv-x="841" d="M70 1274q39 90 103.5 143t158.5 53q41 0 74.5 -14t60.5 -30.5t45 -31t27 -14.5q16 0 30.5 19.5t42.5 73.5l154 -103q-47 -102 -113.5 -148t-152.5 -46q-49 0 -81 13t-55.5 30.5t-39 31t-29.5 13.5q-20 0 -34.5 -19.5t-37.5 -68.5z" />
<glyph unicode="&#x2000;" horiz-adv-x="937" />
<glyph unicode="&#x2001;" horiz-adv-x="1874" />
<glyph unicode="&#x2002;" horiz-adv-x="937" />
<glyph unicode="&#x2003;" horiz-adv-x="1874" />
<glyph unicode="&#x2004;" horiz-adv-x="624" />
<glyph unicode="&#x2005;" horiz-adv-x="468" />
<glyph unicode="&#x2006;" horiz-adv-x="312" />
<glyph unicode="&#x2007;" horiz-adv-x="312" />
<glyph unicode="&#x2008;" horiz-adv-x="234" />
<glyph unicode="&#x2009;" horiz-adv-x="374" />
<glyph unicode="&#x200a;" horiz-adv-x="104" />
<glyph unicode="&#x2010;" horiz-adv-x="495" d="M35 459v295h459v-295h-459z" />
<glyph unicode="&#x2011;" horiz-adv-x="495" d="M35 459v295h459v-295h-459z" />
<glyph unicode="&#x2012;" horiz-adv-x="495" d="M35 459v295h459v-295h-459z" />
<glyph unicode="&#x2013;" d="M90 477v283h846v-283h-846z" />
<glyph unicode="&#x2014;" horiz-adv-x="2048" d="M205 477v283h1640v-283h-1640z" />
<glyph unicode="&#x2018;" horiz-adv-x="628" d="M84 932q0 123 81 266t265 283l160 -117q-35 -29 -66.5 -65.5t-58.5 -72.5t-42 -66t-15 -46q0 -18 17 -29.5t36.5 -29t37 -46t17.5 -81.5q0 -115 -55 -158t-162 -43q-111 0 -163 41t-52 164z" />
<glyph unicode="&#x2019;" horiz-adv-x="628" d="M20 821q33 29 66 66t58.5 72.5t41 65.5t15.5 46q0 18 -17.5 29.5t-37 29t-37 46t-17.5 81.5q0 115 55.5 158t163.5 43q109 0 161 -41t52 -164t-81 -266t-265 -282z" />
<glyph unicode="&#x201a;" horiz-adv-x="628" d="M23 -260q33 29 64.5 65.5t57 71.5t42 64.5t16.5 46.5q0 14 -17.5 26.5t-37 30.5t-37 48t-17.5 83q0 115 55.5 158t165.5 43q113 0 166.5 -41t53.5 -162t-84 -267.5t-273 -283.5z" />
<glyph unicode="&#x201c;" horiz-adv-x="1062" d="M96 948q0 59 19.5 126t61.5 136.5t109.5 141t166.5 141.5l145 -111q-45 -29 -82 -64.5t-63.5 -70.5t-42 -65.5t-15.5 -48.5q0 -29 15.5 -42.5t35 -30t35 -44t15.5 -84.5q0 -104 -51.5 -146.5t-151.5 -42.5t-148.5 42t-48.5 163zM563 948q0 59 18.5 126t60.5 136.5 t107.5 140t161.5 138.5l146 -113q-41 -27 -77 -61.5t-62.5 -68.5t-42 -64.5t-15.5 -48.5q0 -29 15.5 -42.5t35 -30t35 -44t15.5 -84.5q0 -104 -51.5 -146.5t-149.5 -42.5q-102 0 -149.5 42t-47.5 163z" />
<glyph unicode="&#x201d;" horiz-adv-x="1062" d="M0 819q41 27 77 61.5t61.5 68.5t41 64.5t15.5 49.5q0 29 -15.5 42t-35 29.5t-35 44t-15.5 85.5q0 104 51.5 146t151.5 42t148.5 -42t48.5 -163t-79 -262t-272 -278zM459 813q43 29 79.5 64.5t63.5 70.5t42 65.5t15 49.5q0 29 -15 42t-34.5 29.5t-35 44t-15.5 85.5 q0 104 51.5 146t151.5 42t148 -42t48 -163q0 -59 -18 -125.5t-60 -136.5t-111 -141.5t-167 -141.5z" />
<glyph unicode="&#x201e;" horiz-adv-x="1062" d="M-8 -250q43 27 78.5 61.5t61.5 68.5t41 64.5t15 49.5q0 29 -15 42t-33.5 29.5t-34 44t-15.5 85.5q0 104 51.5 146t149.5 42q100 0 148 -42t48 -163t-78.5 -262t-269.5 -278zM453 -252q43 29 80.5 64.5t64.5 70.5t42 66t15 49q0 29 -15 42t-34.5 29.5t-35 44t-15.5 85.5 q0 104 51 146t150 42q100 0 148 -42t48 -163q0 -59 -18.5 -125.5t-60.5 -136.5t-109.5 -141.5t-165.5 -140.5z" />
<glyph unicode="&#x2022;" d="M57 614q0 94 36 178.5t98.5 146.5t145.5 98t179 36q94 0 178 -36t146.5 -98t98.5 -146.5t36 -178.5q0 -96 -36 -179t-98.5 -145.5t-146.5 -98t-178 -35.5q-96 0 -179 35.5t-145.5 98t-98.5 145.5t-36 179z" />
<glyph unicode="&#x2026;" horiz-adv-x="1591" d="M80 180q0 111 55 155t166 44q113 0 166 -43t53 -156t-54 -154.5t-165 -41.5t-166 42t-55 154zM582 180q0 57 5 96t26.5 61.5t65.5 33t120 10.5t120 -8t67.5 -31t29.5 -62t6 -100q0 -63 -6 -102t-29.5 -60.5t-68 -29.5t-119.5 -8q-76 0 -120 8t-65.5 29.5t-26.5 60.5 t-5 102zM1075 180q0 111 55.5 155t165.5 44q111 0 165.5 -43t54.5 -156t-54.5 -154.5t-165.5 -41.5t-166 42t-55 154z" />
<glyph unicode="&#x202f;" horiz-adv-x="374" />
<glyph unicode="&#x2039;" horiz-adv-x="632" d="M10 563l291 438l281 -83l-187 -355l185 -354l-281 -82z" />
<glyph unicode="&#x203a;" horiz-adv-x="632" d="M53 207l180 356l-180 355l281 81l289 -436l-291 -438z" />
<glyph unicode="&#x205f;" horiz-adv-x="468" />
<glyph unicode="&#x20ac;" d="M0 389v252h96q-2 18 -2 29.5v23.5v22.5t2 31.5h-96v251h121q47 203 180 308.5t324 105.5q109 0 205 -47t155 -141l-160 -183q-27 27 -62.5 44.5t-80.5 17.5q-104 0 -139 -105h188v-251h-223q-2 -16 -2 -24.5v-18.5v-28.5t2 -35.5h223v-252h-188q12 -49 49 -76.5t90 -27.5 t95 18.5t71 46.5l153 -203q-66 -80 -164 -129t-221 -49q-438 0 -499 420h-117z" />
<glyph unicode="&#x2122;" horiz-adv-x="888" d="M31 1255v127h278v-127h-57v-221h-158v221h-63zM324 1034q0 92 3 175t9 173h211l43 -157l39 157h196q8 -92 12.5 -174t6.5 -174h-148v144l-41 -144h-147l-45 144q0 -23 1 -63t1 -81h-141z" />
<glyph unicode="&#x25fc;" horiz-adv-x="1044" d="M0 0v1044h1044v-1044h-1044z" />
<glyph unicode="&#xfb01;" horiz-adv-x="1196" d="M12 782v260h84v76q0 86 16.5 153.5t54.5 115t101.5 72t157.5 24.5q72 0 131 -13.5t96 -29.5l-35 -246q-10 4 -26.5 6t-32.5 2q-33 0 -43 -16.5t-10 -50.5v-93h612v-1042h-409v782h-203v-782h-410v782h-84zM682 1294q0 55 11.5 92t39 58.5t71.5 30t109 8.5q74 0 119 -9.5 t69.5 -32t34 -58.5t9.5 -87q0 -59 -8.5 -97t-34 -60.5t-70.5 -31.5t-119 -9t-118.5 9t-70.5 31.5t-34 60.5t-8 95z" />
<glyph unicode="&#xfb02;" horiz-adv-x="1222" d="M12 782v260h84v50q0 96 17.5 169.5t64.5 123t127 74t207 24.5q49 0 109.5 -9.5t107.5 -21.5h383v-1094q0 -39 3 -60.5t10.5 -32.5t17.5 -13t24 -2h33l14 -234q-49 -18 -109.5 -28.5t-152.5 -10.5q-117 0 -183.5 46.5t-66.5 171.5v983q-23 10 -52 17t-58 7 q-49 0 -67.5 -19.5t-18.5 -66.5v-74h102v-260h-102v-782h-410v782h-84z" />
</font>
</defs>
</svg>
